%TF.GenerationSoftware,KiCad,Pcbnew,8.0.6*%
%TF.CreationDate,2025-12-01T17:23:22+09:00*%
%TF.ProjectId,circuit,63697263-7569-4742-9e6b-696361645f70,rev?*%
%TF.SameCoordinates,Original*%
%TF.FileFunction,Soldermask,Top*%
%TF.FilePolarity,Negative*%
%FSLAX46Y46*%
G04 Gerber Fmt 4.6, Leading zero omitted, Abs format (unit mm)*
G04 Created by KiCad (PCBNEW 8.0.6) date 2025-12-01 17:23:22*
%MOMM*%
%LPD*%
G01*
G04 APERTURE LIST*
G04 Aperture macros list*
%AMRoundRect*
0 Rectangle with rounded corners*
0 $1 Rounding radius*
0 $2 $3 $4 $5 $6 $7 $8 $9 X,Y pos of 4 corners*
0 Add a 4 corners polygon primitive as box body*
4,1,4,$2,$3,$4,$5,$6,$7,$8,$9,$2,$3,0*
0 Add four circle primitives for the rounded corners*
1,1,$1+$1,$2,$3*
1,1,$1+$1,$4,$5*
1,1,$1+$1,$6,$7*
1,1,$1+$1,$8,$9*
0 Add four rect primitives between the rounded corners*
20,1,$1+$1,$2,$3,$4,$5,0*
20,1,$1+$1,$4,$5,$6,$7,0*
20,1,$1+$1,$6,$7,$8,$9,0*
20,1,$1+$1,$8,$9,$2,$3,0*%
G04 Aperture macros list end*
%ADD10R,1.700000X1.700000*%
%ADD11O,1.700000X1.700000*%
%ADD12RoundRect,0.150000X-0.587500X-0.150000X0.587500X-0.150000X0.587500X0.150000X-0.587500X0.150000X0*%
%ADD13RoundRect,0.237500X-0.237500X0.250000X-0.237500X-0.250000X0.237500X-0.250000X0.237500X0.250000X0*%
%ADD14RoundRect,0.237500X-0.250000X-0.237500X0.250000X-0.237500X0.250000X0.237500X-0.250000X0.237500X0*%
%ADD15RoundRect,0.250000X0.750000X-0.600000X0.750000X0.600000X-0.750000X0.600000X-0.750000X-0.600000X0*%
%ADD16O,2.000000X1.700000*%
%ADD17RoundRect,0.237500X0.237500X-0.250000X0.237500X0.250000X-0.237500X0.250000X-0.237500X-0.250000X0*%
%ADD18RoundRect,0.237500X0.237500X-0.300000X0.237500X0.300000X-0.237500X0.300000X-0.237500X-0.300000X0*%
%ADD19RoundRect,0.237500X-0.237500X0.287500X-0.237500X-0.287500X0.237500X-0.287500X0.237500X0.287500X0*%
%ADD20RoundRect,0.237500X0.300000X0.237500X-0.300000X0.237500X-0.300000X-0.237500X0.300000X-0.237500X0*%
%ADD21RoundRect,0.250000X-0.350000X-0.625000X0.350000X-0.625000X0.350000X0.625000X-0.350000X0.625000X0*%
%ADD22O,1.200000X1.750000*%
%ADD23RoundRect,0.237500X0.250000X0.237500X-0.250000X0.237500X-0.250000X-0.237500X0.250000X-0.237500X0*%
%ADD24RoundRect,0.150000X0.512500X0.150000X-0.512500X0.150000X-0.512500X-0.150000X0.512500X-0.150000X0*%
%ADD25RoundRect,0.237500X-0.287500X-0.237500X0.287500X-0.237500X0.287500X0.237500X-0.287500X0.237500X0*%
%ADD26R,1.600000X1.600000*%
%ADD27C,1.600000*%
%ADD28RoundRect,0.150000X0.150000X-0.587500X0.150000X0.587500X-0.150000X0.587500X-0.150000X-0.587500X0*%
%ADD29RoundRect,0.250000X-0.725000X0.600000X-0.725000X-0.600000X0.725000X-0.600000X0.725000X0.600000X0*%
%ADD30O,1.950000X1.700000*%
%ADD31R,3.500000X3.500000*%
%ADD32RoundRect,0.750000X-0.750000X-1.000000X0.750000X-1.000000X0.750000X1.000000X-0.750000X1.000000X0*%
%ADD33RoundRect,0.875000X-0.875000X-0.875000X0.875000X-0.875000X0.875000X0.875000X-0.875000X0.875000X0*%
%ADD34O,1.600000X1.600000*%
G04 APERTURE END LIST*
D10*
%TO.C,J12*%
X90805000Y-74295000D03*
D11*
X90805000Y-76835000D03*
X88265000Y-74295000D03*
X88265000Y-76835000D03*
%TD*%
D12*
%TO.C,Q2*%
X131475000Y-51755000D03*
X131475000Y-53655000D03*
X133350000Y-52705000D03*
%TD*%
D13*
%TO.C,R7*%
X92075000Y-81360000D03*
X92075000Y-83185000D03*
%TD*%
D14*
%TO.C,R6*%
X130890000Y-83185000D03*
X132715000Y-83185000D03*
%TD*%
D15*
%TO.C,J3*%
X124460000Y-60960000D03*
D16*
X124460000Y-58460000D03*
%TD*%
D17*
%TO.C,R9*%
X119380000Y-61515000D03*
X119380000Y-59690000D03*
%TD*%
D18*
%TO.C,C4*%
X92075000Y-89535000D03*
X92075000Y-87810000D03*
%TD*%
D12*
%TO.C,Q1*%
X123190000Y-66680000D03*
X123190000Y-68580000D03*
X125065000Y-67630000D03*
%TD*%
D19*
%TO.C,D5*%
X138430000Y-51590000D03*
X138430000Y-53340000D03*
%TD*%
D20*
%TO.C,C3*%
X99065000Y-76200000D03*
X97340000Y-76200000D03*
%TD*%
D17*
%TO.C,R10*%
X119380000Y-74215000D03*
X119380000Y-72390000D03*
%TD*%
D21*
%TO.C,J7*%
X124810000Y-87630000D03*
D22*
X126810000Y-87630000D03*
X128810000Y-87630000D03*
X130810000Y-87630000D03*
X132810000Y-87630000D03*
%TD*%
D12*
%TO.C,Q5*%
X123855000Y-51755000D03*
X123855000Y-53655000D03*
X125730000Y-52705000D03*
%TD*%
D23*
%TO.C,R4*%
X114855000Y-71120000D03*
X113030000Y-71120000D03*
%TD*%
D24*
%TO.C,U1*%
X89535000Y-90485000D03*
X89535000Y-89535000D03*
X89535000Y-88585000D03*
X87260000Y-88585000D03*
X87260000Y-89535000D03*
X87260000Y-90485000D03*
%TD*%
D10*
%TO.C,J11*%
X105410000Y-68580000D03*
D11*
X105410000Y-66040000D03*
X107950000Y-68580000D03*
X107950000Y-66040000D03*
%TD*%
D17*
%TO.C,R12*%
X138430000Y-74215000D03*
X138430000Y-72390000D03*
%TD*%
D12*
%TO.C,Q3*%
X131475000Y-66360000D03*
X131475000Y-68260000D03*
X133350000Y-67310000D03*
%TD*%
D15*
%TO.C,J10*%
X133350000Y-76835000D03*
D16*
X133350000Y-74335000D03*
%TD*%
D25*
%TO.C,D1*%
X96520000Y-52070000D03*
X98270000Y-52070000D03*
%TD*%
D19*
%TO.C,D4*%
X119380000Y-66830000D03*
X119380000Y-68580000D03*
%TD*%
D23*
%TO.C,R1*%
X102870000Y-52070000D03*
X101045000Y-52070000D03*
%TD*%
D26*
%TO.C,C1*%
X106990000Y-58420000D03*
D27*
X110490000Y-58420000D03*
%TD*%
D19*
%TO.C,D3*%
X119380000Y-55400000D03*
X119380000Y-57150000D03*
%TD*%
D28*
%TO.C,U2*%
X97165000Y-72995000D03*
X99065000Y-72995000D03*
X98115000Y-71120000D03*
%TD*%
D17*
%TO.C,R11*%
X138430000Y-58975000D03*
X138430000Y-57150000D03*
%TD*%
D21*
%TO.C,J5*%
X108300000Y-82000000D03*
D22*
X110300000Y-82000000D03*
X112300000Y-82000000D03*
X114300000Y-82000000D03*
%TD*%
D13*
%TO.C,R8*%
X102870000Y-81995000D03*
X102870000Y-83820000D03*
%TD*%
D15*
%TO.C,J9*%
X133350000Y-60920000D03*
D16*
X133350000Y-58420000D03*
%TD*%
D18*
%TO.C,C2*%
X101600000Y-71120000D03*
X101600000Y-69395000D03*
%TD*%
D17*
%TO.C,R5*%
X137160000Y-93622500D03*
X137160000Y-91797500D03*
%TD*%
D21*
%TO.C,J4*%
X108300000Y-89620000D03*
D22*
X110300000Y-89620000D03*
X112300000Y-89620000D03*
X114300000Y-89620000D03*
%TD*%
D19*
%TO.C,D2*%
X88900000Y-81435000D03*
X88900000Y-83185000D03*
%TD*%
D21*
%TO.C,J6*%
X108300000Y-74577500D03*
D22*
X110300000Y-74577500D03*
X112300000Y-74577500D03*
X114300000Y-74577500D03*
%TD*%
D19*
%TO.C,D6*%
X138430000Y-66830000D03*
X138430000Y-68580000D03*
%TD*%
D13*
%TO.C,R3*%
X119380000Y-80010000D03*
X119380000Y-81835000D03*
%TD*%
%TO.C,R2*%
X118745000Y-88345000D03*
X118745000Y-90170000D03*
%TD*%
D29*
%TO.C,J2*%
X97790000Y-82550000D03*
D30*
X97790000Y-85050000D03*
X97790000Y-87550000D03*
X97790000Y-90050000D03*
%TD*%
D31*
%TO.C,J1*%
X101250000Y-61272500D03*
D32*
X95250000Y-61272500D03*
D33*
X98250000Y-65972500D03*
%TD*%
D15*
%TO.C,J8*%
X124460000Y-76835000D03*
D16*
X124460000Y-74335000D03*
%TD*%
D26*
%TO.C,A1*%
X98425000Y-96520000D03*
D34*
X100965000Y-96520000D03*
X103505000Y-96520000D03*
X106045000Y-96520000D03*
X108585000Y-96520000D03*
X111125000Y-96520000D03*
X113665000Y-96520000D03*
X116205000Y-96520000D03*
X121285000Y-96520000D03*
X123825000Y-96520000D03*
X126365000Y-96520000D03*
X128905000Y-96520000D03*
X131445000Y-96520000D03*
X133985000Y-96520000D03*
X133985000Y-48260000D03*
X131445000Y-48260000D03*
X128905000Y-48260000D03*
X126365000Y-48260000D03*
X123825000Y-48260000D03*
X121285000Y-48260000D03*
X118745000Y-48260000D03*
X116205000Y-48260000D03*
X112145000Y-48260000D03*
X109605000Y-48260000D03*
X107065000Y-48260000D03*
X104525000Y-48260000D03*
X101985000Y-48260000D03*
X99445000Y-48260000D03*
X96905000Y-48260000D03*
X94365000Y-48260000D03*
X91825000Y-48260000D03*
X89285000Y-48260000D03*
%TD*%
M02*
