M48
; DRILL file {KiCad 8.0.6} date 2025-12-01T17:18:33+0900
; FORMAT={-:-/ absolute / inch / decimal}
; #@! TF.CreationDate,2025-12-01T17:18:33+09:00
; #@! TF.GenerationSoftware,Kicad,Pcbnew,8.0.6
; #@! TF.FileFunction,Plated,1,2,PTH
FMAT,2
INCH
; #@! TA.AperFunction,Plated,PTH,ViaDrill
T1C0.0118
; #@! TA.AperFunction,Plated,PTH,ComponentDrill
T2C0.0295
; #@! TA.AperFunction,Plated,PTH,ComponentDrill
T3C0.0315
; #@! TA.AperFunction,Plated,PTH,ComponentDrill
T4C0.0374
; #@! TA.AperFunction,Plated,PTH,ComponentDrill
T5C0.0394
%
G90
G05
T1
X3.39Y-1.85
X3.39Y-1.93
X3.4Y-3.79
X3.4Y-3.87
X3.42Y-3.62
X3.47Y-3.14
X3.47Y-3.87
X3.48Y-2.77
X3.48Y-2.84
X3.48Y-3.67
X3.52Y-3.34
X3.52Y-3.39
X3.53Y-2.07
X3.53Y-2.84
X3.55Y-2.36
X3.55Y-2.43
X3.55Y-2.5
X3.56Y-3.18
X3.57Y-3.33
X3.57Y-3.38
X3.58Y-2.02
X3.58Y-3.53
X3.58Y-3.63
X3.64Y-3.63
X3.67Y-3.15
X3.68Y-3.38
X3.68Y-3.47
X3.7Y-2.06
X3.72Y-2.84
X3.73Y-2.0
X3.74Y-2.11
X3.75Y-2.78
X3.75Y-2.9
X3.75Y-3.63
X3.76Y-2.99
X3.76Y-3.33
X3.76Y-3.47
X3.76Y-3.52
X3.77Y-3.28
X3.78Y-2.94
X3.78Y-3.04
X3.81Y-2.78
X3.85Y-2.94
X3.88Y-3.11
X3.9Y-2.15
X3.9Y-2.73
X3.92Y-3.07
X3.96Y-2.88
X3.96Y-2.94
X3.98Y-2.62
X3.99Y-3.35
X4.01Y-3.59
X4.02Y-2.87
X4.02Y-2.93
X4.03Y-3.44
X4.05Y-3.37
X4.05Y-3.63
X4.06Y-2.72
X4.06Y-3.15
X4.07Y-2.85
X4.07Y-3.48
X4.1Y-3.68
X4.11Y-3.34
X4.11Y-3.52
X4.12Y-3.09
X4.13Y-2.0
X4.13Y-2.06
X4.13Y-2.13
X4.15Y-3.3
X4.15Y-3.57
X4.19Y-3.7
X4.2Y-3.1
X4.225Y-2.8
X4.29Y-2.49
X4.29Y-3.7
X4.3Y-2.83
X4.34Y-2.6
X4.34Y-3.39
X4.35Y-2.78
X4.37Y-2.49
X4.38Y-3.7
X4.42Y-2.72
X4.44Y-2.49
X4.47Y-2.67
X4.48Y-2.3
X4.48Y-3.7
X4.49Y-1.82
X4.49Y-1.99
X4.52Y-2.62
X4.54Y-2.3
X4.56Y-3.71
X4.58Y-3.38
X4.6Y-2.53
X4.6Y-2.6
X4.6Y-2.67
X4.6Y-2.74
X4.61Y-2.3
X4.61Y-3.07
X4.63Y-2.95
X4.64Y-3.1
X4.65Y-2.475
X4.65Y-3.275
X4.66Y-3.82
X4.675Y-3.625
X4.68Y-2.99
X4.7Y-3.3
X4.7Y-3.35
X4.72Y-1.98
X4.72Y-2.03
X4.72Y-3.03
X4.725Y-3.675
X4.73Y-2.48
X4.75Y-2.1
X4.75Y-2.275
X4.75Y-3.575
X4.76Y-2.5
X4.76Y-2.74
X4.76Y-2.78
X4.76Y-2.82
X4.76Y-2.9
X4.77Y-1.82
X4.77Y-3.08
X4.77Y-3.88
X4.775Y-2.325
X4.775Y-3.675
X4.79Y-2.67
X4.8Y-3.625
X4.81Y-3.18
X4.81Y-3.25
X4.81Y-3.32
X4.81Y-3.39
X4.825Y-2.175
X4.825Y-2.3
X4.825Y-3.675
X4.83Y-2.78
X4.85Y-1.82
X4.875Y-2.175
X4.875Y-3.675
X4.88Y-3.88
X4.97Y-2.03
X4.97Y-2.88
X4.974Y-1.994
X4.975Y-2.525
X4.98Y-2.48
X5.01Y-3.52
X5.05Y-2.0
X5.05Y-2.62
X5.07Y-2.58
X5.075Y-2.05
X5.075Y-2.1
X5.075Y-2.15
X5.09Y-2.69
X5.1Y-2.225
X5.1Y-2.61
X5.1Y-3.62
X5.12Y-3.05
X5.125Y-1.975
X5.125Y-2.175
X5.14Y-3.52
X5.16Y-3.67
X5.18Y-2.79
X5.2Y-2.175
X5.22Y-3.71
X5.23Y-3.17
X5.25Y-3.61
X5.28Y-3.71
X5.29Y-3.22
X5.29Y-3.34
X5.3Y-2.475
X5.3Y-2.57
X5.3Y-3.66
X5.32Y-3.28
X5.32Y-3.61
X5.325Y-1.975
X5.325Y-2.1
X5.325Y-2.15
X5.325Y-2.25
X5.325Y-2.35
X5.375Y-2.1
X5.375Y-2.15
X5.39Y-3.47
X5.43Y-1.83
X5.45Y-2.425
X5.45Y-2.5
X5.45Y-2.55
X5.45Y-3.52
X5.46Y-1.88
X5.47Y-2.99
T2
X4.2638Y-2.9361
X4.2638Y-3.2283
X4.2638Y-3.5283
X4.3425Y-2.9361
X4.3425Y-3.2283
X4.3425Y-3.5283
X4.4213Y-2.9361
X4.4213Y-3.2283
X4.4213Y-3.5283
X4.5Y-2.9361
X4.5Y-3.2283
X4.5Y-3.5283
X4.9138Y-3.45
X4.9925Y-3.45
X5.0713Y-3.45
X5.15Y-3.45
X5.2287Y-3.45
T3
X4.2122Y-2.3
X4.35Y-2.3
T4
X3.85Y-3.25
X3.85Y-3.3484
X3.85Y-3.4469
X3.85Y-3.5453
T5
X3.475Y-2.925
X3.475Y-3.025
X3.5152Y-1.9
X3.575Y-2.925
X3.575Y-3.025
X3.6152Y-1.9
X3.7152Y-1.9
X3.8152Y-1.9
X3.875Y-3.8
X3.9152Y-1.9
X3.975Y-3.8
X4.0152Y-1.9
X4.075Y-3.8
X4.1152Y-1.9
X4.15Y-2.6
X4.15Y-2.7
X4.175Y-3.8
X4.2152Y-1.9
X4.25Y-2.6
X4.25Y-2.7
X4.275Y-3.8
X4.3152Y-1.9
X4.375Y-3.8
X4.4152Y-1.9
X4.475Y-3.8
X4.575Y-1.9
X4.575Y-3.8
X4.675Y-1.9
X4.775Y-1.9
X4.775Y-3.8
X4.875Y-1.9
X4.875Y-3.8
X4.9Y-2.3016
X4.9Y-2.4
X4.9Y-2.9266
X4.9Y-3.025
X4.975Y-1.9
X4.975Y-3.8
X5.075Y-1.9
X5.075Y-3.8
X5.175Y-1.9
X5.175Y-3.8
X5.25Y-2.3
X5.25Y-2.3984
X5.25Y-2.9266
X5.25Y-3.025
X5.275Y-1.9
X5.275Y-3.8
T5
G00X3.75Y-2.3729
M15
G01X3.75Y-2.4517
M16
G05
G00X3.8287Y-2.5973
M15
G01X3.9075Y-2.5973
M16
G05
G00X3.9862Y-2.3729
M15
G01X3.9862Y-2.4517
M16
G05
M30
