%TF.GenerationSoftware,KiCad,Pcbnew,8.0.6*%
%TF.CreationDate,2025-12-01T17:23:22+09:00*%
%TF.ProjectId,circuit,63697263-7569-4742-9e6b-696361645f70,rev?*%
%TF.SameCoordinates,Original*%
%TF.FileFunction,Copper,L1,Top*%
%TF.FilePolarity,Positive*%
%FSLAX46Y46*%
G04 Gerber Fmt 4.6, Leading zero omitted, Abs format (unit mm)*
G04 Created by KiCad (PCBNEW 8.0.6) date 2025-12-01 17:23:22*
%MOMM*%
%LPD*%
G01*
G04 APERTURE LIST*
G04 Aperture macros list*
%AMRoundRect*
0 Rectangle with rounded corners*
0 $1 Rounding radius*
0 $2 $3 $4 $5 $6 $7 $8 $9 X,Y pos of 4 corners*
0 Add a 4 corners polygon primitive as box body*
4,1,4,$2,$3,$4,$5,$6,$7,$8,$9,$2,$3,0*
0 Add four circle primitives for the rounded corners*
1,1,$1+$1,$2,$3*
1,1,$1+$1,$4,$5*
1,1,$1+$1,$6,$7*
1,1,$1+$1,$8,$9*
0 Add four rect primitives between the rounded corners*
20,1,$1+$1,$2,$3,$4,$5,0*
20,1,$1+$1,$4,$5,$6,$7,0*
20,1,$1+$1,$6,$7,$8,$9,0*
20,1,$1+$1,$8,$9,$2,$3,0*%
G04 Aperture macros list end*
%TA.AperFunction,ComponentPad*%
%ADD10R,1.700000X1.700000*%
%TD*%
%TA.AperFunction,ComponentPad*%
%ADD11O,1.700000X1.700000*%
%TD*%
%TA.AperFunction,SMDPad,CuDef*%
%ADD12RoundRect,0.150000X-0.587500X-0.150000X0.587500X-0.150000X0.587500X0.150000X-0.587500X0.150000X0*%
%TD*%
%TA.AperFunction,SMDPad,CuDef*%
%ADD13RoundRect,0.237500X-0.237500X0.250000X-0.237500X-0.250000X0.237500X-0.250000X0.237500X0.250000X0*%
%TD*%
%TA.AperFunction,SMDPad,CuDef*%
%ADD14RoundRect,0.237500X-0.250000X-0.237500X0.250000X-0.237500X0.250000X0.237500X-0.250000X0.237500X0*%
%TD*%
%TA.AperFunction,ComponentPad*%
%ADD15RoundRect,0.250000X0.750000X-0.600000X0.750000X0.600000X-0.750000X0.600000X-0.750000X-0.600000X0*%
%TD*%
%TA.AperFunction,ComponentPad*%
%ADD16O,2.000000X1.700000*%
%TD*%
%TA.AperFunction,SMDPad,CuDef*%
%ADD17RoundRect,0.237500X0.237500X-0.250000X0.237500X0.250000X-0.237500X0.250000X-0.237500X-0.250000X0*%
%TD*%
%TA.AperFunction,SMDPad,CuDef*%
%ADD18RoundRect,0.237500X0.237500X-0.300000X0.237500X0.300000X-0.237500X0.300000X-0.237500X-0.300000X0*%
%TD*%
%TA.AperFunction,SMDPad,CuDef*%
%ADD19RoundRect,0.237500X-0.237500X0.287500X-0.237500X-0.287500X0.237500X-0.287500X0.237500X0.287500X0*%
%TD*%
%TA.AperFunction,SMDPad,CuDef*%
%ADD20RoundRect,0.237500X0.300000X0.237500X-0.300000X0.237500X-0.300000X-0.237500X0.300000X-0.237500X0*%
%TD*%
%TA.AperFunction,ComponentPad*%
%ADD21RoundRect,0.250000X-0.350000X-0.625000X0.350000X-0.625000X0.350000X0.625000X-0.350000X0.625000X0*%
%TD*%
%TA.AperFunction,ComponentPad*%
%ADD22O,1.200000X1.750000*%
%TD*%
%TA.AperFunction,SMDPad,CuDef*%
%ADD23RoundRect,0.237500X0.250000X0.237500X-0.250000X0.237500X-0.250000X-0.237500X0.250000X-0.237500X0*%
%TD*%
%TA.AperFunction,SMDPad,CuDef*%
%ADD24RoundRect,0.150000X0.512500X0.150000X-0.512500X0.150000X-0.512500X-0.150000X0.512500X-0.150000X0*%
%TD*%
%TA.AperFunction,SMDPad,CuDef*%
%ADD25RoundRect,0.237500X-0.287500X-0.237500X0.287500X-0.237500X0.287500X0.237500X-0.287500X0.237500X0*%
%TD*%
%TA.AperFunction,ComponentPad*%
%ADD26R,1.600000X1.600000*%
%TD*%
%TA.AperFunction,ComponentPad*%
%ADD27C,1.600000*%
%TD*%
%TA.AperFunction,SMDPad,CuDef*%
%ADD28RoundRect,0.150000X0.150000X-0.587500X0.150000X0.587500X-0.150000X0.587500X-0.150000X-0.587500X0*%
%TD*%
%TA.AperFunction,ComponentPad*%
%ADD29RoundRect,0.250000X-0.725000X0.600000X-0.725000X-0.600000X0.725000X-0.600000X0.725000X0.600000X0*%
%TD*%
%TA.AperFunction,ComponentPad*%
%ADD30O,1.950000X1.700000*%
%TD*%
%TA.AperFunction,ComponentPad*%
%ADD31R,3.500000X3.500000*%
%TD*%
%TA.AperFunction,ComponentPad*%
%ADD32RoundRect,0.750000X-0.750000X-1.000000X0.750000X-1.000000X0.750000X1.000000X-0.750000X1.000000X0*%
%TD*%
%TA.AperFunction,ComponentPad*%
%ADD33RoundRect,0.875000X-0.875000X-0.875000X0.875000X-0.875000X0.875000X0.875000X-0.875000X0.875000X0*%
%TD*%
%TA.AperFunction,ComponentPad*%
%ADD34O,1.600000X1.600000*%
%TD*%
%TA.AperFunction,ViaPad*%
%ADD35C,0.600000*%
%TD*%
%TA.AperFunction,Conductor*%
%ADD36C,0.600000*%
%TD*%
%TA.AperFunction,Conductor*%
%ADD37C,0.400000*%
%TD*%
%TA.AperFunction,Conductor*%
%ADD38C,0.200000*%
%TD*%
G04 APERTURE END LIST*
D10*
%TO.P,J12,1,Pin_1*%
%TO.N,+5V*%
X90805000Y-74295000D03*
D11*
%TO.P,J12,2,Pin_2*%
X90805000Y-76835000D03*
%TO.P,J12,3,Pin_3*%
%TO.N,GND*%
X88265000Y-74295000D03*
%TO.P,J12,4,Pin_4*%
X88265000Y-76835000D03*
%TD*%
D12*
%TO.P,Q2,1,G*%
%TO.N,VALVE3*%
X131475000Y-51755000D03*
%TO.P,Q2,2,S*%
%TO.N,GND*%
X131475000Y-53655000D03*
%TO.P,Q2,3,D*%
%TO.N,Net-(J9-Pin_2)*%
X133350000Y-52705000D03*
%TD*%
D13*
%TO.P,R7,1*%
%TO.N,+5V*%
X92075000Y-81360000D03*
%TO.P,R7,2*%
%TO.N,Net-(D2-A)*%
X92075000Y-83185000D03*
%TD*%
D14*
%TO.P,R6,1*%
%TO.N,FLOW_SENSE*%
X130890000Y-83185000D03*
%TO.P,R6,2*%
%TO.N,GND*%
X132715000Y-83185000D03*
%TD*%
D15*
%TO.P,J3,1,Pin_1*%
%TO.N,+24V*%
X124460000Y-60960000D03*
D16*
%TO.P,J3,2,Pin_2*%
%TO.N,Net-(J3-Pin_2)*%
X124460000Y-58460000D03*
%TD*%
D17*
%TO.P,R9,1*%
%TO.N,+5V*%
X119380000Y-61515000D03*
%TO.P,R9,2*%
%TO.N,Net-(D3-A)*%
X119380000Y-59690000D03*
%TD*%
D18*
%TO.P,C4,1*%
%TO.N,GND*%
X92075000Y-89535000D03*
%TO.P,C4,2*%
%TO.N,+5V*%
X92075000Y-87810000D03*
%TD*%
D12*
%TO.P,Q1,1,G*%
%TO.N,VALVE2*%
X123190000Y-66680000D03*
%TO.P,Q1,2,S*%
%TO.N,GND*%
X123190000Y-68580000D03*
%TO.P,Q1,3,D*%
%TO.N,Net-(J8-Pin_2)*%
X125065000Y-67630000D03*
%TD*%
D19*
%TO.P,D5,1,K*%
%TO.N,VALVE3*%
X138430000Y-51590000D03*
%TO.P,D5,2,A*%
%TO.N,Net-(D5-A)*%
X138430000Y-53340000D03*
%TD*%
D20*
%TO.P,C3,1*%
%TO.N,+5V*%
X99065000Y-76200000D03*
%TO.P,C3,2*%
%TO.N,GND*%
X97340000Y-76200000D03*
%TD*%
D17*
%TO.P,R10,1*%
%TO.N,+5V*%
X119380000Y-74215000D03*
%TO.P,R10,2*%
%TO.N,Net-(D4-A)*%
X119380000Y-72390000D03*
%TD*%
D21*
%TO.P,J7,1,Pin_1*%
%TO.N,+24V*%
X124810000Y-87630000D03*
D22*
%TO.P,J7,2,Pin_2*%
%TO.N,unconnected-(J7-Pin_2-Pad2)*%
X126810000Y-87630000D03*
%TO.P,J7,3,Pin_3*%
%TO.N,unconnected-(J7-Pin_3-Pad3)*%
X128810000Y-87630000D03*
%TO.P,J7,4,Pin_4*%
%TO.N,FLOW_SENSE*%
X130810000Y-87630000D03*
%TO.P,J7,5,Pin_5*%
%TO.N,GND*%
X132810000Y-87630000D03*
%TD*%
D12*
%TO.P,Q5,1,G*%
%TO.N,VALVE1*%
X123855000Y-51755000D03*
%TO.P,Q5,2,S*%
%TO.N,GND*%
X123855000Y-53655000D03*
%TO.P,Q5,3,D*%
%TO.N,Net-(J3-Pin_2)*%
X125730000Y-52705000D03*
%TD*%
D23*
%TO.P,R4,1*%
%TO.N,PRESSURE3_SENSE*%
X114855000Y-71120000D03*
%TO.P,R4,2*%
%TO.N,GND*%
X113030000Y-71120000D03*
%TD*%
D24*
%TO.P,U1,1,VOUT*%
%TO.N,REG_INPUT*%
X89535000Y-90485000D03*
%TO.P,U1,2,VSS*%
%TO.N,GND*%
X89535000Y-89535000D03*
%TO.P,U1,3,VDD*%
%TO.N,+5V*%
X89535000Y-88585000D03*
%TO.P,U1,4,SDA*%
%TO.N,SDA*%
X87260000Y-88585000D03*
%TO.P,U1,5,SCL*%
%TO.N,SCL*%
X87260000Y-89535000D03*
%TO.P,U1,6,A0*%
%TO.N,unconnected-(U1-A0-Pad6)*%
X87260000Y-90485000D03*
%TD*%
D10*
%TO.P,J11,1,Pin_1*%
%TO.N,+24V*%
X105410000Y-68580000D03*
D11*
%TO.P,J11,2,Pin_2*%
X105410000Y-66040000D03*
%TO.P,J11,3,Pin_3*%
%TO.N,GND*%
X107950000Y-68580000D03*
%TO.P,J11,4,Pin_4*%
X107950000Y-66040000D03*
%TD*%
D17*
%TO.P,R12,1*%
%TO.N,+5V*%
X138430000Y-74215000D03*
%TO.P,R12,2*%
%TO.N,Net-(D6-A)*%
X138430000Y-72390000D03*
%TD*%
D12*
%TO.P,Q3,1,G*%
%TO.N,VALVE4*%
X131475000Y-66360000D03*
%TO.P,Q3,2,S*%
%TO.N,GND*%
X131475000Y-68260000D03*
%TO.P,Q3,3,D*%
%TO.N,Net-(J10-Pin_2)*%
X133350000Y-67310000D03*
%TD*%
D15*
%TO.P,J10,1,Pin_1*%
%TO.N,+24V*%
X133350000Y-76835000D03*
D16*
%TO.P,J10,2,Pin_2*%
%TO.N,Net-(J10-Pin_2)*%
X133350000Y-74335000D03*
%TD*%
D25*
%TO.P,D1,1,K*%
%TO.N,GND*%
X96520000Y-52070000D03*
%TO.P,D1,2,A*%
%TO.N,Net-(D1-A)*%
X98270000Y-52070000D03*
%TD*%
D19*
%TO.P,D4,1,K*%
%TO.N,VALVE2*%
X119380000Y-66830000D03*
%TO.P,D4,2,A*%
%TO.N,Net-(D4-A)*%
X119380000Y-68580000D03*
%TD*%
D23*
%TO.P,R1,1*%
%TO.N,+24V*%
X102870000Y-52070000D03*
%TO.P,R1,2*%
%TO.N,Net-(D1-A)*%
X101045000Y-52070000D03*
%TD*%
D26*
%TO.P,C1,1*%
%TO.N,+24V*%
X106990000Y-58420000D03*
D27*
%TO.P,C1,2*%
%TO.N,GND*%
X110490000Y-58420000D03*
%TD*%
D19*
%TO.P,D3,1,K*%
%TO.N,VALVE1*%
X119380000Y-55400000D03*
%TO.P,D3,2,A*%
%TO.N,Net-(D3-A)*%
X119380000Y-57150000D03*
%TD*%
D28*
%TO.P,U2,1,GND*%
%TO.N,GND*%
X97165000Y-72995000D03*
%TO.P,U2,2,VO*%
%TO.N,+5V*%
X99065000Y-72995000D03*
%TO.P,U2,3,VI*%
%TO.N,+24V*%
X98115000Y-71120000D03*
%TD*%
D17*
%TO.P,R11,1*%
%TO.N,+5V*%
X138430000Y-58975000D03*
%TO.P,R11,2*%
%TO.N,Net-(D5-A)*%
X138430000Y-57150000D03*
%TD*%
D21*
%TO.P,J5,1,Pin_1*%
%TO.N,+24V*%
X108300000Y-82000000D03*
D22*
%TO.P,J5,2,Pin_2*%
%TO.N,unconnected-(J5-Pin_2-Pad2)*%
X110300000Y-82000000D03*
%TO.P,J5,3,Pin_3*%
%TO.N,GND*%
X112300000Y-82000000D03*
%TO.P,J5,4,Pin_4*%
%TO.N,PRESSURE2_SENSE*%
X114300000Y-82000000D03*
%TD*%
D13*
%TO.P,R8,1*%
%TO.N,REG_SENSE*%
X102870000Y-81995000D03*
%TO.P,R8,2*%
%TO.N,GND*%
X102870000Y-83820000D03*
%TD*%
D15*
%TO.P,J9,1,Pin_1*%
%TO.N,+24V*%
X133350000Y-60920000D03*
D16*
%TO.P,J9,2,Pin_2*%
%TO.N,Net-(J9-Pin_2)*%
X133350000Y-58420000D03*
%TD*%
D18*
%TO.P,C2,1*%
%TO.N,+24V*%
X101600000Y-71120000D03*
%TO.P,C2,2*%
%TO.N,GND*%
X101600000Y-69395000D03*
%TD*%
D17*
%TO.P,R5,1*%
%TO.N,Net-(A1-SCL{slash}A5-Pad14)*%
X137160000Y-93622500D03*
%TO.P,R5,2*%
%TO.N,GND*%
X137160000Y-91797500D03*
%TD*%
D21*
%TO.P,J4,1,Pin_1*%
%TO.N,+24V*%
X108300000Y-89620000D03*
D22*
%TO.P,J4,2,Pin_2*%
%TO.N,unconnected-(J4-Pin_2-Pad2)*%
X110300000Y-89620000D03*
%TO.P,J4,3,Pin_3*%
%TO.N,GND*%
X112300000Y-89620000D03*
%TO.P,J4,4,Pin_4*%
%TO.N,PRESSURE1_SENSE*%
X114300000Y-89620000D03*
%TD*%
D19*
%TO.P,D2,1,K*%
%TO.N,GND*%
X88900000Y-81435000D03*
%TO.P,D2,2,A*%
%TO.N,Net-(D2-A)*%
X88900000Y-83185000D03*
%TD*%
D21*
%TO.P,J6,1,Pin_1*%
%TO.N,+24V*%
X108300000Y-74577500D03*
D22*
%TO.P,J6,2,Pin_2*%
%TO.N,unconnected-(J6-Pin_2-Pad2)*%
X110300000Y-74577500D03*
%TO.P,J6,3,Pin_3*%
%TO.N,GND*%
X112300000Y-74577500D03*
%TO.P,J6,4,Pin_4*%
%TO.N,PRESSURE3_SENSE*%
X114300000Y-74577500D03*
%TD*%
D19*
%TO.P,D6,1,K*%
%TO.N,VALVE4*%
X138430000Y-66830000D03*
%TO.P,D6,2,A*%
%TO.N,Net-(D6-A)*%
X138430000Y-68580000D03*
%TD*%
D13*
%TO.P,R3,1*%
%TO.N,PRESSURE2_SENSE*%
X119380000Y-80010000D03*
%TO.P,R3,2*%
%TO.N,GND*%
X119380000Y-81835000D03*
%TD*%
%TO.P,R2,1*%
%TO.N,PRESSURE1_SENSE*%
X118745000Y-88345000D03*
%TO.P,R2,2*%
%TO.N,GND*%
X118745000Y-90170000D03*
%TD*%
D29*
%TO.P,J2,1,Pin_1*%
%TO.N,+24V*%
X97790000Y-82550000D03*
D30*
%TO.P,J2,2,Pin_2*%
%TO.N,REG_SENSE*%
X97790000Y-85050000D03*
%TO.P,J2,3,Pin_3*%
%TO.N,GND*%
X97790000Y-87550000D03*
%TO.P,J2,4,Pin_4*%
%TO.N,REG_INPUT*%
X97790000Y-90050000D03*
%TD*%
D31*
%TO.P,J1,1*%
%TO.N,+24V*%
X101250000Y-61272500D03*
D32*
%TO.P,J1,2*%
%TO.N,GND*%
X95250000Y-61272500D03*
D33*
%TO.P,J1,3*%
%TO.N,unconnected-(J1-Pad3)*%
X98250000Y-65972500D03*
%TD*%
D15*
%TO.P,J8,1,Pin_1*%
%TO.N,+24V*%
X124460000Y-76835000D03*
D16*
%TO.P,J8,2,Pin_2*%
%TO.N,Net-(J8-Pin_2)*%
X124460000Y-74335000D03*
%TD*%
D26*
%TO.P,A1,1,NC*%
%TO.N,unconnected-(A1-NC-Pad1)*%
X98425000Y-96520000D03*
D34*
%TO.P,A1,2,IOREF*%
%TO.N,unconnected-(A1-IOREF-Pad2)*%
X100965000Y-96520000D03*
%TO.P,A1,3,~{RESET}*%
%TO.N,unconnected-(A1-~{RESET}-Pad3)*%
X103505000Y-96520000D03*
%TO.P,A1,4,3V3*%
%TO.N,unconnected-(A1-3V3-Pad4)*%
X106045000Y-96520000D03*
%TO.P,A1,5,+5V*%
%TO.N,unconnected-(A1-+5V-Pad5)*%
X108585000Y-96520000D03*
%TO.P,A1,6,GND*%
%TO.N,GND*%
X111125000Y-96520000D03*
%TO.P,A1,7,GND*%
X113665000Y-96520000D03*
%TO.P,A1,8,VIN*%
%TO.N,unconnected-(A1-VIN-Pad8)*%
X116205000Y-96520000D03*
%TO.P,A1,9,A0*%
%TO.N,REG_SENSE*%
X121285000Y-96520000D03*
%TO.P,A1,10,A1*%
%TO.N,FLOW_SENSE*%
X123825000Y-96520000D03*
%TO.P,A1,11,A2*%
%TO.N,PRESSURE1_SENSE*%
X126365000Y-96520000D03*
%TO.P,A1,12,A3*%
%TO.N,PRESSURE2_SENSE*%
X128905000Y-96520000D03*
%TO.P,A1,13,SDA/A4*%
%TO.N,PRESSURE3_SENSE*%
X131445000Y-96520000D03*
%TO.P,A1,14,SCL/A5*%
%TO.N,Net-(A1-SCL{slash}A5-Pad14)*%
X133985000Y-96520000D03*
%TO.P,A1,15,D0/RX*%
%TO.N,unconnected-(A1-D0{slash}RX-Pad15)*%
X133985000Y-48260000D03*
%TO.P,A1,16,D1/TX*%
%TO.N,unconnected-(A1-D1{slash}TX-Pad16)*%
X131445000Y-48260000D03*
%TO.P,A1,17,D2*%
%TO.N,VALVE1*%
X128905000Y-48260000D03*
%TO.P,A1,18,D3*%
%TO.N,VALVE2*%
X126365000Y-48260000D03*
%TO.P,A1,19,D4*%
%TO.N,VALVE3*%
X123825000Y-48260000D03*
%TO.P,A1,20,D5*%
%TO.N,VALVE4*%
X121285000Y-48260000D03*
%TO.P,A1,21,D6*%
%TO.N,unconnected-(A1-D6-Pad21)*%
X118745000Y-48260000D03*
%TO.P,A1,22,D7*%
%TO.N,unconnected-(A1-D7-Pad22)*%
X116205000Y-48260000D03*
%TO.P,A1,23,D8*%
%TO.N,unconnected-(A1-D8-Pad23)*%
X112145000Y-48260000D03*
%TO.P,A1,24,D9*%
%TO.N,unconnected-(A1-D9-Pad24)*%
X109605000Y-48260000D03*
%TO.P,A1,25,D10*%
%TO.N,unconnected-(A1-D10-Pad25)*%
X107065000Y-48260000D03*
%TO.P,A1,26,D11*%
%TO.N,unconnected-(A1-D11-Pad26)*%
X104525000Y-48260000D03*
%TO.P,A1,27,D12*%
%TO.N,unconnected-(A1-D12-Pad27)*%
X101985000Y-48260000D03*
%TO.P,A1,28,D13*%
%TO.N,unconnected-(A1-D13-Pad28)*%
X99445000Y-48260000D03*
%TO.P,A1,29,GND*%
%TO.N,GND*%
X96905000Y-48260000D03*
%TO.P,A1,30,AREF*%
%TO.N,unconnected-(A1-AREF-Pad30)*%
X94365000Y-48260000D03*
%TO.P,A1,31,SDA/A4*%
%TO.N,SDA*%
X91825000Y-48260000D03*
%TO.P,A1,32,SCL/A5*%
%TO.N,SCL*%
X89285000Y-48260000D03*
%TD*%
D35*
%TO.N,GND*%
X90678000Y-85852000D03*
X130048000Y-77470000D03*
X100584000Y-73152000D03*
X116840000Y-67818000D03*
X123190000Y-46228000D03*
X86106000Y-49022000D03*
X95250000Y-73660000D03*
X118364000Y-97028000D03*
X97790000Y-74676000D03*
X117856000Y-78740000D03*
X114808000Y-66548000D03*
X138430000Y-89408000D03*
X135128000Y-83312000D03*
X122555000Y-55245000D03*
X138684000Y-47752000D03*
X120142000Y-62992000D03*
X135128000Y-91694000D03*
X120904000Y-69596000D03*
X117602000Y-74930000D03*
X120015000Y-93345000D03*
X118110000Y-83185000D03*
X102870000Y-92202000D03*
X122174000Y-84328000D03*
X122555000Y-93345000D03*
X130556000Y-89408000D03*
X103378000Y-72390000D03*
X136906000Y-88138000D03*
X135255000Y-59690000D03*
X114046000Y-50546000D03*
X93472000Y-88138000D03*
X128270000Y-66548000D03*
X126340026Y-50648026D03*
X102870000Y-85598000D03*
X131572000Y-70866000D03*
X120904000Y-73660000D03*
X122174000Y-80772000D03*
X105410000Y-90678000D03*
X103124000Y-80010000D03*
X90932000Y-92202000D03*
X116840000Y-66040000D03*
X134620000Y-65278000D03*
X134112000Y-94234000D03*
X96012000Y-74676000D03*
X134366000Y-81788000D03*
X131064000Y-93218000D03*
X129286000Y-68326000D03*
X101092000Y-66548000D03*
X126238000Y-51562000D03*
X90424000Y-80772000D03*
X95250000Y-70612000D03*
X119888000Y-76962000D03*
X89662000Y-52578000D03*
X132588000Y-94234000D03*
X102108000Y-74422000D03*
X121666000Y-67818000D03*
X106680000Y-78740000D03*
X119888000Y-50292000D03*
X86360000Y-96266000D03*
X95504000Y-88138000D03*
X130175000Y-55245000D03*
X88392000Y-72136000D03*
X94742000Y-50800000D03*
X104902000Y-50800000D03*
X122555000Y-58420000D03*
X130175000Y-50165000D03*
X94996000Y-53594000D03*
X121158000Y-98552000D03*
X104140000Y-93472000D03*
X121920000Y-92075000D03*
X99060000Y-69342000D03*
X112268000Y-69088000D03*
X100584000Y-74676000D03*
X86360000Y-98298000D03*
X132080000Y-55245000D03*
X95504000Y-75946000D03*
X96774000Y-70612000D03*
X104394000Y-89408000D03*
X89408000Y-86106000D03*
X103124000Y-69088000D03*
X119888000Y-51562000D03*
X132842000Y-80518000D03*
X123825000Y-93345000D03*
X116332000Y-85852000D03*
X104902000Y-52324000D03*
X137922000Y-46482000D03*
X108966000Y-63246000D03*
X99568000Y-77978000D03*
X88392000Y-93218000D03*
X134620000Y-92964000D03*
X121285000Y-93345000D03*
X93980000Y-52324000D03*
X119380000Y-83820000D03*
X114046000Y-46228000D03*
X90678000Y-84582000D03*
X86106000Y-46990000D03*
X102108000Y-72898000D03*
X123952000Y-98552000D03*
X123825000Y-55245000D03*
X128905000Y-54610000D03*
X96012000Y-77216000D03*
X101346000Y-85090000D03*
X116840000Y-69596000D03*
X110236000Y-66040000D03*
X88138000Y-79756000D03*
X90932000Y-51308000D03*
X90932000Y-89662000D03*
X112776000Y-63246000D03*
X95250000Y-92202000D03*
X113538000Y-67818000D03*
X128778000Y-65532000D03*
X93218000Y-80010000D03*
X110998000Y-63246000D03*
X120904000Y-71628000D03*
X121158000Y-78232000D03*
X128905000Y-52070000D03*
X134366000Y-84836000D03*
X127254000Y-89408000D03*
X135255000Y-53340000D03*
X136525000Y-54610000D03*
X122682000Y-70612000D03*
X133350000Y-91694000D03*
X106426000Y-93980000D03*
X104902000Y-54102000D03*
X94488000Y-72136000D03*
X95504000Y-89408000D03*
X134620000Y-62865000D03*
X103378000Y-88392000D03*
X88392000Y-70358000D03*
X92456000Y-92202000D03*
X105410000Y-83820000D03*
X95504000Y-84582000D03*
X135255000Y-57150000D03*
X111252000Y-93980000D03*
X90170000Y-63500000D03*
X118872000Y-75946000D03*
X138938000Y-75946000D03*
X109220000Y-71882000D03*
X88138000Y-98298000D03*
X90170000Y-59944000D03*
X121158000Y-46228000D03*
X115316000Y-58420000D03*
X98552000Y-78994000D03*
X110490000Y-70612000D03*
X119380000Y-85090000D03*
X108966000Y-93980000D03*
X95758000Y-83312000D03*
X120904000Y-70612000D03*
X101854000Y-91186000D03*
X90170000Y-61722000D03*
X122174000Y-82550000D03*
X138430000Y-63500000D03*
X93472000Y-85852000D03*
X138430000Y-64770000D03*
X126238000Y-73152000D03*
X136525000Y-53340000D03*
X129540000Y-66294000D03*
X89662000Y-72136000D03*
X86868000Y-91948000D03*
X121285000Y-59055000D03*
X113792000Y-93980000D03*
X117094000Y-58420000D03*
X118745000Y-92075000D03*
X129540000Y-91948000D03*
X99060000Y-54610000D03*
X116840000Y-64262000D03*
X122174000Y-86106000D03*
X135255000Y-50165000D03*
X89408000Y-84836000D03*
X115824000Y-94234000D03*
X117094000Y-77978000D03*
X102362000Y-87376000D03*
X120904000Y-63500000D03*
X110236000Y-86106000D03*
X120650000Y-90805000D03*
X126492000Y-62992000D03*
X104394000Y-84836000D03*
X120650000Y-57785000D03*
X104648000Y-78486000D03*
X113792000Y-58420000D03*
X135255000Y-54610000D03*
X128905000Y-53340000D03*
%TO.N,VALVE4*%
X120650000Y-53340000D03*
X129540000Y-56515000D03*
%TO.N,VALVE2*%
X128270000Y-50800000D03*
%TO.N,+5V*%
X107315000Y-71120000D03*
X138430000Y-61595000D03*
X118110000Y-62865000D03*
X126365000Y-64135000D03*
%TD*%
D36*
%TO.N,FLOW_SENSE*%
X130890000Y-87550000D02*
X130810000Y-87630000D01*
X137069564Y-90170000D02*
X139065000Y-92165436D01*
X130890000Y-83185000D02*
X130890000Y-87550000D01*
X133350000Y-90170000D02*
X137069564Y-90170000D01*
X130810000Y-87630000D02*
X133350000Y-90170000D01*
X133985000Y-99060000D02*
X126365000Y-99060000D01*
X139065000Y-92165436D02*
X139065000Y-93980000D01*
X126365000Y-99060000D02*
X123825000Y-96520000D01*
X139065000Y-93980000D02*
X133985000Y-99060000D01*
%TO.N,REG_SENSE*%
X100845000Y-81995000D02*
X97790000Y-85050000D01*
X116205000Y-92710000D02*
X105450000Y-92710000D01*
X120015000Y-96520000D02*
X116205000Y-92710000D01*
X105450000Y-92710000D02*
X97790000Y-85050000D01*
X121285000Y-96520000D02*
X120015000Y-96520000D01*
X102870000Y-81995000D02*
X100845000Y-81995000D01*
D37*
%TO.N,SDA*%
X87630000Y-67945000D02*
X86995000Y-68580000D01*
X86995000Y-88320000D02*
X87260000Y-88585000D01*
X91825000Y-48260000D02*
X87630000Y-52455000D01*
X86995000Y-68580000D02*
X86995000Y-88320000D01*
X87630000Y-52455000D02*
X87630000Y-67945000D01*
D36*
%TO.N,PRESSURE3_SENSE*%
X125730000Y-92075000D02*
X127000000Y-92075000D01*
X114300000Y-74577500D02*
X115500000Y-74577500D01*
X114855000Y-74022500D02*
X114300000Y-74577500D01*
X120650000Y-86995000D02*
X125730000Y-92075000D01*
X120650000Y-79727500D02*
X120650000Y-86995000D01*
X114855000Y-71120000D02*
X114855000Y-74022500D01*
X127000000Y-92075000D02*
X131445000Y-96520000D01*
X115500000Y-74577500D02*
X120650000Y-79727500D01*
D38*
%TO.N,GND*%
X126823052Y-50165000D02*
X126340026Y-50648026D01*
D37*
X88872501Y-89535000D02*
X88322500Y-88984999D01*
X88900000Y-81435000D02*
X88900000Y-77470000D01*
X99822000Y-94234000D02*
X99314000Y-94234000D01*
X99314000Y-94234000D02*
X91694000Y-94234000D01*
X100838000Y-93218000D02*
X99822000Y-94234000D01*
D36*
X132715000Y-87535000D02*
X132810000Y-87630000D01*
D37*
X88472500Y-89935001D02*
X88872501Y-89535000D01*
X100838000Y-90598000D02*
X100838000Y-93218000D01*
D38*
X126340026Y-50648026D02*
X123855000Y-53133052D01*
X130175000Y-50165000D02*
X126823052Y-50165000D01*
D36*
X88265000Y-74295000D02*
X88265000Y-76835000D01*
D37*
X97790000Y-87550000D02*
X100838000Y-90598000D01*
D36*
X132715000Y-83185000D02*
X132715000Y-87535000D01*
D37*
X88900000Y-77470000D02*
X88265000Y-76835000D01*
X88322500Y-84040642D02*
X87884000Y-83602142D01*
X88322500Y-88984999D02*
X88322500Y-84040642D01*
D36*
X101600000Y-67310000D02*
X110490000Y-58420000D01*
X101600000Y-69395000D02*
X101600000Y-67310000D01*
D37*
X88472500Y-91012500D02*
X88472500Y-89935001D01*
X87884000Y-83602142D02*
X87884000Y-80010000D01*
X88872501Y-89535000D02*
X89535000Y-89535000D01*
X87884000Y-80010000D02*
X88138000Y-79756000D01*
X91694000Y-94234000D02*
X88472500Y-91012500D01*
D38*
X123855000Y-53133052D02*
X123855000Y-53655000D01*
D36*
%TO.N,PRESSURE1_SENSE*%
X115575000Y-88345000D02*
X114300000Y-89620000D01*
X114300000Y-89620000D02*
X119295000Y-94615000D01*
X119295000Y-94615000D02*
X124460000Y-94615000D01*
X124460000Y-94615000D02*
X126365000Y-96520000D01*
X118745000Y-88345000D02*
X115575000Y-88345000D01*
%TO.N,Net-(A1-SCL{slash}A5-Pad14)*%
X133985000Y-96520000D02*
X134262500Y-96520000D01*
X134262500Y-96520000D02*
X137160000Y-93622500D01*
D37*
%TO.N,VALVE4*%
X131475000Y-66360000D02*
X129540000Y-64425000D01*
X137960000Y-66360000D02*
X131475000Y-66360000D01*
X120650000Y-53340000D02*
X121285000Y-52705000D01*
X129540000Y-64425000D02*
X129540000Y-56515000D01*
X138430000Y-66830000D02*
X137960000Y-66360000D01*
X121285000Y-52705000D02*
X121285000Y-48260000D01*
%TO.N,VALVE1*%
X119855000Y-55400000D02*
X119380000Y-55400000D01*
X122743000Y-51755000D02*
X122174000Y-52324000D01*
X125222000Y-49530000D02*
X123855000Y-50897000D01*
X123855000Y-51755000D02*
X122743000Y-51755000D01*
X128905000Y-48260000D02*
X127635000Y-49530000D01*
X123855000Y-50897000D02*
X123855000Y-51755000D01*
X122174000Y-52324000D02*
X122174000Y-53081000D01*
X122174000Y-53081000D02*
X119855000Y-55400000D01*
X127635000Y-49530000D02*
X125222000Y-49530000D01*
D36*
%TO.N,PRESSURE2_SENSE*%
X114300000Y-82000000D02*
X114385000Y-82000000D01*
X119380000Y-80010000D02*
X116290000Y-80010000D01*
X116290000Y-80010000D02*
X114300000Y-82000000D01*
X114385000Y-82000000D02*
X128905000Y-96520000D01*
D37*
%TO.N,SCL*%
X86597501Y-89535000D02*
X86197500Y-89134999D01*
X86197500Y-89134999D02*
X86197500Y-51347500D01*
X86197500Y-51347500D02*
X89285000Y-48260000D01*
X87260000Y-89535000D02*
X86597501Y-89535000D01*
%TO.N,VALVE3*%
X138430000Y-50165000D02*
X135255000Y-46990000D01*
X131475000Y-51755000D02*
X132212499Y-51755000D01*
X138430000Y-51590000D02*
X138430000Y-50165000D01*
X125095000Y-46990000D02*
X123825000Y-48260000D01*
X135255000Y-46990000D02*
X125095000Y-46990000D01*
X132212499Y-51755000D02*
X132377499Y-51590000D01*
X132377499Y-51590000D02*
X138430000Y-51590000D01*
%TO.N,VALVE2*%
X123190000Y-66680000D02*
X119530000Y-66680000D01*
X127635000Y-62230000D02*
X127635000Y-51435000D01*
X125725000Y-66680000D02*
X127000000Y-65405000D01*
X119530000Y-66680000D02*
X119380000Y-66830000D01*
X127635000Y-51435000D02*
X128270000Y-50800000D01*
X123190000Y-66680000D02*
X125725000Y-66680000D01*
X127000000Y-65405000D02*
X127635000Y-64770000D01*
X127635000Y-64770000D02*
X127635000Y-62230000D01*
D36*
%TO.N,+24V*%
X101600000Y-71120000D02*
X102870000Y-71120000D01*
X102870000Y-71120000D02*
X105410000Y-68580000D01*
D38*
X102870000Y-54300000D02*
X106990000Y-58420000D01*
D36*
X101600000Y-71120000D02*
X98115000Y-71120000D01*
D38*
X102870000Y-52070000D02*
X102870000Y-54300000D01*
D36*
%TO.N,+5V*%
X90805000Y-74295000D02*
X90805000Y-76835000D01*
X92075000Y-84722064D02*
X92075000Y-87810000D01*
X96525000Y-80272064D02*
X92075000Y-84722064D01*
D37*
X118070000Y-72905000D02*
X118070000Y-62865000D01*
X119380000Y-74215000D02*
X120750000Y-75585000D01*
D36*
X95437064Y-81360000D02*
X96525000Y-80272064D01*
X102235000Y-76200000D02*
X107315000Y-71120000D01*
D37*
X120015000Y-64770000D02*
X125730000Y-64770000D01*
D36*
X92075000Y-81360000D02*
X95437064Y-81360000D01*
X90310000Y-87810000D02*
X89535000Y-88585000D01*
D37*
X125730000Y-64770000D02*
X126365000Y-64135000D01*
D36*
X92710000Y-78740000D02*
X90805000Y-76835000D01*
X96525000Y-78740000D02*
X96525000Y-80272064D01*
X92075000Y-87810000D02*
X90310000Y-87810000D01*
D37*
X137060000Y-75585000D02*
X138430000Y-74215000D01*
D36*
X96525000Y-78740000D02*
X92710000Y-78740000D01*
D37*
X119380000Y-74215000D02*
X118070000Y-72905000D01*
D36*
X99065000Y-76200000D02*
X102235000Y-76200000D01*
X99065000Y-72995000D02*
X99065000Y-76200000D01*
D37*
X120750000Y-75585000D02*
X137060000Y-75585000D01*
X118070000Y-62865000D02*
X118070000Y-62825000D01*
D36*
X99065000Y-76200000D02*
X96525000Y-78740000D01*
D37*
X118110000Y-62865000D02*
X120015000Y-64770000D01*
X118070000Y-62865000D02*
X118110000Y-62865000D01*
X138430000Y-61595000D02*
X138430000Y-58975000D01*
X118070000Y-62825000D02*
X119380000Y-61515000D01*
D38*
%TO.N,Net-(D1-A)*%
X101045000Y-52070000D02*
X98270000Y-52070000D01*
D37*
%TO.N,Net-(D2-A)*%
X92075000Y-83185000D02*
X88900000Y-83185000D01*
%TO.N,Net-(D3-A)*%
X119380000Y-57150000D02*
X119380000Y-59690000D01*
%TO.N,Net-(D4-A)*%
X119380000Y-68580000D02*
X119380000Y-72390000D01*
%TO.N,Net-(D5-A)*%
X138430000Y-53340000D02*
X138430000Y-57150000D01*
%TO.N,Net-(D6-A)*%
X138430000Y-68580000D02*
X138430000Y-72390000D01*
D36*
%TO.N,REG_INPUT*%
X89958394Y-90908394D02*
X96931606Y-90908394D01*
X89535000Y-90485000D02*
X89958394Y-90908394D01*
X96931606Y-90908394D02*
X97790000Y-90050000D01*
%TO.N,Net-(J3-Pin_2)*%
X125730000Y-52705000D02*
X125730000Y-57190000D01*
X125730000Y-57190000D02*
X124460000Y-58460000D01*
%TO.N,Net-(J8-Pin_2)*%
X124460000Y-68235000D02*
X124460000Y-74335000D01*
X125065000Y-67630000D02*
X124460000Y-68235000D01*
%TO.N,Net-(J9-Pin_2)*%
X133350000Y-52705000D02*
X133350000Y-58420000D01*
%TO.N,Net-(J10-Pin_2)*%
X133350000Y-67310000D02*
X133350000Y-74335000D01*
%TD*%
%TA.AperFunction,Conductor*%
%TO.N,GND*%
G36*
X113199075Y-96327007D02*
G01*
X113165000Y-96454174D01*
X113165000Y-96585826D01*
X113199075Y-96712993D01*
X113231988Y-96770000D01*
X111558012Y-96770000D01*
X111590925Y-96712993D01*
X111625000Y-96585826D01*
X111625000Y-96454174D01*
X111590925Y-96327007D01*
X111558012Y-96270000D01*
X113231988Y-96270000D01*
X113199075Y-96327007D01*
G37*
%TD.AperFunction*%
%TA.AperFunction,Conductor*%
G36*
X99401289Y-87802740D02*
G01*
X99434259Y-87826337D01*
X104939707Y-93331786D01*
X104939711Y-93331789D01*
X105070814Y-93419390D01*
X105070827Y-93419397D01*
X105183148Y-93465921D01*
X105216503Y-93479737D01*
X105371153Y-93510499D01*
X105371156Y-93510500D01*
X105371158Y-93510500D01*
X105528842Y-93510500D01*
X115822060Y-93510500D01*
X115889099Y-93530185D01*
X115909741Y-93546819D01*
X119504707Y-97141786D01*
X119504711Y-97141789D01*
X119635814Y-97229390D01*
X119635818Y-97229392D01*
X119635821Y-97229394D01*
X119781503Y-97289738D01*
X119936153Y-97320499D01*
X119936157Y-97320500D01*
X119936158Y-97320500D01*
X120194951Y-97320500D01*
X120261990Y-97340185D01*
X120282632Y-97356819D01*
X120445858Y-97520045D01*
X120445861Y-97520047D01*
X120632266Y-97650568D01*
X120838504Y-97746739D01*
X121058308Y-97805635D01*
X121220230Y-97819801D01*
X121284998Y-97825468D01*
X121285000Y-97825468D01*
X121285002Y-97825468D01*
X121341807Y-97820498D01*
X121511692Y-97805635D01*
X121731496Y-97746739D01*
X121937734Y-97650568D01*
X122124139Y-97520047D01*
X122285047Y-97359139D01*
X122415568Y-97172734D01*
X122442618Y-97114724D01*
X122488790Y-97062285D01*
X122555983Y-97043133D01*
X122622865Y-97063348D01*
X122667382Y-97114725D01*
X122694429Y-97172728D01*
X122694432Y-97172734D01*
X122824954Y-97359141D01*
X122985858Y-97520045D01*
X122985861Y-97520047D01*
X123172266Y-97650568D01*
X123378504Y-97746739D01*
X123598308Y-97805635D01*
X123760230Y-97819801D01*
X123824998Y-97825468D01*
X123824999Y-97825468D01*
X123824999Y-97825467D01*
X123825000Y-97825468D01*
X123926839Y-97816557D01*
X123995336Y-97830323D01*
X124025326Y-97852404D01*
X125460741Y-99287819D01*
X125494226Y-99349142D01*
X125489242Y-99418834D01*
X125447370Y-99474767D01*
X125381906Y-99499184D01*
X125373060Y-99499500D01*
X85624500Y-99499500D01*
X85557461Y-99479815D01*
X85511706Y-99427011D01*
X85500500Y-99375500D01*
X85500500Y-95672135D01*
X97124500Y-95672135D01*
X97124500Y-97367870D01*
X97124501Y-97367876D01*
X97130908Y-97427483D01*
X97181202Y-97562328D01*
X97181206Y-97562335D01*
X97267452Y-97677544D01*
X97267455Y-97677547D01*
X97382664Y-97763793D01*
X97382671Y-97763797D01*
X97517517Y-97814091D01*
X97517516Y-97814091D01*
X97524444Y-97814835D01*
X97577127Y-97820500D01*
X99272872Y-97820499D01*
X99332483Y-97814091D01*
X99467331Y-97763796D01*
X99582546Y-97677546D01*
X99668796Y-97562331D01*
X99719091Y-97427483D01*
X99722862Y-97392401D01*
X99749599Y-97327855D01*
X99806990Y-97288006D01*
X99876816Y-97285511D01*
X99936905Y-97321163D01*
X99947726Y-97334536D01*
X99964956Y-97359143D01*
X100125858Y-97520045D01*
X100125861Y-97520047D01*
X100312266Y-97650568D01*
X100518504Y-97746739D01*
X100738308Y-97805635D01*
X100900230Y-97819801D01*
X100964998Y-97825468D01*
X100965000Y-97825468D01*
X100965002Y-97825468D01*
X101021807Y-97820498D01*
X101191692Y-97805635D01*
X101411496Y-97746739D01*
X101617734Y-97650568D01*
X101804139Y-97520047D01*
X101965047Y-97359139D01*
X102095568Y-97172734D01*
X102122618Y-97114724D01*
X102168790Y-97062285D01*
X102235983Y-97043133D01*
X102302865Y-97063348D01*
X102347382Y-97114725D01*
X102374429Y-97172728D01*
X102374432Y-97172734D01*
X102504954Y-97359141D01*
X102665858Y-97520045D01*
X102665861Y-97520047D01*
X102852266Y-97650568D01*
X103058504Y-97746739D01*
X103278308Y-97805635D01*
X103440230Y-97819801D01*
X103504998Y-97825468D01*
X103505000Y-97825468D01*
X103505002Y-97825468D01*
X103561807Y-97820498D01*
X103731692Y-97805635D01*
X103951496Y-97746739D01*
X104157734Y-97650568D01*
X104344139Y-97520047D01*
X104505047Y-97359139D01*
X104635568Y-97172734D01*
X104662618Y-97114724D01*
X104708790Y-97062285D01*
X104775983Y-97043133D01*
X104842865Y-97063348D01*
X104887382Y-97114725D01*
X104914429Y-97172728D01*
X104914432Y-97172734D01*
X105044954Y-97359141D01*
X105205858Y-97520045D01*
X105205861Y-97520047D01*
X105392266Y-97650568D01*
X105598504Y-97746739D01*
X105818308Y-97805635D01*
X105980230Y-97819801D01*
X106044998Y-97825468D01*
X106045000Y-97825468D01*
X106045002Y-97825468D01*
X106101807Y-97820498D01*
X106271692Y-97805635D01*
X106491496Y-97746739D01*
X106697734Y-97650568D01*
X106884139Y-97520047D01*
X107045047Y-97359139D01*
X107175568Y-97172734D01*
X107202618Y-97114724D01*
X107248790Y-97062285D01*
X107315983Y-97043133D01*
X107382865Y-97063348D01*
X107427382Y-97114725D01*
X107454429Y-97172728D01*
X107454432Y-97172734D01*
X107584954Y-97359141D01*
X107745858Y-97520045D01*
X107745861Y-97520047D01*
X107932266Y-97650568D01*
X108138504Y-97746739D01*
X108358308Y-97805635D01*
X108520230Y-97819801D01*
X108584998Y-97825468D01*
X108585000Y-97825468D01*
X108585002Y-97825468D01*
X108641807Y-97820498D01*
X108811692Y-97805635D01*
X109031496Y-97746739D01*
X109237734Y-97650568D01*
X109424139Y-97520047D01*
X109585047Y-97359139D01*
X109715568Y-97172734D01*
X109742895Y-97114129D01*
X109789064Y-97061695D01*
X109856257Y-97042542D01*
X109923139Y-97062757D01*
X109967657Y-97114133D01*
X109994865Y-97172482D01*
X110125342Y-97358820D01*
X110286179Y-97519657D01*
X110472517Y-97650134D01*
X110678673Y-97746265D01*
X110678682Y-97746269D01*
X110874999Y-97798872D01*
X110875000Y-97798871D01*
X110875000Y-96953012D01*
X110932007Y-96985925D01*
X111059174Y-97020000D01*
X111190826Y-97020000D01*
X111317993Y-96985925D01*
X111375000Y-96953012D01*
X111375000Y-97798872D01*
X111571317Y-97746269D01*
X111571326Y-97746265D01*
X111777482Y-97650134D01*
X111963820Y-97519657D01*
X112124657Y-97358820D01*
X112255134Y-97172481D01*
X112255135Y-97172479D01*
X112282618Y-97113543D01*
X112328790Y-97061103D01*
X112395983Y-97041951D01*
X112462864Y-97062166D01*
X112507382Y-97113543D01*
X112534864Y-97172479D01*
X112534865Y-97172481D01*
X112665342Y-97358820D01*
X112826179Y-97519657D01*
X113012517Y-97650134D01*
X113218673Y-97746265D01*
X113218682Y-97746269D01*
X113414999Y-97798872D01*
X113415000Y-97798871D01*
X113415000Y-96953012D01*
X113472007Y-96985925D01*
X113599174Y-97020000D01*
X113730826Y-97020000D01*
X113857993Y-96985925D01*
X113915000Y-96953012D01*
X113915000Y-97798872D01*
X114111317Y-97746269D01*
X114111326Y-97746265D01*
X114317482Y-97650134D01*
X114503820Y-97519657D01*
X114664657Y-97358820D01*
X114795132Y-97172484D01*
X114822341Y-97114134D01*
X114868513Y-97061695D01*
X114935707Y-97042542D01*
X115002588Y-97062757D01*
X115047106Y-97114133D01*
X115074431Y-97172732D01*
X115074432Y-97172734D01*
X115204954Y-97359141D01*
X115365858Y-97520045D01*
X115365861Y-97520047D01*
X115552266Y-97650568D01*
X115758504Y-97746739D01*
X115978308Y-97805635D01*
X116140230Y-97819801D01*
X116204998Y-97825468D01*
X116205000Y-97825468D01*
X116205002Y-97825468D01*
X116261807Y-97820498D01*
X116431692Y-97805635D01*
X116651496Y-97746739D01*
X116857734Y-97650568D01*
X117044139Y-97520047D01*
X117205047Y-97359139D01*
X117335568Y-97172734D01*
X117431739Y-96966496D01*
X117490635Y-96746692D01*
X117510468Y-96520000D01*
X117490635Y-96293308D01*
X117431739Y-96073504D01*
X117335568Y-95867266D01*
X117205047Y-95680861D01*
X117205045Y-95680858D01*
X117044141Y-95519954D01*
X116857734Y-95389432D01*
X116857732Y-95389431D01*
X116651497Y-95293261D01*
X116651488Y-95293258D01*
X116431697Y-95234366D01*
X116431693Y-95234365D01*
X116431692Y-95234365D01*
X116431691Y-95234364D01*
X116431686Y-95234364D01*
X116205002Y-95214532D01*
X116204998Y-95214532D01*
X115978313Y-95234364D01*
X115978302Y-95234366D01*
X115758511Y-95293258D01*
X115758502Y-95293261D01*
X115552267Y-95389431D01*
X115552265Y-95389432D01*
X115365858Y-95519954D01*
X115204954Y-95680858D01*
X115074433Y-95867264D01*
X115074432Y-95867266D01*
X115074315Y-95867518D01*
X115047106Y-95925867D01*
X115000933Y-95978306D01*
X114933739Y-95997457D01*
X114866858Y-95977241D01*
X114822342Y-95925865D01*
X114795135Y-95867520D01*
X114795134Y-95867518D01*
X114664657Y-95681179D01*
X114503820Y-95520342D01*
X114317482Y-95389865D01*
X114111328Y-95293734D01*
X113915000Y-95241127D01*
X113915000Y-96086988D01*
X113857993Y-96054075D01*
X113730826Y-96020000D01*
X113599174Y-96020000D01*
X113472007Y-96054075D01*
X113415000Y-96086988D01*
X113415000Y-95241127D01*
X113218671Y-95293734D01*
X113012517Y-95389865D01*
X112826179Y-95520342D01*
X112665342Y-95681179D01*
X112534865Y-95867517D01*
X112507382Y-95926457D01*
X112461210Y-95978896D01*
X112394016Y-95998048D01*
X112327135Y-95977832D01*
X112282618Y-95926457D01*
X112255134Y-95867517D01*
X112124657Y-95681179D01*
X111963820Y-95520342D01*
X111777482Y-95389865D01*
X111571328Y-95293734D01*
X111375000Y-95241127D01*
X111375000Y-96086988D01*
X111317993Y-96054075D01*
X111190826Y-96020000D01*
X111059174Y-96020000D01*
X110932007Y-96054075D01*
X110875000Y-96086988D01*
X110875000Y-95241127D01*
X110678671Y-95293734D01*
X110472517Y-95389865D01*
X110286179Y-95520342D01*
X110125342Y-95681179D01*
X109994867Y-95867515D01*
X109967657Y-95925867D01*
X109921484Y-95978306D01*
X109854290Y-95997457D01*
X109787409Y-95977241D01*
X109742893Y-95925865D01*
X109715685Y-95867518D01*
X109715568Y-95867266D01*
X109585047Y-95680861D01*
X109585045Y-95680858D01*
X109424141Y-95519954D01*
X109237734Y-95389432D01*
X109237732Y-95389431D01*
X109031497Y-95293261D01*
X109031488Y-95293258D01*
X108811697Y-95234366D01*
X108811693Y-95234365D01*
X108811692Y-95234365D01*
X108811691Y-95234364D01*
X108811686Y-95234364D01*
X108585002Y-95214532D01*
X108584998Y-95214532D01*
X108358313Y-95234364D01*
X108358302Y-95234366D01*
X108138511Y-95293258D01*
X108138502Y-95293261D01*
X107932267Y-95389431D01*
X107932265Y-95389432D01*
X107745858Y-95519954D01*
X107584954Y-95680858D01*
X107454432Y-95867265D01*
X107454431Y-95867267D01*
X107427382Y-95925275D01*
X107381209Y-95977714D01*
X107314016Y-95996866D01*
X107247135Y-95976650D01*
X107202618Y-95925275D01*
X107175686Y-95867520D01*
X107175568Y-95867266D01*
X107045047Y-95680861D01*
X107045045Y-95680858D01*
X106884141Y-95519954D01*
X106697734Y-95389432D01*
X106697732Y-95389431D01*
X106491497Y-95293261D01*
X106491488Y-95293258D01*
X106271697Y-95234366D01*
X106271693Y-95234365D01*
X106271692Y-95234365D01*
X106271691Y-95234364D01*
X106271686Y-95234364D01*
X106045002Y-95214532D01*
X106044998Y-95214532D01*
X105818313Y-95234364D01*
X105818302Y-95234366D01*
X105598511Y-95293258D01*
X105598502Y-95293261D01*
X105392267Y-95389431D01*
X105392265Y-95389432D01*
X105205858Y-95519954D01*
X105044954Y-95680858D01*
X104914432Y-95867265D01*
X104914431Y-95867267D01*
X104887382Y-95925275D01*
X104841209Y-95977714D01*
X104774016Y-95996866D01*
X104707135Y-95976650D01*
X104662618Y-95925275D01*
X104635686Y-95867520D01*
X104635568Y-95867266D01*
X104505047Y-95680861D01*
X104505045Y-95680858D01*
X104344141Y-95519954D01*
X104157734Y-95389432D01*
X104157732Y-95389431D01*
X103951497Y-95293261D01*
X103951488Y-95293258D01*
X103731697Y-95234366D01*
X103731693Y-95234365D01*
X103731692Y-95234365D01*
X103731691Y-95234364D01*
X103731686Y-95234364D01*
X103505002Y-95214532D01*
X103504998Y-95214532D01*
X103278313Y-95234364D01*
X103278302Y-95234366D01*
X103058511Y-95293258D01*
X103058502Y-95293261D01*
X102852267Y-95389431D01*
X102852265Y-95389432D01*
X102665858Y-95519954D01*
X102504954Y-95680858D01*
X102374432Y-95867265D01*
X102374431Y-95867267D01*
X102347382Y-95925275D01*
X102301209Y-95977714D01*
X102234016Y-95996866D01*
X102167135Y-95976650D01*
X102122618Y-95925275D01*
X102095686Y-95867520D01*
X102095568Y-95867266D01*
X101965047Y-95680861D01*
X101965045Y-95680858D01*
X101804141Y-95519954D01*
X101617734Y-95389432D01*
X101617732Y-95389431D01*
X101411497Y-95293261D01*
X101411488Y-95293258D01*
X101191697Y-95234366D01*
X101191693Y-95234365D01*
X101191692Y-95234365D01*
X101191691Y-95234364D01*
X101191686Y-95234364D01*
X100965002Y-95214532D01*
X100964998Y-95214532D01*
X100738313Y-95234364D01*
X100738302Y-95234366D01*
X100518511Y-95293258D01*
X100518502Y-95293261D01*
X100312267Y-95389431D01*
X100312265Y-95389432D01*
X100125858Y-95519954D01*
X99964954Y-95680858D01*
X99947725Y-95705464D01*
X99893147Y-95749088D01*
X99823648Y-95756280D01*
X99761294Y-95724757D01*
X99725882Y-95664526D01*
X99722861Y-95647591D01*
X99719091Y-95612516D01*
X99668797Y-95477671D01*
X99668793Y-95477664D01*
X99582547Y-95362455D01*
X99582544Y-95362452D01*
X99467335Y-95276206D01*
X99467328Y-95276202D01*
X99332482Y-95225908D01*
X99332483Y-95225908D01*
X99272883Y-95219501D01*
X99272881Y-95219500D01*
X99272873Y-95219500D01*
X99272864Y-95219500D01*
X97577129Y-95219500D01*
X97577123Y-95219501D01*
X97517516Y-95225908D01*
X97382671Y-95276202D01*
X97382664Y-95276206D01*
X97267455Y-95362452D01*
X97267452Y-95362455D01*
X97181206Y-95477664D01*
X97181202Y-95477671D01*
X97130908Y-95612517D01*
X97124501Y-95672116D01*
X97124500Y-95672135D01*
X85500500Y-95672135D01*
X85500500Y-89728018D01*
X85520185Y-89660979D01*
X85572989Y-89615224D01*
X85642147Y-89605280D01*
X85705703Y-89634305D01*
X85712181Y-89640337D01*
X86094056Y-90022212D01*
X86127541Y-90083535D01*
X86125452Y-90144487D01*
X86099901Y-90232432D01*
X86097000Y-90269298D01*
X86097000Y-90700701D01*
X86099901Y-90737567D01*
X86099902Y-90737573D01*
X86145754Y-90895393D01*
X86145755Y-90895396D01*
X86145756Y-90895398D01*
X86183181Y-90958681D01*
X86229232Y-91036550D01*
X86229418Y-91036864D01*
X86229423Y-91036870D01*
X86345629Y-91153076D01*
X86345633Y-91153079D01*
X86345635Y-91153081D01*
X86487102Y-91236744D01*
X86528724Y-91248836D01*
X86644926Y-91282597D01*
X86644929Y-91282597D01*
X86644931Y-91282598D01*
X86681806Y-91285500D01*
X86681814Y-91285500D01*
X87838186Y-91285500D01*
X87838194Y-91285500D01*
X87875069Y-91282598D01*
X87875071Y-91282597D01*
X87875073Y-91282597D01*
X87966013Y-91256176D01*
X88032898Y-91236744D01*
X88174365Y-91153081D01*
X88290581Y-91036865D01*
X88290767Y-91036549D01*
X88290977Y-91036353D01*
X88295361Y-91030702D01*
X88296272Y-91031409D01*
X88341836Y-90988866D01*
X88410577Y-90976362D01*
X88475167Y-91003006D01*
X88499355Y-91030921D01*
X88499639Y-91030702D01*
X88503679Y-91035911D01*
X88504232Y-91036548D01*
X88504419Y-91036865D01*
X88504421Y-91036867D01*
X88504423Y-91036870D01*
X88620629Y-91153076D01*
X88620633Y-91153079D01*
X88620635Y-91153081D01*
X88762102Y-91236744D01*
X88803724Y-91248836D01*
X88919926Y-91282597D01*
X88919929Y-91282597D01*
X88919931Y-91282598D01*
X88956806Y-91285500D01*
X89152060Y-91285500D01*
X89219099Y-91305185D01*
X89239741Y-91321819D01*
X89448101Y-91530180D01*
X89448105Y-91530183D01*
X89579208Y-91617784D01*
X89579212Y-91617786D01*
X89579215Y-91617788D01*
X89724897Y-91678132D01*
X89879547Y-91708893D01*
X89879551Y-91708894D01*
X89879552Y-91708894D01*
X97010450Y-91708894D01*
X97010451Y-91708893D01*
X97165103Y-91678131D01*
X97310785Y-91617788D01*
X97441895Y-91530183D01*
X97535260Y-91436817D01*
X97596581Y-91403334D01*
X97622940Y-91400500D01*
X98021286Y-91400500D01*
X98021287Y-91400500D01*
X98231243Y-91367246D01*
X98433412Y-91301557D01*
X98622816Y-91205051D01*
X98644789Y-91189086D01*
X98794786Y-91080109D01*
X98794788Y-91080106D01*
X98794792Y-91080104D01*
X98945104Y-90929792D01*
X98945106Y-90929788D01*
X98945109Y-90929786D01*
X99070048Y-90757820D01*
X99070047Y-90757820D01*
X99070051Y-90757816D01*
X99166557Y-90568412D01*
X99232246Y-90366243D01*
X99265500Y-90156287D01*
X99265500Y-89943713D01*
X99232246Y-89733757D01*
X99166557Y-89531588D01*
X99070051Y-89342184D01*
X99070049Y-89342181D01*
X99070048Y-89342179D01*
X98945109Y-89170213D01*
X98794790Y-89019894D01*
X98794785Y-89019890D01*
X98629781Y-88900008D01*
X98587115Y-88844678D01*
X98581136Y-88775065D01*
X98613741Y-88713270D01*
X98629781Y-88699371D01*
X98794466Y-88579721D01*
X98944723Y-88429464D01*
X98944727Y-88429459D01*
X99069620Y-88257557D01*
X99166096Y-88068215D01*
X99228647Y-87875701D01*
X99268084Y-87818025D01*
X99332442Y-87790826D01*
X99401289Y-87802740D01*
G37*
%TD.AperFunction*%
%TA.AperFunction,Conductor*%
G36*
X139442539Y-45520185D02*
G01*
X139488294Y-45572989D01*
X139499500Y-45624500D01*
X139499500Y-50808364D01*
X139479815Y-50875403D01*
X139427011Y-50921158D01*
X139357853Y-50931102D01*
X139294297Y-50902077D01*
X139269962Y-50873461D01*
X139250342Y-50841653D01*
X139250339Y-50841649D01*
X139166819Y-50758129D01*
X139133334Y-50696806D01*
X139130500Y-50670448D01*
X139130500Y-50096006D01*
X139126164Y-50074212D01*
X139126164Y-50074211D01*
X139103580Y-49960672D01*
X139060948Y-49857748D01*
X139050777Y-49833192D01*
X138974112Y-49718454D01*
X135701545Y-46445887D01*
X135586807Y-46369222D01*
X135459332Y-46316421D01*
X135459322Y-46316418D01*
X135323996Y-46289500D01*
X135323994Y-46289500D01*
X135323993Y-46289500D01*
X125026007Y-46289500D01*
X125026003Y-46289500D01*
X124917590Y-46311065D01*
X124917589Y-46311065D01*
X124890681Y-46316418D01*
X124890671Y-46316420D01*
X124763190Y-46369224D01*
X124648454Y-46445887D01*
X124155369Y-46938972D01*
X124094046Y-46972457D01*
X124056881Y-46974819D01*
X124051680Y-46974364D01*
X124032171Y-46972657D01*
X123825002Y-46954532D01*
X123824998Y-46954532D01*
X123598313Y-46974364D01*
X123598302Y-46974366D01*
X123378511Y-47033258D01*
X123378502Y-47033261D01*
X123172267Y-47129431D01*
X123172265Y-47129432D01*
X122985858Y-47259954D01*
X122824954Y-47420858D01*
X122694432Y-47607265D01*
X122694431Y-47607267D01*
X122667382Y-47665275D01*
X122621209Y-47717714D01*
X122554016Y-47736866D01*
X122487135Y-47716650D01*
X122442618Y-47665275D01*
X122415686Y-47607520D01*
X122415568Y-47607266D01*
X122285047Y-47420861D01*
X122285045Y-47420858D01*
X122124141Y-47259954D01*
X121937734Y-47129432D01*
X121937732Y-47129431D01*
X121731497Y-47033261D01*
X121731488Y-47033258D01*
X121511697Y-46974366D01*
X121511693Y-46974365D01*
X121511692Y-46974365D01*
X121511691Y-46974364D01*
X121511686Y-46974364D01*
X121285002Y-46954532D01*
X121284998Y-46954532D01*
X121058313Y-46974364D01*
X121058302Y-46974366D01*
X120838511Y-47033258D01*
X120838502Y-47033261D01*
X120632267Y-47129431D01*
X120632265Y-47129432D01*
X120445858Y-47259954D01*
X120284954Y-47420858D01*
X120154432Y-47607265D01*
X120154431Y-47607267D01*
X120127382Y-47665275D01*
X120081209Y-47717714D01*
X120014016Y-47736866D01*
X119947135Y-47716650D01*
X119902618Y-47665275D01*
X119875686Y-47607520D01*
X119875568Y-47607266D01*
X119745047Y-47420861D01*
X119745045Y-47420858D01*
X119584141Y-47259954D01*
X119397734Y-47129432D01*
X119397732Y-47129431D01*
X119191497Y-47033261D01*
X119191488Y-47033258D01*
X118971697Y-46974366D01*
X118971693Y-46974365D01*
X118971692Y-46974365D01*
X118971691Y-46974364D01*
X118971686Y-46974364D01*
X118745002Y-46954532D01*
X118744998Y-46954532D01*
X118518313Y-46974364D01*
X118518302Y-46974366D01*
X118298511Y-47033258D01*
X118298502Y-47033261D01*
X118092267Y-47129431D01*
X118092265Y-47129432D01*
X117905858Y-47259954D01*
X117744954Y-47420858D01*
X117614432Y-47607265D01*
X117614431Y-47607267D01*
X117587382Y-47665275D01*
X117541209Y-47717714D01*
X117474016Y-47736866D01*
X117407135Y-47716650D01*
X117362618Y-47665275D01*
X117335686Y-47607520D01*
X117335568Y-47607266D01*
X117205047Y-47420861D01*
X117205045Y-47420858D01*
X117044141Y-47259954D01*
X116857734Y-47129432D01*
X116857732Y-47129431D01*
X116651497Y-47033261D01*
X116651488Y-47033258D01*
X116431697Y-46974366D01*
X116431693Y-46974365D01*
X116431692Y-46974365D01*
X116431691Y-46974364D01*
X116431686Y-46974364D01*
X116205002Y-46954532D01*
X116204998Y-46954532D01*
X115978313Y-46974364D01*
X115978302Y-46974366D01*
X115758511Y-47033258D01*
X115758502Y-47033261D01*
X115552267Y-47129431D01*
X115552265Y-47129432D01*
X115365858Y-47259954D01*
X115204954Y-47420858D01*
X115074432Y-47607265D01*
X115074431Y-47607267D01*
X114978261Y-47813502D01*
X114978258Y-47813511D01*
X114919366Y-48033302D01*
X114919364Y-48033313D01*
X114899532Y-48259998D01*
X114899532Y-48260001D01*
X114919364Y-48486686D01*
X114919366Y-48486697D01*
X114978258Y-48706488D01*
X114978261Y-48706497D01*
X115074431Y-48912732D01*
X115074432Y-48912734D01*
X115204954Y-49099141D01*
X115365858Y-49260045D01*
X115365861Y-49260047D01*
X115552266Y-49390568D01*
X115758504Y-49486739D01*
X115978308Y-49545635D01*
X116137951Y-49559602D01*
X116204998Y-49565468D01*
X116205000Y-49565468D01*
X116205002Y-49565468D01*
X116261673Y-49560509D01*
X116431692Y-49545635D01*
X116651496Y-49486739D01*
X116857734Y-49390568D01*
X117044139Y-49260047D01*
X117205047Y-49099139D01*
X117335568Y-48912734D01*
X117362618Y-48854724D01*
X117408790Y-48802285D01*
X117475983Y-48783133D01*
X117542865Y-48803348D01*
X117587382Y-48854725D01*
X117614429Y-48912728D01*
X117614432Y-48912734D01*
X117744954Y-49099141D01*
X117905858Y-49260045D01*
X117905861Y-49260047D01*
X118092266Y-49390568D01*
X118298504Y-49486739D01*
X118518308Y-49545635D01*
X118677951Y-49559602D01*
X118744998Y-49565468D01*
X118745000Y-49565468D01*
X118745002Y-49565468D01*
X118801673Y-49560509D01*
X118971692Y-49545635D01*
X119191496Y-49486739D01*
X119397734Y-49390568D01*
X119584139Y-49260047D01*
X119745047Y-49099139D01*
X119875568Y-48912734D01*
X119902618Y-48854724D01*
X119948790Y-48802285D01*
X120015983Y-48783133D01*
X120082865Y-48803348D01*
X120127382Y-48854725D01*
X120154429Y-48912728D01*
X120154432Y-48912734D01*
X120284954Y-49099141D01*
X120445857Y-49260044D01*
X120445860Y-49260046D01*
X120445861Y-49260047D01*
X120531623Y-49320097D01*
X120575248Y-49374673D01*
X120584500Y-49421672D01*
X120584500Y-52363479D01*
X120564815Y-52430518D01*
X120548181Y-52451160D01*
X120450708Y-52548633D01*
X120403982Y-52577993D01*
X120300478Y-52614210D01*
X120300475Y-52614212D01*
X120147737Y-52710184D01*
X120020184Y-52837737D01*
X119924211Y-52990476D01*
X119864631Y-53160745D01*
X119864630Y-53160750D01*
X119844435Y-53339996D01*
X119844435Y-53340003D01*
X119864630Y-53519249D01*
X119864631Y-53519254D01*
X119924211Y-53689523D01*
X120020184Y-53842262D01*
X120133451Y-53955529D01*
X120166936Y-54016852D01*
X120161952Y-54086544D01*
X120133451Y-54130891D01*
X119905781Y-54358560D01*
X119844458Y-54392045D01*
X119779097Y-54388585D01*
X119767753Y-54384826D01*
X119767751Y-54384825D01*
X119666678Y-54374500D01*
X119093330Y-54374500D01*
X119093312Y-54374501D01*
X118992247Y-54384825D01*
X118828484Y-54439092D01*
X118828481Y-54439093D01*
X118681648Y-54529661D01*
X118559661Y-54651648D01*
X118469093Y-54798481D01*
X118469092Y-54798484D01*
X118414826Y-54962247D01*
X118414826Y-54962248D01*
X118414825Y-54962248D01*
X118404500Y-55063315D01*
X118404500Y-55736669D01*
X118404501Y-55736687D01*
X118414825Y-55837752D01*
X118469092Y-56001515D01*
X118469093Y-56001518D01*
X118559661Y-56148351D01*
X118598629Y-56187319D01*
X118632114Y-56248642D01*
X118627130Y-56318334D01*
X118598629Y-56362681D01*
X118559661Y-56401648D01*
X118469093Y-56548481D01*
X118469091Y-56548486D01*
X118456665Y-56585986D01*
X118414826Y-56712247D01*
X118414826Y-56712248D01*
X118414825Y-56712248D01*
X118404500Y-56813315D01*
X118404500Y-57486669D01*
X118404501Y-57486687D01*
X118414825Y-57587752D01*
X118433087Y-57642861D01*
X118469092Y-57751516D01*
X118557060Y-57894135D01*
X118559661Y-57898351D01*
X118643181Y-57981871D01*
X118676666Y-58043194D01*
X118679500Y-58069552D01*
X118679500Y-58807948D01*
X118659815Y-58874987D01*
X118643181Y-58895629D01*
X118559661Y-58979148D01*
X118469093Y-59125981D01*
X118469091Y-59125986D01*
X118456178Y-59164955D01*
X118414826Y-59289747D01*
X118414826Y-59289748D01*
X118414825Y-59289748D01*
X118404500Y-59390815D01*
X118404500Y-59989169D01*
X118404501Y-59989187D01*
X118414825Y-60090252D01*
X118469092Y-60254015D01*
X118469093Y-60254018D01*
X118559661Y-60400851D01*
X118673629Y-60514819D01*
X118707114Y-60576142D01*
X118702130Y-60645834D01*
X118673629Y-60690181D01*
X118559661Y-60804148D01*
X118469093Y-60950981D01*
X118469092Y-60950984D01*
X118414826Y-61114747D01*
X118414826Y-61114748D01*
X118414825Y-61114748D01*
X118404500Y-61215815D01*
X118404500Y-61448480D01*
X118384815Y-61515519D01*
X118368181Y-61536161D01*
X117782878Y-62121463D01*
X117761170Y-62138775D01*
X117607739Y-62235182D01*
X117480184Y-62362737D01*
X117384211Y-62515476D01*
X117324631Y-62685745D01*
X117324630Y-62685750D01*
X117304435Y-62864996D01*
X117304435Y-62865003D01*
X117324630Y-63044246D01*
X117324632Y-63044257D01*
X117362541Y-63152592D01*
X117369500Y-63193547D01*
X117369500Y-72836006D01*
X117369500Y-72973994D01*
X117369500Y-72973996D01*
X117369499Y-72973996D01*
X117396418Y-73109322D01*
X117396421Y-73109332D01*
X117449222Y-73236807D01*
X117525887Y-73351545D01*
X117525888Y-73351546D01*
X118368181Y-74193838D01*
X118401666Y-74255161D01*
X118404500Y-74281518D01*
X118404500Y-74514168D01*
X118404501Y-74514187D01*
X118414825Y-74615252D01*
X118426752Y-74651243D01*
X118469092Y-74779016D01*
X118559660Y-74925850D01*
X118681650Y-75047840D01*
X118828484Y-75138408D01*
X118992247Y-75192674D01*
X119093323Y-75203000D01*
X119325979Y-75202999D01*
X119393019Y-75222683D01*
X119413661Y-75239318D01*
X120303453Y-76129111D01*
X120303454Y-76129112D01*
X120418192Y-76205777D01*
X120545667Y-76258578D01*
X120545672Y-76258580D01*
X120545676Y-76258580D01*
X120545677Y-76258581D01*
X120681003Y-76285500D01*
X120681006Y-76285500D01*
X120681007Y-76285500D01*
X122835500Y-76285500D01*
X122902539Y-76305185D01*
X122948294Y-76357989D01*
X122959500Y-76409500D01*
X122959500Y-77485001D01*
X122959501Y-77485018D01*
X122970000Y-77587796D01*
X122970001Y-77587799D01*
X123009303Y-77706402D01*
X123025186Y-77754334D01*
X123117288Y-77903656D01*
X123241344Y-78027712D01*
X123390666Y-78119814D01*
X123557203Y-78174999D01*
X123659991Y-78185500D01*
X125260008Y-78185499D01*
X125362797Y-78174999D01*
X125529334Y-78119814D01*
X125678656Y-78027712D01*
X125802712Y-77903656D01*
X125894814Y-77754334D01*
X125949999Y-77587797D01*
X125960500Y-77485009D01*
X125960499Y-76409499D01*
X125980183Y-76342461D01*
X126032987Y-76296706D01*
X126084499Y-76285500D01*
X131725500Y-76285500D01*
X131792539Y-76305185D01*
X131838294Y-76357989D01*
X131849500Y-76409500D01*
X131849500Y-77485001D01*
X131849501Y-77485018D01*
X131860000Y-77587796D01*
X131860001Y-77587799D01*
X131899303Y-77706402D01*
X131915186Y-77754334D01*
X132007288Y-77903656D01*
X132131344Y-78027712D01*
X132280666Y-78119814D01*
X132447203Y-78174999D01*
X132549991Y-78185500D01*
X134150008Y-78185499D01*
X134252797Y-78174999D01*
X134419334Y-78119814D01*
X134568656Y-78027712D01*
X134692712Y-77903656D01*
X134784814Y-77754334D01*
X134839999Y-77587797D01*
X134850500Y-77485009D01*
X134850499Y-76409499D01*
X134870183Y-76342461D01*
X134922987Y-76296706D01*
X134974499Y-76285500D01*
X137128996Y-76285500D01*
X137220040Y-76267389D01*
X137264328Y-76258580D01*
X137328069Y-76232177D01*
X137391807Y-76205777D01*
X137391808Y-76205776D01*
X137391811Y-76205775D01*
X137506543Y-76129114D01*
X138396338Y-75239317D01*
X138457661Y-75205833D01*
X138484019Y-75202999D01*
X138716670Y-75202999D01*
X138716676Y-75202999D01*
X138817753Y-75192674D01*
X138981516Y-75138408D01*
X139128350Y-75047840D01*
X139250340Y-74925850D01*
X139269961Y-74894038D01*
X139321909Y-74847314D01*
X139390871Y-74836091D01*
X139454953Y-74863934D01*
X139493810Y-74922003D01*
X139499500Y-74959135D01*
X139499500Y-91168495D01*
X139479815Y-91235534D01*
X139427011Y-91281289D01*
X139357853Y-91291233D01*
X139294297Y-91262208D01*
X139287819Y-91256176D01*
X137579856Y-89548213D01*
X137579852Y-89548210D01*
X137448749Y-89460609D01*
X137448736Y-89460602D01*
X137303065Y-89400264D01*
X137303053Y-89400261D01*
X137148409Y-89369500D01*
X137148406Y-89369500D01*
X133732940Y-89369500D01*
X133665901Y-89349815D01*
X133645259Y-89333181D01*
X133355741Y-89043663D01*
X133322256Y-88982340D01*
X133327240Y-88912648D01*
X133369112Y-88856715D01*
X133382415Y-88848431D01*
X133382367Y-88848352D01*
X133386518Y-88845807D01*
X133526602Y-88744032D01*
X133649032Y-88621602D01*
X133750804Y-88481524D01*
X133829408Y-88327257D01*
X133882914Y-88162584D01*
X133910000Y-87991571D01*
X133910000Y-87880000D01*
X133090330Y-87880000D01*
X133110075Y-87860255D01*
X133159444Y-87774745D01*
X133185000Y-87679370D01*
X133185000Y-87580630D01*
X133159444Y-87485255D01*
X133110075Y-87399745D01*
X133090330Y-87380000D01*
X133910000Y-87380000D01*
X133910000Y-87268428D01*
X133882914Y-87097415D01*
X133829408Y-86932742D01*
X133750804Y-86778475D01*
X133649032Y-86638397D01*
X133526602Y-86515967D01*
X133386524Y-86414195D01*
X133232257Y-86335591D01*
X133067589Y-86282087D01*
X133067581Y-86282085D01*
X133060000Y-86280884D01*
X133060000Y-87349670D01*
X133040255Y-87329925D01*
X132954745Y-87280556D01*
X132859370Y-87255000D01*
X132760630Y-87255000D01*
X132665255Y-87280556D01*
X132579745Y-87329925D01*
X132560000Y-87349670D01*
X132560000Y-86280884D01*
X132559999Y-86280884D01*
X132552418Y-86282085D01*
X132552410Y-86282087D01*
X132387742Y-86335591D01*
X132233475Y-86414195D01*
X132093397Y-86515967D01*
X131970965Y-86638399D01*
X131970961Y-86638404D01*
X131914818Y-86715679D01*
X131859488Y-86758345D01*
X131789875Y-86764324D01*
X131728080Y-86731718D01*
X131693723Y-86670880D01*
X131690500Y-86642794D01*
X131690500Y-83990345D01*
X131710185Y-83923306D01*
X131762989Y-83877551D01*
X131832147Y-83867607D01*
X131895703Y-83896632D01*
X131902181Y-83902664D01*
X132004461Y-84004944D01*
X132004465Y-84004947D01*
X132151188Y-84095448D01*
X132151199Y-84095453D01*
X132314847Y-84149680D01*
X132415851Y-84159999D01*
X132965000Y-84159999D01*
X133014140Y-84159999D01*
X133014154Y-84159998D01*
X133115152Y-84149680D01*
X133278800Y-84095453D01*
X133278811Y-84095448D01*
X133425534Y-84004947D01*
X133425538Y-84004944D01*
X133547444Y-83883038D01*
X133547447Y-83883034D01*
X133637948Y-83736311D01*
X133637953Y-83736300D01*
X133692180Y-83572652D01*
X133702499Y-83471654D01*
X133702500Y-83471641D01*
X133702500Y-83435000D01*
X132965000Y-83435000D01*
X132965000Y-84159999D01*
X132415851Y-84159999D01*
X132464999Y-84159998D01*
X132465000Y-84159998D01*
X132465000Y-82935000D01*
X132965000Y-82935000D01*
X133702499Y-82935000D01*
X133702499Y-82898360D01*
X133702498Y-82898345D01*
X133692180Y-82797347D01*
X133637953Y-82633699D01*
X133637948Y-82633688D01*
X133547447Y-82486965D01*
X133547444Y-82486961D01*
X133425538Y-82365055D01*
X133425534Y-82365052D01*
X133278811Y-82274551D01*
X133278800Y-82274546D01*
X133115152Y-82220319D01*
X133014154Y-82210000D01*
X132965000Y-82210000D01*
X132965000Y-82935000D01*
X132465000Y-82935000D01*
X132465000Y-82210000D01*
X132464999Y-82209999D01*
X132415861Y-82210000D01*
X132415843Y-82210001D01*
X132314847Y-82220319D01*
X132151199Y-82274546D01*
X132151188Y-82274551D01*
X132004465Y-82365052D01*
X131890534Y-82478983D01*
X131829211Y-82512467D01*
X131759519Y-82507483D01*
X131715172Y-82478982D01*
X131600851Y-82364661D01*
X131600850Y-82364660D01*
X131468925Y-82283288D01*
X131454018Y-82274093D01*
X131454013Y-82274091D01*
X131449212Y-82272500D01*
X131290253Y-82219826D01*
X131290251Y-82219825D01*
X131189178Y-82209500D01*
X130590830Y-82209500D01*
X130590812Y-82209501D01*
X130489747Y-82219825D01*
X130325984Y-82274092D01*
X130325981Y-82274093D01*
X130179148Y-82364661D01*
X130057161Y-82486648D01*
X129966593Y-82633481D01*
X129966591Y-82633486D01*
X129952832Y-82675008D01*
X129912326Y-82797247D01*
X129912326Y-82797248D01*
X129912325Y-82797248D01*
X129902000Y-82898315D01*
X129902000Y-83471669D01*
X129902001Y-83471687D01*
X129912325Y-83572752D01*
X129927537Y-83618657D01*
X129966520Y-83736300D01*
X129966592Y-83736515D01*
X129966593Y-83736518D01*
X130057161Y-83883352D01*
X130061638Y-83889013D01*
X130059408Y-83890775D01*
X130086666Y-83940694D01*
X130089500Y-83967052D01*
X130089500Y-86467796D01*
X130069815Y-86534835D01*
X130053181Y-86555477D01*
X129970588Y-86638069D01*
X129970581Y-86638078D01*
X129910317Y-86721023D01*
X129854987Y-86763689D01*
X129785374Y-86769667D01*
X129723579Y-86737061D01*
X129709683Y-86721023D01*
X129659263Y-86651628D01*
X129649414Y-86638072D01*
X129526928Y-86515586D01*
X129386788Y-86413768D01*
X129232445Y-86335127D01*
X129067701Y-86281598D01*
X129067699Y-86281597D01*
X129067698Y-86281597D01*
X128936271Y-86260781D01*
X128896611Y-86254500D01*
X128723389Y-86254500D01*
X128683728Y-86260781D01*
X128552302Y-86281597D01*
X128387552Y-86335128D01*
X128233211Y-86413768D01*
X128158849Y-86467796D01*
X128093072Y-86515586D01*
X128093070Y-86515588D01*
X128093069Y-86515588D01*
X127970588Y-86638069D01*
X127970581Y-86638078D01*
X127910317Y-86721023D01*
X127854987Y-86763689D01*
X127785374Y-86769667D01*
X127723579Y-86737061D01*
X127709683Y-86721023D01*
X127659263Y-86651628D01*
X127649414Y-86638072D01*
X127526928Y-86515586D01*
X127386788Y-86413768D01*
X127232445Y-86335127D01*
X127067701Y-86281598D01*
X127067699Y-86281597D01*
X127067698Y-86281597D01*
X126936271Y-86260781D01*
X126896611Y-86254500D01*
X126723389Y-86254500D01*
X126683728Y-86260781D01*
X126552302Y-86281597D01*
X126387552Y-86335128D01*
X126233211Y-86413768D01*
X126093073Y-86515585D01*
X125985530Y-86623128D01*
X125924207Y-86656612D01*
X125854515Y-86651628D01*
X125798582Y-86609756D01*
X125792310Y-86600543D01*
X125764513Y-86555477D01*
X125752712Y-86536344D01*
X125628656Y-86412288D01*
X125503559Y-86335128D01*
X125479336Y-86320187D01*
X125479331Y-86320185D01*
X125477862Y-86319698D01*
X125312797Y-86265001D01*
X125312795Y-86265000D01*
X125210010Y-86254500D01*
X124409998Y-86254500D01*
X124409980Y-86254501D01*
X124307203Y-86265000D01*
X124307200Y-86265001D01*
X124140668Y-86320185D01*
X124140663Y-86320187D01*
X123991342Y-86412289D01*
X123867289Y-86536342D01*
X123775187Y-86685663D01*
X123775185Y-86685668D01*
X123749332Y-86763689D01*
X123720001Y-86852203D01*
X123720001Y-86852204D01*
X123720000Y-86852204D01*
X123709500Y-86954983D01*
X123709500Y-88305001D01*
X123709501Y-88305018D01*
X123720000Y-88407796D01*
X123720001Y-88407799D01*
X123775185Y-88574331D01*
X123775187Y-88574336D01*
X123797493Y-88610500D01*
X123867288Y-88723656D01*
X123991344Y-88847712D01*
X124140666Y-88939814D01*
X124307203Y-88994999D01*
X124409991Y-89005500D01*
X125210008Y-89005499D01*
X125210016Y-89005498D01*
X125210019Y-89005498D01*
X125289596Y-88997369D01*
X125312797Y-88994999D01*
X125479334Y-88939814D01*
X125628656Y-88847712D01*
X125752712Y-88723656D01*
X125792310Y-88659456D01*
X125844258Y-88612732D01*
X125913220Y-88601509D01*
X125977303Y-88629352D01*
X125985530Y-88636872D01*
X126093072Y-88744414D01*
X126233212Y-88846232D01*
X126387555Y-88924873D01*
X126552299Y-88978402D01*
X126723389Y-89005500D01*
X126723390Y-89005500D01*
X126896610Y-89005500D01*
X126896611Y-89005500D01*
X127067701Y-88978402D01*
X127232445Y-88924873D01*
X127386788Y-88846232D01*
X127526928Y-88744414D01*
X127649414Y-88621928D01*
X127709682Y-88538975D01*
X127765012Y-88496311D01*
X127834626Y-88490332D01*
X127896421Y-88522938D01*
X127910315Y-88538973D01*
X127970586Y-88621928D01*
X128093072Y-88744414D01*
X128233212Y-88846232D01*
X128387555Y-88924873D01*
X128552299Y-88978402D01*
X128723389Y-89005500D01*
X128723390Y-89005500D01*
X128896610Y-89005500D01*
X128896611Y-89005500D01*
X129067701Y-88978402D01*
X129232445Y-88924873D01*
X129386788Y-88846232D01*
X129526928Y-88744414D01*
X129649414Y-88621928D01*
X129709682Y-88538975D01*
X129765012Y-88496311D01*
X129834626Y-88490332D01*
X129896421Y-88522938D01*
X129910315Y-88538973D01*
X129970586Y-88621928D01*
X130093072Y-88744414D01*
X130233212Y-88846232D01*
X130387555Y-88924873D01*
X130552299Y-88978402D01*
X130723389Y-89005500D01*
X130723390Y-89005500D01*
X130896608Y-89005500D01*
X130896611Y-89005500D01*
X130969579Y-88993942D01*
X131038869Y-89002896D01*
X131076656Y-89028734D01*
X132728211Y-90680289D01*
X132785489Y-90737567D01*
X132839712Y-90791790D01*
X132970816Y-90879391D01*
X132970817Y-90879391D01*
X132970821Y-90879394D01*
X133055520Y-90914477D01*
X133116502Y-90939737D01*
X133260610Y-90968402D01*
X133271152Y-90970499D01*
X133271155Y-90970500D01*
X133271157Y-90970500D01*
X133271158Y-90970500D01*
X136189714Y-90970500D01*
X136256753Y-90990185D01*
X136302508Y-91042989D01*
X136312452Y-91112147D01*
X136295253Y-91159597D01*
X136249548Y-91233694D01*
X136249546Y-91233699D01*
X136195319Y-91397347D01*
X136185000Y-91498345D01*
X136185000Y-91547500D01*
X137263624Y-91547500D01*
X137330663Y-91567185D01*
X137351305Y-91583819D01*
X137373681Y-91606195D01*
X137407166Y-91667518D01*
X137410000Y-91693876D01*
X137410000Y-91923500D01*
X137390315Y-91990539D01*
X137337511Y-92036294D01*
X137286000Y-92047500D01*
X136185001Y-92047500D01*
X136185001Y-92096654D01*
X136195319Y-92197652D01*
X136249546Y-92361300D01*
X136249551Y-92361311D01*
X136340052Y-92508034D01*
X136340055Y-92508038D01*
X136453982Y-92621965D01*
X136487467Y-92683288D01*
X136482483Y-92752980D01*
X136453983Y-92797327D01*
X136339659Y-92911651D01*
X136249093Y-93058481D01*
X136249092Y-93058484D01*
X136194826Y-93222247D01*
X136194826Y-93222248D01*
X136194825Y-93222248D01*
X136184500Y-93323315D01*
X136184500Y-93414559D01*
X136164815Y-93481598D01*
X136148181Y-93502240D01*
X134423491Y-95226929D01*
X134362168Y-95260414D01*
X134303717Y-95259023D01*
X134211697Y-95234366D01*
X134211693Y-95234365D01*
X134211692Y-95234365D01*
X134211691Y-95234364D01*
X134211686Y-95234364D01*
X133985002Y-95214532D01*
X133984998Y-95214532D01*
X133758313Y-95234364D01*
X133758302Y-95234366D01*
X133538511Y-95293258D01*
X133538502Y-95293261D01*
X133332267Y-95389431D01*
X133332265Y-95389432D01*
X133145858Y-95519954D01*
X132984954Y-95680858D01*
X132854432Y-95867265D01*
X132854431Y-95867267D01*
X132827382Y-95925275D01*
X132781209Y-95977714D01*
X132714016Y-95996866D01*
X132647135Y-95976650D01*
X132602618Y-95925275D01*
X132575686Y-95867520D01*
X132575568Y-95867266D01*
X132445047Y-95680861D01*
X132445045Y-95680858D01*
X132284141Y-95519954D01*
X132097734Y-95389432D01*
X132097732Y-95389431D01*
X131891497Y-95293261D01*
X131891488Y-95293258D01*
X131671697Y-95234366D01*
X131671693Y-95234365D01*
X131671692Y-95234365D01*
X131671691Y-95234364D01*
X131671686Y-95234364D01*
X131445002Y-95214532D01*
X131444997Y-95214532D01*
X131343158Y-95223441D01*
X131274659Y-95209674D01*
X131244671Y-95187594D01*
X127510292Y-91453213D01*
X127510288Y-91453210D01*
X127379185Y-91365609D01*
X127379172Y-91365602D01*
X127233501Y-91305264D01*
X127233489Y-91305261D01*
X127078845Y-91274500D01*
X127078842Y-91274500D01*
X126112940Y-91274500D01*
X126045901Y-91254815D01*
X126025259Y-91238181D01*
X121486819Y-86699741D01*
X121453334Y-86638418D01*
X121450500Y-86612060D01*
X121450500Y-79648655D01*
X121450499Y-79648653D01*
X121443405Y-79612989D01*
X121419737Y-79494003D01*
X121401261Y-79449397D01*
X121359397Y-79348327D01*
X121359390Y-79348314D01*
X121271790Y-79217212D01*
X121231738Y-79177160D01*
X121160289Y-79105711D01*
X118642230Y-76587652D01*
X116010292Y-73955713D01*
X116010288Y-73955710D01*
X115879185Y-73868109D01*
X115879176Y-73868104D01*
X115732047Y-73807162D01*
X115677644Y-73763321D01*
X115655579Y-73697027D01*
X115655500Y-73692601D01*
X115655500Y-71902052D01*
X115675185Y-71835013D01*
X115683781Y-71824344D01*
X115683362Y-71824013D01*
X115687838Y-71818352D01*
X115687840Y-71818350D01*
X115778408Y-71671516D01*
X115832674Y-71507753D01*
X115843000Y-71406677D01*
X115842999Y-70833324D01*
X115832674Y-70732247D01*
X115778408Y-70568484D01*
X115687840Y-70421650D01*
X115565850Y-70299660D01*
X115474629Y-70243395D01*
X115419018Y-70209093D01*
X115419013Y-70209091D01*
X115384924Y-70197795D01*
X115255253Y-70154826D01*
X115255251Y-70154825D01*
X115154178Y-70144500D01*
X114555830Y-70144500D01*
X114555812Y-70144501D01*
X114454747Y-70154825D01*
X114290984Y-70209092D01*
X114290981Y-70209093D01*
X114144151Y-70299659D01*
X114029827Y-70413983D01*
X113968504Y-70447467D01*
X113898812Y-70442483D01*
X113854465Y-70413982D01*
X113740538Y-70300055D01*
X113740534Y-70300052D01*
X113593811Y-70209551D01*
X113593800Y-70209546D01*
X113430152Y-70155319D01*
X113329154Y-70145000D01*
X113280000Y-70145000D01*
X113280000Y-72094999D01*
X113329140Y-72094999D01*
X113329154Y-72094998D01*
X113430152Y-72084680D01*
X113593800Y-72030453D01*
X113593811Y-72030448D01*
X113740534Y-71939947D01*
X113740538Y-71939944D01*
X113842819Y-71837664D01*
X113904142Y-71804179D01*
X113973834Y-71809163D01*
X114029767Y-71851035D01*
X114054184Y-71916499D01*
X114054500Y-71925345D01*
X114054500Y-73135042D01*
X114034815Y-73202081D01*
X113982011Y-73247836D01*
X113968819Y-73252973D01*
X113877550Y-73282628D01*
X113723211Y-73361268D01*
X113649327Y-73414949D01*
X113583072Y-73463086D01*
X113583070Y-73463088D01*
X113583069Y-73463088D01*
X113460585Y-73585572D01*
X113400007Y-73668950D01*
X113344677Y-73711615D01*
X113275063Y-73717593D01*
X113213269Y-73684986D01*
X113199371Y-73668947D01*
X113139036Y-73585901D01*
X113016602Y-73463467D01*
X112876524Y-73361695D01*
X112722257Y-73283091D01*
X112557589Y-73229587D01*
X112557581Y-73229585D01*
X112550000Y-73228384D01*
X112550000Y-74297170D01*
X112530255Y-74277425D01*
X112444745Y-74228056D01*
X112349370Y-74202500D01*
X112250630Y-74202500D01*
X112155255Y-74228056D01*
X112069745Y-74277425D01*
X112050000Y-74297170D01*
X112050000Y-73228384D01*
X112049999Y-73228384D01*
X112042418Y-73229585D01*
X112042410Y-73229587D01*
X111877742Y-73283091D01*
X111723475Y-73361695D01*
X111583397Y-73463467D01*
X111460965Y-73585899D01*
X111460961Y-73585904D01*
X111400627Y-73668948D01*
X111345297Y-73711614D01*
X111275684Y-73717593D01*
X111213889Y-73684988D01*
X111199991Y-73668949D01*
X111186939Y-73650984D01*
X111139414Y-73585572D01*
X111016928Y-73463086D01*
X110876788Y-73361268D01*
X110722445Y-73282627D01*
X110557701Y-73229098D01*
X110557699Y-73229097D01*
X110557698Y-73229097D01*
X110426271Y-73208281D01*
X110386611Y-73202000D01*
X110213389Y-73202000D01*
X110173728Y-73208281D01*
X110042302Y-73229097D01*
X109877552Y-73282628D01*
X109723211Y-73361268D01*
X109583073Y-73463085D01*
X109475530Y-73570628D01*
X109414207Y-73604112D01*
X109344515Y-73599128D01*
X109288582Y-73557256D01*
X109282310Y-73548043D01*
X109274858Y-73535961D01*
X109242712Y-73483844D01*
X109118656Y-73359788D01*
X108993559Y-73282628D01*
X108969336Y-73267687D01*
X108969331Y-73267685D01*
X108924933Y-73252973D01*
X108802797Y-73212501D01*
X108802795Y-73212500D01*
X108700010Y-73202000D01*
X107899998Y-73202000D01*
X107899980Y-73202001D01*
X107797203Y-73212500D01*
X107797200Y-73212501D01*
X107630668Y-73267685D01*
X107630663Y-73267687D01*
X107481342Y-73359789D01*
X107357289Y-73483842D01*
X107265187Y-73633163D01*
X107265185Y-73633168D01*
X107239191Y-73711614D01*
X107210001Y-73799703D01*
X107210001Y-73799704D01*
X107210000Y-73799704D01*
X107199500Y-73902483D01*
X107199500Y-75252501D01*
X107199501Y-75252518D01*
X107210000Y-75355296D01*
X107210001Y-75355299D01*
X107265185Y-75521831D01*
X107265187Y-75521836D01*
X107288244Y-75559218D01*
X107357288Y-75671156D01*
X107481344Y-75795212D01*
X107630666Y-75887314D01*
X107797203Y-75942499D01*
X107899991Y-75953000D01*
X108700008Y-75952999D01*
X108700016Y-75952998D01*
X108700019Y-75952998D01*
X108756302Y-75947248D01*
X108802797Y-75942499D01*
X108969334Y-75887314D01*
X109118656Y-75795212D01*
X109242712Y-75671156D01*
X109282310Y-75606956D01*
X109334258Y-75560232D01*
X109403220Y-75549009D01*
X109467303Y-75576852D01*
X109475530Y-75584372D01*
X109583072Y-75691914D01*
X109723212Y-75793732D01*
X109877555Y-75872373D01*
X110042299Y-75925902D01*
X110213389Y-75953000D01*
X110213390Y-75953000D01*
X110386610Y-75953000D01*
X110386611Y-75953000D01*
X110557701Y-75925902D01*
X110722445Y-75872373D01*
X110876788Y-75793732D01*
X111016928Y-75691914D01*
X111139414Y-75569428D01*
X111199991Y-75486050D01*
X111255321Y-75443385D01*
X111324934Y-75437406D01*
X111386729Y-75470012D01*
X111400628Y-75486051D01*
X111460967Y-75569102D01*
X111583397Y-75691532D01*
X111723475Y-75793304D01*
X111877744Y-75871908D01*
X112042415Y-75925414D01*
X112042414Y-75925414D01*
X112049999Y-75926615D01*
X112050000Y-75926614D01*
X112050000Y-74857830D01*
X112069745Y-74877575D01*
X112155255Y-74926944D01*
X112250630Y-74952500D01*
X112349370Y-74952500D01*
X112444745Y-74926944D01*
X112530255Y-74877575D01*
X112550000Y-74857830D01*
X112550000Y-75926615D01*
X112557584Y-75925414D01*
X112722255Y-75871908D01*
X112876524Y-75793304D01*
X113016602Y-75691532D01*
X113139036Y-75569098D01*
X113199371Y-75486052D01*
X113254700Y-75443386D01*
X113324313Y-75437405D01*
X113386109Y-75470010D01*
X113400008Y-75486050D01*
X113411342Y-75501650D01*
X113460586Y-75569428D01*
X113583072Y-75691914D01*
X113723212Y-75793732D01*
X113877555Y-75872373D01*
X114042299Y-75925902D01*
X114213389Y-75953000D01*
X114213390Y-75953000D01*
X114386610Y-75953000D01*
X114386611Y-75953000D01*
X114557701Y-75925902D01*
X114722445Y-75872373D01*
X114876788Y-75793732D01*
X115016928Y-75691914D01*
X115139414Y-75569428D01*
X115146833Y-75559216D01*
X115202157Y-75516548D01*
X115271770Y-75510563D01*
X115333568Y-75543163D01*
X115334836Y-75544414D01*
X118747608Y-78957186D01*
X118781093Y-79018509D01*
X118776109Y-79088201D01*
X118734237Y-79144134D01*
X118725026Y-79150405D01*
X118681647Y-79177162D01*
X118675987Y-79181638D01*
X118674224Y-79179408D01*
X118624306Y-79206666D01*
X118597948Y-79209500D01*
X116211155Y-79209500D01*
X116056510Y-79240261D01*
X116056498Y-79240264D01*
X115910827Y-79300602D01*
X115910814Y-79300609D01*
X115779711Y-79388210D01*
X115779707Y-79388213D01*
X114566656Y-80601264D01*
X114505333Y-80634749D01*
X114459577Y-80636056D01*
X114386616Y-80624500D01*
X114386611Y-80624500D01*
X114213389Y-80624500D01*
X114173728Y-80630781D01*
X114042302Y-80651597D01*
X113877552Y-80705128D01*
X113723211Y-80783768D01*
X113654503Y-80833688D01*
X113583072Y-80885586D01*
X113583070Y-80885588D01*
X113583069Y-80885588D01*
X113460585Y-81008072D01*
X113400007Y-81091450D01*
X113344677Y-81134115D01*
X113275063Y-81140093D01*
X113213269Y-81107486D01*
X113199371Y-81091447D01*
X113139036Y-81008401D01*
X113016602Y-80885967D01*
X112876524Y-80784195D01*
X112722257Y-80705591D01*
X112557589Y-80652087D01*
X112557581Y-80652085D01*
X112550000Y-80650884D01*
X112550000Y-81719670D01*
X112530255Y-81699925D01*
X112444745Y-81650556D01*
X112349370Y-81625000D01*
X112250630Y-81625000D01*
X112155255Y-81650556D01*
X112069745Y-81699925D01*
X112050000Y-81719670D01*
X112050000Y-80650884D01*
X112049999Y-80650884D01*
X112042418Y-80652085D01*
X112042410Y-80652087D01*
X111877742Y-80705591D01*
X111723475Y-80784195D01*
X111583397Y-80885967D01*
X111460965Y-81008399D01*
X111460961Y-81008404D01*
X111400627Y-81091448D01*
X111345297Y-81134114D01*
X111275684Y-81140093D01*
X111213889Y-81107488D01*
X111199991Y-81091449D01*
X111175582Y-81057853D01*
X111139414Y-81008072D01*
X111016928Y-80885586D01*
X110876788Y-80783768D01*
X110722445Y-80705127D01*
X110557701Y-80651598D01*
X110557699Y-80651597D01*
X110557698Y-80651597D01*
X110426271Y-80630781D01*
X110386611Y-80624500D01*
X110213389Y-80624500D01*
X110173728Y-80630781D01*
X110042302Y-80651597D01*
X109877552Y-80705128D01*
X109723211Y-80783768D01*
X109583073Y-80885585D01*
X109475530Y-80993128D01*
X109414207Y-81026612D01*
X109344515Y-81021628D01*
X109288582Y-80979756D01*
X109282310Y-80970543D01*
X109259405Y-80933408D01*
X109242712Y-80906344D01*
X109118656Y-80782288D01*
X108993559Y-80705128D01*
X108969336Y-80690187D01*
X108969331Y-80690185D01*
X108959602Y-80686961D01*
X108802797Y-80635001D01*
X108802795Y-80635000D01*
X108700010Y-80624500D01*
X107899998Y-80624500D01*
X107899980Y-80624501D01*
X107797203Y-80635000D01*
X107797200Y-80635001D01*
X107630668Y-80690185D01*
X107630663Y-80690187D01*
X107481342Y-80782289D01*
X107357289Y-80906342D01*
X107265187Y-81055663D01*
X107265185Y-81055668D01*
X107248014Y-81107488D01*
X107210001Y-81222203D01*
X107210001Y-81222204D01*
X107210000Y-81222204D01*
X107199500Y-81324983D01*
X107199500Y-82675001D01*
X107199501Y-82675018D01*
X107210000Y-82777796D01*
X107210001Y-82777799D01*
X107265185Y-82944331D01*
X107265187Y-82944336D01*
X107282666Y-82972674D01*
X107357288Y-83093656D01*
X107481344Y-83217712D01*
X107630666Y-83309814D01*
X107797203Y-83364999D01*
X107899991Y-83375500D01*
X108700008Y-83375499D01*
X108700016Y-83375498D01*
X108700019Y-83375498D01*
X108756302Y-83369748D01*
X108802797Y-83364999D01*
X108969334Y-83309814D01*
X109118656Y-83217712D01*
X109242712Y-83093656D01*
X109282310Y-83029456D01*
X109334258Y-82982732D01*
X109403220Y-82971509D01*
X109467303Y-82999352D01*
X109475530Y-83006872D01*
X109583072Y-83114414D01*
X109723212Y-83216232D01*
X109877555Y-83294873D01*
X110042299Y-83348402D01*
X110213389Y-83375500D01*
X110213390Y-83375500D01*
X110386610Y-83375500D01*
X110386611Y-83375500D01*
X110557701Y-83348402D01*
X110722445Y-83294873D01*
X110876788Y-83216232D01*
X111016928Y-83114414D01*
X111139414Y-82991928D01*
X111199991Y-82908550D01*
X111255321Y-82865885D01*
X111324934Y-82859906D01*
X111386729Y-82892512D01*
X111400628Y-82908551D01*
X111460967Y-82991602D01*
X111583397Y-83114032D01*
X111723475Y-83215804D01*
X111877744Y-83294408D01*
X112042415Y-83347914D01*
X112042414Y-83347914D01*
X112049999Y-83349115D01*
X112050000Y-83349114D01*
X112050000Y-82280330D01*
X112069745Y-82300075D01*
X112155255Y-82349444D01*
X112250630Y-82375000D01*
X112349370Y-82375000D01*
X112444745Y-82349444D01*
X112530255Y-82300075D01*
X112550000Y-82280330D01*
X112550000Y-83349115D01*
X112557584Y-83347914D01*
X112722255Y-83294408D01*
X112876524Y-83215804D01*
X113016602Y-83114032D01*
X113139036Y-82991598D01*
X113199371Y-82908552D01*
X113254700Y-82865886D01*
X113324313Y-82859905D01*
X113386109Y-82892510D01*
X113400008Y-82908550D01*
X113407170Y-82918408D01*
X113460586Y-82991928D01*
X113583072Y-83114414D01*
X113723212Y-83216232D01*
X113877555Y-83294873D01*
X114042299Y-83348402D01*
X114213389Y-83375500D01*
X114213390Y-83375500D01*
X114386610Y-83375500D01*
X114386611Y-83375500D01*
X114532956Y-83352321D01*
X114602250Y-83361276D01*
X114640035Y-83387113D01*
X118412664Y-87159742D01*
X118446149Y-87221065D01*
X118441165Y-87290757D01*
X118399293Y-87346690D01*
X118363009Y-87363187D01*
X118363675Y-87365196D01*
X118193484Y-87421592D01*
X118193481Y-87421593D01*
X118046647Y-87512161D01*
X118040987Y-87516638D01*
X118039224Y-87514408D01*
X117989306Y-87541666D01*
X117962948Y-87544500D01*
X115496155Y-87544500D01*
X115341508Y-87575261D01*
X115341498Y-87575264D01*
X115195827Y-87635602D01*
X115195814Y-87635609D01*
X115064712Y-87723209D01*
X115031922Y-87756000D01*
X114953211Y-87834711D01*
X114953209Y-87834713D01*
X114566656Y-88221264D01*
X114505333Y-88254749D01*
X114459577Y-88256056D01*
X114386616Y-88244500D01*
X114386611Y-88244500D01*
X114213389Y-88244500D01*
X114173728Y-88250781D01*
X114042302Y-88271597D01*
X113877552Y-88325128D01*
X113723211Y-88403768D01*
X113643256Y-88461859D01*
X113583072Y-88505586D01*
X113583070Y-88505588D01*
X113583069Y-88505588D01*
X113460585Y-88628072D01*
X113400007Y-88711450D01*
X113344677Y-88754115D01*
X113275063Y-88760093D01*
X113213269Y-88727486D01*
X113199371Y-88711447D01*
X113139036Y-88628401D01*
X113016602Y-88505967D01*
X112876524Y-88404195D01*
X112722257Y-88325591D01*
X112557589Y-88272087D01*
X112557581Y-88272085D01*
X112550000Y-88270884D01*
X112550000Y-89339670D01*
X112530255Y-89319925D01*
X112444745Y-89270556D01*
X112349370Y-89245000D01*
X112250630Y-89245000D01*
X112155255Y-89270556D01*
X112069745Y-89319925D01*
X112050000Y-89339670D01*
X112050000Y-88270884D01*
X112049999Y-88270884D01*
X112042418Y-88272085D01*
X112042410Y-88272087D01*
X111877742Y-88325591D01*
X111723475Y-88404195D01*
X111583397Y-88505967D01*
X111460965Y-88628399D01*
X111460961Y-88628404D01*
X111400627Y-88711448D01*
X111345297Y-88754114D01*
X111275684Y-88760093D01*
X111213889Y-88727488D01*
X111199991Y-88711449D01*
X111199990Y-88711447D01*
X111139414Y-88628072D01*
X111016928Y-88505586D01*
X110876788Y-88403768D01*
X110722445Y-88325127D01*
X110557701Y-88271598D01*
X110557699Y-88271597D01*
X110557698Y-88271597D01*
X110426271Y-88250781D01*
X110386611Y-88244500D01*
X110213389Y-88244500D01*
X110173728Y-88250781D01*
X110042302Y-88271597D01*
X109877552Y-88325128D01*
X109723211Y-88403768D01*
X109583073Y-88505585D01*
X109475530Y-88613128D01*
X109414207Y-88646612D01*
X109344515Y-88641628D01*
X109288582Y-88599756D01*
X109282310Y-88590543D01*
X109275635Y-88579721D01*
X109242712Y-88526344D01*
X109118656Y-88402288D01*
X108993559Y-88325128D01*
X108969336Y-88310187D01*
X108969331Y-88310185D01*
X108953687Y-88305001D01*
X108802797Y-88255001D01*
X108802795Y-88255000D01*
X108700010Y-88244500D01*
X107899998Y-88244500D01*
X107899980Y-88244501D01*
X107797203Y-88255000D01*
X107797200Y-88255001D01*
X107630668Y-88310185D01*
X107630663Y-88310187D01*
X107481342Y-88402289D01*
X107357289Y-88526342D01*
X107265187Y-88675663D01*
X107265185Y-88675668D01*
X107248014Y-88727488D01*
X107210001Y-88842203D01*
X107210001Y-88842204D01*
X107210000Y-88842204D01*
X107199500Y-88944983D01*
X107199500Y-90295001D01*
X107199501Y-90295018D01*
X107210000Y-90397796D01*
X107210001Y-90397799D01*
X107265185Y-90564331D01*
X107265187Y-90564336D01*
X107288870Y-90602732D01*
X107357288Y-90713656D01*
X107481344Y-90837712D01*
X107630666Y-90929814D01*
X107797203Y-90984999D01*
X107899991Y-90995500D01*
X108700008Y-90995499D01*
X108700016Y-90995498D01*
X108700019Y-90995498D01*
X108764941Y-90988866D01*
X108802797Y-90984999D01*
X108969334Y-90929814D01*
X109118656Y-90837712D01*
X109242712Y-90713656D01*
X109282310Y-90649456D01*
X109334258Y-90602732D01*
X109403220Y-90591509D01*
X109467303Y-90619352D01*
X109475530Y-90626872D01*
X109583072Y-90734414D01*
X109723212Y-90836232D01*
X109877555Y-90914873D01*
X110042299Y-90968402D01*
X110213389Y-90995500D01*
X110213390Y-90995500D01*
X110386610Y-90995500D01*
X110386611Y-90995500D01*
X110557701Y-90968402D01*
X110722445Y-90914873D01*
X110876788Y-90836232D01*
X111016928Y-90734414D01*
X111139414Y-90611928D01*
X111199991Y-90528550D01*
X111255321Y-90485885D01*
X111324934Y-90479906D01*
X111386729Y-90512512D01*
X111400628Y-90528551D01*
X111460967Y-90611602D01*
X111583397Y-90734032D01*
X111723475Y-90835804D01*
X111877744Y-90914408D01*
X112042415Y-90967914D01*
X112042414Y-90967914D01*
X112049999Y-90969115D01*
X112050000Y-90969114D01*
X112050000Y-89900330D01*
X112069745Y-89920075D01*
X112155255Y-89969444D01*
X112250630Y-89995000D01*
X112349370Y-89995000D01*
X112444745Y-89969444D01*
X112530255Y-89920075D01*
X112550000Y-89900330D01*
X112550000Y-90969115D01*
X112557584Y-90967914D01*
X112722255Y-90914408D01*
X112876524Y-90835804D01*
X113016602Y-90734032D01*
X113139036Y-90611598D01*
X113199371Y-90528552D01*
X113254700Y-90485886D01*
X113324313Y-90479905D01*
X113386109Y-90512510D01*
X113400008Y-90528550D01*
X113420587Y-90556874D01*
X113460586Y-90611928D01*
X113583072Y-90734414D01*
X113723212Y-90836232D01*
X113877555Y-90914873D01*
X114042299Y-90968402D01*
X114213389Y-90995500D01*
X114213390Y-90995500D01*
X114386608Y-90995500D01*
X114386611Y-90995500D01*
X114459579Y-90983942D01*
X114528869Y-90992896D01*
X114566656Y-91018734D01*
X115245741Y-91697819D01*
X115279226Y-91759142D01*
X115274242Y-91828834D01*
X115232370Y-91884767D01*
X115166906Y-91909184D01*
X115158060Y-91909500D01*
X105832940Y-91909500D01*
X105765901Y-91889815D01*
X105745259Y-91873181D01*
X99277751Y-85405673D01*
X99244266Y-85344350D01*
X99242959Y-85298599D01*
X99265500Y-85156287D01*
X99265500Y-84943713D01*
X99242959Y-84801401D01*
X99251913Y-84732111D01*
X99277748Y-84694328D01*
X99852923Y-84119154D01*
X101895001Y-84119154D01*
X101905319Y-84220152D01*
X101959546Y-84383800D01*
X101959551Y-84383811D01*
X102050052Y-84530534D01*
X102050055Y-84530538D01*
X102171961Y-84652444D01*
X102171965Y-84652447D01*
X102318688Y-84742948D01*
X102318699Y-84742953D01*
X102482347Y-84797180D01*
X102583352Y-84807499D01*
X102620000Y-84807499D01*
X103120000Y-84807499D01*
X103156640Y-84807499D01*
X103156654Y-84807498D01*
X103257652Y-84797180D01*
X103421300Y-84742953D01*
X103421311Y-84742948D01*
X103568034Y-84652447D01*
X103568038Y-84652444D01*
X103689944Y-84530538D01*
X103689947Y-84530534D01*
X103780448Y-84383811D01*
X103780453Y-84383800D01*
X103834680Y-84220152D01*
X103844999Y-84119154D01*
X103845000Y-84119141D01*
X103845000Y-84070000D01*
X103120000Y-84070000D01*
X103120000Y-84807499D01*
X102620000Y-84807499D01*
X102620000Y-84070000D01*
X101895001Y-84070000D01*
X101895001Y-84119154D01*
X99852923Y-84119154D01*
X101140259Y-82831819D01*
X101201582Y-82798334D01*
X101227940Y-82795500D01*
X102064654Y-82795500D01*
X102131693Y-82815185D01*
X102177448Y-82867989D01*
X102187392Y-82937147D01*
X102158367Y-83000703D01*
X102152336Y-83007181D01*
X102050052Y-83109465D01*
X101959551Y-83256188D01*
X101959546Y-83256199D01*
X101905319Y-83419847D01*
X101895000Y-83520845D01*
X101895000Y-83570000D01*
X103844999Y-83570000D01*
X103844999Y-83520860D01*
X103844998Y-83520845D01*
X103834680Y-83419847D01*
X103780453Y-83256199D01*
X103780448Y-83256188D01*
X103689947Y-83109465D01*
X103689944Y-83109461D01*
X103576017Y-82995534D01*
X103542532Y-82934211D01*
X103547516Y-82864519D01*
X103576013Y-82820176D01*
X103690340Y-82705850D01*
X103780908Y-82559016D01*
X103835174Y-82395253D01*
X103845500Y-82294177D01*
X103845499Y-81695824D01*
X103844393Y-81685000D01*
X103835174Y-81594747D01*
X103823991Y-81561000D01*
X103780908Y-81430984D01*
X103690340Y-81284150D01*
X103568350Y-81162160D01*
X103464914Y-81098360D01*
X103421518Y-81071593D01*
X103421513Y-81071591D01*
X103388993Y-81060815D01*
X103257753Y-81017326D01*
X103257751Y-81017325D01*
X103156678Y-81007000D01*
X102583330Y-81007000D01*
X102583312Y-81007001D01*
X102482247Y-81017325D01*
X102318484Y-81071592D01*
X102318481Y-81071593D01*
X102171647Y-81162161D01*
X102165987Y-81166638D01*
X102164224Y-81164408D01*
X102114306Y-81191666D01*
X102087948Y-81194500D01*
X100766154Y-81194500D01*
X100611509Y-81225261D01*
X100611497Y-81225264D01*
X100568832Y-81242936D01*
X100568833Y-81242937D01*
X100465823Y-81285604D01*
X100465814Y-81285609D01*
X100334712Y-81373209D01*
X100334710Y-81373212D01*
X99477180Y-82230741D01*
X99415857Y-82264226D01*
X99346165Y-82259242D01*
X99290232Y-82217370D01*
X99265815Y-82151906D01*
X99265499Y-82143060D01*
X99265499Y-81899998D01*
X99265498Y-81899981D01*
X99254999Y-81797203D01*
X99254998Y-81797200D01*
X99246533Y-81771654D01*
X99199814Y-81630666D01*
X99107712Y-81481344D01*
X98983656Y-81357288D01*
X98865080Y-81284150D01*
X98834336Y-81265187D01*
X98834331Y-81265185D01*
X98832862Y-81264698D01*
X98667797Y-81210001D01*
X98667795Y-81210000D01*
X98565016Y-81199500D01*
X97029003Y-81199500D01*
X96961964Y-81179815D01*
X96916209Y-81127011D01*
X96906265Y-81057853D01*
X96935290Y-80994297D01*
X96941295Y-80987846D01*
X97146788Y-80782354D01*
X97148537Y-80779737D01*
X97234394Y-80651243D01*
X97285443Y-80528000D01*
X97294737Y-80505562D01*
X97325500Y-80350907D01*
X97325500Y-80193222D01*
X97325500Y-80193221D01*
X97325500Y-79122939D01*
X97345185Y-79055900D01*
X97361814Y-79035263D01*
X99185259Y-77211817D01*
X99246582Y-77178333D01*
X99272940Y-77175499D01*
X99414170Y-77175499D01*
X99414176Y-77175499D01*
X99515253Y-77165174D01*
X99679016Y-77110908D01*
X99825850Y-77020340D01*
X99825851Y-77020338D01*
X99828085Y-77018961D01*
X99893182Y-77000500D01*
X102313844Y-77000500D01*
X102313845Y-77000499D01*
X102468497Y-76969737D01*
X102614179Y-76909394D01*
X102745289Y-76821789D01*
X107936789Y-71630289D01*
X107944816Y-71622262D01*
X107985931Y-71556825D01*
X107987777Y-71553979D01*
X108000922Y-71534306D01*
X108024394Y-71499179D01*
X108024720Y-71498390D01*
X108034287Y-71479868D01*
X108040789Y-71469522D01*
X108062023Y-71408837D01*
X108062856Y-71406654D01*
X112042501Y-71406654D01*
X112052819Y-71507652D01*
X112107046Y-71671300D01*
X112107051Y-71671311D01*
X112197552Y-71818034D01*
X112197555Y-71818038D01*
X112319461Y-71939944D01*
X112319465Y-71939947D01*
X112466188Y-72030448D01*
X112466199Y-72030453D01*
X112629847Y-72084680D01*
X112730851Y-72094999D01*
X112779999Y-72094998D01*
X112780000Y-72094998D01*
X112780000Y-71370000D01*
X112042501Y-71370000D01*
X112042501Y-71406654D01*
X108062856Y-71406654D01*
X108064484Y-71402389D01*
X108084737Y-71353497D01*
X108087448Y-71339862D01*
X108092023Y-71323100D01*
X108100368Y-71299255D01*
X108106110Y-71248283D01*
X108107707Y-71238017D01*
X108115500Y-71198842D01*
X108115500Y-71171914D01*
X108116280Y-71158029D01*
X108120565Y-71120001D01*
X108120565Y-71119998D01*
X108116280Y-71081969D01*
X108115500Y-71068085D01*
X108115500Y-71041157D01*
X108107711Y-71002003D01*
X108106110Y-70991714D01*
X108100368Y-70940745D01*
X108092023Y-70916898D01*
X108087449Y-70900139D01*
X108084737Y-70886503D01*
X108064484Y-70837607D01*
X108062857Y-70833345D01*
X112042500Y-70833345D01*
X112042500Y-70870000D01*
X112780000Y-70870000D01*
X112780000Y-70145000D01*
X112779999Y-70144999D01*
X112730861Y-70145000D01*
X112730843Y-70145001D01*
X112629847Y-70155319D01*
X112466199Y-70209546D01*
X112466188Y-70209551D01*
X112319465Y-70300052D01*
X112319461Y-70300055D01*
X112197555Y-70421961D01*
X112197552Y-70421965D01*
X112107051Y-70568688D01*
X112107046Y-70568699D01*
X112052819Y-70732347D01*
X112042500Y-70833345D01*
X108062857Y-70833345D01*
X108062028Y-70831175D01*
X108040789Y-70770478D01*
X108034289Y-70760134D01*
X108024719Y-70741606D01*
X108024394Y-70740821D01*
X107987790Y-70686040D01*
X107985905Y-70683131D01*
X107944815Y-70617737D01*
X107817260Y-70490182D01*
X107817257Y-70490180D01*
X107751900Y-70449114D01*
X107748982Y-70447223D01*
X107694179Y-70410605D01*
X107694173Y-70410603D01*
X107693365Y-70410268D01*
X107674865Y-70400709D01*
X107664524Y-70394212D01*
X107664523Y-70394211D01*
X107664522Y-70394211D01*
X107603867Y-70372986D01*
X107597377Y-70370509D01*
X107548496Y-70350262D01*
X107534860Y-70347550D01*
X107518104Y-70342976D01*
X107494260Y-70334633D01*
X107494256Y-70334632D01*
X107494255Y-70334632D01*
X107473575Y-70332301D01*
X107443303Y-70328890D01*
X107433003Y-70327288D01*
X107393844Y-70319500D01*
X107393842Y-70319500D01*
X107366915Y-70319500D01*
X107353031Y-70318720D01*
X107315002Y-70314435D01*
X107314998Y-70314435D01*
X107276969Y-70318720D01*
X107263085Y-70319500D01*
X107236152Y-70319500D01*
X107196994Y-70327288D01*
X107186696Y-70328890D01*
X107135742Y-70334632D01*
X107135735Y-70334634D01*
X107111898Y-70342975D01*
X107095140Y-70347550D01*
X107081502Y-70350263D01*
X107081496Y-70350264D01*
X107032631Y-70370504D01*
X107026140Y-70372982D01*
X106965477Y-70394210D01*
X106965474Y-70394212D01*
X106955127Y-70400713D01*
X106936639Y-70410266D01*
X106935832Y-70410600D01*
X106935824Y-70410604D01*
X106935821Y-70410605D01*
X106935821Y-70410606D01*
X106888113Y-70442483D01*
X106881047Y-70447204D01*
X106878132Y-70449092D01*
X106812742Y-70490180D01*
X106812735Y-70490186D01*
X101939741Y-75363181D01*
X101878418Y-75396666D01*
X101852060Y-75399500D01*
X99989500Y-75399500D01*
X99922461Y-75379815D01*
X99876706Y-75327011D01*
X99865500Y-75275500D01*
X99865500Y-72341813D01*
X99865499Y-72341798D01*
X99862598Y-72304932D01*
X99862597Y-72304926D01*
X99819910Y-72157999D01*
X99816744Y-72147102D01*
X99793394Y-72107620D01*
X99776212Y-72039897D01*
X99798372Y-71973634D01*
X99852838Y-71929871D01*
X99900127Y-71920500D01*
X100767948Y-71920500D01*
X100834987Y-71940185D01*
X100855629Y-71956819D01*
X100901650Y-72002840D01*
X101048484Y-72093408D01*
X101212247Y-72147674D01*
X101313323Y-72158000D01*
X101886676Y-72157999D01*
X101886684Y-72157998D01*
X101886687Y-72157998D01*
X101942030Y-72152344D01*
X101987753Y-72147674D01*
X102151516Y-72093408D01*
X102298350Y-72002840D01*
X102344371Y-71956819D01*
X102405694Y-71923334D01*
X102432052Y-71920500D01*
X102948844Y-71920500D01*
X102948845Y-71920499D01*
X103103497Y-71889737D01*
X103229213Y-71837664D01*
X103249172Y-71829397D01*
X103249172Y-71829396D01*
X103249179Y-71829394D01*
X103380289Y-71741789D01*
X105155259Y-69966817D01*
X105216582Y-69933333D01*
X105242940Y-69930499D01*
X106307871Y-69930499D01*
X106307872Y-69930499D01*
X106367483Y-69924091D01*
X106502331Y-69873796D01*
X106617546Y-69787546D01*
X106703796Y-69672331D01*
X106753002Y-69540401D01*
X106794872Y-69484468D01*
X106860337Y-69460050D01*
X106928610Y-69474901D01*
X106956865Y-69496053D01*
X107078917Y-69618105D01*
X107272421Y-69753600D01*
X107486507Y-69853429D01*
X107486516Y-69853433D01*
X107700000Y-69910634D01*
X107700000Y-69013012D01*
X107757007Y-69045925D01*
X107884174Y-69080000D01*
X108015826Y-69080000D01*
X108142993Y-69045925D01*
X108200000Y-69013012D01*
X108200000Y-69910633D01*
X108413483Y-69853433D01*
X108413492Y-69853429D01*
X108627578Y-69753600D01*
X108821082Y-69618105D01*
X108988105Y-69451082D01*
X109123600Y-69257578D01*
X109223429Y-69043492D01*
X109223432Y-69043486D01*
X109280636Y-68830000D01*
X108383012Y-68830000D01*
X108415925Y-68772993D01*
X108450000Y-68645826D01*
X108450000Y-68514174D01*
X108415925Y-68387007D01*
X108383012Y-68330000D01*
X109280636Y-68330000D01*
X109280635Y-68329999D01*
X109223432Y-68116513D01*
X109223429Y-68116507D01*
X109123600Y-67902422D01*
X109123599Y-67902420D01*
X108988113Y-67708926D01*
X108988108Y-67708920D01*
X108821082Y-67541894D01*
X108634968Y-67411575D01*
X108591344Y-67356998D01*
X108584151Y-67287499D01*
X108615673Y-67225145D01*
X108634968Y-67208425D01*
X108821082Y-67078105D01*
X108988105Y-66911082D01*
X109123600Y-66717578D01*
X109223429Y-66503492D01*
X109223432Y-66503486D01*
X109280636Y-66290000D01*
X108383012Y-66290000D01*
X108415925Y-66232993D01*
X108450000Y-66105826D01*
X108450000Y-65974174D01*
X108415925Y-65847007D01*
X108383012Y-65790000D01*
X109280636Y-65790000D01*
X109280635Y-65789999D01*
X109223432Y-65576513D01*
X109223429Y-65576507D01*
X109123600Y-65362422D01*
X109123599Y-65362420D01*
X108988113Y-65168926D01*
X108988108Y-65168920D01*
X108821082Y-65001894D01*
X108627578Y-64866399D01*
X108413492Y-64766570D01*
X108413486Y-64766567D01*
X108200000Y-64709364D01*
X108200000Y-65606988D01*
X108142993Y-65574075D01*
X108015826Y-65540000D01*
X107884174Y-65540000D01*
X107757007Y-65574075D01*
X107700000Y-65606988D01*
X107700000Y-64709364D01*
X107699999Y-64709364D01*
X107486513Y-64766567D01*
X107486507Y-64766570D01*
X107272422Y-64866399D01*
X107272420Y-64866400D01*
X107078926Y-65001886D01*
X107078920Y-65001891D01*
X106911891Y-65168920D01*
X106911890Y-65168922D01*
X106781880Y-65354595D01*
X106727303Y-65398219D01*
X106657804Y-65405412D01*
X106595450Y-65373890D01*
X106578730Y-65354594D01*
X106448494Y-65168597D01*
X106281402Y-65001506D01*
X106281395Y-65001501D01*
X106087834Y-64865967D01*
X106087830Y-64865965D01*
X106029995Y-64838996D01*
X105873663Y-64766097D01*
X105873659Y-64766096D01*
X105873655Y-64766094D01*
X105645413Y-64704938D01*
X105645403Y-64704936D01*
X105410001Y-64684341D01*
X105409999Y-64684341D01*
X105174596Y-64704936D01*
X105174586Y-64704938D01*
X104946344Y-64766094D01*
X104946335Y-64766098D01*
X104732171Y-64865964D01*
X104732169Y-64865965D01*
X104538597Y-65001505D01*
X104371505Y-65168597D01*
X104235965Y-65362169D01*
X104235964Y-65362171D01*
X104136098Y-65576335D01*
X104136094Y-65576344D01*
X104074938Y-65804586D01*
X104074936Y-65804596D01*
X104054341Y-66039999D01*
X104054341Y-66040000D01*
X104074936Y-66275403D01*
X104074938Y-66275413D01*
X104136094Y-66503655D01*
X104136096Y-66503659D01*
X104136097Y-66503663D01*
X104219155Y-66681781D01*
X104235965Y-66717830D01*
X104235967Y-66717834D01*
X104344281Y-66872521D01*
X104371501Y-66911396D01*
X104371506Y-66911402D01*
X104493430Y-67033326D01*
X104526915Y-67094649D01*
X104521931Y-67164341D01*
X104480059Y-67220274D01*
X104449083Y-67237189D01*
X104317669Y-67286203D01*
X104317664Y-67286206D01*
X104202455Y-67372452D01*
X104202452Y-67372455D01*
X104116206Y-67487664D01*
X104116202Y-67487671D01*
X104065908Y-67622517D01*
X104059501Y-67682116D01*
X104059500Y-67682135D01*
X104059500Y-68747059D01*
X104039815Y-68814098D01*
X104023181Y-68834740D01*
X102711811Y-70146110D01*
X102650488Y-70179595D01*
X102580796Y-70174611D01*
X102524863Y-70132739D01*
X102500446Y-70067275D01*
X102509869Y-70016217D01*
X102508181Y-70015658D01*
X102564680Y-69845152D01*
X102574999Y-69744154D01*
X102575000Y-69744141D01*
X102575000Y-69645000D01*
X100625001Y-69645000D01*
X100625001Y-69744154D01*
X100635319Y-69845152D01*
X100689546Y-70008800D01*
X100689551Y-70008811D01*
X100764551Y-70130403D01*
X100782992Y-70197795D01*
X100762070Y-70264459D01*
X100708428Y-70309228D01*
X100659013Y-70319500D01*
X98965503Y-70319500D01*
X98898464Y-70299815D01*
X98858771Y-70258621D01*
X98829751Y-70209551D01*
X98783081Y-70130635D01*
X98783079Y-70130633D01*
X98783076Y-70130629D01*
X98666870Y-70014423D01*
X98666862Y-70014417D01*
X98525396Y-69930755D01*
X98525393Y-69930754D01*
X98367573Y-69884902D01*
X98367567Y-69884901D01*
X98330701Y-69882000D01*
X98330694Y-69882000D01*
X97899306Y-69882000D01*
X97899298Y-69882000D01*
X97862432Y-69884901D01*
X97862426Y-69884902D01*
X97704606Y-69930754D01*
X97704603Y-69930755D01*
X97563137Y-70014417D01*
X97563129Y-70014423D01*
X97446923Y-70130629D01*
X97446917Y-70130637D01*
X97363255Y-70272103D01*
X97363254Y-70272106D01*
X97317402Y-70429926D01*
X97317401Y-70429932D01*
X97314500Y-70466798D01*
X97314500Y-71773201D01*
X97317401Y-71810067D01*
X97317402Y-71810073D01*
X97363254Y-71967893D01*
X97363255Y-71967896D01*
X97363256Y-71967898D01*
X97397732Y-72026194D01*
X97415000Y-72089314D01*
X97415000Y-72745000D01*
X97965000Y-72745000D01*
X97965000Y-72482000D01*
X97984685Y-72414961D01*
X98037489Y-72369206D01*
X98089000Y-72358000D01*
X98140500Y-72358000D01*
X98207539Y-72377685D01*
X98253294Y-72430489D01*
X98264500Y-72482000D01*
X98264500Y-75259012D01*
X98244815Y-75326051D01*
X98192011Y-75371806D01*
X98122853Y-75381750D01*
X98075403Y-75364551D01*
X97953805Y-75289548D01*
X97953800Y-75289546D01*
X97790152Y-75235319D01*
X97689154Y-75225000D01*
X97590000Y-75225000D01*
X97590000Y-76326000D01*
X97570315Y-76393039D01*
X97517511Y-76438794D01*
X97466000Y-76450000D01*
X96302501Y-76450000D01*
X96302501Y-76486654D01*
X96312819Y-76587652D01*
X96367046Y-76751300D01*
X96367051Y-76751311D01*
X96457552Y-76898034D01*
X96457555Y-76898038D01*
X96579461Y-77019944D01*
X96579465Y-77019947D01*
X96726188Y-77110448D01*
X96726203Y-77110455D01*
X96757897Y-77120957D01*
X96815343Y-77160728D01*
X96842167Y-77225244D01*
X96829853Y-77294020D01*
X96806576Y-77326344D01*
X96229741Y-77903181D01*
X96168418Y-77936666D01*
X96142060Y-77939500D01*
X93092940Y-77939500D01*
X93025901Y-77919815D01*
X93005259Y-77903181D01*
X92183557Y-77081479D01*
X92150072Y-77020156D01*
X92147710Y-76982995D01*
X92160659Y-76835000D01*
X92140063Y-76599592D01*
X92078903Y-76371337D01*
X91979035Y-76157171D01*
X91973730Y-76149595D01*
X91843496Y-75963600D01*
X91793241Y-75913345D01*
X96302500Y-75913345D01*
X96302500Y-75950000D01*
X97090000Y-75950000D01*
X97090000Y-75224999D01*
X96990860Y-75225000D01*
X96990844Y-75225001D01*
X96889847Y-75235319D01*
X96726199Y-75289546D01*
X96726188Y-75289551D01*
X96579465Y-75380052D01*
X96579461Y-75380055D01*
X96457555Y-75501961D01*
X96457552Y-75501965D01*
X96367051Y-75648688D01*
X96367046Y-75648699D01*
X96312819Y-75812347D01*
X96302500Y-75913345D01*
X91793241Y-75913345D01*
X91793219Y-75913323D01*
X91721567Y-75841671D01*
X91688084Y-75780351D01*
X91693068Y-75710659D01*
X91734939Y-75654725D01*
X91765915Y-75637810D01*
X91897331Y-75588796D01*
X92012546Y-75502546D01*
X92098796Y-75387331D01*
X92149091Y-75252483D01*
X92155500Y-75192873D01*
X92155499Y-73648149D01*
X96365000Y-73648149D01*
X96367899Y-73684986D01*
X96367900Y-73684995D01*
X96413716Y-73842693D01*
X96413717Y-73842696D01*
X96497314Y-73984052D01*
X96497321Y-73984061D01*
X96613438Y-74100178D01*
X96613447Y-74100185D01*
X96754801Y-74183781D01*
X96912514Y-74229600D01*
X96912511Y-74229600D01*
X96914998Y-74229795D01*
X96915000Y-74229795D01*
X97415000Y-74229795D01*
X97415001Y-74229795D01*
X97417486Y-74229600D01*
X97575198Y-74183781D01*
X97716552Y-74100185D01*
X97716561Y-74100178D01*
X97832678Y-73984061D01*
X97832685Y-73984052D01*
X97916282Y-73842696D01*
X97916283Y-73842693D01*
X97962099Y-73684995D01*
X97962101Y-73684986D01*
X97964999Y-73648149D01*
X97965000Y-73648134D01*
X97965000Y-73245000D01*
X97415000Y-73245000D01*
X97415000Y-74229795D01*
X96915000Y-74229795D01*
X96915000Y-73245000D01*
X96365000Y-73245000D01*
X96365000Y-73648149D01*
X92155499Y-73648149D01*
X92155499Y-73397128D01*
X92149091Y-73337517D01*
X92148002Y-73334598D01*
X92098797Y-73202671D01*
X92098793Y-73202664D01*
X92012547Y-73087455D01*
X92012544Y-73087452D01*
X91897335Y-73001206D01*
X91897328Y-73001202D01*
X91762482Y-72950908D01*
X91762483Y-72950908D01*
X91702883Y-72944501D01*
X91702881Y-72944500D01*
X91702873Y-72944500D01*
X91702864Y-72944500D01*
X89907129Y-72944500D01*
X89907123Y-72944501D01*
X89847516Y-72950908D01*
X89712671Y-73001202D01*
X89712664Y-73001206D01*
X89597455Y-73087452D01*
X89597452Y-73087455D01*
X89511206Y-73202664D01*
X89511202Y-73202671D01*
X89461997Y-73334598D01*
X89420126Y-73390532D01*
X89354661Y-73414949D01*
X89286388Y-73400097D01*
X89258134Y-73378946D01*
X89136082Y-73256894D01*
X88942578Y-73121399D01*
X88728492Y-73021570D01*
X88728486Y-73021567D01*
X88515000Y-72964364D01*
X88515000Y-73861988D01*
X88457993Y-73829075D01*
X88330826Y-73795000D01*
X88199174Y-73795000D01*
X88072007Y-73829075D01*
X88015000Y-73861988D01*
X88015000Y-72964364D01*
X88014999Y-72964363D01*
X87851593Y-73008148D01*
X87781743Y-73006485D01*
X87723881Y-72967322D01*
X87696377Y-72903094D01*
X87695500Y-72888373D01*
X87695500Y-72341850D01*
X96365000Y-72341850D01*
X96365000Y-72745000D01*
X96915000Y-72745000D01*
X96915000Y-71760203D01*
X96912503Y-71760400D01*
X96754806Y-71806216D01*
X96754803Y-71806217D01*
X96613447Y-71889814D01*
X96613438Y-71889821D01*
X96497321Y-72005938D01*
X96497314Y-72005947D01*
X96413717Y-72147303D01*
X96413716Y-72147306D01*
X96367900Y-72305004D01*
X96367899Y-72305010D01*
X96365000Y-72341850D01*
X87695500Y-72341850D01*
X87695500Y-69045845D01*
X100625000Y-69045845D01*
X100625000Y-69145000D01*
X101350000Y-69145000D01*
X101850000Y-69145000D01*
X102574999Y-69145000D01*
X102574999Y-69045860D01*
X102574998Y-69045845D01*
X102564680Y-68944847D01*
X102510453Y-68781199D01*
X102510448Y-68781188D01*
X102419947Y-68634465D01*
X102419944Y-68634461D01*
X102298038Y-68512555D01*
X102298034Y-68512552D01*
X102151311Y-68422051D01*
X102151300Y-68422046D01*
X101987652Y-68367819D01*
X101886654Y-68357500D01*
X101850000Y-68357500D01*
X101850000Y-69145000D01*
X101350000Y-69145000D01*
X101350000Y-68357500D01*
X101313361Y-68357500D01*
X101313343Y-68357501D01*
X101212347Y-68367819D01*
X101048699Y-68422046D01*
X101048688Y-68422051D01*
X100901965Y-68512552D01*
X100901961Y-68512555D01*
X100780055Y-68634461D01*
X100780052Y-68634465D01*
X100689551Y-68781188D01*
X100689546Y-68781199D01*
X100635319Y-68944847D01*
X100625000Y-69045845D01*
X87695500Y-69045845D01*
X87695500Y-68921519D01*
X87715185Y-68854480D01*
X87731819Y-68833838D01*
X88174112Y-68391545D01*
X88174114Y-68391543D01*
X88250775Y-68276811D01*
X88252357Y-68272993D01*
X88303578Y-68149332D01*
X88303580Y-68149328D01*
X88314770Y-68093074D01*
X88330500Y-68013996D01*
X88330500Y-65003886D01*
X95999500Y-65003886D01*
X95999500Y-66941113D01*
X95999501Y-66941152D01*
X96002295Y-66993743D01*
X96002295Y-66993744D01*
X96033985Y-67157597D01*
X96046755Y-67223626D01*
X96070371Y-67286204D01*
X96129425Y-67442689D01*
X96247929Y-67644631D01*
X96247934Y-67644638D01*
X96398856Y-67823641D01*
X96398858Y-67823643D01*
X96577861Y-67974565D01*
X96577868Y-67974570D01*
X96779810Y-68093074D01*
X96998874Y-68175745D01*
X97228759Y-68220205D01*
X97281378Y-68223000D01*
X97281386Y-68223000D01*
X99218614Y-68223000D01*
X99218622Y-68223000D01*
X99271241Y-68220205D01*
X99501126Y-68175745D01*
X99720190Y-68093074D01*
X99922132Y-67974570D01*
X99995963Y-67912321D01*
X100101141Y-67823643D01*
X100101143Y-67823641D01*
X100252065Y-67644638D01*
X100252065Y-67644637D01*
X100252070Y-67644632D01*
X100370574Y-67442690D01*
X100453245Y-67223626D01*
X100497705Y-66993741D01*
X100500500Y-66941122D01*
X100500500Y-65003878D01*
X100497705Y-64951259D01*
X100453245Y-64721374D01*
X100370574Y-64502310D01*
X100252070Y-64300368D01*
X100252065Y-64300361D01*
X100101143Y-64121358D01*
X100101141Y-64121356D01*
X99922138Y-63970434D01*
X99922131Y-63970429D01*
X99720189Y-63851925D01*
X99622513Y-63815064D01*
X99501126Y-63769255D01*
X99501121Y-63769254D01*
X99501116Y-63769252D01*
X99498470Y-63768740D01*
X99497451Y-63768213D01*
X99496050Y-63767817D01*
X99496130Y-63767531D01*
X99436392Y-63736677D01*
X99401503Y-63676141D01*
X99404881Y-63606353D01*
X99445452Y-63549470D01*
X99510337Y-63523552D01*
X99522009Y-63522999D01*
X103047872Y-63522999D01*
X103107483Y-63516591D01*
X103242331Y-63466296D01*
X103357546Y-63380046D01*
X103443796Y-63264831D01*
X103494091Y-63129983D01*
X103500500Y-63070373D01*
X103500499Y-59474628D01*
X103494091Y-59415017D01*
X103485067Y-59390823D01*
X103443797Y-59280171D01*
X103443793Y-59280164D01*
X103357547Y-59164955D01*
X103357544Y-59164952D01*
X103242335Y-59078706D01*
X103242328Y-59078702D01*
X103107482Y-59028408D01*
X103107483Y-59028408D01*
X103047883Y-59022001D01*
X103047881Y-59022000D01*
X103047873Y-59022000D01*
X103047864Y-59022000D01*
X99452129Y-59022000D01*
X99452123Y-59022001D01*
X99392516Y-59028408D01*
X99257671Y-59078702D01*
X99257664Y-59078706D01*
X99142455Y-59164952D01*
X99142452Y-59164955D01*
X99056206Y-59280164D01*
X99056202Y-59280171D01*
X99005908Y-59415017D01*
X98999501Y-59474616D01*
X98999501Y-59474623D01*
X98999500Y-59474635D01*
X98999500Y-63070370D01*
X98999501Y-63070376D01*
X99005908Y-63129983D01*
X99056202Y-63264828D01*
X99056206Y-63264835D01*
X99142452Y-63380044D01*
X99142455Y-63380047D01*
X99257664Y-63466293D01*
X99257673Y-63466298D01*
X99304937Y-63483926D01*
X99360871Y-63525796D01*
X99385289Y-63591260D01*
X99370438Y-63659533D01*
X99321033Y-63708939D01*
X99255028Y-63723933D01*
X99218657Y-63722001D01*
X99218628Y-63722000D01*
X99218622Y-63722000D01*
X97281378Y-63722000D01*
X97281370Y-63722000D01*
X97281347Y-63722001D01*
X97228756Y-63724795D01*
X97228755Y-63724795D01*
X96998878Y-63769254D01*
X96998876Y-63769254D01*
X96998874Y-63769255D01*
X96955894Y-63785475D01*
X96779810Y-63851925D01*
X96577868Y-63970429D01*
X96577861Y-63970434D01*
X96398858Y-64121356D01*
X96398856Y-64121358D01*
X96247934Y-64300361D01*
X96247929Y-64300368D01*
X96129425Y-64502310D01*
X96081490Y-64629332D01*
X96046755Y-64721374D01*
X96046754Y-64721376D01*
X96046754Y-64721378D01*
X96002295Y-64951255D01*
X96002295Y-64951256D01*
X95999501Y-65003847D01*
X95999500Y-65003886D01*
X88330500Y-65003886D01*
X88330500Y-60208303D01*
X93250000Y-60208303D01*
X93250000Y-61022500D01*
X94750000Y-61022500D01*
X94750000Y-61522500D01*
X93250001Y-61522500D01*
X93250001Y-62336697D01*
X93260400Y-62468832D01*
X93315377Y-62687019D01*
X93408428Y-62891874D01*
X93408431Y-62891880D01*
X93536559Y-63076823D01*
X93536569Y-63076835D01*
X93695664Y-63235930D01*
X93695676Y-63235940D01*
X93880619Y-63364068D01*
X93880625Y-63364071D01*
X94085480Y-63457122D01*
X94303667Y-63512099D01*
X94435810Y-63522499D01*
X94999999Y-63522499D01*
X95000000Y-63522498D01*
X95000000Y-62705512D01*
X95057007Y-62738425D01*
X95184174Y-62772500D01*
X95315826Y-62772500D01*
X95442993Y-62738425D01*
X95500000Y-62705512D01*
X95500000Y-63522499D01*
X96064182Y-63522499D01*
X96064197Y-63522498D01*
X96196332Y-63512099D01*
X96414519Y-63457122D01*
X96619374Y-63364071D01*
X96619380Y-63364068D01*
X96804323Y-63235940D01*
X96804335Y-63235930D01*
X96963430Y-63076835D01*
X96963440Y-63076823D01*
X97091568Y-62891880D01*
X97091571Y-62891874D01*
X97184622Y-62687019D01*
X97239599Y-62468832D01*
X97249999Y-62336696D01*
X97250000Y-62336684D01*
X97250000Y-61522500D01*
X95750000Y-61522500D01*
X95750000Y-61022500D01*
X97249999Y-61022500D01*
X97249999Y-60208317D01*
X97249998Y-60208302D01*
X97239599Y-60076167D01*
X97184622Y-59857980D01*
X97091571Y-59653125D01*
X97091568Y-59653119D01*
X96963440Y-59468176D01*
X96963430Y-59468164D01*
X96804335Y-59309069D01*
X96804323Y-59309059D01*
X96619380Y-59180931D01*
X96619374Y-59180928D01*
X96414519Y-59087877D01*
X96196332Y-59032900D01*
X96064196Y-59022500D01*
X95500000Y-59022500D01*
X95500000Y-59839488D01*
X95442993Y-59806575D01*
X95315826Y-59772500D01*
X95184174Y-59772500D01*
X95057007Y-59806575D01*
X95000000Y-59839488D01*
X95000000Y-59022500D01*
X94435817Y-59022500D01*
X94435802Y-59022501D01*
X94303667Y-59032900D01*
X94085480Y-59087877D01*
X93880625Y-59180928D01*
X93880619Y-59180931D01*
X93695676Y-59309059D01*
X93695664Y-59309069D01*
X93536569Y-59468164D01*
X93536559Y-59468176D01*
X93408431Y-59653119D01*
X93408428Y-59653125D01*
X93315377Y-59857980D01*
X93260400Y-60076167D01*
X93250000Y-60208303D01*
X88330500Y-60208303D01*
X88330500Y-52796518D01*
X88350185Y-52729479D01*
X88366814Y-52708842D01*
X88719002Y-52356654D01*
X95495001Y-52356654D01*
X95505319Y-52457652D01*
X95559546Y-52621300D01*
X95559551Y-52621311D01*
X95650052Y-52768034D01*
X95650055Y-52768038D01*
X95771961Y-52889944D01*
X95771965Y-52889947D01*
X95918688Y-52980448D01*
X95918699Y-52980453D01*
X96082347Y-53034680D01*
X96183351Y-53044999D01*
X96270000Y-53044998D01*
X96270000Y-52320000D01*
X95495001Y-52320000D01*
X95495001Y-52356654D01*
X88719002Y-52356654D01*
X89292311Y-51783345D01*
X95495000Y-51783345D01*
X95495000Y-51820000D01*
X96270000Y-51820000D01*
X96270000Y-51095000D01*
X96770000Y-51095000D01*
X96770000Y-53044999D01*
X96856640Y-53044999D01*
X96856654Y-53044998D01*
X96957652Y-53034680D01*
X97121300Y-52980453D01*
X97121311Y-52980448D01*
X97268034Y-52889947D01*
X97268037Y-52889945D01*
X97306964Y-52851018D01*
X97368287Y-52817532D01*
X97437978Y-52822516D01*
X97482327Y-52851017D01*
X97521650Y-52890340D01*
X97668484Y-52980908D01*
X97832247Y-53035174D01*
X97933323Y-53045500D01*
X98606676Y-53045499D01*
X98606684Y-53045498D01*
X98606687Y-53045498D01*
X98662030Y-53039844D01*
X98707753Y-53035174D01*
X98871516Y-52980908D01*
X99018350Y-52890340D01*
X99140340Y-52768350D01*
X99164362Y-52729404D01*
X99216310Y-52682679D01*
X99269901Y-52670500D01*
X100082599Y-52670500D01*
X100149638Y-52690185D01*
X100188138Y-52729404D01*
X100211967Y-52768038D01*
X100212160Y-52768350D01*
X100334150Y-52890340D01*
X100480984Y-52980908D01*
X100644747Y-53035174D01*
X100745823Y-53045500D01*
X101344176Y-53045499D01*
X101344184Y-53045498D01*
X101344187Y-53045498D01*
X101399530Y-53039844D01*
X101445253Y-53035174D01*
X101609016Y-52980908D01*
X101755850Y-52890340D01*
X101869819Y-52776371D01*
X101931142Y-52742886D01*
X102000834Y-52747870D01*
X102045181Y-52776371D01*
X102159150Y-52890340D01*
X102210597Y-52922072D01*
X102257321Y-52974017D01*
X102269500Y-53027610D01*
X102269500Y-54213330D01*
X102269499Y-54213348D01*
X102269499Y-54379054D01*
X102269498Y-54379054D01*
X102310423Y-54531785D01*
X102339358Y-54581900D01*
X102339359Y-54581904D01*
X102339360Y-54581904D01*
X102389479Y-54668714D01*
X102389481Y-54668717D01*
X102508349Y-54787585D01*
X102508355Y-54787590D01*
X105653181Y-57932416D01*
X105686666Y-57993739D01*
X105689500Y-58020097D01*
X105689500Y-59267870D01*
X105689501Y-59267876D01*
X105695908Y-59327483D01*
X105746202Y-59462328D01*
X105746206Y-59462335D01*
X105832452Y-59577544D01*
X105832455Y-59577547D01*
X105947664Y-59663793D01*
X105947671Y-59663797D01*
X106082517Y-59714091D01*
X106082516Y-59714091D01*
X106089444Y-59714835D01*
X106142127Y-59720500D01*
X107837872Y-59720499D01*
X107897483Y-59714091D01*
X108032331Y-59663796D01*
X108147546Y-59577546D01*
X108233796Y-59462331D01*
X108284091Y-59327483D01*
X108290500Y-59267873D01*
X108290499Y-58419997D01*
X109185034Y-58419997D01*
X109185034Y-58420002D01*
X109204858Y-58646599D01*
X109204860Y-58646610D01*
X109263730Y-58866317D01*
X109263735Y-58866331D01*
X109359863Y-59072478D01*
X109410974Y-59145472D01*
X110090000Y-58466446D01*
X110090000Y-58472661D01*
X110117259Y-58574394D01*
X110169920Y-58665606D01*
X110244394Y-58740080D01*
X110335606Y-58792741D01*
X110437339Y-58820000D01*
X110443553Y-58820000D01*
X109764526Y-59499025D01*
X109837513Y-59550132D01*
X109837521Y-59550136D01*
X110043668Y-59646264D01*
X110043682Y-59646269D01*
X110263389Y-59705139D01*
X110263400Y-59705141D01*
X110489998Y-59724966D01*
X110490002Y-59724966D01*
X110716599Y-59705141D01*
X110716610Y-59705139D01*
X110936317Y-59646269D01*
X110936331Y-59646264D01*
X111142478Y-59550136D01*
X111215471Y-59499024D01*
X110536447Y-58820000D01*
X110542661Y-58820000D01*
X110644394Y-58792741D01*
X110735606Y-58740080D01*
X110810080Y-58665606D01*
X110862741Y-58574394D01*
X110890000Y-58472661D01*
X110890000Y-58466447D01*
X111569024Y-59145471D01*
X111620136Y-59072478D01*
X111716264Y-58866331D01*
X111716269Y-58866317D01*
X111775139Y-58646610D01*
X111775141Y-58646599D01*
X111794966Y-58420002D01*
X111794966Y-58419997D01*
X111775141Y-58193400D01*
X111775139Y-58193389D01*
X111716269Y-57973682D01*
X111716264Y-57973668D01*
X111620136Y-57767521D01*
X111620132Y-57767513D01*
X111569025Y-57694526D01*
X110890000Y-58373551D01*
X110890000Y-58367339D01*
X110862741Y-58265606D01*
X110810080Y-58174394D01*
X110735606Y-58099920D01*
X110644394Y-58047259D01*
X110542661Y-58020000D01*
X110536448Y-58020000D01*
X111215472Y-57340974D01*
X111142478Y-57289863D01*
X110936331Y-57193735D01*
X110936317Y-57193730D01*
X110716610Y-57134860D01*
X110716599Y-57134858D01*
X110490002Y-57115034D01*
X110489998Y-57115034D01*
X110263400Y-57134858D01*
X110263389Y-57134860D01*
X110043682Y-57193730D01*
X110043673Y-57193734D01*
X109837516Y-57289866D01*
X109837512Y-57289868D01*
X109764526Y-57340973D01*
X109764526Y-57340974D01*
X110443553Y-58020000D01*
X110437339Y-58020000D01*
X110335606Y-58047259D01*
X110244394Y-58099920D01*
X110169920Y-58174394D01*
X110117259Y-58265606D01*
X110090000Y-58367339D01*
X110090000Y-58373552D01*
X109410974Y-57694526D01*
X109410973Y-57694526D01*
X109359868Y-57767512D01*
X109359866Y-57767516D01*
X109263734Y-57973673D01*
X109263730Y-57973682D01*
X109204860Y-58193389D01*
X109204858Y-58193400D01*
X109185034Y-58419997D01*
X108290499Y-58419997D01*
X108290499Y-57572128D01*
X108284091Y-57512517D01*
X108274453Y-57486677D01*
X108233797Y-57377671D01*
X108233793Y-57377664D01*
X108147547Y-57262455D01*
X108147544Y-57262452D01*
X108032335Y-57176206D01*
X108032328Y-57176202D01*
X107897482Y-57125908D01*
X107897483Y-57125908D01*
X107837883Y-57119501D01*
X107837881Y-57119500D01*
X107837873Y-57119500D01*
X107837865Y-57119500D01*
X106590097Y-57119500D01*
X106523058Y-57099815D01*
X106502416Y-57083181D01*
X103506819Y-54087584D01*
X103473334Y-54026261D01*
X103470500Y-53999903D01*
X103470500Y-53027610D01*
X103490185Y-52960571D01*
X103529401Y-52922073D01*
X103580850Y-52890340D01*
X103702840Y-52768350D01*
X103793408Y-52621516D01*
X103847674Y-52457753D01*
X103858000Y-52356677D01*
X103857999Y-51783324D01*
X103847674Y-51682247D01*
X103793408Y-51518484D01*
X103702840Y-51371650D01*
X103580850Y-51249660D01*
X103489629Y-51193395D01*
X103434018Y-51159093D01*
X103434013Y-51159091D01*
X103413359Y-51152247D01*
X103270253Y-51104826D01*
X103270251Y-51104825D01*
X103169178Y-51094500D01*
X102570830Y-51094500D01*
X102570812Y-51094501D01*
X102469747Y-51104825D01*
X102305984Y-51159092D01*
X102305981Y-51159093D01*
X102159148Y-51249661D01*
X102045181Y-51363629D01*
X101983858Y-51397114D01*
X101914166Y-51392130D01*
X101869819Y-51363629D01*
X101755851Y-51249661D01*
X101755850Y-51249660D01*
X101664629Y-51193395D01*
X101609018Y-51159093D01*
X101609013Y-51159091D01*
X101588359Y-51152247D01*
X101445253Y-51104826D01*
X101445251Y-51104825D01*
X101344178Y-51094500D01*
X100745830Y-51094500D01*
X100745812Y-51094501D01*
X100644747Y-51104825D01*
X100480984Y-51159092D01*
X100480981Y-51159093D01*
X100334148Y-51249661D01*
X100212159Y-51371650D01*
X100188138Y-51410596D01*
X100136190Y-51457321D01*
X100082599Y-51469500D01*
X99269901Y-51469500D01*
X99202862Y-51449815D01*
X99164362Y-51410596D01*
X99140340Y-51371650D01*
X99018351Y-51249661D01*
X99018350Y-51249660D01*
X98927129Y-51193395D01*
X98871518Y-51159093D01*
X98871513Y-51159091D01*
X98850859Y-51152247D01*
X98707753Y-51104826D01*
X98707751Y-51104825D01*
X98606678Y-51094500D01*
X97933330Y-51094500D01*
X97933312Y-51094501D01*
X97832247Y-51104825D01*
X97668484Y-51159092D01*
X97668481Y-51159093D01*
X97521648Y-51249661D01*
X97482326Y-51288983D01*
X97421003Y-51322468D01*
X97351311Y-51317482D01*
X97306965Y-51288982D01*
X97268038Y-51250055D01*
X97268034Y-51250052D01*
X97121311Y-51159551D01*
X97121300Y-51159546D01*
X96957652Y-51105319D01*
X96856654Y-51095000D01*
X96770000Y-51095000D01*
X96270000Y-51095000D01*
X96269999Y-51094999D01*
X96183360Y-51095000D01*
X96183343Y-51095001D01*
X96082347Y-51105319D01*
X95918699Y-51159546D01*
X95918688Y-51159551D01*
X95771965Y-51250052D01*
X95771961Y-51250055D01*
X95650055Y-51371961D01*
X95650052Y-51371965D01*
X95559551Y-51518688D01*
X95559546Y-51518699D01*
X95505319Y-51682347D01*
X95495000Y-51783345D01*
X89292311Y-51783345D01*
X91494630Y-49581025D01*
X91555951Y-49547542D01*
X91593117Y-49545180D01*
X91598303Y-49545633D01*
X91598308Y-49545635D01*
X91803263Y-49563566D01*
X91824999Y-49565468D01*
X91825000Y-49565468D01*
X91825002Y-49565468D01*
X91881673Y-49560509D01*
X92051692Y-49545635D01*
X92271496Y-49486739D01*
X92477734Y-49390568D01*
X92664139Y-49260047D01*
X92825047Y-49099139D01*
X92955568Y-48912734D01*
X92982618Y-48854724D01*
X93028790Y-48802285D01*
X93095983Y-48783133D01*
X93162865Y-48803348D01*
X93207382Y-48854725D01*
X93234429Y-48912728D01*
X93234432Y-48912734D01*
X93364954Y-49099141D01*
X93525858Y-49260045D01*
X93525861Y-49260047D01*
X93712266Y-49390568D01*
X93918504Y-49486739D01*
X94138308Y-49545635D01*
X94297951Y-49559602D01*
X94364998Y-49565468D01*
X94365000Y-49565468D01*
X94365002Y-49565468D01*
X94421673Y-49560509D01*
X94591692Y-49545635D01*
X94811496Y-49486739D01*
X95017734Y-49390568D01*
X95204139Y-49260047D01*
X95365047Y-49099139D01*
X95495568Y-48912734D01*
X95522895Y-48854129D01*
X95569064Y-48801695D01*
X95636257Y-48782542D01*
X95703139Y-48802757D01*
X95747657Y-48854133D01*
X95774865Y-48912482D01*
X95905342Y-49098820D01*
X96066179Y-49259657D01*
X96252517Y-49390134D01*
X96458673Y-49486265D01*
X96458682Y-49486269D01*
X96654999Y-49538872D01*
X96655000Y-49538871D01*
X96655000Y-48693012D01*
X96712007Y-48725925D01*
X96839174Y-48760000D01*
X96970826Y-48760000D01*
X97097993Y-48725925D01*
X97155000Y-48693012D01*
X97155000Y-49538872D01*
X97351317Y-49486269D01*
X97351326Y-49486265D01*
X97557482Y-49390134D01*
X97743820Y-49259657D01*
X97904657Y-49098820D01*
X98035132Y-48912484D01*
X98062341Y-48854134D01*
X98108513Y-48801695D01*
X98175707Y-48782542D01*
X98242588Y-48802757D01*
X98287106Y-48854133D01*
X98314431Y-48912732D01*
X98314432Y-48912734D01*
X98444954Y-49099141D01*
X98605858Y-49260045D01*
X98605861Y-49260047D01*
X98792266Y-49390568D01*
X98998504Y-49486739D01*
X99218308Y-49545635D01*
X99377951Y-49559602D01*
X99444998Y-49565468D01*
X99445000Y-49565468D01*
X99445002Y-49565468D01*
X99501673Y-49560509D01*
X99671692Y-49545635D01*
X99891496Y-49486739D01*
X100097734Y-49390568D01*
X100284139Y-49260047D01*
X100445047Y-49099139D01*
X100575568Y-48912734D01*
X100602618Y-48854724D01*
X100648790Y-48802285D01*
X100715983Y-48783133D01*
X100782865Y-48803348D01*
X100827382Y-48854725D01*
X100854429Y-48912728D01*
X100854432Y-48912734D01*
X100984954Y-49099141D01*
X101145858Y-49260045D01*
X101145861Y-49260047D01*
X101332266Y-49390568D01*
X101538504Y-49486739D01*
X101758308Y-49545635D01*
X101917951Y-49559602D01*
X101984998Y-49565468D01*
X101985000Y-49565468D01*
X101985002Y-49565468D01*
X102041673Y-49560509D01*
X102211692Y-49545635D01*
X102431496Y-49486739D01*
X102637734Y-49390568D01*
X102824139Y-49260047D01*
X102985047Y-49099139D01*
X103115568Y-48912734D01*
X103142618Y-48854724D01*
X103188790Y-48802285D01*
X103255983Y-48783133D01*
X103322865Y-48803348D01*
X103367382Y-48854725D01*
X103394429Y-48912728D01*
X103394432Y-48912734D01*
X103524954Y-49099141D01*
X103685858Y-49260045D01*
X103685861Y-49260047D01*
X103872266Y-49390568D01*
X104078504Y-49486739D01*
X104298308Y-49545635D01*
X104457951Y-49559602D01*
X104524998Y-49565468D01*
X104525000Y-49565468D01*
X104525002Y-49565468D01*
X104581673Y-49560509D01*
X104751692Y-49545635D01*
X104971496Y-49486739D01*
X105177734Y-49390568D01*
X105364139Y-49260047D01*
X105525047Y-49099139D01*
X105655568Y-48912734D01*
X105682618Y-48854724D01*
X105728790Y-48802285D01*
X105795983Y-48783133D01*
X105862865Y-48803348D01*
X105907382Y-48854725D01*
X105934429Y-48912728D01*
X105934432Y-48912734D01*
X106064954Y-49099141D01*
X106225858Y-49260045D01*
X106225861Y-49260047D01*
X106412266Y-49390568D01*
X106618504Y-49486739D01*
X106838308Y-49545635D01*
X106997951Y-49559602D01*
X107064998Y-49565468D01*
X107065000Y-49565468D01*
X107065002Y-49565468D01*
X107121673Y-49560509D01*
X107291692Y-49545635D01*
X107511496Y-49486739D01*
X107717734Y-49390568D01*
X107904139Y-49260047D01*
X108065047Y-49099139D01*
X108195568Y-48912734D01*
X108222618Y-48854724D01*
X108268790Y-48802285D01*
X108335983Y-48783133D01*
X108402865Y-48803348D01*
X108447382Y-48854725D01*
X108474429Y-48912728D01*
X108474432Y-48912734D01*
X108604954Y-49099141D01*
X108765858Y-49260045D01*
X108765861Y-49260047D01*
X108952266Y-49390568D01*
X109158504Y-49486739D01*
X109378308Y-49545635D01*
X109537951Y-49559602D01*
X109604998Y-49565468D01*
X109605000Y-49565468D01*
X109605002Y-49565468D01*
X109661673Y-49560509D01*
X109831692Y-49545635D01*
X110051496Y-49486739D01*
X110257734Y-49390568D01*
X110444139Y-49260047D01*
X110605047Y-49099139D01*
X110735568Y-48912734D01*
X110762618Y-48854724D01*
X110808790Y-48802285D01*
X110875983Y-48783133D01*
X110942865Y-48803348D01*
X110987382Y-48854725D01*
X111014429Y-48912728D01*
X111014432Y-48912734D01*
X111144954Y-49099141D01*
X111305858Y-49260045D01*
X111305861Y-49260047D01*
X111492266Y-49390568D01*
X111698504Y-49486739D01*
X111918308Y-49545635D01*
X112077951Y-49559602D01*
X112144998Y-49565468D01*
X112145000Y-49565468D01*
X112145002Y-49565468D01*
X112201673Y-49560509D01*
X112371692Y-49545635D01*
X112591496Y-49486739D01*
X112797734Y-49390568D01*
X112984139Y-49260047D01*
X113145047Y-49099139D01*
X113275568Y-48912734D01*
X113371739Y-48706496D01*
X113430635Y-48486692D01*
X113450468Y-48260000D01*
X113430635Y-48033308D01*
X113371739Y-47813504D01*
X113275568Y-47607266D01*
X113145047Y-47420861D01*
X113145045Y-47420858D01*
X112984141Y-47259954D01*
X112797734Y-47129432D01*
X112797732Y-47129431D01*
X112591497Y-47033261D01*
X112591488Y-47033258D01*
X112371697Y-46974366D01*
X112371693Y-46974365D01*
X112371692Y-46974365D01*
X112371691Y-46974364D01*
X112371686Y-46974364D01*
X112145002Y-46954532D01*
X112144998Y-46954532D01*
X111918313Y-46974364D01*
X111918302Y-46974366D01*
X111698511Y-47033258D01*
X111698502Y-47033261D01*
X111492267Y-47129431D01*
X111492265Y-47129432D01*
X111305858Y-47259954D01*
X111144954Y-47420858D01*
X111014432Y-47607265D01*
X111014431Y-47607267D01*
X110987382Y-47665275D01*
X110941209Y-47717714D01*
X110874016Y-47736866D01*
X110807135Y-47716650D01*
X110762618Y-47665275D01*
X110735686Y-47607520D01*
X110735568Y-47607266D01*
X110605047Y-47420861D01*
X110605045Y-47420858D01*
X110444141Y-47259954D01*
X110257734Y-47129432D01*
X110257732Y-47129431D01*
X110051497Y-47033261D01*
X110051488Y-47033258D01*
X109831697Y-46974366D01*
X109831693Y-46974365D01*
X109831692Y-46974365D01*
X109831691Y-46974364D01*
X109831686Y-46974364D01*
X109605002Y-46954532D01*
X109604998Y-46954532D01*
X109378313Y-46974364D01*
X109378302Y-46974366D01*
X109158511Y-47033258D01*
X109158502Y-47033261D01*
X108952267Y-47129431D01*
X108952265Y-47129432D01*
X108765858Y-47259954D01*
X108604954Y-47420858D01*
X108474432Y-47607265D01*
X108474431Y-47607267D01*
X108447382Y-47665275D01*
X108401209Y-47717714D01*
X108334016Y-47736866D01*
X108267135Y-47716650D01*
X108222618Y-47665275D01*
X108195686Y-47607520D01*
X108195568Y-47607266D01*
X108065047Y-47420861D01*
X108065045Y-47420858D01*
X107904141Y-47259954D01*
X107717734Y-47129432D01*
X107717732Y-47129431D01*
X107511497Y-47033261D01*
X107511488Y-47033258D01*
X107291697Y-46974366D01*
X107291693Y-46974365D01*
X107291692Y-46974365D01*
X107291691Y-46974364D01*
X107291686Y-46974364D01*
X107065002Y-46954532D01*
X107064998Y-46954532D01*
X106838313Y-46974364D01*
X106838302Y-46974366D01*
X106618511Y-47033258D01*
X106618502Y-47033261D01*
X106412267Y-47129431D01*
X106412265Y-47129432D01*
X106225858Y-47259954D01*
X106064954Y-47420858D01*
X105934432Y-47607265D01*
X105934431Y-47607267D01*
X105907382Y-47665275D01*
X105861209Y-47717714D01*
X105794016Y-47736866D01*
X105727135Y-47716650D01*
X105682618Y-47665275D01*
X105655686Y-47607520D01*
X105655568Y-47607266D01*
X105525047Y-47420861D01*
X105525045Y-47420858D01*
X105364141Y-47259954D01*
X105177734Y-47129432D01*
X105177732Y-47129431D01*
X104971497Y-47033261D01*
X104971488Y-47033258D01*
X104751697Y-46974366D01*
X104751693Y-46974365D01*
X104751692Y-46974365D01*
X104751691Y-46974364D01*
X104751686Y-46974364D01*
X104525002Y-46954532D01*
X104524998Y-46954532D01*
X104298313Y-46974364D01*
X104298302Y-46974366D01*
X104078511Y-47033258D01*
X104078502Y-47033261D01*
X103872267Y-47129431D01*
X103872265Y-47129432D01*
X103685858Y-47259954D01*
X103524954Y-47420858D01*
X103394432Y-47607265D01*
X103394431Y-47607267D01*
X103367382Y-47665275D01*
X103321209Y-47717714D01*
X103254016Y-47736866D01*
X103187135Y-47716650D01*
X103142618Y-47665275D01*
X103115686Y-47607520D01*
X103115568Y-47607266D01*
X102985047Y-47420861D01*
X102985045Y-47420858D01*
X102824141Y-47259954D01*
X102637734Y-47129432D01*
X102637732Y-47129431D01*
X102431497Y-47033261D01*
X102431488Y-47033258D01*
X102211697Y-46974366D01*
X102211693Y-46974365D01*
X102211692Y-46974365D01*
X102211691Y-46974364D01*
X102211686Y-46974364D01*
X101985002Y-46954532D01*
X101984998Y-46954532D01*
X101758313Y-46974364D01*
X101758302Y-46974366D01*
X101538511Y-47033258D01*
X101538502Y-47033261D01*
X101332267Y-47129431D01*
X101332265Y-47129432D01*
X101145858Y-47259954D01*
X100984954Y-47420858D01*
X100854432Y-47607265D01*
X100854431Y-47607267D01*
X100827382Y-47665275D01*
X100781209Y-47717714D01*
X100714016Y-47736866D01*
X100647135Y-47716650D01*
X100602618Y-47665275D01*
X100575686Y-47607520D01*
X100575568Y-47607266D01*
X100445047Y-47420861D01*
X100445045Y-47420858D01*
X100284141Y-47259954D01*
X100097734Y-47129432D01*
X100097732Y-47129431D01*
X99891497Y-47033261D01*
X99891488Y-47033258D01*
X99671697Y-46974366D01*
X99671693Y-46974365D01*
X99671692Y-46974365D01*
X99671691Y-46974364D01*
X99671686Y-46974364D01*
X99445002Y-46954532D01*
X99444998Y-46954532D01*
X99218313Y-46974364D01*
X99218302Y-46974366D01*
X98998511Y-47033258D01*
X98998502Y-47033261D01*
X98792267Y-47129431D01*
X98792265Y-47129432D01*
X98605858Y-47259954D01*
X98444954Y-47420858D01*
X98314433Y-47607264D01*
X98314432Y-47607266D01*
X98314315Y-47607518D01*
X98287106Y-47665867D01*
X98240933Y-47718306D01*
X98173739Y-47737457D01*
X98106858Y-47717241D01*
X98062342Y-47665865D01*
X98035135Y-47607520D01*
X98035134Y-47607518D01*
X97904657Y-47421179D01*
X97743820Y-47260342D01*
X97557482Y-47129865D01*
X97351328Y-47033734D01*
X97155000Y-46981127D01*
X97155000Y-47826988D01*
X97097993Y-47794075D01*
X96970826Y-47760000D01*
X96839174Y-47760000D01*
X96712007Y-47794075D01*
X96655000Y-47826988D01*
X96655000Y-46981127D01*
X96458671Y-47033734D01*
X96252517Y-47129865D01*
X96066179Y-47260342D01*
X95905342Y-47421179D01*
X95774867Y-47607515D01*
X95747657Y-47665867D01*
X95701484Y-47718306D01*
X95634290Y-47737457D01*
X95567409Y-47717241D01*
X95522893Y-47665865D01*
X95495685Y-47607518D01*
X95495568Y-47607266D01*
X95365047Y-47420861D01*
X95365045Y-47420858D01*
X95204141Y-47259954D01*
X95017734Y-47129432D01*
X95017732Y-47129431D01*
X94811497Y-47033261D01*
X94811488Y-47033258D01*
X94591697Y-46974366D01*
X94591693Y-46974365D01*
X94591692Y-46974365D01*
X94591691Y-46974364D01*
X94591686Y-46974364D01*
X94365002Y-46954532D01*
X94364998Y-46954532D01*
X94138313Y-46974364D01*
X94138302Y-46974366D01*
X93918511Y-47033258D01*
X93918502Y-47033261D01*
X93712267Y-47129431D01*
X93712265Y-47129432D01*
X93525858Y-47259954D01*
X93364954Y-47420858D01*
X93234432Y-47607265D01*
X93234431Y-47607267D01*
X93207382Y-47665275D01*
X93161209Y-47717714D01*
X93094016Y-47736866D01*
X93027135Y-47716650D01*
X92982618Y-47665275D01*
X92955686Y-47607520D01*
X92955568Y-47607266D01*
X92825047Y-47420861D01*
X92825045Y-47420858D01*
X92664141Y-47259954D01*
X92477734Y-47129432D01*
X92477732Y-47129431D01*
X92271497Y-47033261D01*
X92271488Y-47033258D01*
X92051697Y-46974366D01*
X92051693Y-46974365D01*
X92051692Y-46974365D01*
X92051691Y-46974364D01*
X92051686Y-46974364D01*
X91825002Y-46954532D01*
X91824998Y-46954532D01*
X91598313Y-46974364D01*
X91598302Y-46974366D01*
X91378511Y-47033258D01*
X91378502Y-47033261D01*
X91172267Y-47129431D01*
X91172265Y-47129432D01*
X90985858Y-47259954D01*
X90824954Y-47420858D01*
X90694432Y-47607265D01*
X90694431Y-47607267D01*
X90667382Y-47665275D01*
X90621209Y-47717714D01*
X90554016Y-47736866D01*
X90487135Y-47716650D01*
X90442618Y-47665275D01*
X90415686Y-47607520D01*
X90415568Y-47607266D01*
X90285047Y-47420861D01*
X90285045Y-47420858D01*
X90124141Y-47259954D01*
X89937734Y-47129432D01*
X89937732Y-47129431D01*
X89731497Y-47033261D01*
X89731488Y-47033258D01*
X89511697Y-46974366D01*
X89511693Y-46974365D01*
X89511692Y-46974365D01*
X89511691Y-46974364D01*
X89511686Y-46974364D01*
X89285002Y-46954532D01*
X89284998Y-46954532D01*
X89058313Y-46974364D01*
X89058302Y-46974366D01*
X88838511Y-47033258D01*
X88838502Y-47033261D01*
X88632267Y-47129431D01*
X88632265Y-47129432D01*
X88445858Y-47259954D01*
X88284954Y-47420858D01*
X88154432Y-47607265D01*
X88154431Y-47607267D01*
X88058261Y-47813502D01*
X88058258Y-47813511D01*
X87999366Y-48033302D01*
X87999364Y-48033313D01*
X87979532Y-48259998D01*
X87979532Y-48260001D01*
X87999819Y-48491882D01*
X87986052Y-48560382D01*
X87963972Y-48590370D01*
X85712181Y-50842161D01*
X85650858Y-50875646D01*
X85581166Y-50870662D01*
X85525233Y-50828790D01*
X85500816Y-50763326D01*
X85500500Y-50754480D01*
X85500500Y-45624500D01*
X85520185Y-45557461D01*
X85572989Y-45511706D01*
X85624500Y-45500500D01*
X139375500Y-45500500D01*
X139442539Y-45520185D01*
G37*
%TD.AperFunction*%
%TA.AperFunction,Conductor*%
G36*
X119921387Y-88668465D02*
G01*
X124943538Y-93690616D01*
X124977023Y-93751939D01*
X124972039Y-93821631D01*
X124930167Y-93877564D01*
X124864703Y-93901981D01*
X124808405Y-93892858D01*
X124693501Y-93845264D01*
X124693489Y-93845261D01*
X124538845Y-93814500D01*
X124538842Y-93814500D01*
X119677940Y-93814500D01*
X119610901Y-93794815D01*
X119590259Y-93778181D01*
X116281232Y-90469154D01*
X117770001Y-90469154D01*
X117780319Y-90570152D01*
X117834546Y-90733800D01*
X117834551Y-90733811D01*
X117925052Y-90880534D01*
X117925055Y-90880538D01*
X118046961Y-91002444D01*
X118046965Y-91002447D01*
X118193688Y-91092948D01*
X118193699Y-91092953D01*
X118357347Y-91147180D01*
X118458352Y-91157499D01*
X118495000Y-91157499D01*
X118995000Y-91157499D01*
X119031640Y-91157499D01*
X119031654Y-91157498D01*
X119132652Y-91147180D01*
X119296300Y-91092953D01*
X119296311Y-91092948D01*
X119443034Y-91002447D01*
X119443038Y-91002444D01*
X119564944Y-90880538D01*
X119564947Y-90880534D01*
X119655448Y-90733811D01*
X119655453Y-90733800D01*
X119709680Y-90570152D01*
X119719999Y-90469154D01*
X119720000Y-90469141D01*
X119720000Y-90420000D01*
X118995000Y-90420000D01*
X118995000Y-91157499D01*
X118495000Y-91157499D01*
X118495000Y-90420000D01*
X117770001Y-90420000D01*
X117770001Y-90469154D01*
X116281232Y-90469154D01*
X115519758Y-89707680D01*
X115486273Y-89646357D01*
X115491257Y-89576665D01*
X115519758Y-89532318D01*
X115669479Y-89382598D01*
X115870258Y-89181819D01*
X115931581Y-89148334D01*
X115957939Y-89145500D01*
X117939654Y-89145500D01*
X118006693Y-89165185D01*
X118052448Y-89217989D01*
X118062392Y-89287147D01*
X118033367Y-89350703D01*
X118027336Y-89357181D01*
X117925052Y-89459465D01*
X117834551Y-89606188D01*
X117834546Y-89606199D01*
X117780319Y-89769847D01*
X117770000Y-89870845D01*
X117770000Y-89920000D01*
X119719999Y-89920000D01*
X119719999Y-89870860D01*
X119719998Y-89870845D01*
X119709680Y-89769847D01*
X119655453Y-89606199D01*
X119655448Y-89606188D01*
X119564947Y-89459465D01*
X119564944Y-89459461D01*
X119451017Y-89345534D01*
X119417532Y-89284211D01*
X119422516Y-89214519D01*
X119451013Y-89170176D01*
X119565340Y-89055850D01*
X119655908Y-88909016D01*
X119710174Y-88745253D01*
X119710347Y-88743550D01*
X119710748Y-88742568D01*
X119711592Y-88738629D01*
X119712294Y-88738779D01*
X119736738Y-88678859D01*
X119793916Y-88638703D01*
X119863727Y-88635835D01*
X119921387Y-88668465D01*
G37*
%TD.AperFunction*%
%TA.AperFunction,Conductor*%
G36*
X96233834Y-81797822D02*
G01*
X96289767Y-81839694D01*
X96314184Y-81905158D01*
X96314500Y-81914004D01*
X96314500Y-83200001D01*
X96314501Y-83200018D01*
X96325000Y-83302796D01*
X96325001Y-83302799D01*
X96380185Y-83469331D01*
X96380187Y-83469336D01*
X96381631Y-83471677D01*
X96461953Y-83601901D01*
X96472289Y-83618657D01*
X96596344Y-83742712D01*
X96751120Y-83838178D01*
X96797845Y-83890126D01*
X96809068Y-83959088D01*
X96781224Y-84023171D01*
X96773706Y-84031398D01*
X96634889Y-84170215D01*
X96509951Y-84342179D01*
X96413444Y-84531585D01*
X96347753Y-84733760D01*
X96314500Y-84943713D01*
X96314500Y-85156286D01*
X96347753Y-85366239D01*
X96413444Y-85568414D01*
X96509951Y-85757820D01*
X96634890Y-85929786D01*
X96785209Y-86080105D01*
X96785214Y-86080109D01*
X96950218Y-86199991D01*
X96992884Y-86255320D01*
X96998863Y-86324934D01*
X96966258Y-86386729D01*
X96950218Y-86400627D01*
X96785540Y-86520272D01*
X96785535Y-86520276D01*
X96635276Y-86670535D01*
X96635272Y-86670540D01*
X96510379Y-86842442D01*
X96413904Y-87031782D01*
X96348242Y-87233870D01*
X96348242Y-87233873D01*
X96337769Y-87300000D01*
X97385854Y-87300000D01*
X97347370Y-87366657D01*
X97315000Y-87487465D01*
X97315000Y-87612535D01*
X97347370Y-87733343D01*
X97385854Y-87800000D01*
X96337769Y-87800000D01*
X96348242Y-87866126D01*
X96348242Y-87866129D01*
X96413904Y-88068217D01*
X96510379Y-88257557D01*
X96635272Y-88429459D01*
X96635276Y-88429464D01*
X96785535Y-88579723D01*
X96785540Y-88579727D01*
X96950218Y-88699372D01*
X96992884Y-88754701D01*
X96998863Y-88824315D01*
X96966258Y-88886110D01*
X96950218Y-88900008D01*
X96785214Y-89019890D01*
X96785209Y-89019894D01*
X96634890Y-89170213D01*
X96509951Y-89342179D01*
X96413444Y-89531585D01*
X96347753Y-89733760D01*
X96314500Y-89943713D01*
X96314500Y-89983894D01*
X96294815Y-90050933D01*
X96242011Y-90096688D01*
X96190500Y-90107894D01*
X93164455Y-90107894D01*
X93097416Y-90088209D01*
X93051661Y-90035405D01*
X93041097Y-89971291D01*
X93049999Y-89884154D01*
X93050000Y-89884141D01*
X93050000Y-89785000D01*
X91100001Y-89785000D01*
X91100001Y-89884157D01*
X91108903Y-89971293D01*
X91096133Y-90039986D01*
X91048252Y-90090870D01*
X90985545Y-90107894D01*
X90766667Y-90107894D01*
X90699628Y-90088209D01*
X90653873Y-90035405D01*
X90643929Y-89966247D01*
X90647591Y-89949299D01*
X90694599Y-89787494D01*
X90694600Y-89787488D01*
X90694795Y-89785001D01*
X90694795Y-89785000D01*
X90429315Y-89785000D01*
X90366194Y-89767732D01*
X90307896Y-89733255D01*
X90307893Y-89733254D01*
X90150073Y-89687402D01*
X90150067Y-89687401D01*
X90113201Y-89684500D01*
X90113194Y-89684500D01*
X89409000Y-89684500D01*
X89341961Y-89664815D01*
X89296206Y-89612011D01*
X89285000Y-89560500D01*
X89285000Y-89509500D01*
X89304685Y-89442461D01*
X89357489Y-89396706D01*
X89409000Y-89385500D01*
X90113186Y-89385500D01*
X90113194Y-89385500D01*
X90150069Y-89382598D01*
X90150071Y-89382597D01*
X90150073Y-89382597D01*
X90195152Y-89369500D01*
X90307898Y-89336744D01*
X90366194Y-89302268D01*
X90429315Y-89285000D01*
X90694795Y-89285000D01*
X90694795Y-89284998D01*
X90694600Y-89282511D01*
X90694599Y-89282505D01*
X90648783Y-89124806D01*
X90648781Y-89124801D01*
X90648078Y-89123612D01*
X90647810Y-89122558D01*
X90645684Y-89117644D01*
X90646476Y-89117300D01*
X90630895Y-89055888D01*
X90646509Y-89002714D01*
X90646146Y-89002557D01*
X90647420Y-88999612D01*
X90648079Y-88997369D01*
X90649242Y-88995401D01*
X90649244Y-88995398D01*
X90691965Y-88848352D01*
X90695097Y-88837573D01*
X90695098Y-88837567D01*
X90697999Y-88800701D01*
X90698000Y-88800694D01*
X90698000Y-88734500D01*
X90717685Y-88667461D01*
X90770489Y-88621706D01*
X90822000Y-88610500D01*
X91134013Y-88610500D01*
X91201052Y-88630185D01*
X91246807Y-88682989D01*
X91256751Y-88752147D01*
X91239551Y-88799597D01*
X91164551Y-88921188D01*
X91164546Y-88921199D01*
X91110319Y-89084847D01*
X91100000Y-89185845D01*
X91100000Y-89285000D01*
X93049999Y-89285000D01*
X93049999Y-89185860D01*
X93049998Y-89185845D01*
X93039680Y-89084847D01*
X92985453Y-88921199D01*
X92985448Y-88921188D01*
X92894947Y-88774465D01*
X92894944Y-88774461D01*
X92881017Y-88760534D01*
X92847532Y-88699211D01*
X92852516Y-88629519D01*
X92881017Y-88585172D01*
X92895340Y-88570850D01*
X92985908Y-88424016D01*
X93040174Y-88260253D01*
X93050500Y-88159177D01*
X93050499Y-87460824D01*
X93046737Y-87424000D01*
X93040174Y-87359747D01*
X93030292Y-87329925D01*
X92985908Y-87195984D01*
X92895340Y-87049150D01*
X92895338Y-87049148D01*
X92893961Y-87046915D01*
X92875500Y-86981818D01*
X92875500Y-85105004D01*
X92895185Y-85037965D01*
X92911819Y-85017323D01*
X96102819Y-81826323D01*
X96164142Y-81792838D01*
X96233834Y-81797822D01*
G37*
%TD.AperFunction*%
%TA.AperFunction,Conductor*%
G36*
X87900703Y-83575227D02*
G01*
X87937205Y-83629934D01*
X87989092Y-83786516D01*
X88079660Y-83933350D01*
X88201650Y-84055340D01*
X88348484Y-84145908D01*
X88512247Y-84200174D01*
X88613323Y-84210500D01*
X89186676Y-84210499D01*
X89186684Y-84210498D01*
X89186687Y-84210498D01*
X89242030Y-84204844D01*
X89287753Y-84200174D01*
X89451516Y-84145908D01*
X89598350Y-84055340D01*
X89720340Y-83933350D01*
X89720341Y-83933347D01*
X89720344Y-83933345D01*
X89720945Y-83932586D01*
X89721489Y-83932200D01*
X89725447Y-83928243D01*
X89726123Y-83928919D01*
X89777968Y-83892211D01*
X89818208Y-83885500D01*
X91192948Y-83885500D01*
X91259987Y-83905185D01*
X91280629Y-83921819D01*
X91376650Y-84017840D01*
X91413182Y-84040373D01*
X91459906Y-84092319D01*
X91471129Y-84161281D01*
X91451187Y-84214801D01*
X91365612Y-84342873D01*
X91365602Y-84342891D01*
X91305264Y-84488562D01*
X91305261Y-84488574D01*
X91274500Y-84643217D01*
X91274500Y-86885500D01*
X91254815Y-86952539D01*
X91202011Y-86998294D01*
X91150500Y-87009500D01*
X90231153Y-87009500D01*
X90076510Y-87040260D01*
X90076502Y-87040262D01*
X89930824Y-87100604D01*
X89930814Y-87100609D01*
X89799711Y-87188210D01*
X89799707Y-87188213D01*
X89239741Y-87748181D01*
X89178418Y-87781666D01*
X89152060Y-87784500D01*
X88956798Y-87784500D01*
X88919932Y-87787401D01*
X88919926Y-87787402D01*
X88762106Y-87833254D01*
X88762103Y-87833255D01*
X88620637Y-87916917D01*
X88620629Y-87916923D01*
X88504423Y-88033129D01*
X88504414Y-88033140D01*
X88504229Y-88033455D01*
X88504019Y-88033650D01*
X88499639Y-88039298D01*
X88498727Y-88038591D01*
X88453157Y-88081136D01*
X88384415Y-88093637D01*
X88319827Y-88066988D01*
X88295643Y-88039078D01*
X88295361Y-88039298D01*
X88291323Y-88034092D01*
X88290771Y-88033455D01*
X88290585Y-88033140D01*
X88290576Y-88033129D01*
X88174370Y-87916923D01*
X88174362Y-87916917D01*
X88047103Y-87841657D01*
X88032898Y-87833256D01*
X88032897Y-87833255D01*
X88032896Y-87833255D01*
X88032893Y-87833254D01*
X87875073Y-87787402D01*
X87875067Y-87787401D01*
X87838201Y-87784500D01*
X87838194Y-87784500D01*
X87819500Y-87784500D01*
X87752461Y-87764815D01*
X87706706Y-87712011D01*
X87695500Y-87660500D01*
X87695500Y-83668940D01*
X87715185Y-83601901D01*
X87767989Y-83556146D01*
X87837147Y-83546202D01*
X87900703Y-83575227D01*
G37*
%TD.AperFunction*%
%TA.AperFunction,Conductor*%
G36*
X118641693Y-80830185D02*
G01*
X118687448Y-80882989D01*
X118697392Y-80952147D01*
X118668367Y-81015703D01*
X118662336Y-81022181D01*
X118560052Y-81124465D01*
X118469551Y-81271188D01*
X118469546Y-81271199D01*
X118415319Y-81434847D01*
X118405000Y-81535845D01*
X118405000Y-81585000D01*
X119506000Y-81585000D01*
X119573039Y-81604685D01*
X119618794Y-81657489D01*
X119630000Y-81709000D01*
X119630000Y-82822499D01*
X119666640Y-82822499D01*
X119666654Y-82822498D01*
X119712898Y-82817774D01*
X119781591Y-82830543D01*
X119832475Y-82878424D01*
X119849500Y-82941132D01*
X119849500Y-86033060D01*
X119829815Y-86100099D01*
X119777011Y-86145854D01*
X119707853Y-86155798D01*
X119644297Y-86126773D01*
X119637819Y-86120741D01*
X115651232Y-82134154D01*
X118405001Y-82134154D01*
X118415319Y-82235152D01*
X118469546Y-82398800D01*
X118469551Y-82398811D01*
X118560052Y-82545534D01*
X118560055Y-82545538D01*
X118681961Y-82667444D01*
X118681965Y-82667447D01*
X118828688Y-82757948D01*
X118828699Y-82757953D01*
X118992347Y-82812180D01*
X119093352Y-82822499D01*
X119130000Y-82822499D01*
X119130000Y-82085000D01*
X118405001Y-82085000D01*
X118405001Y-82134154D01*
X115651232Y-82134154D01*
X115562259Y-82045181D01*
X115528774Y-81983858D01*
X115533758Y-81914166D01*
X115562259Y-81869819D01*
X116585259Y-80846819D01*
X116646582Y-80813334D01*
X116672940Y-80810500D01*
X118574654Y-80810500D01*
X118641693Y-80830185D01*
G37*
%TD.AperFunction*%
%TA.AperFunction,Conductor*%
G36*
X87900703Y-81823637D02*
G01*
X87937206Y-81878346D01*
X87989546Y-82036300D01*
X87989551Y-82036311D01*
X88080052Y-82183034D01*
X88080055Y-82183038D01*
X88118982Y-82221965D01*
X88152467Y-82283288D01*
X88147483Y-82352980D01*
X88118983Y-82397326D01*
X88079661Y-82436648D01*
X87989093Y-82583481D01*
X87989091Y-82583486D01*
X87937206Y-82740065D01*
X87897433Y-82797510D01*
X87832917Y-82824333D01*
X87764141Y-82812018D01*
X87712942Y-82764475D01*
X87695500Y-82701061D01*
X87695500Y-81917350D01*
X87715185Y-81850311D01*
X87767989Y-81804556D01*
X87837147Y-81794612D01*
X87900703Y-81823637D01*
G37*
%TD.AperFunction*%
%TA.AperFunction,Conductor*%
G36*
X88515000Y-78165633D02*
G01*
X88728483Y-78108433D01*
X88728492Y-78108429D01*
X88942578Y-78008600D01*
X89136082Y-77873105D01*
X89303105Y-77706082D01*
X89433119Y-77520405D01*
X89487696Y-77476781D01*
X89557195Y-77469588D01*
X89619549Y-77501110D01*
X89636269Y-77520405D01*
X89766505Y-77706401D01*
X89933599Y-77873495D01*
X90027864Y-77939500D01*
X90127165Y-78009032D01*
X90127167Y-78009033D01*
X90127170Y-78009035D01*
X90341337Y-78108903D01*
X90569592Y-78170063D01*
X90746034Y-78185500D01*
X90804999Y-78190659D01*
X90804999Y-78190658D01*
X90805000Y-78190659D01*
X90952992Y-78177710D01*
X91021490Y-78191476D01*
X91051479Y-78213557D01*
X92088211Y-79250289D01*
X92186236Y-79348314D01*
X92199712Y-79361790D01*
X92330814Y-79449390D01*
X92330827Y-79449397D01*
X92438505Y-79493998D01*
X92476503Y-79509737D01*
X92631153Y-79540499D01*
X92631156Y-79540500D01*
X92631158Y-79540500D01*
X95600500Y-79540500D01*
X95667539Y-79560185D01*
X95713294Y-79612989D01*
X95724500Y-79664500D01*
X95724500Y-79889124D01*
X95704815Y-79956163D01*
X95688181Y-79976805D01*
X95141805Y-80523181D01*
X95080482Y-80556666D01*
X95054124Y-80559500D01*
X92857052Y-80559500D01*
X92790013Y-80539815D01*
X92779344Y-80531218D01*
X92779013Y-80531638D01*
X92773352Y-80527161D01*
X92626518Y-80436593D01*
X92626513Y-80436591D01*
X92625069Y-80436112D01*
X92462753Y-80382326D01*
X92462751Y-80382325D01*
X92361678Y-80372000D01*
X91788330Y-80372000D01*
X91788312Y-80372001D01*
X91687247Y-80382325D01*
X91523484Y-80436592D01*
X91523481Y-80436593D01*
X91376648Y-80527161D01*
X91254661Y-80649148D01*
X91164093Y-80795981D01*
X91164091Y-80795986D01*
X91152759Y-80830185D01*
X91109826Y-80959747D01*
X91109826Y-80959748D01*
X91109825Y-80959748D01*
X91099500Y-81060815D01*
X91099500Y-81659169D01*
X91099501Y-81659187D01*
X91109825Y-81760252D01*
X91136150Y-81839694D01*
X91164092Y-81924016D01*
X91233349Y-82036300D01*
X91254661Y-82070851D01*
X91368629Y-82184819D01*
X91402114Y-82246142D01*
X91397130Y-82315834D01*
X91368629Y-82360181D01*
X91280629Y-82448181D01*
X91219306Y-82481666D01*
X91192948Y-82484500D01*
X89818208Y-82484500D01*
X89751169Y-82464815D01*
X89725584Y-82441619D01*
X89725447Y-82441757D01*
X89722647Y-82438957D01*
X89720945Y-82437414D01*
X89720344Y-82436654D01*
X89681017Y-82397327D01*
X89647532Y-82336004D01*
X89652516Y-82266312D01*
X89681018Y-82221964D01*
X89719945Y-82183037D01*
X89719947Y-82183034D01*
X89810448Y-82036311D01*
X89810453Y-82036300D01*
X89864680Y-81872652D01*
X89874999Y-81771654D01*
X89875000Y-81771641D01*
X89875000Y-81685000D01*
X88774000Y-81685000D01*
X88706961Y-81665315D01*
X88661206Y-81612511D01*
X88650000Y-81561000D01*
X88650000Y-81185000D01*
X89150000Y-81185000D01*
X89874999Y-81185000D01*
X89874999Y-81098360D01*
X89874998Y-81098345D01*
X89864680Y-80997347D01*
X89810453Y-80833699D01*
X89810448Y-80833688D01*
X89719947Y-80686965D01*
X89719944Y-80686961D01*
X89598038Y-80565055D01*
X89598034Y-80565052D01*
X89451311Y-80474551D01*
X89451300Y-80474546D01*
X89287652Y-80420319D01*
X89186654Y-80410000D01*
X89150000Y-80410000D01*
X89150000Y-81185000D01*
X88650000Y-81185000D01*
X88650000Y-80410000D01*
X88613361Y-80410000D01*
X88613343Y-80410001D01*
X88512347Y-80420319D01*
X88348699Y-80474546D01*
X88348688Y-80474551D01*
X88201965Y-80565052D01*
X88201961Y-80565055D01*
X88080055Y-80686961D01*
X88080052Y-80686965D01*
X87989551Y-80833688D01*
X87989546Y-80833699D01*
X87937206Y-80991653D01*
X87897433Y-81049098D01*
X87832918Y-81075921D01*
X87764142Y-81063606D01*
X87712942Y-81016063D01*
X87695500Y-80952649D01*
X87695500Y-78241625D01*
X87715185Y-78174586D01*
X87767989Y-78128831D01*
X87837147Y-78118887D01*
X87851593Y-78121850D01*
X88015000Y-78165634D01*
X88015000Y-77268012D01*
X88072007Y-77300925D01*
X88199174Y-77335000D01*
X88330826Y-77335000D01*
X88457993Y-77300925D01*
X88515000Y-77268012D01*
X88515000Y-78165633D01*
G37*
%TD.AperFunction*%
%TA.AperFunction,Conductor*%
G36*
X88515000Y-76401988D02*
G01*
X88457993Y-76369075D01*
X88330826Y-76335000D01*
X88199174Y-76335000D01*
X88072007Y-76369075D01*
X88015000Y-76401988D01*
X88015000Y-74728012D01*
X88072007Y-74760925D01*
X88199174Y-74795000D01*
X88330826Y-74795000D01*
X88457993Y-74760925D01*
X88515000Y-74728012D01*
X88515000Y-76401988D01*
G37*
%TD.AperFunction*%
%TA.AperFunction,Conductor*%
G36*
X122284651Y-67397767D02*
G01*
X122342102Y-67431744D01*
X122368464Y-67439403D01*
X122499926Y-67477597D01*
X122499929Y-67477597D01*
X122499931Y-67477598D01*
X122536806Y-67480500D01*
X123703000Y-67480500D01*
X123770039Y-67500185D01*
X123815794Y-67552989D01*
X123827000Y-67604500D01*
X123827000Y-67656000D01*
X123807315Y-67723039D01*
X123754511Y-67768794D01*
X123703000Y-67780000D01*
X123440000Y-67780000D01*
X123440000Y-69380000D01*
X123535500Y-69380000D01*
X123602539Y-69399685D01*
X123648294Y-69452489D01*
X123659500Y-69504000D01*
X123659500Y-73075382D01*
X123639815Y-73142421D01*
X123605408Y-73176099D01*
X123606125Y-73177085D01*
X123430213Y-73304890D01*
X123279890Y-73455213D01*
X123154951Y-73627179D01*
X123058444Y-73816585D01*
X122992753Y-74018760D01*
X122959500Y-74228713D01*
X122959500Y-74441286D01*
X122992753Y-74651239D01*
X123015804Y-74722182D01*
X123017799Y-74792023D01*
X122981719Y-74851856D01*
X122919018Y-74882684D01*
X122897873Y-74884500D01*
X121091519Y-74884500D01*
X121024480Y-74864815D01*
X121003838Y-74848181D01*
X120391818Y-74236161D01*
X120358333Y-74174838D01*
X120355499Y-74148480D01*
X120355499Y-73915830D01*
X120355498Y-73915813D01*
X120345174Y-73814747D01*
X120338630Y-73795000D01*
X120290908Y-73650984D01*
X120200340Y-73504150D01*
X120086371Y-73390181D01*
X120052886Y-73328858D01*
X120057870Y-73259166D01*
X120086371Y-73214819D01*
X120125450Y-73175740D01*
X120200340Y-73100850D01*
X120290908Y-72954016D01*
X120345174Y-72790253D01*
X120355500Y-72689177D01*
X120355499Y-72090824D01*
X120354871Y-72084680D01*
X120345174Y-71989747D01*
X120337932Y-71967893D01*
X120290908Y-71825984D01*
X120200340Y-71679150D01*
X120116819Y-71595629D01*
X120083334Y-71534306D01*
X120080500Y-71507948D01*
X120080500Y-69499552D01*
X120100185Y-69432513D01*
X120116819Y-69411871D01*
X120151591Y-69377099D01*
X120200340Y-69328350D01*
X120290908Y-69181516D01*
X120345174Y-69017753D01*
X120355500Y-68916677D01*
X120355500Y-68830001D01*
X121955204Y-68830001D01*
X121955399Y-68832486D01*
X122001218Y-68990198D01*
X122084814Y-69131552D01*
X122084821Y-69131561D01*
X122200938Y-69247678D01*
X122200947Y-69247685D01*
X122342303Y-69331282D01*
X122342306Y-69331283D01*
X122500004Y-69377099D01*
X122500010Y-69377100D01*
X122536850Y-69379999D01*
X122536866Y-69380000D01*
X122940000Y-69380000D01*
X122940000Y-68830000D01*
X121955205Y-68830000D01*
X121955204Y-68830001D01*
X120355500Y-68830001D01*
X120355499Y-68329998D01*
X121955204Y-68329998D01*
X121955205Y-68330000D01*
X122940000Y-68330000D01*
X122940000Y-67780000D01*
X122536850Y-67780000D01*
X122500010Y-67782899D01*
X122500004Y-67782900D01*
X122342306Y-67828716D01*
X122342303Y-67828717D01*
X122200947Y-67912314D01*
X122200938Y-67912321D01*
X122084821Y-68028438D01*
X122084814Y-68028447D01*
X122001218Y-68169801D01*
X121955399Y-68327513D01*
X121955204Y-68329998D01*
X120355499Y-68329998D01*
X120355499Y-68243324D01*
X120353137Y-68220205D01*
X120345174Y-68142247D01*
X120290908Y-67978484D01*
X120200340Y-67831650D01*
X120161371Y-67792681D01*
X120127886Y-67731358D01*
X120132870Y-67661666D01*
X120161371Y-67617319D01*
X120174190Y-67604500D01*
X120200340Y-67578350D01*
X120286043Y-67439402D01*
X120337991Y-67392679D01*
X120391582Y-67380500D01*
X122221531Y-67380500D01*
X122284651Y-67397767D01*
G37*
%TD.AperFunction*%
%TA.AperFunction,Conductor*%
G36*
X135498120Y-48223777D02*
G01*
X137693181Y-50418838D01*
X137726666Y-50480161D01*
X137729500Y-50506519D01*
X137729500Y-50670448D01*
X137709815Y-50737487D01*
X137693181Y-50758129D01*
X137609655Y-50841654D01*
X137609055Y-50842414D01*
X137608510Y-50842799D01*
X137604553Y-50846757D01*
X137603876Y-50846080D01*
X137552032Y-50882789D01*
X137511792Y-50889500D01*
X132308502Y-50889500D01*
X132200089Y-50911065D01*
X132200088Y-50911065D01*
X132173170Y-50916420D01*
X132129838Y-50934369D01*
X132104025Y-50945061D01*
X132056572Y-50954500D01*
X130821798Y-50954500D01*
X130784932Y-50957401D01*
X130784926Y-50957402D01*
X130627106Y-51003254D01*
X130627103Y-51003255D01*
X130485637Y-51086917D01*
X130485629Y-51086923D01*
X130369423Y-51203129D01*
X130369417Y-51203137D01*
X130285755Y-51344603D01*
X130285754Y-51344606D01*
X130239902Y-51502426D01*
X130239901Y-51502432D01*
X130237000Y-51539298D01*
X130237000Y-51970701D01*
X130239901Y-52007567D01*
X130239902Y-52007573D01*
X130285754Y-52165393D01*
X130285755Y-52165396D01*
X130369417Y-52306862D01*
X130369423Y-52306870D01*
X130485629Y-52423076D01*
X130485633Y-52423079D01*
X130485635Y-52423081D01*
X130627102Y-52506744D01*
X130632575Y-52508334D01*
X130784926Y-52552597D01*
X130784929Y-52552597D01*
X130784931Y-52552598D01*
X130821806Y-52555500D01*
X131988000Y-52555500D01*
X132055039Y-52575185D01*
X132100794Y-52627989D01*
X132112000Y-52679500D01*
X132112000Y-52731000D01*
X132092315Y-52798039D01*
X132039511Y-52843794D01*
X131988000Y-52855000D01*
X131725000Y-52855000D01*
X131725000Y-54455000D01*
X132128134Y-54455000D01*
X132128149Y-54454999D01*
X132164989Y-54452100D01*
X132164995Y-54452099D01*
X132322692Y-54406284D01*
X132362378Y-54382814D01*
X132430102Y-54365631D01*
X132496365Y-54387790D01*
X132540128Y-54442256D01*
X132549500Y-54489546D01*
X132549500Y-57160382D01*
X132529815Y-57227421D01*
X132495408Y-57261099D01*
X132496125Y-57262085D01*
X132320213Y-57389890D01*
X132169890Y-57540213D01*
X132044951Y-57712179D01*
X131948444Y-57901585D01*
X131882753Y-58103760D01*
X131849500Y-58313713D01*
X131849500Y-58526286D01*
X131873184Y-58675824D01*
X131882754Y-58736243D01*
X131925022Y-58866331D01*
X131948444Y-58938414D01*
X132044951Y-59127820D01*
X132169890Y-59299786D01*
X132308705Y-59438601D01*
X132342190Y-59499924D01*
X132337206Y-59569616D01*
X132295334Y-59625549D01*
X132286121Y-59631821D01*
X132131342Y-59727289D01*
X132007289Y-59851342D01*
X131915187Y-60000663D01*
X131915185Y-60000668D01*
X131890167Y-60076167D01*
X131860001Y-60167203D01*
X131860001Y-60167204D01*
X131860000Y-60167204D01*
X131849500Y-60269983D01*
X131849500Y-61570001D01*
X131849501Y-61570018D01*
X131860000Y-61672796D01*
X131860001Y-61672799D01*
X131893621Y-61774255D01*
X131915186Y-61839334D01*
X132007288Y-61988656D01*
X132131344Y-62112712D01*
X132280666Y-62204814D01*
X132447203Y-62259999D01*
X132549991Y-62270500D01*
X134150008Y-62270499D01*
X134252797Y-62259999D01*
X134419334Y-62204814D01*
X134568656Y-62112712D01*
X134692712Y-61988656D01*
X134784814Y-61839334D01*
X134839999Y-61672797D01*
X134850500Y-61570009D01*
X134850499Y-60269992D01*
X134839999Y-60167203D01*
X134784814Y-60000666D01*
X134692712Y-59851344D01*
X134568656Y-59727288D01*
X134419334Y-59635186D01*
X134419333Y-59635185D01*
X134413878Y-59631821D01*
X134367154Y-59579873D01*
X134355931Y-59510910D01*
X134383775Y-59446828D01*
X134391272Y-59438623D01*
X134530104Y-59299792D01*
X134537402Y-59289748D01*
X134625987Y-59167820D01*
X134655051Y-59127816D01*
X134751557Y-58938412D01*
X134817246Y-58736243D01*
X134850500Y-58526287D01*
X134850500Y-58313713D01*
X134817246Y-58103757D01*
X134751557Y-57901588D01*
X134655051Y-57712184D01*
X134655049Y-57712181D01*
X134655048Y-57712179D01*
X134530109Y-57540213D01*
X134379786Y-57389890D01*
X134203875Y-57262085D01*
X134204851Y-57260740D01*
X134162834Y-57214295D01*
X134150500Y-57160382D01*
X134150500Y-53555503D01*
X134170185Y-53488464D01*
X134211377Y-53448772D01*
X134339365Y-53373081D01*
X134455581Y-53256865D01*
X134539244Y-53115398D01*
X134584226Y-52960571D01*
X134585097Y-52957573D01*
X134585098Y-52957567D01*
X134588000Y-52920694D01*
X134588000Y-52489306D01*
X134585098Y-52452431D01*
X134584129Y-52449095D01*
X134584134Y-52447156D01*
X134583960Y-52446201D01*
X134584137Y-52446168D01*
X134584327Y-52379228D01*
X134622268Y-52320557D01*
X134685906Y-52291713D01*
X134703205Y-52290500D01*
X137511792Y-52290500D01*
X137578831Y-52310185D01*
X137604415Y-52333380D01*
X137604553Y-52333243D01*
X137607352Y-52336042D01*
X137609055Y-52337586D01*
X137609655Y-52338345D01*
X137648629Y-52377319D01*
X137682114Y-52438642D01*
X137677130Y-52508334D01*
X137648629Y-52552681D01*
X137609661Y-52591648D01*
X137519093Y-52738481D01*
X137519091Y-52738486D01*
X137499861Y-52796518D01*
X137464826Y-52902247D01*
X137464826Y-52902248D01*
X137464825Y-52902248D01*
X137454500Y-53003315D01*
X137454500Y-53676669D01*
X137454501Y-53676687D01*
X137464825Y-53777752D01*
X137519092Y-53941515D01*
X137519093Y-53941518D01*
X137553395Y-53997129D01*
X137609659Y-54088349D01*
X137609661Y-54088351D01*
X137693181Y-54171871D01*
X137726666Y-54233194D01*
X137729500Y-54259552D01*
X137729500Y-56267948D01*
X137709815Y-56334987D01*
X137693181Y-56355629D01*
X137609661Y-56439148D01*
X137519093Y-56585981D01*
X137519092Y-56585984D01*
X137464826Y-56749747D01*
X137464826Y-56749748D01*
X137464825Y-56749748D01*
X137454500Y-56850815D01*
X137454500Y-57449169D01*
X137454501Y-57449187D01*
X137464825Y-57550252D01*
X137477252Y-57587752D01*
X137519092Y-57714016D01*
X137609659Y-57860849D01*
X137609661Y-57860851D01*
X137723629Y-57974819D01*
X137757114Y-58036142D01*
X137752130Y-58105834D01*
X137723629Y-58150181D01*
X137609661Y-58264148D01*
X137519093Y-58410981D01*
X137519091Y-58410986D01*
X137498654Y-58472661D01*
X137464826Y-58574747D01*
X137464826Y-58574748D01*
X137464825Y-58574748D01*
X137454500Y-58675815D01*
X137454500Y-59274169D01*
X137454501Y-59274187D01*
X137464825Y-59375252D01*
X137519092Y-59539015D01*
X137519093Y-59539018D01*
X137542858Y-59577547D01*
X137609659Y-59685849D01*
X137609661Y-59685851D01*
X137693181Y-59769371D01*
X137726666Y-59830694D01*
X137729500Y-59857052D01*
X137729500Y-61169507D01*
X137710494Y-61235478D01*
X137704209Y-61245479D01*
X137644633Y-61415737D01*
X137644630Y-61415750D01*
X137624435Y-61594996D01*
X137624435Y-61595003D01*
X137644630Y-61774249D01*
X137644631Y-61774254D01*
X137704211Y-61944523D01*
X137800184Y-62097262D01*
X137927738Y-62224816D01*
X138000442Y-62270499D01*
X138064101Y-62310499D01*
X138080478Y-62320789D01*
X138250745Y-62380368D01*
X138250750Y-62380369D01*
X138429996Y-62400565D01*
X138430000Y-62400565D01*
X138430004Y-62400565D01*
X138609249Y-62380369D01*
X138609252Y-62380368D01*
X138609255Y-62380368D01*
X138779522Y-62320789D01*
X138932262Y-62224816D01*
X139059816Y-62097262D01*
X139155789Y-61944522D01*
X139215368Y-61774255D01*
X139215369Y-61774249D01*
X139235565Y-61595003D01*
X139235565Y-61594996D01*
X139215369Y-61415750D01*
X139215366Y-61415737D01*
X139155790Y-61245479D01*
X139149506Y-61235478D01*
X139130500Y-61169507D01*
X139130500Y-59857052D01*
X139150185Y-59790013D01*
X139166819Y-59769371D01*
X139168902Y-59767288D01*
X139250340Y-59685850D01*
X139269961Y-59654038D01*
X139321909Y-59607314D01*
X139390871Y-59596091D01*
X139454953Y-59623934D01*
X139493810Y-59682003D01*
X139499500Y-59719135D01*
X139499500Y-66048364D01*
X139479815Y-66115403D01*
X139427011Y-66161158D01*
X139357853Y-66171102D01*
X139294297Y-66142077D01*
X139269962Y-66113461D01*
X139250342Y-66081653D01*
X139250339Y-66081649D01*
X139128351Y-65959661D01*
X139128350Y-65959660D01*
X139003095Y-65882402D01*
X138981518Y-65869093D01*
X138981513Y-65869091D01*
X138980069Y-65868612D01*
X138817753Y-65814826D01*
X138817751Y-65814825D01*
X138716684Y-65804500D01*
X138716677Y-65804500D01*
X138427118Y-65804500D01*
X138360079Y-65784815D01*
X138358228Y-65783603D01*
X138291811Y-65739225D01*
X138291808Y-65739223D01*
X138291807Y-65739223D01*
X138164332Y-65686421D01*
X138164322Y-65686418D01*
X138028996Y-65659500D01*
X138028994Y-65659500D01*
X138028993Y-65659500D01*
X132443469Y-65659500D01*
X132380348Y-65642232D01*
X132376406Y-65639901D01*
X132322898Y-65608256D01*
X132322897Y-65608255D01*
X132322896Y-65608255D01*
X132322893Y-65608254D01*
X132165073Y-65562402D01*
X132165067Y-65562401D01*
X132128201Y-65559500D01*
X132128194Y-65559500D01*
X131716519Y-65559500D01*
X131649480Y-65539815D01*
X131628838Y-65523181D01*
X130276819Y-64171162D01*
X130243334Y-64109839D01*
X130240500Y-64083481D01*
X130240500Y-56940493D01*
X130259508Y-56874519D01*
X130265787Y-56864525D01*
X130265786Y-56864525D01*
X130265789Y-56864522D01*
X130325368Y-56694255D01*
X130337567Y-56585984D01*
X130345565Y-56515003D01*
X130345565Y-56514996D01*
X130325369Y-56335750D01*
X130325368Y-56335745D01*
X130265788Y-56165476D01*
X130169815Y-56012737D01*
X130042262Y-55885184D01*
X129889523Y-55789211D01*
X129719254Y-55729631D01*
X129719249Y-55729630D01*
X129540004Y-55709435D01*
X129539996Y-55709435D01*
X129360750Y-55729630D01*
X129360745Y-55729631D01*
X129190476Y-55789211D01*
X129037737Y-55885184D01*
X128910184Y-56012737D01*
X128814211Y-56165476D01*
X128754631Y-56335745D01*
X128754630Y-56335750D01*
X128734435Y-56514996D01*
X128734435Y-56515003D01*
X128754630Y-56694249D01*
X128754631Y-56694254D01*
X128814212Y-56864525D01*
X128820492Y-56874519D01*
X128839500Y-56940493D01*
X128839500Y-64356006D01*
X128839500Y-64493994D01*
X128839500Y-64493996D01*
X128839499Y-64493996D01*
X128866418Y-64629322D01*
X128866421Y-64629332D01*
X128919222Y-64756807D01*
X128995887Y-64871545D01*
X128995888Y-64871546D01*
X130200681Y-66076338D01*
X130234166Y-66137661D01*
X130237000Y-66164019D01*
X130237000Y-66575701D01*
X130239901Y-66612567D01*
X130239902Y-66612573D01*
X130285754Y-66770393D01*
X130285755Y-66770396D01*
X130369417Y-66911862D01*
X130369423Y-66911870D01*
X130485629Y-67028076D01*
X130485633Y-67028079D01*
X130485635Y-67028081D01*
X130627102Y-67111744D01*
X130646780Y-67117461D01*
X130784926Y-67157597D01*
X130784929Y-67157597D01*
X130784931Y-67157598D01*
X130821806Y-67160500D01*
X131988000Y-67160500D01*
X132055039Y-67180185D01*
X132100794Y-67232989D01*
X132112000Y-67284500D01*
X132112000Y-67336000D01*
X132092315Y-67403039D01*
X132039511Y-67448794D01*
X131988000Y-67460000D01*
X131725000Y-67460000D01*
X131725000Y-69060000D01*
X132128134Y-69060000D01*
X132128149Y-69059999D01*
X132164989Y-69057100D01*
X132164995Y-69057099D01*
X132322692Y-69011284D01*
X132362378Y-68987814D01*
X132430102Y-68970631D01*
X132496365Y-68992790D01*
X132540128Y-69047256D01*
X132549500Y-69094546D01*
X132549500Y-73075382D01*
X132529815Y-73142421D01*
X132495408Y-73176099D01*
X132496125Y-73177085D01*
X132320213Y-73304890D01*
X132169890Y-73455213D01*
X132044951Y-73627179D01*
X131948444Y-73816585D01*
X131882753Y-74018760D01*
X131849500Y-74228713D01*
X131849500Y-74441286D01*
X131882753Y-74651239D01*
X131905804Y-74722182D01*
X131907799Y-74792023D01*
X131871719Y-74851856D01*
X131809018Y-74882684D01*
X131787873Y-74884500D01*
X126022127Y-74884500D01*
X125955088Y-74864815D01*
X125909333Y-74812011D01*
X125899389Y-74742853D01*
X125904196Y-74722182D01*
X125912996Y-74695099D01*
X125927246Y-74651243D01*
X125960500Y-74441287D01*
X125960500Y-74228713D01*
X125927246Y-74018757D01*
X125861557Y-73816588D01*
X125765051Y-73627184D01*
X125765049Y-73627181D01*
X125765048Y-73627179D01*
X125640109Y-73455213D01*
X125489786Y-73304890D01*
X125313875Y-73177085D01*
X125314851Y-73175740D01*
X125272834Y-73129295D01*
X125260500Y-73075382D01*
X125260500Y-68617940D01*
X125280185Y-68550901D01*
X125296819Y-68530259D01*
X125317077Y-68510001D01*
X130240204Y-68510001D01*
X130240399Y-68512486D01*
X130286218Y-68670198D01*
X130369814Y-68811552D01*
X130369821Y-68811561D01*
X130485938Y-68927678D01*
X130485947Y-68927685D01*
X130627303Y-69011282D01*
X130627306Y-69011283D01*
X130785004Y-69057099D01*
X130785010Y-69057100D01*
X130821850Y-69059999D01*
X130821866Y-69060000D01*
X131225000Y-69060000D01*
X131225000Y-68510000D01*
X130240205Y-68510000D01*
X130240204Y-68510001D01*
X125317077Y-68510001D01*
X125360259Y-68466819D01*
X125421582Y-68433334D01*
X125447940Y-68430500D01*
X125718186Y-68430500D01*
X125718194Y-68430500D01*
X125755069Y-68427598D01*
X125755071Y-68427597D01*
X125755073Y-68427597D01*
X125796691Y-68415505D01*
X125912898Y-68381744D01*
X126054365Y-68298081D01*
X126170581Y-68181865D01*
X126254244Y-68040398D01*
X126263076Y-68009998D01*
X130240204Y-68009998D01*
X130240205Y-68010000D01*
X131225000Y-68010000D01*
X131225000Y-67460000D01*
X130821850Y-67460000D01*
X130785010Y-67462899D01*
X130785004Y-67462900D01*
X130627306Y-67508716D01*
X130627303Y-67508717D01*
X130485947Y-67592314D01*
X130485938Y-67592321D01*
X130369821Y-67708438D01*
X130369814Y-67708447D01*
X130286218Y-67849801D01*
X130240399Y-68007513D01*
X130240204Y-68009998D01*
X126263076Y-68009998D01*
X126300098Y-67882569D01*
X126303000Y-67845694D01*
X126303000Y-67414306D01*
X126300098Y-67377431D01*
X126298652Y-67372455D01*
X126257101Y-67229435D01*
X126257300Y-67159566D01*
X126288494Y-67107161D01*
X127544114Y-65851543D01*
X128179114Y-65216543D01*
X128255775Y-65101811D01*
X128308580Y-64974328D01*
X128330135Y-64865965D01*
X128335500Y-64838996D01*
X128335500Y-53905001D01*
X130240204Y-53905001D01*
X130240399Y-53907486D01*
X130286218Y-54065198D01*
X130369814Y-54206552D01*
X130369821Y-54206561D01*
X130485938Y-54322678D01*
X130485947Y-54322685D01*
X130627303Y-54406282D01*
X130627306Y-54406283D01*
X130785004Y-54452099D01*
X130785010Y-54452100D01*
X130821850Y-54454999D01*
X130821866Y-54455000D01*
X131225000Y-54455000D01*
X131225000Y-53905000D01*
X130240205Y-53905000D01*
X130240204Y-53905001D01*
X128335500Y-53905001D01*
X128335500Y-53404998D01*
X130240204Y-53404998D01*
X130240205Y-53405000D01*
X131225000Y-53405000D01*
X131225000Y-52855000D01*
X130821850Y-52855000D01*
X130785010Y-52857899D01*
X130785004Y-52857900D01*
X130627306Y-52903716D01*
X130627303Y-52903717D01*
X130485947Y-52987314D01*
X130485938Y-52987321D01*
X130369821Y-53103438D01*
X130369814Y-53103447D01*
X130286218Y-53244801D01*
X130240399Y-53402513D01*
X130240204Y-53404998D01*
X128335500Y-53404998D01*
X128335500Y-51776519D01*
X128355185Y-51709480D01*
X128371814Y-51688841D01*
X128469291Y-51591365D01*
X128516016Y-51562006D01*
X128619522Y-51525789D01*
X128772262Y-51429816D01*
X128899816Y-51302262D01*
X128995789Y-51149522D01*
X129055368Y-50979255D01*
X129057489Y-50960432D01*
X129075565Y-50800003D01*
X129075565Y-50799996D01*
X129055369Y-50620750D01*
X129055368Y-50620745D01*
X129032007Y-50553984D01*
X128995789Y-50450478D01*
X128899816Y-50297738D01*
X128772262Y-50170184D01*
X128619523Y-50074211D01*
X128449254Y-50014631D01*
X128449250Y-50014630D01*
X128428104Y-50012248D01*
X128363690Y-49985180D01*
X128324136Y-49927585D01*
X128321999Y-49857748D01*
X128354306Y-49801349D01*
X128574630Y-49581025D01*
X128635951Y-49547542D01*
X128673117Y-49545180D01*
X128678303Y-49545633D01*
X128678308Y-49545635D01*
X128883263Y-49563566D01*
X128904999Y-49565468D01*
X128905000Y-49565468D01*
X128905002Y-49565468D01*
X128961673Y-49560509D01*
X129131692Y-49545635D01*
X129351496Y-49486739D01*
X129557734Y-49390568D01*
X129744139Y-49260047D01*
X129905047Y-49099139D01*
X130035568Y-48912734D01*
X130062618Y-48854724D01*
X130108790Y-48802285D01*
X130175983Y-48783133D01*
X130242865Y-48803348D01*
X130287382Y-48854725D01*
X130314429Y-48912728D01*
X130314432Y-48912734D01*
X130444954Y-49099141D01*
X130605858Y-49260045D01*
X130605861Y-49260047D01*
X130792266Y-49390568D01*
X130998504Y-49486739D01*
X131218308Y-49545635D01*
X131377951Y-49559602D01*
X131444998Y-49565468D01*
X131445000Y-49565468D01*
X131445002Y-49565468D01*
X131501673Y-49560509D01*
X131671692Y-49545635D01*
X131891496Y-49486739D01*
X132097734Y-49390568D01*
X132284139Y-49260047D01*
X132445047Y-49099139D01*
X132575568Y-48912734D01*
X132602618Y-48854724D01*
X132648790Y-48802285D01*
X132715983Y-48783133D01*
X132782865Y-48803348D01*
X132827382Y-48854725D01*
X132854429Y-48912728D01*
X132854432Y-48912734D01*
X132984954Y-49099141D01*
X133145858Y-49260045D01*
X133145861Y-49260047D01*
X133332266Y-49390568D01*
X133538504Y-49486739D01*
X133758308Y-49545635D01*
X133917951Y-49559602D01*
X133984998Y-49565468D01*
X133985000Y-49565468D01*
X133985002Y-49565468D01*
X134041673Y-49560509D01*
X134211692Y-49545635D01*
X134431496Y-49486739D01*
X134637734Y-49390568D01*
X134824139Y-49260047D01*
X134985047Y-49099139D01*
X135115568Y-48912734D01*
X135211739Y-48706496D01*
X135270635Y-48486692D01*
X135286911Y-48300649D01*
X135312363Y-48235582D01*
X135368954Y-48194603D01*
X135438716Y-48190725D01*
X135498120Y-48223777D01*
G37*
%TD.AperFunction*%
%TA.AperFunction,Conductor*%
G36*
X108200000Y-68146988D02*
G01*
X108142993Y-68114075D01*
X108015826Y-68080000D01*
X107884174Y-68080000D01*
X107757007Y-68114075D01*
X107700000Y-68146988D01*
X107700000Y-66473012D01*
X107757007Y-66505925D01*
X107884174Y-66540000D01*
X108015826Y-66540000D01*
X108142993Y-66505925D01*
X108200000Y-66473012D01*
X108200000Y-68146988D01*
G37*
%TD.AperFunction*%
%TA.AperFunction,Conductor*%
G36*
X123058005Y-52521533D02*
G01*
X123164926Y-52552597D01*
X123164929Y-52552597D01*
X123164931Y-52552598D01*
X123201806Y-52555500D01*
X124368000Y-52555500D01*
X124435039Y-52575185D01*
X124480794Y-52627989D01*
X124492000Y-52679500D01*
X124492000Y-52731000D01*
X124472315Y-52798039D01*
X124419511Y-52843794D01*
X124368000Y-52855000D01*
X124105000Y-52855000D01*
X124105000Y-54455000D01*
X124508134Y-54455000D01*
X124508149Y-54454999D01*
X124544989Y-54452100D01*
X124544995Y-54452099D01*
X124702692Y-54406284D01*
X124742378Y-54382814D01*
X124810102Y-54365631D01*
X124876365Y-54387790D01*
X124920128Y-54442256D01*
X124929500Y-54489546D01*
X124929500Y-56807060D01*
X124909815Y-56874099D01*
X124893181Y-56894741D01*
X124714741Y-57073181D01*
X124653418Y-57106666D01*
X124627060Y-57109500D01*
X124203713Y-57109500D01*
X124168773Y-57115034D01*
X123993760Y-57142753D01*
X123791585Y-57208444D01*
X123602179Y-57304951D01*
X123430213Y-57429890D01*
X123279890Y-57580213D01*
X123154951Y-57752179D01*
X123058444Y-57941585D01*
X122992753Y-58143760D01*
X122959500Y-58353713D01*
X122959500Y-58566286D01*
X122986418Y-58736243D01*
X122992754Y-58776243D01*
X123019744Y-58859310D01*
X123058444Y-58978414D01*
X123154951Y-59167820D01*
X123279890Y-59339786D01*
X123418705Y-59478601D01*
X123452190Y-59539924D01*
X123447206Y-59609616D01*
X123405334Y-59665549D01*
X123396121Y-59671821D01*
X123241342Y-59767289D01*
X123117289Y-59891342D01*
X123025187Y-60040663D01*
X123025186Y-60040666D01*
X122970001Y-60207203D01*
X122970001Y-60207204D01*
X122970000Y-60207204D01*
X122959500Y-60309983D01*
X122959500Y-61610001D01*
X122959501Y-61610018D01*
X122970000Y-61712796D01*
X122970001Y-61712799D01*
X122990366Y-61774255D01*
X123025186Y-61879334D01*
X123117288Y-62028656D01*
X123241344Y-62152712D01*
X123390666Y-62244814D01*
X123557203Y-62299999D01*
X123659991Y-62310500D01*
X125260008Y-62310499D01*
X125362797Y-62299999D01*
X125529334Y-62244814D01*
X125678656Y-62152712D01*
X125802712Y-62028656D01*
X125894814Y-61879334D01*
X125949999Y-61712797D01*
X125960500Y-61610009D01*
X125960499Y-60309992D01*
X125949999Y-60207203D01*
X125894814Y-60040666D01*
X125802712Y-59891344D01*
X125678656Y-59767288D01*
X125529334Y-59675186D01*
X125529333Y-59675185D01*
X125523878Y-59671821D01*
X125477154Y-59619873D01*
X125465931Y-59550910D01*
X125493775Y-59486828D01*
X125501272Y-59478623D01*
X125640104Y-59339792D01*
X125662426Y-59309069D01*
X125765048Y-59167820D01*
X125765047Y-59167820D01*
X125765051Y-59167816D01*
X125861557Y-58978412D01*
X125927246Y-58776243D01*
X125960500Y-58566287D01*
X125960500Y-58353713D01*
X125946314Y-58264148D01*
X125934542Y-58189821D01*
X125943497Y-58120527D01*
X125969329Y-58082747D01*
X126351789Y-57700289D01*
X126390161Y-57642861D01*
X126439394Y-57569179D01*
X126499737Y-57423497D01*
X126530500Y-57268842D01*
X126530500Y-53555503D01*
X126550185Y-53488464D01*
X126591377Y-53448772D01*
X126719365Y-53373081D01*
X126719370Y-53373076D01*
X126722819Y-53369628D01*
X126784142Y-53336143D01*
X126853834Y-53341127D01*
X126909767Y-53382999D01*
X126934184Y-53448463D01*
X126934500Y-53457309D01*
X126934500Y-63323070D01*
X126914815Y-63390109D01*
X126862011Y-63435864D01*
X126792853Y-63445808D01*
X126744530Y-63428065D01*
X126714524Y-63409211D01*
X126544254Y-63349631D01*
X126544249Y-63349630D01*
X126365004Y-63329435D01*
X126364996Y-63329435D01*
X126185750Y-63349630D01*
X126185745Y-63349631D01*
X126015476Y-63409211D01*
X125862737Y-63505184D01*
X125735184Y-63632737D01*
X125639212Y-63785475D01*
X125639210Y-63785478D01*
X125602993Y-63888982D01*
X125573634Y-63935708D01*
X125476162Y-64033181D01*
X125414839Y-64066666D01*
X125388480Y-64069500D01*
X120356519Y-64069500D01*
X120289480Y-64049815D01*
X120268838Y-64033181D01*
X119148337Y-62912680D01*
X119114852Y-62851357D01*
X119119836Y-62781665D01*
X119148333Y-62737322D01*
X119346338Y-62539317D01*
X119407661Y-62505833D01*
X119434019Y-62502999D01*
X119666670Y-62502999D01*
X119666676Y-62502999D01*
X119767753Y-62492674D01*
X119931516Y-62438408D01*
X120078350Y-62347840D01*
X120200340Y-62225850D01*
X120290908Y-62079016D01*
X120345174Y-61915253D01*
X120355500Y-61814177D01*
X120355499Y-61215824D01*
X120345174Y-61114747D01*
X120290908Y-60950984D01*
X120200340Y-60804150D01*
X120086371Y-60690181D01*
X120052886Y-60628858D01*
X120057870Y-60559166D01*
X120086371Y-60514819D01*
X120200340Y-60400850D01*
X120290908Y-60254016D01*
X120345174Y-60090253D01*
X120355500Y-59989177D01*
X120355499Y-59390824D01*
X120353908Y-59375253D01*
X120345174Y-59289747D01*
X120340018Y-59274187D01*
X120290908Y-59125984D01*
X120200340Y-58979150D01*
X120116819Y-58895629D01*
X120083334Y-58834306D01*
X120080500Y-58807948D01*
X120080500Y-58069552D01*
X120100185Y-58002513D01*
X120116819Y-57981871D01*
X120157105Y-57941585D01*
X120200340Y-57898350D01*
X120290908Y-57751516D01*
X120345174Y-57587753D01*
X120355500Y-57486677D01*
X120355499Y-56813324D01*
X120345174Y-56712247D01*
X120290908Y-56548484D01*
X120200340Y-56401650D01*
X120161371Y-56362681D01*
X120127886Y-56301358D01*
X120132870Y-56231666D01*
X120161371Y-56187319D01*
X120200340Y-56148350D01*
X120290908Y-56001516D01*
X120304841Y-55959466D01*
X120334864Y-55910791D01*
X122409633Y-53836023D01*
X122470952Y-53802541D01*
X122540644Y-53807525D01*
X122596577Y-53849397D01*
X122619291Y-53901424D01*
X122620398Y-53907488D01*
X122666216Y-54065193D01*
X122666217Y-54065196D01*
X122749814Y-54206552D01*
X122749821Y-54206561D01*
X122865938Y-54322678D01*
X122865947Y-54322685D01*
X123007303Y-54406282D01*
X123007306Y-54406283D01*
X123165004Y-54452099D01*
X123165010Y-54452100D01*
X123201850Y-54454999D01*
X123201866Y-54455000D01*
X123605000Y-54455000D01*
X123605000Y-52855000D01*
X123201850Y-52855000D01*
X123165010Y-52857899D01*
X123165004Y-52857900D01*
X123033095Y-52896224D01*
X122963225Y-52896025D01*
X122904555Y-52858083D01*
X122875712Y-52794444D01*
X122874500Y-52777148D01*
X122874500Y-52665519D01*
X122894185Y-52598480D01*
X122910819Y-52577838D01*
X122935729Y-52552928D01*
X122997052Y-52519443D01*
X123058005Y-52521533D01*
G37*
%TD.AperFunction*%
%TA.AperFunction,Conductor*%
G36*
X127525110Y-50250185D02*
G01*
X127570865Y-50302989D01*
X127580809Y-50372147D01*
X127563064Y-50420473D01*
X127544213Y-50450472D01*
X127544211Y-50450476D01*
X127507992Y-50553984D01*
X127478632Y-50600709D01*
X127090885Y-50988456D01*
X127025096Y-51086917D01*
X127025096Y-51086919D01*
X127020031Y-51094500D01*
X127014226Y-51103187D01*
X127014223Y-51103192D01*
X126961420Y-51230671D01*
X126961418Y-51230677D01*
X126934500Y-51366004D01*
X126934500Y-51952691D01*
X126914815Y-52019730D01*
X126862011Y-52065485D01*
X126792853Y-52075429D01*
X126729297Y-52046404D01*
X126722819Y-52040372D01*
X126719370Y-52036923D01*
X126719362Y-52036917D01*
X126577896Y-51953255D01*
X126577893Y-51953254D01*
X126420073Y-51907402D01*
X126420067Y-51907401D01*
X126383201Y-51904500D01*
X126383194Y-51904500D01*
X125217000Y-51904500D01*
X125149961Y-51884815D01*
X125104206Y-51832011D01*
X125093000Y-51780500D01*
X125093000Y-51539313D01*
X125092999Y-51539298D01*
X125091625Y-51521843D01*
X125090098Y-51502431D01*
X125074811Y-51449815D01*
X125044245Y-51344606D01*
X125044244Y-51344603D01*
X125044244Y-51344602D01*
X124960581Y-51203135D01*
X124960579Y-51203133D01*
X124960576Y-51203129D01*
X124838849Y-51081402D01*
X124840990Y-51079260D01*
X124808361Y-51034070D01*
X124804578Y-50964303D01*
X124837589Y-50905066D01*
X125475838Y-50266819D01*
X125537161Y-50233334D01*
X125563519Y-50230500D01*
X127458071Y-50230500D01*
X127525110Y-50250185D01*
G37*
%TD.AperFunction*%
%TD*%
M02*
