%TF.GenerationSoftware,KiCad,Pcbnew,8.0.6*%
%TF.CreationDate,2025-12-01T17:23:22+09:00*%
%TF.ProjectId,circuit,63697263-7569-4742-9e6b-696361645f70,rev?*%
%TF.SameCoordinates,Original*%
%TF.FileFunction,Copper,L2,Bot*%
%TF.FilePolarity,Positive*%
%FSLAX46Y46*%
G04 Gerber Fmt 4.6, Leading zero omitted, Abs format (unit mm)*
G04 Created by KiCad (PCBNEW 8.0.6) date 2025-12-01 17:23:22*
%MOMM*%
%LPD*%
G01*
G04 APERTURE LIST*
G04 Aperture macros list*
%AMRoundRect*
0 Rectangle with rounded corners*
0 $1 Rounding radius*
0 $2 $3 $4 $5 $6 $7 $8 $9 X,Y pos of 4 corners*
0 Add a 4 corners polygon primitive as box body*
4,1,4,$2,$3,$4,$5,$6,$7,$8,$9,$2,$3,0*
0 Add four circle primitives for the rounded corners*
1,1,$1+$1,$2,$3*
1,1,$1+$1,$4,$5*
1,1,$1+$1,$6,$7*
1,1,$1+$1,$8,$9*
0 Add four rect primitives between the rounded corners*
20,1,$1+$1,$2,$3,$4,$5,0*
20,1,$1+$1,$4,$5,$6,$7,0*
20,1,$1+$1,$6,$7,$8,$9,0*
20,1,$1+$1,$8,$9,$2,$3,0*%
G04 Aperture macros list end*
%TA.AperFunction,ComponentPad*%
%ADD10R,1.700000X1.700000*%
%TD*%
%TA.AperFunction,ComponentPad*%
%ADD11O,1.700000X1.700000*%
%TD*%
%TA.AperFunction,ComponentPad*%
%ADD12RoundRect,0.250000X0.750000X-0.600000X0.750000X0.600000X-0.750000X0.600000X-0.750000X-0.600000X0*%
%TD*%
%TA.AperFunction,ComponentPad*%
%ADD13O,2.000000X1.700000*%
%TD*%
%TA.AperFunction,ComponentPad*%
%ADD14RoundRect,0.250000X-0.350000X-0.625000X0.350000X-0.625000X0.350000X0.625000X-0.350000X0.625000X0*%
%TD*%
%TA.AperFunction,ComponentPad*%
%ADD15O,1.200000X1.750000*%
%TD*%
%TA.AperFunction,ComponentPad*%
%ADD16R,1.600000X1.600000*%
%TD*%
%TA.AperFunction,ComponentPad*%
%ADD17C,1.600000*%
%TD*%
%TA.AperFunction,ComponentPad*%
%ADD18RoundRect,0.250000X-0.725000X0.600000X-0.725000X-0.600000X0.725000X-0.600000X0.725000X0.600000X0*%
%TD*%
%TA.AperFunction,ComponentPad*%
%ADD19O,1.950000X1.700000*%
%TD*%
%TA.AperFunction,ComponentPad*%
%ADD20R,3.500000X3.500000*%
%TD*%
%TA.AperFunction,ComponentPad*%
%ADD21RoundRect,0.750000X-0.750000X-1.000000X0.750000X-1.000000X0.750000X1.000000X-0.750000X1.000000X0*%
%TD*%
%TA.AperFunction,ComponentPad*%
%ADD22RoundRect,0.875000X-0.875000X-0.875000X0.875000X-0.875000X0.875000X0.875000X-0.875000X0.875000X0*%
%TD*%
%TA.AperFunction,ComponentPad*%
%ADD23O,1.600000X1.600000*%
%TD*%
%TA.AperFunction,ViaPad*%
%ADD24C,0.600000*%
%TD*%
%TA.AperFunction,Conductor*%
%ADD25C,0.400000*%
%TD*%
%TA.AperFunction,Conductor*%
%ADD26C,1.000000*%
%TD*%
%TA.AperFunction,Conductor*%
%ADD27C,2.000000*%
%TD*%
%TA.AperFunction,Conductor*%
%ADD28C,0.600000*%
%TD*%
G04 APERTURE END LIST*
D10*
%TO.P,J12,1,Pin_1*%
%TO.N,+5V*%
X90805000Y-74295000D03*
D11*
%TO.P,J12,2,Pin_2*%
X90805000Y-76835000D03*
%TO.P,J12,3,Pin_3*%
%TO.N,GND*%
X88265000Y-74295000D03*
%TO.P,J12,4,Pin_4*%
X88265000Y-76835000D03*
%TD*%
D12*
%TO.P,J3,1,Pin_1*%
%TO.N,+24V*%
X124460000Y-60960000D03*
D13*
%TO.P,J3,2,Pin_2*%
%TO.N,Net-(J3-Pin_2)*%
X124460000Y-58460000D03*
%TD*%
D14*
%TO.P,J7,1,Pin_1*%
%TO.N,+24V*%
X124810000Y-87630000D03*
D15*
%TO.P,J7,2,Pin_2*%
%TO.N,unconnected-(J7-Pin_2-Pad2)*%
X126810000Y-87630000D03*
%TO.P,J7,3,Pin_3*%
%TO.N,unconnected-(J7-Pin_3-Pad3)*%
X128810000Y-87630000D03*
%TO.P,J7,4,Pin_4*%
%TO.N,FLOW_SENSE*%
X130810000Y-87630000D03*
%TO.P,J7,5,Pin_5*%
%TO.N,GND*%
X132810000Y-87630000D03*
%TD*%
D10*
%TO.P,J11,1,Pin_1*%
%TO.N,+24V*%
X105410000Y-68580000D03*
D11*
%TO.P,J11,2,Pin_2*%
X105410000Y-66040000D03*
%TO.P,J11,3,Pin_3*%
%TO.N,GND*%
X107950000Y-68580000D03*
%TO.P,J11,4,Pin_4*%
X107950000Y-66040000D03*
%TD*%
D12*
%TO.P,J10,1,Pin_1*%
%TO.N,+24V*%
X133350000Y-76835000D03*
D13*
%TO.P,J10,2,Pin_2*%
%TO.N,Net-(J10-Pin_2)*%
X133350000Y-74335000D03*
%TD*%
D16*
%TO.P,C1,1*%
%TO.N,+24V*%
X106990000Y-58420000D03*
D17*
%TO.P,C1,2*%
%TO.N,GND*%
X110490000Y-58420000D03*
%TD*%
D14*
%TO.P,J5,1,Pin_1*%
%TO.N,+24V*%
X108300000Y-82000000D03*
D15*
%TO.P,J5,2,Pin_2*%
%TO.N,unconnected-(J5-Pin_2-Pad2)*%
X110300000Y-82000000D03*
%TO.P,J5,3,Pin_3*%
%TO.N,GND*%
X112300000Y-82000000D03*
%TO.P,J5,4,Pin_4*%
%TO.N,PRESSURE2_SENSE*%
X114300000Y-82000000D03*
%TD*%
D12*
%TO.P,J9,1,Pin_1*%
%TO.N,+24V*%
X133350000Y-60920000D03*
D13*
%TO.P,J9,2,Pin_2*%
%TO.N,Net-(J9-Pin_2)*%
X133350000Y-58420000D03*
%TD*%
D14*
%TO.P,J4,1,Pin_1*%
%TO.N,+24V*%
X108300000Y-89620000D03*
D15*
%TO.P,J4,2,Pin_2*%
%TO.N,unconnected-(J4-Pin_2-Pad2)*%
X110300000Y-89620000D03*
%TO.P,J4,3,Pin_3*%
%TO.N,GND*%
X112300000Y-89620000D03*
%TO.P,J4,4,Pin_4*%
%TO.N,PRESSURE1_SENSE*%
X114300000Y-89620000D03*
%TD*%
D14*
%TO.P,J6,1,Pin_1*%
%TO.N,+24V*%
X108300000Y-74577500D03*
D15*
%TO.P,J6,2,Pin_2*%
%TO.N,unconnected-(J6-Pin_2-Pad2)*%
X110300000Y-74577500D03*
%TO.P,J6,3,Pin_3*%
%TO.N,GND*%
X112300000Y-74577500D03*
%TO.P,J6,4,Pin_4*%
%TO.N,PRESSURE3_SENSE*%
X114300000Y-74577500D03*
%TD*%
D18*
%TO.P,J2,1,Pin_1*%
%TO.N,+24V*%
X97790000Y-82550000D03*
D19*
%TO.P,J2,2,Pin_2*%
%TO.N,REG_SENSE*%
X97790000Y-85050000D03*
%TO.P,J2,3,Pin_3*%
%TO.N,GND*%
X97790000Y-87550000D03*
%TO.P,J2,4,Pin_4*%
%TO.N,REG_INPUT*%
X97790000Y-90050000D03*
%TD*%
D20*
%TO.P,J1,1*%
%TO.N,+24V*%
X101250000Y-61272500D03*
D21*
%TO.P,J1,2*%
%TO.N,GND*%
X95250000Y-61272500D03*
D22*
%TO.P,J1,3*%
%TO.N,unconnected-(J1-Pad3)*%
X98250000Y-65972500D03*
%TD*%
D12*
%TO.P,J8,1,Pin_1*%
%TO.N,+24V*%
X124460000Y-76835000D03*
D13*
%TO.P,J8,2,Pin_2*%
%TO.N,Net-(J8-Pin_2)*%
X124460000Y-74335000D03*
%TD*%
D16*
%TO.P,A1,1,NC*%
%TO.N,unconnected-(A1-NC-Pad1)*%
X98425000Y-96520000D03*
D23*
%TO.P,A1,2,IOREF*%
%TO.N,unconnected-(A1-IOREF-Pad2)*%
X100965000Y-96520000D03*
%TO.P,A1,3,~{RESET}*%
%TO.N,unconnected-(A1-~{RESET}-Pad3)*%
X103505000Y-96520000D03*
%TO.P,A1,4,3V3*%
%TO.N,unconnected-(A1-3V3-Pad4)*%
X106045000Y-96520000D03*
%TO.P,A1,5,+5V*%
%TO.N,unconnected-(A1-+5V-Pad5)*%
X108585000Y-96520000D03*
%TO.P,A1,6,GND*%
%TO.N,GND*%
X111125000Y-96520000D03*
%TO.P,A1,7,GND*%
X113665000Y-96520000D03*
%TO.P,A1,8,VIN*%
%TO.N,unconnected-(A1-VIN-Pad8)*%
X116205000Y-96520000D03*
%TO.P,A1,9,A0*%
%TO.N,REG_SENSE*%
X121285000Y-96520000D03*
%TO.P,A1,10,A1*%
%TO.N,FLOW_SENSE*%
X123825000Y-96520000D03*
%TO.P,A1,11,A2*%
%TO.N,PRESSURE1_SENSE*%
X126365000Y-96520000D03*
%TO.P,A1,12,A3*%
%TO.N,PRESSURE2_SENSE*%
X128905000Y-96520000D03*
%TO.P,A1,13,SDA/A4*%
%TO.N,PRESSURE3_SENSE*%
X131445000Y-96520000D03*
%TO.P,A1,14,SCL/A5*%
%TO.N,Net-(A1-SCL{slash}A5-Pad14)*%
X133985000Y-96520000D03*
%TO.P,A1,15,D0/RX*%
%TO.N,unconnected-(A1-D0{slash}RX-Pad15)*%
X133985000Y-48260000D03*
%TO.P,A1,16,D1/TX*%
%TO.N,unconnected-(A1-D1{slash}TX-Pad16)*%
X131445000Y-48260000D03*
%TO.P,A1,17,D2*%
%TO.N,VALVE1*%
X128905000Y-48260000D03*
%TO.P,A1,18,D3*%
%TO.N,VALVE2*%
X126365000Y-48260000D03*
%TO.P,A1,19,D4*%
%TO.N,VALVE3*%
X123825000Y-48260000D03*
%TO.P,A1,20,D5*%
%TO.N,VALVE4*%
X121285000Y-48260000D03*
%TO.P,A1,21,D6*%
%TO.N,unconnected-(A1-D6-Pad21)*%
X118745000Y-48260000D03*
%TO.P,A1,22,D7*%
%TO.N,unconnected-(A1-D7-Pad22)*%
X116205000Y-48260000D03*
%TO.P,A1,23,D8*%
%TO.N,unconnected-(A1-D8-Pad23)*%
X112145000Y-48260000D03*
%TO.P,A1,24,D9*%
%TO.N,unconnected-(A1-D9-Pad24)*%
X109605000Y-48260000D03*
%TO.P,A1,25,D10*%
%TO.N,unconnected-(A1-D10-Pad25)*%
X107065000Y-48260000D03*
%TO.P,A1,26,D11*%
%TO.N,unconnected-(A1-D11-Pad26)*%
X104525000Y-48260000D03*
%TO.P,A1,27,D12*%
%TO.N,unconnected-(A1-D12-Pad27)*%
X101985000Y-48260000D03*
%TO.P,A1,28,D13*%
%TO.N,unconnected-(A1-D13-Pad28)*%
X99445000Y-48260000D03*
%TO.P,A1,29,GND*%
%TO.N,GND*%
X96905000Y-48260000D03*
%TO.P,A1,30,AREF*%
%TO.N,unconnected-(A1-AREF-Pad30)*%
X94365000Y-48260000D03*
%TO.P,A1,31,SDA/A4*%
%TO.N,SDA*%
X91825000Y-48260000D03*
%TO.P,A1,32,SCL/A5*%
%TO.N,SCL*%
X89285000Y-48260000D03*
%TD*%
D24*
%TO.N,GND*%
X90678000Y-85852000D03*
X130048000Y-77470000D03*
X100584000Y-73152000D03*
X116840000Y-67818000D03*
X123190000Y-46228000D03*
X86106000Y-49022000D03*
X95250000Y-73660000D03*
X118364000Y-97028000D03*
X97790000Y-74676000D03*
X117856000Y-78740000D03*
X114808000Y-66548000D03*
X138430000Y-89408000D03*
X135128000Y-83312000D03*
X122555000Y-55245000D03*
X138684000Y-47752000D03*
X120142000Y-62992000D03*
X135128000Y-91694000D03*
X120904000Y-69596000D03*
X117602000Y-74930000D03*
X120015000Y-93345000D03*
X118110000Y-83185000D03*
X102870000Y-92202000D03*
X122174000Y-84328000D03*
X122555000Y-93345000D03*
X130556000Y-89408000D03*
X103378000Y-72390000D03*
X136906000Y-88138000D03*
X135255000Y-59690000D03*
X114046000Y-50546000D03*
X93472000Y-88138000D03*
X128270000Y-66548000D03*
X126340026Y-50648026D03*
X102870000Y-85598000D03*
X131572000Y-70866000D03*
X120904000Y-73660000D03*
X122174000Y-80772000D03*
X105410000Y-90678000D03*
X103124000Y-80010000D03*
X90932000Y-92202000D03*
X116840000Y-66040000D03*
X134620000Y-65278000D03*
X134112000Y-94234000D03*
X96012000Y-74676000D03*
X134366000Y-81788000D03*
X131064000Y-93218000D03*
X129286000Y-68326000D03*
X101092000Y-66548000D03*
X126238000Y-51562000D03*
X90424000Y-80772000D03*
X95250000Y-70612000D03*
X119888000Y-76962000D03*
X89662000Y-52578000D03*
X132588000Y-94234000D03*
X102108000Y-74422000D03*
X121666000Y-67818000D03*
X106680000Y-78740000D03*
X119888000Y-50292000D03*
X86360000Y-96266000D03*
X95504000Y-88138000D03*
X130175000Y-55245000D03*
X88392000Y-72136000D03*
X94742000Y-50800000D03*
X104902000Y-50800000D03*
X122555000Y-58420000D03*
X130175000Y-50165000D03*
X94996000Y-53594000D03*
X121158000Y-98552000D03*
X104140000Y-93472000D03*
X121920000Y-92075000D03*
X99060000Y-69342000D03*
X112268000Y-69088000D03*
X100584000Y-74676000D03*
X86360000Y-98298000D03*
X132080000Y-55245000D03*
X95504000Y-75946000D03*
X96774000Y-70612000D03*
X104394000Y-89408000D03*
X89408000Y-86106000D03*
X103124000Y-69088000D03*
X119888000Y-51562000D03*
X132842000Y-80518000D03*
X123825000Y-93345000D03*
X116332000Y-85852000D03*
X104902000Y-52324000D03*
X137922000Y-46482000D03*
X108966000Y-63246000D03*
X99568000Y-77978000D03*
X88392000Y-93218000D03*
X134620000Y-92964000D03*
X121285000Y-93345000D03*
X93980000Y-52324000D03*
X119380000Y-83820000D03*
X114046000Y-46228000D03*
X90678000Y-84582000D03*
X86106000Y-46990000D03*
X102108000Y-72898000D03*
X123952000Y-98552000D03*
X123825000Y-55245000D03*
X128905000Y-54610000D03*
X96012000Y-77216000D03*
X101346000Y-85090000D03*
X116840000Y-69596000D03*
X110236000Y-66040000D03*
X88138000Y-79756000D03*
X90932000Y-51308000D03*
X90932000Y-89662000D03*
X112776000Y-63246000D03*
X95250000Y-92202000D03*
X113538000Y-67818000D03*
X128778000Y-65532000D03*
X93218000Y-80010000D03*
X110998000Y-63246000D03*
X120904000Y-71628000D03*
X121158000Y-78232000D03*
X128905000Y-52070000D03*
X134366000Y-84836000D03*
X127254000Y-89408000D03*
X135255000Y-53340000D03*
X136525000Y-54610000D03*
X122682000Y-70612000D03*
X133350000Y-91694000D03*
X106426000Y-93980000D03*
X104902000Y-54102000D03*
X94488000Y-72136000D03*
X95504000Y-89408000D03*
X134620000Y-62865000D03*
X103378000Y-88392000D03*
X88392000Y-70358000D03*
X92456000Y-92202000D03*
X105410000Y-83820000D03*
X95504000Y-84582000D03*
X135255000Y-57150000D03*
X111252000Y-93980000D03*
X90170000Y-63500000D03*
X118872000Y-75946000D03*
X138938000Y-75946000D03*
X109220000Y-71882000D03*
X88138000Y-98298000D03*
X90170000Y-59944000D03*
X121158000Y-46228000D03*
X115316000Y-58420000D03*
X98552000Y-78994000D03*
X110490000Y-70612000D03*
X119380000Y-85090000D03*
X108966000Y-93980000D03*
X95758000Y-83312000D03*
X120904000Y-70612000D03*
X101854000Y-91186000D03*
X90170000Y-61722000D03*
X122174000Y-82550000D03*
X138430000Y-63500000D03*
X93472000Y-85852000D03*
X138430000Y-64770000D03*
X126238000Y-73152000D03*
X136525000Y-53340000D03*
X129540000Y-66294000D03*
X89662000Y-72136000D03*
X86868000Y-91948000D03*
X121285000Y-59055000D03*
X113792000Y-93980000D03*
X117094000Y-58420000D03*
X118745000Y-92075000D03*
X129540000Y-91948000D03*
X99060000Y-54610000D03*
X116840000Y-64262000D03*
X122174000Y-86106000D03*
X135255000Y-50165000D03*
X89408000Y-84836000D03*
X115824000Y-94234000D03*
X117094000Y-77978000D03*
X102362000Y-87376000D03*
X120904000Y-63500000D03*
X110236000Y-86106000D03*
X120650000Y-90805000D03*
X126492000Y-62992000D03*
X104394000Y-84836000D03*
X120650000Y-57785000D03*
X104648000Y-78486000D03*
X113792000Y-58420000D03*
X135255000Y-54610000D03*
X128905000Y-53340000D03*
%TO.N,VALVE4*%
X120650000Y-53340000D03*
X129540000Y-56515000D03*
%TO.N,VALVE2*%
X128270000Y-50800000D03*
%TO.N,+5V*%
X107315000Y-71120000D03*
X138430000Y-61595000D03*
X118110000Y-62865000D03*
X126365000Y-64135000D03*
%TD*%
D25*
%TO.N,VALVE4*%
X120650000Y-55880000D02*
X120650000Y-53340000D01*
X129540000Y-56515000D02*
X121285000Y-56515000D01*
X121285000Y-56515000D02*
X120650000Y-55880000D01*
%TO.N,VALVE2*%
X128270000Y-50800000D02*
X128270000Y-50165000D01*
X128270000Y-50165000D02*
X126365000Y-48260000D01*
D26*
%TO.N,+24V*%
X106990000Y-64460000D02*
X105410000Y-66040000D01*
X105410000Y-74930000D02*
X97790000Y-82550000D01*
X108300000Y-74577500D02*
X108300000Y-82000000D01*
X108300000Y-82000000D02*
X108300000Y-86515000D01*
D27*
X124460000Y-60960000D02*
X133310000Y-60960000D01*
D26*
X105410000Y-68580000D02*
X105410000Y-74930000D01*
D27*
X128905000Y-73390000D02*
X132350000Y-76835000D01*
D26*
X108300000Y-88745000D02*
X109415000Y-87630000D01*
D27*
X106990000Y-58420000D02*
X109530000Y-60960000D01*
X124460000Y-60960000D02*
X124460000Y-67310000D01*
X125460000Y-76835000D02*
X124460000Y-76835000D01*
D26*
X105410000Y-66040000D02*
X105410000Y-68580000D01*
D27*
X132350000Y-76835000D02*
X133350000Y-76835000D01*
X124460000Y-67310000D02*
X128905000Y-71755000D01*
X128905000Y-71755000D02*
X128905000Y-73390000D01*
D26*
X106990000Y-58420000D02*
X106990000Y-64460000D01*
X108300000Y-86515000D02*
X109415000Y-87630000D01*
D27*
X101250000Y-61272500D02*
X104137500Y-61272500D01*
D26*
X109415000Y-87630000D02*
X124810000Y-87630000D01*
D27*
X133310000Y-60960000D02*
X133350000Y-60920000D01*
X128905000Y-73390000D02*
X125460000Y-76835000D01*
D26*
X108300000Y-89620000D02*
X108300000Y-88745000D01*
D27*
X109530000Y-60960000D02*
X124460000Y-60960000D01*
D26*
X105410000Y-68580000D02*
X105410000Y-71687500D01*
D27*
X104137500Y-61272500D02*
X106990000Y-58420000D01*
D26*
X105410000Y-71687500D02*
X108300000Y-74577500D01*
D28*
%TO.N,+5V*%
X107315000Y-71120000D02*
X107319189Y-71120000D01*
X107319189Y-71120000D02*
X115574189Y-62865000D01*
X115574189Y-62865000D02*
X118110000Y-62865000D01*
D25*
X135890000Y-64135000D02*
X138430000Y-61595000D01*
X126365000Y-64135000D02*
X135890000Y-64135000D01*
%TD*%
%TA.AperFunction,Conductor*%
%TO.N,GND*%
G36*
X113199075Y-96327007D02*
G01*
X113165000Y-96454174D01*
X113165000Y-96585826D01*
X113199075Y-96712993D01*
X113231988Y-96770000D01*
X111558012Y-96770000D01*
X111590925Y-96712993D01*
X111625000Y-96585826D01*
X111625000Y-96454174D01*
X111590925Y-96327007D01*
X111558012Y-96270000D01*
X113231988Y-96270000D01*
X113199075Y-96327007D01*
G37*
%TD.AperFunction*%
%TA.AperFunction,Conductor*%
G36*
X108200000Y-68146988D02*
G01*
X108142993Y-68114075D01*
X108015826Y-68080000D01*
X107884174Y-68080000D01*
X107757007Y-68114075D01*
X107700000Y-68146988D01*
X107700000Y-66473012D01*
X107757007Y-66505925D01*
X107884174Y-66540000D01*
X108015826Y-66540000D01*
X108142993Y-66505925D01*
X108200000Y-66473012D01*
X108200000Y-68146988D01*
G37*
%TD.AperFunction*%
%TA.AperFunction,Conductor*%
G36*
X108195703Y-61748176D02*
G01*
X108202181Y-61754208D01*
X108552490Y-62104517D01*
X108743566Y-62243343D01*
X108846781Y-62295933D01*
X108954006Y-62350568D01*
X108954012Y-62350570D01*
X108991462Y-62362738D01*
X108991463Y-62362738D01*
X109064189Y-62386368D01*
X109178631Y-62423553D01*
X109411903Y-62460500D01*
X109411908Y-62460500D01*
X114547249Y-62460500D01*
X114614288Y-62480185D01*
X114660043Y-62532989D01*
X114669987Y-62602147D01*
X114640962Y-62665703D01*
X114634930Y-62672181D01*
X109338211Y-67968897D01*
X109276888Y-68002382D01*
X109207196Y-67997398D01*
X109151263Y-67955526D01*
X109138148Y-67933621D01*
X109123599Y-67902421D01*
X109123597Y-67902417D01*
X108988113Y-67708926D01*
X108988108Y-67708920D01*
X108821082Y-67541894D01*
X108634968Y-67411575D01*
X108591344Y-67356998D01*
X108584151Y-67287499D01*
X108615673Y-67225145D01*
X108634968Y-67208425D01*
X108821082Y-67078105D01*
X108988105Y-66911082D01*
X109123600Y-66717578D01*
X109223429Y-66503492D01*
X109223432Y-66503486D01*
X109280636Y-66290000D01*
X108383012Y-66290000D01*
X108415925Y-66232993D01*
X108450000Y-66105826D01*
X108450000Y-65974174D01*
X108415925Y-65847007D01*
X108383012Y-65790000D01*
X109280636Y-65790000D01*
X109280635Y-65789999D01*
X109223432Y-65576513D01*
X109223429Y-65576507D01*
X109123600Y-65362422D01*
X109123599Y-65362420D01*
X108988113Y-65168926D01*
X108988108Y-65168920D01*
X108821082Y-65001894D01*
X108627578Y-64866399D01*
X108413492Y-64766570D01*
X108413483Y-64766566D01*
X108185326Y-64705432D01*
X108185316Y-64705430D01*
X108102702Y-64698202D01*
X108037634Y-64672749D01*
X107996656Y-64616157D01*
X107990108Y-64562519D01*
X107990500Y-64558539D01*
X107990500Y-61841889D01*
X108010185Y-61774850D01*
X108062989Y-61729095D01*
X108132147Y-61719151D01*
X108195703Y-61748176D01*
G37*
%TD.AperFunction*%
%TA.AperFunction,Conductor*%
G36*
X88515000Y-76401988D02*
G01*
X88457993Y-76369075D01*
X88330826Y-76335000D01*
X88199174Y-76335000D01*
X88072007Y-76369075D01*
X88015000Y-76401988D01*
X88015000Y-74728012D01*
X88072007Y-74760925D01*
X88199174Y-74795000D01*
X88330826Y-74795000D01*
X88457993Y-74760925D01*
X88515000Y-74728012D01*
X88515000Y-76401988D01*
G37*
%TD.AperFunction*%
%TA.AperFunction,Conductor*%
G36*
X139442539Y-45520185D02*
G01*
X139488294Y-45572989D01*
X139499500Y-45624500D01*
X139499500Y-99375500D01*
X139479815Y-99442539D01*
X139427011Y-99488294D01*
X139375500Y-99499500D01*
X85624500Y-99499500D01*
X85557461Y-99479815D01*
X85511706Y-99427011D01*
X85500500Y-99375500D01*
X85500500Y-95672135D01*
X97124500Y-95672135D01*
X97124500Y-97367870D01*
X97124501Y-97367876D01*
X97130908Y-97427483D01*
X97181202Y-97562328D01*
X97181206Y-97562335D01*
X97267452Y-97677544D01*
X97267455Y-97677547D01*
X97382664Y-97763793D01*
X97382671Y-97763797D01*
X97517517Y-97814091D01*
X97517516Y-97814091D01*
X97524444Y-97814835D01*
X97577127Y-97820500D01*
X99272872Y-97820499D01*
X99332483Y-97814091D01*
X99467331Y-97763796D01*
X99582546Y-97677546D01*
X99668796Y-97562331D01*
X99719091Y-97427483D01*
X99722862Y-97392401D01*
X99749599Y-97327855D01*
X99806990Y-97288006D01*
X99876816Y-97285511D01*
X99936905Y-97321163D01*
X99947726Y-97334536D01*
X99964956Y-97359143D01*
X100125858Y-97520045D01*
X100125861Y-97520047D01*
X100312266Y-97650568D01*
X100518504Y-97746739D01*
X100738308Y-97805635D01*
X100900230Y-97819801D01*
X100964998Y-97825468D01*
X100965000Y-97825468D01*
X100965002Y-97825468D01*
X101021807Y-97820498D01*
X101191692Y-97805635D01*
X101411496Y-97746739D01*
X101617734Y-97650568D01*
X101804139Y-97520047D01*
X101965047Y-97359139D01*
X102095568Y-97172734D01*
X102122618Y-97114724D01*
X102168790Y-97062285D01*
X102235983Y-97043133D01*
X102302865Y-97063348D01*
X102347382Y-97114725D01*
X102374429Y-97172728D01*
X102374432Y-97172734D01*
X102504954Y-97359141D01*
X102665858Y-97520045D01*
X102665861Y-97520047D01*
X102852266Y-97650568D01*
X103058504Y-97746739D01*
X103278308Y-97805635D01*
X103440230Y-97819801D01*
X103504998Y-97825468D01*
X103505000Y-97825468D01*
X103505002Y-97825468D01*
X103561807Y-97820498D01*
X103731692Y-97805635D01*
X103951496Y-97746739D01*
X104157734Y-97650568D01*
X104344139Y-97520047D01*
X104505047Y-97359139D01*
X104635568Y-97172734D01*
X104662618Y-97114724D01*
X104708790Y-97062285D01*
X104775983Y-97043133D01*
X104842865Y-97063348D01*
X104887382Y-97114725D01*
X104914429Y-97172728D01*
X104914432Y-97172734D01*
X105044954Y-97359141D01*
X105205858Y-97520045D01*
X105205861Y-97520047D01*
X105392266Y-97650568D01*
X105598504Y-97746739D01*
X105818308Y-97805635D01*
X105980230Y-97819801D01*
X106044998Y-97825468D01*
X106045000Y-97825468D01*
X106045002Y-97825468D01*
X106101807Y-97820498D01*
X106271692Y-97805635D01*
X106491496Y-97746739D01*
X106697734Y-97650568D01*
X106884139Y-97520047D01*
X107045047Y-97359139D01*
X107175568Y-97172734D01*
X107202618Y-97114724D01*
X107248790Y-97062285D01*
X107315983Y-97043133D01*
X107382865Y-97063348D01*
X107427382Y-97114725D01*
X107454429Y-97172728D01*
X107454432Y-97172734D01*
X107584954Y-97359141D01*
X107745858Y-97520045D01*
X107745861Y-97520047D01*
X107932266Y-97650568D01*
X108138504Y-97746739D01*
X108358308Y-97805635D01*
X108520230Y-97819801D01*
X108584998Y-97825468D01*
X108585000Y-97825468D01*
X108585002Y-97825468D01*
X108641807Y-97820498D01*
X108811692Y-97805635D01*
X109031496Y-97746739D01*
X109237734Y-97650568D01*
X109424139Y-97520047D01*
X109585047Y-97359139D01*
X109715568Y-97172734D01*
X109742895Y-97114129D01*
X109789064Y-97061695D01*
X109856257Y-97042542D01*
X109923139Y-97062757D01*
X109967657Y-97114133D01*
X109994865Y-97172482D01*
X110125342Y-97358820D01*
X110286179Y-97519657D01*
X110472517Y-97650134D01*
X110678673Y-97746265D01*
X110678682Y-97746269D01*
X110874999Y-97798872D01*
X110875000Y-97798871D01*
X110875000Y-96953012D01*
X110932007Y-96985925D01*
X111059174Y-97020000D01*
X111190826Y-97020000D01*
X111317993Y-96985925D01*
X111375000Y-96953012D01*
X111375000Y-97798872D01*
X111571317Y-97746269D01*
X111571326Y-97746265D01*
X111777482Y-97650134D01*
X111963820Y-97519657D01*
X112124657Y-97358820D01*
X112255134Y-97172481D01*
X112255135Y-97172479D01*
X112282618Y-97113543D01*
X112328790Y-97061103D01*
X112395983Y-97041951D01*
X112462864Y-97062166D01*
X112507382Y-97113543D01*
X112534864Y-97172479D01*
X112534865Y-97172481D01*
X112665342Y-97358820D01*
X112826179Y-97519657D01*
X113012517Y-97650134D01*
X113218673Y-97746265D01*
X113218682Y-97746269D01*
X113414999Y-97798872D01*
X113415000Y-97798871D01*
X113415000Y-96953012D01*
X113472007Y-96985925D01*
X113599174Y-97020000D01*
X113730826Y-97020000D01*
X113857993Y-96985925D01*
X113915000Y-96953012D01*
X113915000Y-97798872D01*
X114111317Y-97746269D01*
X114111326Y-97746265D01*
X114317482Y-97650134D01*
X114503820Y-97519657D01*
X114664657Y-97358820D01*
X114795132Y-97172484D01*
X114822341Y-97114134D01*
X114868513Y-97061695D01*
X114935707Y-97042542D01*
X115002588Y-97062757D01*
X115047106Y-97114133D01*
X115074431Y-97172732D01*
X115074432Y-97172734D01*
X115204954Y-97359141D01*
X115365858Y-97520045D01*
X115365861Y-97520047D01*
X115552266Y-97650568D01*
X115758504Y-97746739D01*
X115978308Y-97805635D01*
X116140230Y-97819801D01*
X116204998Y-97825468D01*
X116205000Y-97825468D01*
X116205002Y-97825468D01*
X116261807Y-97820498D01*
X116431692Y-97805635D01*
X116651496Y-97746739D01*
X116857734Y-97650568D01*
X117044139Y-97520047D01*
X117205047Y-97359139D01*
X117335568Y-97172734D01*
X117431739Y-96966496D01*
X117490635Y-96746692D01*
X117510468Y-96520000D01*
X117510468Y-96519998D01*
X119979532Y-96519998D01*
X119979532Y-96520001D01*
X119999364Y-96746686D01*
X119999366Y-96746697D01*
X120058258Y-96966488D01*
X120058261Y-96966497D01*
X120154431Y-97172732D01*
X120154432Y-97172734D01*
X120284954Y-97359141D01*
X120445858Y-97520045D01*
X120445861Y-97520047D01*
X120632266Y-97650568D01*
X120838504Y-97746739D01*
X121058308Y-97805635D01*
X121220230Y-97819801D01*
X121284998Y-97825468D01*
X121285000Y-97825468D01*
X121285002Y-97825468D01*
X121341807Y-97820498D01*
X121511692Y-97805635D01*
X121731496Y-97746739D01*
X121937734Y-97650568D01*
X122124139Y-97520047D01*
X122285047Y-97359139D01*
X122415568Y-97172734D01*
X122442618Y-97114724D01*
X122488790Y-97062285D01*
X122555983Y-97043133D01*
X122622865Y-97063348D01*
X122667382Y-97114725D01*
X122694429Y-97172728D01*
X122694432Y-97172734D01*
X122824954Y-97359141D01*
X122985858Y-97520045D01*
X122985861Y-97520047D01*
X123172266Y-97650568D01*
X123378504Y-97746739D01*
X123598308Y-97805635D01*
X123760230Y-97819801D01*
X123824998Y-97825468D01*
X123825000Y-97825468D01*
X123825002Y-97825468D01*
X123881807Y-97820498D01*
X124051692Y-97805635D01*
X124271496Y-97746739D01*
X124477734Y-97650568D01*
X124664139Y-97520047D01*
X124825047Y-97359139D01*
X124955568Y-97172734D01*
X124982618Y-97114724D01*
X125028790Y-97062285D01*
X125095983Y-97043133D01*
X125162865Y-97063348D01*
X125207382Y-97114725D01*
X125234429Y-97172728D01*
X125234432Y-97172734D01*
X125364954Y-97359141D01*
X125525858Y-97520045D01*
X125525861Y-97520047D01*
X125712266Y-97650568D01*
X125918504Y-97746739D01*
X126138308Y-97805635D01*
X126300230Y-97819801D01*
X126364998Y-97825468D01*
X126365000Y-97825468D01*
X126365002Y-97825468D01*
X126421807Y-97820498D01*
X126591692Y-97805635D01*
X126811496Y-97746739D01*
X127017734Y-97650568D01*
X127204139Y-97520047D01*
X127365047Y-97359139D01*
X127495568Y-97172734D01*
X127522618Y-97114724D01*
X127568790Y-97062285D01*
X127635983Y-97043133D01*
X127702865Y-97063348D01*
X127747382Y-97114725D01*
X127774429Y-97172728D01*
X127774432Y-97172734D01*
X127904954Y-97359141D01*
X128065858Y-97520045D01*
X128065861Y-97520047D01*
X128252266Y-97650568D01*
X128458504Y-97746739D01*
X128678308Y-97805635D01*
X128840230Y-97819801D01*
X128904998Y-97825468D01*
X128905000Y-97825468D01*
X128905002Y-97825468D01*
X128961807Y-97820498D01*
X129131692Y-97805635D01*
X129351496Y-97746739D01*
X129557734Y-97650568D01*
X129744139Y-97520047D01*
X129905047Y-97359139D01*
X130035568Y-97172734D01*
X130062618Y-97114724D01*
X130108790Y-97062285D01*
X130175983Y-97043133D01*
X130242865Y-97063348D01*
X130287382Y-97114725D01*
X130314429Y-97172728D01*
X130314432Y-97172734D01*
X130444954Y-97359141D01*
X130605858Y-97520045D01*
X130605861Y-97520047D01*
X130792266Y-97650568D01*
X130998504Y-97746739D01*
X131218308Y-97805635D01*
X131380230Y-97819801D01*
X131444998Y-97825468D01*
X131445000Y-97825468D01*
X131445002Y-97825468D01*
X131501807Y-97820498D01*
X131671692Y-97805635D01*
X131891496Y-97746739D01*
X132097734Y-97650568D01*
X132284139Y-97520047D01*
X132445047Y-97359139D01*
X132575568Y-97172734D01*
X132602618Y-97114724D01*
X132648790Y-97062285D01*
X132715983Y-97043133D01*
X132782865Y-97063348D01*
X132827382Y-97114725D01*
X132854429Y-97172728D01*
X132854432Y-97172734D01*
X132984954Y-97359141D01*
X133145858Y-97520045D01*
X133145861Y-97520047D01*
X133332266Y-97650568D01*
X133538504Y-97746739D01*
X133758308Y-97805635D01*
X133920230Y-97819801D01*
X133984998Y-97825468D01*
X133985000Y-97825468D01*
X133985002Y-97825468D01*
X134041807Y-97820498D01*
X134211692Y-97805635D01*
X134431496Y-97746739D01*
X134637734Y-97650568D01*
X134824139Y-97520047D01*
X134985047Y-97359139D01*
X135115568Y-97172734D01*
X135211739Y-96966496D01*
X135270635Y-96746692D01*
X135290468Y-96520000D01*
X135270635Y-96293308D01*
X135211739Y-96073504D01*
X135115568Y-95867266D01*
X134985047Y-95680861D01*
X134985045Y-95680858D01*
X134824141Y-95519954D01*
X134637734Y-95389432D01*
X134637732Y-95389431D01*
X134431497Y-95293261D01*
X134431488Y-95293258D01*
X134211697Y-95234366D01*
X134211693Y-95234365D01*
X134211692Y-95234365D01*
X134211691Y-95234364D01*
X134211686Y-95234364D01*
X133985002Y-95214532D01*
X133984998Y-95214532D01*
X133758313Y-95234364D01*
X133758302Y-95234366D01*
X133538511Y-95293258D01*
X133538502Y-95293261D01*
X133332267Y-95389431D01*
X133332265Y-95389432D01*
X133145858Y-95519954D01*
X132984954Y-95680858D01*
X132854432Y-95867265D01*
X132854431Y-95867267D01*
X132827382Y-95925275D01*
X132781209Y-95977714D01*
X132714016Y-95996866D01*
X132647135Y-95976650D01*
X132602618Y-95925275D01*
X132575686Y-95867520D01*
X132575568Y-95867266D01*
X132445047Y-95680861D01*
X132445045Y-95680858D01*
X132284141Y-95519954D01*
X132097734Y-95389432D01*
X132097732Y-95389431D01*
X131891497Y-95293261D01*
X131891488Y-95293258D01*
X131671697Y-95234366D01*
X131671693Y-95234365D01*
X131671692Y-95234365D01*
X131671691Y-95234364D01*
X131671686Y-95234364D01*
X131445002Y-95214532D01*
X131444998Y-95214532D01*
X131218313Y-95234364D01*
X131218302Y-95234366D01*
X130998511Y-95293258D01*
X130998502Y-95293261D01*
X130792267Y-95389431D01*
X130792265Y-95389432D01*
X130605858Y-95519954D01*
X130444954Y-95680858D01*
X130314432Y-95867265D01*
X130314431Y-95867267D01*
X130287382Y-95925275D01*
X130241209Y-95977714D01*
X130174016Y-95996866D01*
X130107135Y-95976650D01*
X130062618Y-95925275D01*
X130035686Y-95867520D01*
X130035568Y-95867266D01*
X129905047Y-95680861D01*
X129905045Y-95680858D01*
X129744141Y-95519954D01*
X129557734Y-95389432D01*
X129557732Y-95389431D01*
X129351497Y-95293261D01*
X129351488Y-95293258D01*
X129131697Y-95234366D01*
X129131693Y-95234365D01*
X129131692Y-95234365D01*
X129131691Y-95234364D01*
X129131686Y-95234364D01*
X128905002Y-95214532D01*
X128904998Y-95214532D01*
X128678313Y-95234364D01*
X128678302Y-95234366D01*
X128458511Y-95293258D01*
X128458502Y-95293261D01*
X128252267Y-95389431D01*
X128252265Y-95389432D01*
X128065858Y-95519954D01*
X127904954Y-95680858D01*
X127774432Y-95867265D01*
X127774431Y-95867267D01*
X127747382Y-95925275D01*
X127701209Y-95977714D01*
X127634016Y-95996866D01*
X127567135Y-95976650D01*
X127522618Y-95925275D01*
X127495686Y-95867520D01*
X127495568Y-95867266D01*
X127365047Y-95680861D01*
X127365045Y-95680858D01*
X127204141Y-95519954D01*
X127017734Y-95389432D01*
X127017732Y-95389431D01*
X126811497Y-95293261D01*
X126811488Y-95293258D01*
X126591697Y-95234366D01*
X126591693Y-95234365D01*
X126591692Y-95234365D01*
X126591691Y-95234364D01*
X126591686Y-95234364D01*
X126365002Y-95214532D01*
X126364998Y-95214532D01*
X126138313Y-95234364D01*
X126138302Y-95234366D01*
X125918511Y-95293258D01*
X125918502Y-95293261D01*
X125712267Y-95389431D01*
X125712265Y-95389432D01*
X125525858Y-95519954D01*
X125364954Y-95680858D01*
X125234432Y-95867265D01*
X125234431Y-95867267D01*
X125207382Y-95925275D01*
X125161209Y-95977714D01*
X125094016Y-95996866D01*
X125027135Y-95976650D01*
X124982618Y-95925275D01*
X124955686Y-95867520D01*
X124955568Y-95867266D01*
X124825047Y-95680861D01*
X124825045Y-95680858D01*
X124664141Y-95519954D01*
X124477734Y-95389432D01*
X124477732Y-95389431D01*
X124271497Y-95293261D01*
X124271488Y-95293258D01*
X124051697Y-95234366D01*
X124051693Y-95234365D01*
X124051692Y-95234365D01*
X124051691Y-95234364D01*
X124051686Y-95234364D01*
X123825002Y-95214532D01*
X123824998Y-95214532D01*
X123598313Y-95234364D01*
X123598302Y-95234366D01*
X123378511Y-95293258D01*
X123378502Y-95293261D01*
X123172267Y-95389431D01*
X123172265Y-95389432D01*
X122985858Y-95519954D01*
X122824954Y-95680858D01*
X122694432Y-95867265D01*
X122694431Y-95867267D01*
X122667382Y-95925275D01*
X122621209Y-95977714D01*
X122554016Y-95996866D01*
X122487135Y-95976650D01*
X122442618Y-95925275D01*
X122415686Y-95867520D01*
X122415568Y-95867266D01*
X122285047Y-95680861D01*
X122285045Y-95680858D01*
X122124141Y-95519954D01*
X121937734Y-95389432D01*
X121937732Y-95389431D01*
X121731497Y-95293261D01*
X121731488Y-95293258D01*
X121511697Y-95234366D01*
X121511693Y-95234365D01*
X121511692Y-95234365D01*
X121511691Y-95234364D01*
X121511686Y-95234364D01*
X121285002Y-95214532D01*
X121284998Y-95214532D01*
X121058313Y-95234364D01*
X121058302Y-95234366D01*
X120838511Y-95293258D01*
X120838502Y-95293261D01*
X120632267Y-95389431D01*
X120632265Y-95389432D01*
X120445858Y-95519954D01*
X120284954Y-95680858D01*
X120154432Y-95867265D01*
X120154431Y-95867267D01*
X120058261Y-96073502D01*
X120058258Y-96073511D01*
X119999366Y-96293302D01*
X119999364Y-96293313D01*
X119979532Y-96519998D01*
X117510468Y-96519998D01*
X117490635Y-96293308D01*
X117431739Y-96073504D01*
X117335568Y-95867266D01*
X117205047Y-95680861D01*
X117205045Y-95680858D01*
X117044141Y-95519954D01*
X116857734Y-95389432D01*
X116857732Y-95389431D01*
X116651497Y-95293261D01*
X116651488Y-95293258D01*
X116431697Y-95234366D01*
X116431693Y-95234365D01*
X116431692Y-95234365D01*
X116431691Y-95234364D01*
X116431686Y-95234364D01*
X116205002Y-95214532D01*
X116204998Y-95214532D01*
X115978313Y-95234364D01*
X115978302Y-95234366D01*
X115758511Y-95293258D01*
X115758502Y-95293261D01*
X115552267Y-95389431D01*
X115552265Y-95389432D01*
X115365858Y-95519954D01*
X115204954Y-95680858D01*
X115074433Y-95867264D01*
X115074432Y-95867266D01*
X115074315Y-95867518D01*
X115047106Y-95925867D01*
X115000933Y-95978306D01*
X114933739Y-95997457D01*
X114866858Y-95977241D01*
X114822342Y-95925865D01*
X114795135Y-95867520D01*
X114795134Y-95867518D01*
X114664657Y-95681179D01*
X114503820Y-95520342D01*
X114317482Y-95389865D01*
X114111328Y-95293734D01*
X113915000Y-95241127D01*
X113915000Y-96086988D01*
X113857993Y-96054075D01*
X113730826Y-96020000D01*
X113599174Y-96020000D01*
X113472007Y-96054075D01*
X113415000Y-96086988D01*
X113415000Y-95241127D01*
X113218671Y-95293734D01*
X113012517Y-95389865D01*
X112826179Y-95520342D01*
X112665342Y-95681179D01*
X112534865Y-95867517D01*
X112507382Y-95926457D01*
X112461210Y-95978896D01*
X112394016Y-95998048D01*
X112327135Y-95977832D01*
X112282618Y-95926457D01*
X112255134Y-95867517D01*
X112124657Y-95681179D01*
X111963820Y-95520342D01*
X111777482Y-95389865D01*
X111571328Y-95293734D01*
X111375000Y-95241127D01*
X111375000Y-96086988D01*
X111317993Y-96054075D01*
X111190826Y-96020000D01*
X111059174Y-96020000D01*
X110932007Y-96054075D01*
X110875000Y-96086988D01*
X110875000Y-95241127D01*
X110678671Y-95293734D01*
X110472517Y-95389865D01*
X110286179Y-95520342D01*
X110125342Y-95681179D01*
X109994867Y-95867515D01*
X109967657Y-95925867D01*
X109921484Y-95978306D01*
X109854290Y-95997457D01*
X109787409Y-95977241D01*
X109742893Y-95925865D01*
X109715685Y-95867518D01*
X109715568Y-95867266D01*
X109585047Y-95680861D01*
X109585045Y-95680858D01*
X109424141Y-95519954D01*
X109237734Y-95389432D01*
X109237732Y-95389431D01*
X109031497Y-95293261D01*
X109031488Y-95293258D01*
X108811697Y-95234366D01*
X108811693Y-95234365D01*
X108811692Y-95234365D01*
X108811691Y-95234364D01*
X108811686Y-95234364D01*
X108585002Y-95214532D01*
X108584998Y-95214532D01*
X108358313Y-95234364D01*
X108358302Y-95234366D01*
X108138511Y-95293258D01*
X108138502Y-95293261D01*
X107932267Y-95389431D01*
X107932265Y-95389432D01*
X107745858Y-95519954D01*
X107584954Y-95680858D01*
X107454432Y-95867265D01*
X107454431Y-95867267D01*
X107427382Y-95925275D01*
X107381209Y-95977714D01*
X107314016Y-95996866D01*
X107247135Y-95976650D01*
X107202618Y-95925275D01*
X107175686Y-95867520D01*
X107175568Y-95867266D01*
X107045047Y-95680861D01*
X107045045Y-95680858D01*
X106884141Y-95519954D01*
X106697734Y-95389432D01*
X106697732Y-95389431D01*
X106491497Y-95293261D01*
X106491488Y-95293258D01*
X106271697Y-95234366D01*
X106271693Y-95234365D01*
X106271692Y-95234365D01*
X106271691Y-95234364D01*
X106271686Y-95234364D01*
X106045002Y-95214532D01*
X106044998Y-95214532D01*
X105818313Y-95234364D01*
X105818302Y-95234366D01*
X105598511Y-95293258D01*
X105598502Y-95293261D01*
X105392267Y-95389431D01*
X105392265Y-95389432D01*
X105205858Y-95519954D01*
X105044954Y-95680858D01*
X104914432Y-95867265D01*
X104914431Y-95867267D01*
X104887382Y-95925275D01*
X104841209Y-95977714D01*
X104774016Y-95996866D01*
X104707135Y-95976650D01*
X104662618Y-95925275D01*
X104635686Y-95867520D01*
X104635568Y-95867266D01*
X104505047Y-95680861D01*
X104505045Y-95680858D01*
X104344141Y-95519954D01*
X104157734Y-95389432D01*
X104157732Y-95389431D01*
X103951497Y-95293261D01*
X103951488Y-95293258D01*
X103731697Y-95234366D01*
X103731693Y-95234365D01*
X103731692Y-95234365D01*
X103731691Y-95234364D01*
X103731686Y-95234364D01*
X103505002Y-95214532D01*
X103504998Y-95214532D01*
X103278313Y-95234364D01*
X103278302Y-95234366D01*
X103058511Y-95293258D01*
X103058502Y-95293261D01*
X102852267Y-95389431D01*
X102852265Y-95389432D01*
X102665858Y-95519954D01*
X102504954Y-95680858D01*
X102374432Y-95867265D01*
X102374431Y-95867267D01*
X102347382Y-95925275D01*
X102301209Y-95977714D01*
X102234016Y-95996866D01*
X102167135Y-95976650D01*
X102122618Y-95925275D01*
X102095686Y-95867520D01*
X102095568Y-95867266D01*
X101965047Y-95680861D01*
X101965045Y-95680858D01*
X101804141Y-95519954D01*
X101617734Y-95389432D01*
X101617732Y-95389431D01*
X101411497Y-95293261D01*
X101411488Y-95293258D01*
X101191697Y-95234366D01*
X101191693Y-95234365D01*
X101191692Y-95234365D01*
X101191691Y-95234364D01*
X101191686Y-95234364D01*
X100965002Y-95214532D01*
X100964998Y-95214532D01*
X100738313Y-95234364D01*
X100738302Y-95234366D01*
X100518511Y-95293258D01*
X100518502Y-95293261D01*
X100312267Y-95389431D01*
X100312265Y-95389432D01*
X100125858Y-95519954D01*
X99964954Y-95680858D01*
X99947725Y-95705464D01*
X99893147Y-95749088D01*
X99823648Y-95756280D01*
X99761294Y-95724757D01*
X99725882Y-95664526D01*
X99722861Y-95647591D01*
X99719091Y-95612516D01*
X99668797Y-95477671D01*
X99668793Y-95477664D01*
X99582547Y-95362455D01*
X99582544Y-95362452D01*
X99467335Y-95276206D01*
X99467328Y-95276202D01*
X99332482Y-95225908D01*
X99332483Y-95225908D01*
X99272883Y-95219501D01*
X99272881Y-95219500D01*
X99272873Y-95219500D01*
X99272864Y-95219500D01*
X97577129Y-95219500D01*
X97577123Y-95219501D01*
X97517516Y-95225908D01*
X97382671Y-95276202D01*
X97382664Y-95276206D01*
X97267455Y-95362452D01*
X97267452Y-95362455D01*
X97181206Y-95477664D01*
X97181202Y-95477671D01*
X97130908Y-95612517D01*
X97124501Y-95672116D01*
X97124500Y-95672135D01*
X85500500Y-95672135D01*
X85500500Y-74044999D01*
X86934364Y-74044999D01*
X86934364Y-74045000D01*
X87831988Y-74045000D01*
X87799075Y-74102007D01*
X87765000Y-74229174D01*
X87765000Y-74360826D01*
X87799075Y-74487993D01*
X87831988Y-74545000D01*
X86934364Y-74545000D01*
X86991567Y-74758486D01*
X86991570Y-74758492D01*
X87091399Y-74972578D01*
X87226894Y-75166082D01*
X87393917Y-75333105D01*
X87580031Y-75463425D01*
X87623656Y-75518003D01*
X87630848Y-75587501D01*
X87599326Y-75649856D01*
X87580031Y-75666575D01*
X87393922Y-75796890D01*
X87393920Y-75796891D01*
X87226891Y-75963920D01*
X87226886Y-75963926D01*
X87091400Y-76157420D01*
X87091399Y-76157422D01*
X86991570Y-76371507D01*
X86991567Y-76371513D01*
X86934364Y-76584999D01*
X86934364Y-76585000D01*
X87831988Y-76585000D01*
X87799075Y-76642007D01*
X87765000Y-76769174D01*
X87765000Y-76900826D01*
X87799075Y-77027993D01*
X87831988Y-77085000D01*
X86934364Y-77085000D01*
X86991567Y-77298486D01*
X86991570Y-77298492D01*
X87091399Y-77512578D01*
X87226894Y-77706082D01*
X87393917Y-77873105D01*
X87587421Y-78008600D01*
X87801507Y-78108429D01*
X87801516Y-78108433D01*
X88015000Y-78165634D01*
X88015000Y-77268012D01*
X88072007Y-77300925D01*
X88199174Y-77335000D01*
X88330826Y-77335000D01*
X88457993Y-77300925D01*
X88515000Y-77268012D01*
X88515000Y-78165633D01*
X88728483Y-78108433D01*
X88728492Y-78108429D01*
X88942578Y-78008600D01*
X89136082Y-77873105D01*
X89303105Y-77706082D01*
X89433119Y-77520405D01*
X89487696Y-77476781D01*
X89557195Y-77469588D01*
X89619549Y-77501110D01*
X89636269Y-77520405D01*
X89766505Y-77706401D01*
X89933599Y-77873495D01*
X89976675Y-77903657D01*
X90127165Y-78009032D01*
X90127167Y-78009033D01*
X90127170Y-78009035D01*
X90341337Y-78108903D01*
X90569592Y-78170063D01*
X90746034Y-78185500D01*
X90804999Y-78190659D01*
X90805000Y-78190659D01*
X90805001Y-78190659D01*
X90863966Y-78185500D01*
X91040408Y-78170063D01*
X91268663Y-78108903D01*
X91482830Y-78009035D01*
X91676401Y-77873495D01*
X91843495Y-77706401D01*
X91979035Y-77512830D01*
X92078903Y-77298663D01*
X92140063Y-77070408D01*
X92160659Y-76835000D01*
X92140063Y-76599592D01*
X92078903Y-76371337D01*
X91979035Y-76157171D01*
X91973730Y-76149595D01*
X91843496Y-75963600D01*
X91795559Y-75915663D01*
X91721567Y-75841671D01*
X91688084Y-75780351D01*
X91693068Y-75710659D01*
X91734939Y-75654725D01*
X91765915Y-75637810D01*
X91897331Y-75588796D01*
X92012546Y-75502546D01*
X92098796Y-75387331D01*
X92149091Y-75252483D01*
X92155500Y-75192873D01*
X92155499Y-73397128D01*
X92149091Y-73337517D01*
X92148002Y-73334598D01*
X92098797Y-73202671D01*
X92098793Y-73202664D01*
X92012547Y-73087455D01*
X92012544Y-73087452D01*
X91897335Y-73001206D01*
X91897328Y-73001202D01*
X91762482Y-72950908D01*
X91762483Y-72950908D01*
X91702883Y-72944501D01*
X91702881Y-72944500D01*
X91702873Y-72944500D01*
X91702864Y-72944500D01*
X89907129Y-72944500D01*
X89907123Y-72944501D01*
X89847516Y-72950908D01*
X89712671Y-73001202D01*
X89712664Y-73001206D01*
X89597455Y-73087452D01*
X89597452Y-73087455D01*
X89511206Y-73202664D01*
X89511202Y-73202671D01*
X89461997Y-73334598D01*
X89420126Y-73390532D01*
X89354661Y-73414949D01*
X89286388Y-73400097D01*
X89258134Y-73378946D01*
X89136082Y-73256894D01*
X88942578Y-73121399D01*
X88728492Y-73021570D01*
X88728486Y-73021567D01*
X88515000Y-72964364D01*
X88515000Y-73861988D01*
X88457993Y-73829075D01*
X88330826Y-73795000D01*
X88199174Y-73795000D01*
X88072007Y-73829075D01*
X88015000Y-73861988D01*
X88015000Y-72964364D01*
X88014999Y-72964364D01*
X87801513Y-73021567D01*
X87801507Y-73021570D01*
X87587422Y-73121399D01*
X87587420Y-73121400D01*
X87393926Y-73256886D01*
X87393920Y-73256891D01*
X87226891Y-73423920D01*
X87226886Y-73423926D01*
X87091400Y-73617420D01*
X87091399Y-73617422D01*
X86991570Y-73831507D01*
X86991567Y-73831513D01*
X86934364Y-74044999D01*
X85500500Y-74044999D01*
X85500500Y-65003886D01*
X95999500Y-65003886D01*
X95999500Y-66941113D01*
X95999501Y-66941152D01*
X96002295Y-66993743D01*
X96002295Y-66993744D01*
X96037293Y-67174701D01*
X96046755Y-67223626D01*
X96070371Y-67286204D01*
X96129425Y-67442689D01*
X96247929Y-67644631D01*
X96247934Y-67644638D01*
X96398856Y-67823641D01*
X96398858Y-67823643D01*
X96577861Y-67974565D01*
X96577868Y-67974570D01*
X96779810Y-68093074D01*
X96998874Y-68175745D01*
X97228759Y-68220205D01*
X97281378Y-68223000D01*
X97281386Y-68223000D01*
X99218614Y-68223000D01*
X99218622Y-68223000D01*
X99271241Y-68220205D01*
X99501126Y-68175745D01*
X99720190Y-68093074D01*
X99922132Y-67974570D01*
X100101142Y-67823642D01*
X100237960Y-67661368D01*
X100252065Y-67644638D01*
X100252065Y-67644637D01*
X100252070Y-67644632D01*
X100370574Y-67442690D01*
X100453245Y-67223626D01*
X100497705Y-66993741D01*
X100500500Y-66941122D01*
X100500500Y-65003878D01*
X100497705Y-64951259D01*
X100453245Y-64721374D01*
X100370574Y-64502310D01*
X100252070Y-64300368D01*
X100252065Y-64300361D01*
X100101143Y-64121358D01*
X100101141Y-64121356D01*
X99922138Y-63970434D01*
X99922131Y-63970429D01*
X99720189Y-63851925D01*
X99622513Y-63815064D01*
X99501126Y-63769255D01*
X99501121Y-63769254D01*
X99501116Y-63769252D01*
X99498470Y-63768740D01*
X99497451Y-63768213D01*
X99496050Y-63767817D01*
X99496130Y-63767531D01*
X99436392Y-63736677D01*
X99401503Y-63676141D01*
X99404881Y-63606353D01*
X99445452Y-63549470D01*
X99510337Y-63523552D01*
X99522009Y-63522999D01*
X103047872Y-63522999D01*
X103107483Y-63516591D01*
X103242331Y-63466296D01*
X103357546Y-63380046D01*
X103443796Y-63264831D01*
X103494091Y-63129983D01*
X103500500Y-63070373D01*
X103500500Y-62897000D01*
X103520185Y-62829961D01*
X103572989Y-62784206D01*
X103624500Y-62773000D01*
X104255597Y-62773000D01*
X104488868Y-62736053D01*
X104713492Y-62663068D01*
X104923934Y-62555843D01*
X105115010Y-62417017D01*
X105777819Y-61754208D01*
X105839142Y-61720723D01*
X105908834Y-61725707D01*
X105964767Y-61767579D01*
X105989184Y-61833043D01*
X105989500Y-61841889D01*
X105989500Y-63994216D01*
X105969815Y-64061255D01*
X105953181Y-64081897D01*
X105376969Y-64658108D01*
X105315646Y-64691593D01*
X105300097Y-64693955D01*
X105174596Y-64704936D01*
X105174586Y-64704938D01*
X104946344Y-64766094D01*
X104946335Y-64766098D01*
X104732171Y-64865964D01*
X104732169Y-64865965D01*
X104538597Y-65001505D01*
X104371505Y-65168597D01*
X104235965Y-65362169D01*
X104235964Y-65362171D01*
X104136098Y-65576335D01*
X104136094Y-65576344D01*
X104074938Y-65804586D01*
X104074936Y-65804596D01*
X104054341Y-66039999D01*
X104054341Y-66040000D01*
X104074936Y-66275403D01*
X104074938Y-66275413D01*
X104136094Y-66503655D01*
X104136096Y-66503659D01*
X104136097Y-66503663D01*
X104219155Y-66681781D01*
X104235965Y-66717830D01*
X104235967Y-66717834D01*
X104344281Y-66872521D01*
X104371501Y-66911396D01*
X104371506Y-66911402D01*
X104373181Y-66913077D01*
X104373682Y-66913995D01*
X104374982Y-66915544D01*
X104374670Y-66915805D01*
X104406666Y-66974400D01*
X104409500Y-67000758D01*
X104409500Y-67165858D01*
X104389815Y-67232897D01*
X104337011Y-67278652D01*
X104328847Y-67282034D01*
X104317669Y-67286204D01*
X104317664Y-67286206D01*
X104202455Y-67372452D01*
X104202452Y-67372455D01*
X104116206Y-67487664D01*
X104116202Y-67487671D01*
X104065908Y-67622517D01*
X104059501Y-67682116D01*
X104059500Y-67682135D01*
X104059500Y-69477870D01*
X104059501Y-69477876D01*
X104065908Y-69537483D01*
X104116202Y-69672328D01*
X104116206Y-69672335D01*
X104202452Y-69787544D01*
X104202455Y-69787547D01*
X104317665Y-69873794D01*
X104317667Y-69873794D01*
X104317669Y-69873796D01*
X104328830Y-69877958D01*
X104384764Y-69919826D01*
X104409184Y-69985289D01*
X104409500Y-69994141D01*
X104409500Y-74464217D01*
X104389815Y-74531256D01*
X104373181Y-74551898D01*
X97761897Y-81163181D01*
X97700574Y-81196666D01*
X97674216Y-81199500D01*
X97014998Y-81199500D01*
X97014980Y-81199501D01*
X96912203Y-81210000D01*
X96912200Y-81210001D01*
X96745668Y-81265185D01*
X96745663Y-81265187D01*
X96596342Y-81357289D01*
X96472289Y-81481342D01*
X96380187Y-81630663D01*
X96380186Y-81630666D01*
X96325001Y-81797203D01*
X96325001Y-81797204D01*
X96325000Y-81797204D01*
X96314500Y-81899983D01*
X96314500Y-83200001D01*
X96314501Y-83200018D01*
X96325000Y-83302796D01*
X96325001Y-83302799D01*
X96380185Y-83469331D01*
X96380187Y-83469336D01*
X96472289Y-83618657D01*
X96596344Y-83742712D01*
X96751120Y-83838178D01*
X96797845Y-83890126D01*
X96809068Y-83959088D01*
X96781224Y-84023171D01*
X96773706Y-84031398D01*
X96634889Y-84170215D01*
X96509951Y-84342179D01*
X96413444Y-84531585D01*
X96347753Y-84733760D01*
X96314500Y-84943713D01*
X96314500Y-85156286D01*
X96347753Y-85366239D01*
X96413444Y-85568414D01*
X96509951Y-85757820D01*
X96634890Y-85929786D01*
X96785209Y-86080105D01*
X96785214Y-86080109D01*
X96950218Y-86199991D01*
X96992884Y-86255320D01*
X96998863Y-86324934D01*
X96966258Y-86386729D01*
X96950218Y-86400627D01*
X96785540Y-86520272D01*
X96785535Y-86520276D01*
X96635276Y-86670535D01*
X96635272Y-86670540D01*
X96510379Y-86842442D01*
X96413904Y-87031782D01*
X96348242Y-87233870D01*
X96348242Y-87233873D01*
X96337769Y-87300000D01*
X97385854Y-87300000D01*
X97347370Y-87366657D01*
X97315000Y-87487465D01*
X97315000Y-87612535D01*
X97347370Y-87733343D01*
X97385854Y-87800000D01*
X96337769Y-87800000D01*
X96348242Y-87866126D01*
X96348242Y-87866129D01*
X96413904Y-88068217D01*
X96510379Y-88257557D01*
X96635272Y-88429459D01*
X96635276Y-88429464D01*
X96785535Y-88579723D01*
X96785540Y-88579727D01*
X96950218Y-88699372D01*
X96992884Y-88754701D01*
X96998863Y-88824315D01*
X96966258Y-88886110D01*
X96950218Y-88900008D01*
X96785214Y-89019890D01*
X96785209Y-89019894D01*
X96634890Y-89170213D01*
X96509951Y-89342179D01*
X96413444Y-89531585D01*
X96347753Y-89733760D01*
X96342846Y-89764745D01*
X96314500Y-89943713D01*
X96314500Y-90156287D01*
X96347754Y-90366243D01*
X96400491Y-90528551D01*
X96413444Y-90568414D01*
X96509951Y-90757820D01*
X96634890Y-90929786D01*
X96785213Y-91080109D01*
X96957179Y-91205048D01*
X96957181Y-91205049D01*
X96957184Y-91205051D01*
X97146588Y-91301557D01*
X97348757Y-91367246D01*
X97558713Y-91400500D01*
X97558714Y-91400500D01*
X98021286Y-91400500D01*
X98021287Y-91400500D01*
X98231243Y-91367246D01*
X98433412Y-91301557D01*
X98622816Y-91205051D01*
X98644789Y-91189086D01*
X98794786Y-91080109D01*
X98794788Y-91080106D01*
X98794792Y-91080104D01*
X98945104Y-90929792D01*
X98945106Y-90929788D01*
X98945109Y-90929786D01*
X99070048Y-90757820D01*
X99070047Y-90757820D01*
X99070051Y-90757816D01*
X99166557Y-90568412D01*
X99232246Y-90366243D01*
X99265500Y-90156287D01*
X99265500Y-89943713D01*
X99232246Y-89733757D01*
X99166557Y-89531588D01*
X99070051Y-89342184D01*
X99070049Y-89342181D01*
X99070048Y-89342179D01*
X98945109Y-89170213D01*
X98794790Y-89019894D01*
X98794785Y-89019890D01*
X98629781Y-88900008D01*
X98587115Y-88844678D01*
X98581136Y-88775065D01*
X98613741Y-88713270D01*
X98629781Y-88699371D01*
X98794466Y-88579721D01*
X98944723Y-88429464D01*
X98944727Y-88429459D01*
X99069620Y-88257557D01*
X99166095Y-88068217D01*
X99231757Y-87866129D01*
X99231757Y-87866126D01*
X99242231Y-87800000D01*
X98194146Y-87800000D01*
X98232630Y-87733343D01*
X98265000Y-87612535D01*
X98265000Y-87487465D01*
X98232630Y-87366657D01*
X98194146Y-87300000D01*
X99242231Y-87300000D01*
X99231757Y-87233873D01*
X99231757Y-87233870D01*
X99166095Y-87031782D01*
X99069620Y-86842442D01*
X98944727Y-86670540D01*
X98944723Y-86670535D01*
X98794464Y-86520276D01*
X98794459Y-86520272D01*
X98629781Y-86400627D01*
X98587115Y-86345297D01*
X98581136Y-86275684D01*
X98613741Y-86213889D01*
X98629776Y-86199994D01*
X98794792Y-86080104D01*
X98945104Y-85929792D01*
X98945106Y-85929788D01*
X98945109Y-85929786D01*
X99070048Y-85757820D01*
X99070047Y-85757820D01*
X99070051Y-85757816D01*
X99166557Y-85568412D01*
X99232246Y-85366243D01*
X99265500Y-85156287D01*
X99265500Y-84943713D01*
X99232246Y-84733757D01*
X99166557Y-84531588D01*
X99070051Y-84342184D01*
X99070049Y-84342181D01*
X99070048Y-84342179D01*
X98945109Y-84170213D01*
X98806294Y-84031398D01*
X98772809Y-83970075D01*
X98777793Y-83900383D01*
X98819665Y-83844450D01*
X98828879Y-83838178D01*
X98834331Y-83834814D01*
X98834334Y-83834814D01*
X98983656Y-83742712D01*
X99107712Y-83618656D01*
X99199814Y-83469334D01*
X99254999Y-83302797D01*
X99265500Y-83200009D01*
X99265499Y-82540780D01*
X99285183Y-82473742D01*
X99301813Y-82453105D01*
X106187139Y-75567782D01*
X106230728Y-75502546D01*
X106296632Y-75403914D01*
X106296633Y-75403910D01*
X106296635Y-75403908D01*
X106325965Y-75333095D01*
X106359346Y-75252508D01*
X106372051Y-75221836D01*
X106410500Y-75028541D01*
X106410500Y-74831460D01*
X106410500Y-74402282D01*
X106430185Y-74335243D01*
X106482989Y-74289488D01*
X106552147Y-74279544D01*
X106615703Y-74308569D01*
X106622181Y-74314601D01*
X107163181Y-74855601D01*
X107196666Y-74916924D01*
X107199500Y-74943282D01*
X107199500Y-75252500D01*
X107199501Y-75252509D01*
X107210000Y-75355296D01*
X107210001Y-75355299D01*
X107258795Y-75502548D01*
X107265186Y-75521834D01*
X107281039Y-75547536D01*
X107299500Y-75612632D01*
X107299500Y-80964867D01*
X107281040Y-81029961D01*
X107265187Y-81055663D01*
X107265186Y-81055665D01*
X107248014Y-81107488D01*
X107210001Y-81222203D01*
X107210001Y-81222204D01*
X107210000Y-81222204D01*
X107199500Y-81324983D01*
X107199500Y-82675001D01*
X107199501Y-82675018D01*
X107210000Y-82777796D01*
X107210001Y-82777799D01*
X107239191Y-82865886D01*
X107265186Y-82944334D01*
X107281039Y-82970036D01*
X107299500Y-83035132D01*
X107299500Y-86613541D01*
X107299500Y-86613543D01*
X107299499Y-86613543D01*
X107337947Y-86806829D01*
X107337950Y-86806839D01*
X107413364Y-86988907D01*
X107413371Y-86988920D01*
X107522860Y-87152781D01*
X107522863Y-87152785D01*
X107666537Y-87296459D01*
X107666559Y-87296479D01*
X107912398Y-87542318D01*
X107945883Y-87603641D01*
X107940899Y-87673333D01*
X107912398Y-87717680D01*
X107769824Y-87860255D01*
X107662221Y-87967858D01*
X107662218Y-87967861D01*
X107625079Y-88005000D01*
X107522859Y-88107219D01*
X107413371Y-88271079D01*
X107413364Y-88271092D01*
X107337950Y-88453160D01*
X107337947Y-88453170D01*
X107311614Y-88585555D01*
X107295536Y-88626458D01*
X107265186Y-88675666D01*
X107210001Y-88842203D01*
X107210001Y-88842204D01*
X107210000Y-88842204D01*
X107199500Y-88944983D01*
X107199500Y-90295001D01*
X107199501Y-90295018D01*
X107210000Y-90397796D01*
X107210001Y-90397799D01*
X107265185Y-90564331D01*
X107265187Y-90564336D01*
X107288870Y-90602732D01*
X107357288Y-90713656D01*
X107481344Y-90837712D01*
X107630666Y-90929814D01*
X107797203Y-90984999D01*
X107899991Y-90995500D01*
X108700008Y-90995499D01*
X108700016Y-90995498D01*
X108700019Y-90995498D01*
X108756302Y-90989748D01*
X108802797Y-90984999D01*
X108969334Y-90929814D01*
X109118656Y-90837712D01*
X109242712Y-90713656D01*
X109282310Y-90649456D01*
X109334258Y-90602732D01*
X109403220Y-90591509D01*
X109467303Y-90619352D01*
X109475530Y-90626872D01*
X109583072Y-90734414D01*
X109723212Y-90836232D01*
X109877555Y-90914873D01*
X110042299Y-90968402D01*
X110213389Y-90995500D01*
X110213390Y-90995500D01*
X110386610Y-90995500D01*
X110386611Y-90995500D01*
X110557701Y-90968402D01*
X110722445Y-90914873D01*
X110876788Y-90836232D01*
X111016928Y-90734414D01*
X111139414Y-90611928D01*
X111199991Y-90528550D01*
X111255321Y-90485885D01*
X111324934Y-90479906D01*
X111386729Y-90512512D01*
X111400628Y-90528551D01*
X111460967Y-90611602D01*
X111583397Y-90734032D01*
X111723475Y-90835804D01*
X111877744Y-90914408D01*
X112042415Y-90967914D01*
X112042414Y-90967914D01*
X112049999Y-90969115D01*
X112050000Y-90969114D01*
X112050000Y-89900330D01*
X112069745Y-89920075D01*
X112155255Y-89969444D01*
X112250630Y-89995000D01*
X112349370Y-89995000D01*
X112444745Y-89969444D01*
X112530255Y-89920075D01*
X112550000Y-89900330D01*
X112550000Y-90969115D01*
X112557584Y-90967914D01*
X112722255Y-90914408D01*
X112876524Y-90835804D01*
X113016602Y-90734032D01*
X113139036Y-90611598D01*
X113199371Y-90528552D01*
X113254700Y-90485886D01*
X113324313Y-90479905D01*
X113386109Y-90512510D01*
X113400008Y-90528550D01*
X113420587Y-90556874D01*
X113460586Y-90611928D01*
X113583072Y-90734414D01*
X113723212Y-90836232D01*
X113877555Y-90914873D01*
X114042299Y-90968402D01*
X114213389Y-90995500D01*
X114213390Y-90995500D01*
X114386610Y-90995500D01*
X114386611Y-90995500D01*
X114557701Y-90968402D01*
X114722445Y-90914873D01*
X114876788Y-90836232D01*
X115016928Y-90734414D01*
X115139414Y-90611928D01*
X115241232Y-90471788D01*
X115319873Y-90317445D01*
X115373402Y-90152701D01*
X115400500Y-89981611D01*
X115400500Y-89258389D01*
X115373402Y-89087299D01*
X115319873Y-88922555D01*
X115262929Y-88810795D01*
X115250033Y-88742125D01*
X115276310Y-88677385D01*
X115333416Y-88637128D01*
X115373414Y-88630500D01*
X123740622Y-88630500D01*
X123807661Y-88650185D01*
X123846159Y-88689401D01*
X123867288Y-88723656D01*
X123991344Y-88847712D01*
X124140666Y-88939814D01*
X124307203Y-88994999D01*
X124409991Y-89005500D01*
X125210008Y-89005499D01*
X125210016Y-89005498D01*
X125210019Y-89005498D01*
X125266302Y-88999748D01*
X125312797Y-88994999D01*
X125479334Y-88939814D01*
X125628656Y-88847712D01*
X125752712Y-88723656D01*
X125792310Y-88659456D01*
X125844258Y-88612732D01*
X125913220Y-88601509D01*
X125977303Y-88629352D01*
X125985530Y-88636872D01*
X126093072Y-88744414D01*
X126233212Y-88846232D01*
X126387555Y-88924873D01*
X126552299Y-88978402D01*
X126723389Y-89005500D01*
X126723390Y-89005500D01*
X126896610Y-89005500D01*
X126896611Y-89005500D01*
X127067701Y-88978402D01*
X127232445Y-88924873D01*
X127386788Y-88846232D01*
X127526928Y-88744414D01*
X127649414Y-88621928D01*
X127709682Y-88538975D01*
X127765012Y-88496311D01*
X127834626Y-88490332D01*
X127896421Y-88522938D01*
X127910315Y-88538973D01*
X127970586Y-88621928D01*
X128093072Y-88744414D01*
X128233212Y-88846232D01*
X128387555Y-88924873D01*
X128552299Y-88978402D01*
X128723389Y-89005500D01*
X128723390Y-89005500D01*
X128896610Y-89005500D01*
X128896611Y-89005500D01*
X129067701Y-88978402D01*
X129232445Y-88924873D01*
X129386788Y-88846232D01*
X129526928Y-88744414D01*
X129649414Y-88621928D01*
X129709682Y-88538975D01*
X129765012Y-88496311D01*
X129834626Y-88490332D01*
X129896421Y-88522938D01*
X129910315Y-88538973D01*
X129970586Y-88621928D01*
X130093072Y-88744414D01*
X130233212Y-88846232D01*
X130387555Y-88924873D01*
X130552299Y-88978402D01*
X130723389Y-89005500D01*
X130723390Y-89005500D01*
X130896610Y-89005500D01*
X130896611Y-89005500D01*
X131067701Y-88978402D01*
X131232445Y-88924873D01*
X131386788Y-88846232D01*
X131526928Y-88744414D01*
X131649414Y-88621928D01*
X131709991Y-88538550D01*
X131765321Y-88495885D01*
X131834934Y-88489906D01*
X131896729Y-88522512D01*
X131910628Y-88538551D01*
X131970967Y-88621602D01*
X132093397Y-88744032D01*
X132233475Y-88845804D01*
X132387744Y-88924408D01*
X132552415Y-88977914D01*
X132552414Y-88977914D01*
X132559999Y-88979115D01*
X132560000Y-88979114D01*
X132560000Y-87910330D01*
X132579745Y-87930075D01*
X132665255Y-87979444D01*
X132760630Y-88005000D01*
X132859370Y-88005000D01*
X132954745Y-87979444D01*
X133040255Y-87930075D01*
X133060000Y-87910330D01*
X133060000Y-88979115D01*
X133067584Y-88977914D01*
X133232255Y-88924408D01*
X133386524Y-88845804D01*
X133526602Y-88744032D01*
X133649032Y-88621602D01*
X133750804Y-88481524D01*
X133829408Y-88327257D01*
X133882914Y-88162584D01*
X133910000Y-87991571D01*
X133910000Y-87880000D01*
X133090330Y-87880000D01*
X133110075Y-87860255D01*
X133159444Y-87774745D01*
X133185000Y-87679370D01*
X133185000Y-87580630D01*
X133159444Y-87485255D01*
X133110075Y-87399745D01*
X133090330Y-87380000D01*
X133910000Y-87380000D01*
X133910000Y-87268428D01*
X133882914Y-87097415D01*
X133829408Y-86932742D01*
X133750804Y-86778475D01*
X133649032Y-86638397D01*
X133526602Y-86515967D01*
X133386524Y-86414195D01*
X133232257Y-86335591D01*
X133067589Y-86282087D01*
X133067581Y-86282085D01*
X133060000Y-86280884D01*
X133060000Y-87349670D01*
X133040255Y-87329925D01*
X132954745Y-87280556D01*
X132859370Y-87255000D01*
X132760630Y-87255000D01*
X132665255Y-87280556D01*
X132579745Y-87329925D01*
X132560000Y-87349670D01*
X132560000Y-86280884D01*
X132559999Y-86280884D01*
X132552418Y-86282085D01*
X132552410Y-86282087D01*
X132387742Y-86335591D01*
X132233475Y-86414195D01*
X132093397Y-86515967D01*
X131970965Y-86638399D01*
X131970961Y-86638404D01*
X131910627Y-86721448D01*
X131855297Y-86764114D01*
X131785684Y-86770093D01*
X131723889Y-86737488D01*
X131709991Y-86721449D01*
X131709990Y-86721448D01*
X131649414Y-86638072D01*
X131526928Y-86515586D01*
X131386788Y-86413768D01*
X131232445Y-86335127D01*
X131067701Y-86281598D01*
X131067699Y-86281597D01*
X131067698Y-86281597D01*
X130936271Y-86260781D01*
X130896611Y-86254500D01*
X130723389Y-86254500D01*
X130683728Y-86260781D01*
X130552302Y-86281597D01*
X130387552Y-86335128D01*
X130233211Y-86413768D01*
X130153256Y-86471859D01*
X130093072Y-86515586D01*
X130093070Y-86515588D01*
X130093069Y-86515588D01*
X129970588Y-86638069D01*
X129970581Y-86638078D01*
X129910317Y-86721023D01*
X129854987Y-86763689D01*
X129785374Y-86769667D01*
X129723579Y-86737061D01*
X129709683Y-86721023D01*
X129649655Y-86638404D01*
X129649414Y-86638072D01*
X129526928Y-86515586D01*
X129386788Y-86413768D01*
X129232445Y-86335127D01*
X129067701Y-86281598D01*
X129067699Y-86281597D01*
X129067698Y-86281597D01*
X128936271Y-86260781D01*
X128896611Y-86254500D01*
X128723389Y-86254500D01*
X128683728Y-86260781D01*
X128552302Y-86281597D01*
X128387552Y-86335128D01*
X128233211Y-86413768D01*
X128153256Y-86471859D01*
X128093072Y-86515586D01*
X128093070Y-86515588D01*
X128093069Y-86515588D01*
X127970588Y-86638069D01*
X127970581Y-86638078D01*
X127910317Y-86721023D01*
X127854987Y-86763689D01*
X127785374Y-86769667D01*
X127723579Y-86737061D01*
X127709683Y-86721023D01*
X127649655Y-86638404D01*
X127649414Y-86638072D01*
X127526928Y-86515586D01*
X127386788Y-86413768D01*
X127232445Y-86335127D01*
X127067701Y-86281598D01*
X127067699Y-86281597D01*
X127067698Y-86281597D01*
X126936271Y-86260781D01*
X126896611Y-86254500D01*
X126723389Y-86254500D01*
X126683728Y-86260781D01*
X126552302Y-86281597D01*
X126387552Y-86335128D01*
X126233211Y-86413768D01*
X126093073Y-86515585D01*
X125985530Y-86623128D01*
X125924207Y-86656612D01*
X125854515Y-86651628D01*
X125798582Y-86609756D01*
X125792310Y-86600543D01*
X125773839Y-86570597D01*
X125752712Y-86536344D01*
X125628656Y-86412288D01*
X125503559Y-86335128D01*
X125479336Y-86320187D01*
X125479331Y-86320185D01*
X125477862Y-86319698D01*
X125312797Y-86265001D01*
X125312795Y-86265000D01*
X125210010Y-86254500D01*
X124409998Y-86254500D01*
X124409980Y-86254501D01*
X124307203Y-86265000D01*
X124307200Y-86265001D01*
X124140668Y-86320185D01*
X124140663Y-86320187D01*
X123991342Y-86412289D01*
X123867289Y-86536342D01*
X123846161Y-86570597D01*
X123794213Y-86617321D01*
X123740622Y-86629500D01*
X109880782Y-86629500D01*
X109813743Y-86609815D01*
X109793101Y-86593181D01*
X109336819Y-86136899D01*
X109303334Y-86075576D01*
X109300500Y-86049218D01*
X109300500Y-83131204D01*
X109320185Y-83064165D01*
X109372989Y-83018410D01*
X109442147Y-83008466D01*
X109505703Y-83037491D01*
X109512181Y-83043523D01*
X109583072Y-83114414D01*
X109723212Y-83216232D01*
X109877555Y-83294873D01*
X110042299Y-83348402D01*
X110213389Y-83375500D01*
X110213390Y-83375500D01*
X110386610Y-83375500D01*
X110386611Y-83375500D01*
X110557701Y-83348402D01*
X110722445Y-83294873D01*
X110876788Y-83216232D01*
X111016928Y-83114414D01*
X111139414Y-82991928D01*
X111199991Y-82908550D01*
X111255321Y-82865885D01*
X111324934Y-82859906D01*
X111386729Y-82892512D01*
X111400628Y-82908551D01*
X111460967Y-82991602D01*
X111583397Y-83114032D01*
X111723475Y-83215804D01*
X111877744Y-83294408D01*
X112042415Y-83347914D01*
X112042414Y-83347914D01*
X112049999Y-83349115D01*
X112050000Y-83349114D01*
X112050000Y-82280330D01*
X112069745Y-82300075D01*
X112155255Y-82349444D01*
X112250630Y-82375000D01*
X112349370Y-82375000D01*
X112444745Y-82349444D01*
X112530255Y-82300075D01*
X112550000Y-82280330D01*
X112550000Y-83349115D01*
X112557584Y-83347914D01*
X112722255Y-83294408D01*
X112876524Y-83215804D01*
X113016602Y-83114032D01*
X113139036Y-82991598D01*
X113199371Y-82908552D01*
X113254700Y-82865886D01*
X113324313Y-82859905D01*
X113386109Y-82892510D01*
X113400008Y-82908550D01*
X113420587Y-82936874D01*
X113460586Y-82991928D01*
X113583072Y-83114414D01*
X113723212Y-83216232D01*
X113877555Y-83294873D01*
X114042299Y-83348402D01*
X114213389Y-83375500D01*
X114213390Y-83375500D01*
X114386610Y-83375500D01*
X114386611Y-83375500D01*
X114557701Y-83348402D01*
X114722445Y-83294873D01*
X114876788Y-83216232D01*
X115016928Y-83114414D01*
X115139414Y-82991928D01*
X115241232Y-82851788D01*
X115319873Y-82697445D01*
X115373402Y-82532701D01*
X115400500Y-82361611D01*
X115400500Y-81638389D01*
X115373402Y-81467299D01*
X115319873Y-81302555D01*
X115241232Y-81148212D01*
X115139414Y-81008072D01*
X115016928Y-80885586D01*
X114876788Y-80783768D01*
X114722445Y-80705127D01*
X114557701Y-80651598D01*
X114557699Y-80651597D01*
X114557698Y-80651597D01*
X114426271Y-80630781D01*
X114386611Y-80624500D01*
X114213389Y-80624500D01*
X114173728Y-80630781D01*
X114042302Y-80651597D01*
X113877552Y-80705128D01*
X113723211Y-80783768D01*
X113643256Y-80841859D01*
X113583072Y-80885586D01*
X113583070Y-80885588D01*
X113583069Y-80885588D01*
X113460585Y-81008072D01*
X113400007Y-81091450D01*
X113344677Y-81134115D01*
X113275063Y-81140093D01*
X113213269Y-81107486D01*
X113199371Y-81091447D01*
X113139036Y-81008401D01*
X113016602Y-80885967D01*
X112876524Y-80784195D01*
X112722257Y-80705591D01*
X112557589Y-80652087D01*
X112557581Y-80652085D01*
X112550000Y-80650884D01*
X112550000Y-81719670D01*
X112530255Y-81699925D01*
X112444745Y-81650556D01*
X112349370Y-81625000D01*
X112250630Y-81625000D01*
X112155255Y-81650556D01*
X112069745Y-81699925D01*
X112050000Y-81719670D01*
X112050000Y-80650884D01*
X112049999Y-80650884D01*
X112042418Y-80652085D01*
X112042410Y-80652087D01*
X111877742Y-80705591D01*
X111723475Y-80784195D01*
X111583397Y-80885967D01*
X111460965Y-81008399D01*
X111460961Y-81008404D01*
X111400627Y-81091448D01*
X111345297Y-81134114D01*
X111275684Y-81140093D01*
X111213889Y-81107488D01*
X111199991Y-81091449D01*
X111139655Y-81008404D01*
X111139414Y-81008072D01*
X111016928Y-80885586D01*
X110876788Y-80783768D01*
X110722445Y-80705127D01*
X110557701Y-80651598D01*
X110557699Y-80651597D01*
X110557698Y-80651597D01*
X110426271Y-80630781D01*
X110386611Y-80624500D01*
X110213389Y-80624500D01*
X110173728Y-80630781D01*
X110042302Y-80651597D01*
X109877552Y-80705128D01*
X109723211Y-80783768D01*
X109643256Y-80841859D01*
X109583072Y-80885586D01*
X109583070Y-80885588D01*
X109583069Y-80885588D01*
X109512181Y-80956477D01*
X109450858Y-80989962D01*
X109381166Y-80984978D01*
X109325233Y-80943106D01*
X109300816Y-80877642D01*
X109300500Y-80868796D01*
X109300500Y-75708704D01*
X109320185Y-75641665D01*
X109372989Y-75595910D01*
X109442147Y-75585966D01*
X109505703Y-75614991D01*
X109512181Y-75621023D01*
X109583072Y-75691914D01*
X109723212Y-75793732D01*
X109877555Y-75872373D01*
X110042299Y-75925902D01*
X110213389Y-75953000D01*
X110213390Y-75953000D01*
X110386610Y-75953000D01*
X110386611Y-75953000D01*
X110557701Y-75925902D01*
X110722445Y-75872373D01*
X110876788Y-75793732D01*
X111016928Y-75691914D01*
X111139414Y-75569428D01*
X111199991Y-75486050D01*
X111255321Y-75443385D01*
X111324934Y-75437406D01*
X111386729Y-75470012D01*
X111400628Y-75486051D01*
X111460967Y-75569102D01*
X111583397Y-75691532D01*
X111723475Y-75793304D01*
X111877744Y-75871908D01*
X112042415Y-75925414D01*
X112042414Y-75925414D01*
X112049999Y-75926615D01*
X112050000Y-75926614D01*
X112050000Y-74857830D01*
X112069745Y-74877575D01*
X112155255Y-74926944D01*
X112250630Y-74952500D01*
X112349370Y-74952500D01*
X112444745Y-74926944D01*
X112530255Y-74877575D01*
X112550000Y-74857830D01*
X112550000Y-75926615D01*
X112557584Y-75925414D01*
X112722255Y-75871908D01*
X112876524Y-75793304D01*
X113016602Y-75691532D01*
X113139036Y-75569098D01*
X113199371Y-75486052D01*
X113254700Y-75443386D01*
X113324313Y-75437405D01*
X113386109Y-75470010D01*
X113400008Y-75486050D01*
X113402915Y-75490051D01*
X113460586Y-75569428D01*
X113583072Y-75691914D01*
X113723212Y-75793732D01*
X113877555Y-75872373D01*
X114042299Y-75925902D01*
X114213389Y-75953000D01*
X114213390Y-75953000D01*
X114386610Y-75953000D01*
X114386611Y-75953000D01*
X114557701Y-75925902D01*
X114722445Y-75872373D01*
X114876788Y-75793732D01*
X115016928Y-75691914D01*
X115139414Y-75569428D01*
X115241232Y-75429288D01*
X115319873Y-75274945D01*
X115373402Y-75110201D01*
X115400500Y-74939111D01*
X115400500Y-74215889D01*
X115373402Y-74044799D01*
X115319873Y-73880055D01*
X115241232Y-73725712D01*
X115139414Y-73585572D01*
X115016928Y-73463086D01*
X114876788Y-73361268D01*
X114722445Y-73282627D01*
X114557701Y-73229098D01*
X114557699Y-73229097D01*
X114557698Y-73229097D01*
X114426271Y-73208281D01*
X114386611Y-73202000D01*
X114213389Y-73202000D01*
X114173728Y-73208281D01*
X114042302Y-73229097D01*
X113877552Y-73282628D01*
X113723211Y-73361268D01*
X113649327Y-73414949D01*
X113583072Y-73463086D01*
X113583070Y-73463088D01*
X113583069Y-73463088D01*
X113460585Y-73585572D01*
X113400007Y-73668950D01*
X113344677Y-73711615D01*
X113275063Y-73717593D01*
X113213269Y-73684986D01*
X113199371Y-73668947D01*
X113139036Y-73585901D01*
X113016602Y-73463467D01*
X112876524Y-73361695D01*
X112722257Y-73283091D01*
X112557589Y-73229587D01*
X112557581Y-73229585D01*
X112550000Y-73228384D01*
X112550000Y-74297170D01*
X112530255Y-74277425D01*
X112444745Y-74228056D01*
X112349370Y-74202500D01*
X112250630Y-74202500D01*
X112155255Y-74228056D01*
X112069745Y-74277425D01*
X112050000Y-74297170D01*
X112050000Y-73228384D01*
X112049999Y-73228384D01*
X112042418Y-73229585D01*
X112042410Y-73229587D01*
X111877742Y-73283091D01*
X111723475Y-73361695D01*
X111583397Y-73463467D01*
X111460965Y-73585899D01*
X111460961Y-73585904D01*
X111400627Y-73668948D01*
X111345297Y-73711614D01*
X111275684Y-73717593D01*
X111213889Y-73684988D01*
X111199991Y-73668949D01*
X111139655Y-73585904D01*
X111139414Y-73585572D01*
X111016928Y-73463086D01*
X110876788Y-73361268D01*
X110722445Y-73282627D01*
X110557701Y-73229098D01*
X110557699Y-73229097D01*
X110557698Y-73229097D01*
X110426271Y-73208281D01*
X110386611Y-73202000D01*
X110213389Y-73202000D01*
X110173728Y-73208281D01*
X110042302Y-73229097D01*
X109877552Y-73282628D01*
X109723211Y-73361268D01*
X109583073Y-73463085D01*
X109475530Y-73570628D01*
X109414207Y-73604112D01*
X109344515Y-73599128D01*
X109288582Y-73557256D01*
X109282310Y-73548043D01*
X109242712Y-73483844D01*
X109118656Y-73359788D01*
X108993559Y-73282628D01*
X108969336Y-73267687D01*
X108969331Y-73267685D01*
X108936757Y-73256891D01*
X108802797Y-73212501D01*
X108802795Y-73212500D01*
X108700016Y-73202000D01*
X108700009Y-73202000D01*
X108390782Y-73202000D01*
X108323743Y-73182315D01*
X108303101Y-73165681D01*
X107270576Y-72133156D01*
X107237091Y-72071833D01*
X107242075Y-72002141D01*
X107283947Y-71946208D01*
X107344378Y-71922254D01*
X107353041Y-71921278D01*
X107366915Y-71920500D01*
X107398034Y-71920500D01*
X107427238Y-71914689D01*
X107442655Y-71911622D01*
X107452948Y-71910021D01*
X107494255Y-71905368D01*
X107512586Y-71898952D01*
X107529333Y-71894381D01*
X107552686Y-71889737D01*
X107624355Y-71860050D01*
X107630838Y-71857574D01*
X107664522Y-71845789D01*
X107666755Y-71844386D01*
X107685279Y-71834815D01*
X107698368Y-71829394D01*
X107829478Y-71741789D01*
X115869448Y-63701819D01*
X115930771Y-63668334D01*
X115957129Y-63665500D01*
X118058085Y-63665500D01*
X118071969Y-63666280D01*
X118109998Y-63670565D01*
X118110000Y-63670565D01*
X118110002Y-63670565D01*
X118148031Y-63666280D01*
X118161915Y-63665500D01*
X118188841Y-63665500D01*
X118188842Y-63665500D01*
X118228017Y-63657707D01*
X118238283Y-63656110D01*
X118289255Y-63650368D01*
X118313100Y-63642023D01*
X118329862Y-63637448D01*
X118343497Y-63634737D01*
X118392389Y-63614484D01*
X118398837Y-63612023D01*
X118459522Y-63590789D01*
X118469868Y-63584287D01*
X118488390Y-63574720D01*
X118489179Y-63574394D01*
X118543987Y-63537771D01*
X118546825Y-63535931D01*
X118612262Y-63494816D01*
X118739816Y-63367262D01*
X118780931Y-63301825D01*
X118782777Y-63298979D01*
X118805592Y-63264835D01*
X118819394Y-63244179D01*
X118819720Y-63243390D01*
X118829287Y-63224868D01*
X118835789Y-63214522D01*
X118857023Y-63153837D01*
X118859484Y-63147389D01*
X118879737Y-63098497D01*
X118882448Y-63084862D01*
X118887023Y-63068100D01*
X118895368Y-63044255D01*
X118901110Y-62993283D01*
X118902707Y-62983017D01*
X118910500Y-62943842D01*
X118910500Y-62916914D01*
X118911280Y-62903029D01*
X118915565Y-62865001D01*
X118915565Y-62864998D01*
X118911280Y-62826969D01*
X118910500Y-62813085D01*
X118910500Y-62786157D01*
X118902711Y-62747003D01*
X118901110Y-62736714D01*
X118895368Y-62685745D01*
X118887023Y-62661898D01*
X118882449Y-62645139D01*
X118879737Y-62631503D01*
X118879733Y-62631493D01*
X118877969Y-62625675D01*
X118879209Y-62625298D01*
X118872453Y-62562491D01*
X118903724Y-62500010D01*
X118963811Y-62464354D01*
X118994484Y-62460500D01*
X122835500Y-62460500D01*
X122902539Y-62480185D01*
X122948294Y-62532989D01*
X122959500Y-62584500D01*
X122959500Y-67428097D01*
X122996446Y-67661368D01*
X123069433Y-67885996D01*
X123174945Y-68093074D01*
X123176657Y-68096434D01*
X123268613Y-68223000D01*
X123315484Y-68287511D01*
X127368181Y-72340208D01*
X127401666Y-72401531D01*
X127404500Y-72427889D01*
X127404500Y-72717110D01*
X127384815Y-72784149D01*
X127368181Y-72804791D01*
X126125990Y-74046981D01*
X126064667Y-74080466D01*
X125994975Y-74075482D01*
X125939042Y-74033610D01*
X125920378Y-73997619D01*
X125900962Y-73937866D01*
X125861557Y-73816588D01*
X125861555Y-73816585D01*
X125861555Y-73816583D01*
X125808070Y-73711614D01*
X125765051Y-73627184D01*
X125765049Y-73627181D01*
X125765048Y-73627179D01*
X125640109Y-73455213D01*
X125489786Y-73304890D01*
X125317820Y-73179951D01*
X125128414Y-73083444D01*
X125128413Y-73083443D01*
X125128412Y-73083443D01*
X124926243Y-73017754D01*
X124926241Y-73017753D01*
X124926240Y-73017753D01*
X124764957Y-72992208D01*
X124716287Y-72984500D01*
X124203713Y-72984500D01*
X124155042Y-72992208D01*
X123993760Y-73017753D01*
X123791585Y-73083444D01*
X123602179Y-73179951D01*
X123430213Y-73304890D01*
X123279890Y-73455213D01*
X123154951Y-73627179D01*
X123058444Y-73816585D01*
X122992753Y-74018760D01*
X122959500Y-74228713D01*
X122959500Y-74441286D01*
X122988893Y-74626870D01*
X122992754Y-74651243D01*
X123051310Y-74831460D01*
X123058444Y-74853414D01*
X123154951Y-75042820D01*
X123279890Y-75214786D01*
X123418705Y-75353601D01*
X123452190Y-75414924D01*
X123447206Y-75484616D01*
X123405334Y-75540549D01*
X123396121Y-75546821D01*
X123241342Y-75642289D01*
X123117289Y-75766342D01*
X123025187Y-75915663D01*
X123025185Y-75915668D01*
X123009302Y-75963600D01*
X122970001Y-76082203D01*
X122970001Y-76082204D01*
X122970000Y-76082204D01*
X122959500Y-76184983D01*
X122959500Y-77485001D01*
X122959501Y-77485019D01*
X122970000Y-77587796D01*
X122970001Y-77587799D01*
X123009303Y-77706402D01*
X123025186Y-77754334D01*
X123117288Y-77903656D01*
X123241344Y-78027712D01*
X123390666Y-78119814D01*
X123557203Y-78174999D01*
X123659991Y-78185500D01*
X123775598Y-78185499D01*
X123831893Y-78199014D01*
X123884008Y-78225568D01*
X124065059Y-78284395D01*
X124108631Y-78298553D01*
X124341903Y-78335500D01*
X124341908Y-78335500D01*
X125578097Y-78335500D01*
X125811368Y-78298553D01*
X126035992Y-78225568D01*
X126246434Y-78118343D01*
X126437510Y-77979517D01*
X128817320Y-75599706D01*
X128878641Y-75566223D01*
X128948333Y-75571207D01*
X128992680Y-75599708D01*
X130162146Y-76769174D01*
X131372490Y-77979518D01*
X131550575Y-78108903D01*
X131550576Y-78108905D01*
X131561661Y-78116958D01*
X131563567Y-78118343D01*
X131674759Y-78174998D01*
X131774003Y-78225566D01*
X131774005Y-78225566D01*
X131774008Y-78225568D01*
X131894412Y-78264689D01*
X131998631Y-78298553D01*
X132231903Y-78335500D01*
X132231908Y-78335500D01*
X133468097Y-78335500D01*
X133701368Y-78298553D01*
X133925992Y-78225568D01*
X133978107Y-78199014D01*
X134034401Y-78185499D01*
X134150002Y-78185499D01*
X134150008Y-78185499D01*
X134252797Y-78174999D01*
X134419334Y-78119814D01*
X134568656Y-78027712D01*
X134692712Y-77903656D01*
X134784814Y-77754334D01*
X134839999Y-77587797D01*
X134850500Y-77485009D01*
X134850500Y-76933541D01*
X134850500Y-76716908D01*
X134850500Y-76709313D01*
X134850499Y-76709295D01*
X134850499Y-76184998D01*
X134850498Y-76184981D01*
X134839999Y-76082203D01*
X134839998Y-76082200D01*
X134784814Y-75915666D01*
X134692712Y-75766344D01*
X134568656Y-75642288D01*
X134419334Y-75550186D01*
X134419333Y-75550185D01*
X134413878Y-75546821D01*
X134367154Y-75494873D01*
X134355931Y-75425910D01*
X134383775Y-75361828D01*
X134391272Y-75353623D01*
X134530104Y-75214792D01*
X134655051Y-75042816D01*
X134751557Y-74853412D01*
X134817246Y-74651243D01*
X134850500Y-74441287D01*
X134850500Y-74228713D01*
X134817246Y-74018757D01*
X134751557Y-73816588D01*
X134655051Y-73627184D01*
X134655049Y-73627181D01*
X134655048Y-73627179D01*
X134530109Y-73455213D01*
X134379786Y-73304890D01*
X134207820Y-73179951D01*
X134018414Y-73083444D01*
X134018413Y-73083443D01*
X134018412Y-73083443D01*
X133816243Y-73017754D01*
X133816241Y-73017753D01*
X133816240Y-73017753D01*
X133654957Y-72992208D01*
X133606287Y-72984500D01*
X133093713Y-72984500D01*
X133045042Y-72992208D01*
X132883760Y-73017753D01*
X132681585Y-73083444D01*
X132492179Y-73179951D01*
X132320213Y-73304890D01*
X132169890Y-73455213D01*
X132044951Y-73627179D01*
X131948444Y-73816585D01*
X131948443Y-73816587D01*
X131948443Y-73816588D01*
X131922998Y-73894901D01*
X131889622Y-73997620D01*
X131850184Y-74055296D01*
X131785826Y-74082494D01*
X131716979Y-74070579D01*
X131684010Y-74046983D01*
X131120871Y-73483844D01*
X130441819Y-72804791D01*
X130408334Y-72743468D01*
X130405500Y-72717110D01*
X130405500Y-71636902D01*
X130368553Y-71403631D01*
X130295566Y-71179003D01*
X130225330Y-71041158D01*
X130225329Y-71041157D01*
X130202771Y-70996883D01*
X130188343Y-70968566D01*
X130049517Y-70777490D01*
X125996819Y-66724792D01*
X125963334Y-66663469D01*
X125960500Y-66637111D01*
X125960500Y-65016313D01*
X125980185Y-64949274D01*
X126032989Y-64903519D01*
X126102147Y-64893575D01*
X126125456Y-64899272D01*
X126185740Y-64920367D01*
X126185750Y-64920369D01*
X126364996Y-64940565D01*
X126365000Y-64940565D01*
X126365004Y-64940565D01*
X126544249Y-64920369D01*
X126544252Y-64920368D01*
X126544255Y-64920368D01*
X126714522Y-64860789D01*
X126715488Y-64860181D01*
X126724523Y-64854506D01*
X126790494Y-64835500D01*
X135958996Y-64835500D01*
X136050040Y-64817389D01*
X136094328Y-64808580D01*
X136158069Y-64782177D01*
X136221807Y-64755777D01*
X136221808Y-64755776D01*
X136221811Y-64755775D01*
X136336543Y-64679114D01*
X138629288Y-62386366D01*
X138676012Y-62357008D01*
X138779522Y-62320789D01*
X138932262Y-62224816D01*
X139059816Y-62097262D01*
X139155789Y-61944522D01*
X139215368Y-61774255D01*
X139215369Y-61774249D01*
X139235565Y-61595003D01*
X139235565Y-61594996D01*
X139215369Y-61415750D01*
X139215368Y-61415745D01*
X139155788Y-61245476D01*
X139059815Y-61092737D01*
X138932262Y-60965184D01*
X138779523Y-60869211D01*
X138609254Y-60809631D01*
X138609249Y-60809630D01*
X138430004Y-60789435D01*
X138429996Y-60789435D01*
X138250750Y-60809630D01*
X138250745Y-60809631D01*
X138080476Y-60869211D01*
X137927737Y-60965184D01*
X137800184Y-61092737D01*
X137704212Y-61245475D01*
X137704211Y-61245476D01*
X137667991Y-61348986D01*
X137638631Y-61395711D01*
X135636162Y-63398181D01*
X135574839Y-63431666D01*
X135548481Y-63434500D01*
X126790494Y-63434500D01*
X126724523Y-63415494D01*
X126714525Y-63409212D01*
X126544254Y-63349631D01*
X126544249Y-63349630D01*
X126365004Y-63329435D01*
X126364996Y-63329435D01*
X126185750Y-63349630D01*
X126185742Y-63349632D01*
X126125454Y-63370728D01*
X126055675Y-63374289D01*
X125995048Y-63339560D01*
X125962821Y-63277566D01*
X125960500Y-63253686D01*
X125960500Y-62584500D01*
X125980185Y-62517461D01*
X126032989Y-62471706D01*
X126084500Y-62460500D01*
X133428097Y-62460500D01*
X133661368Y-62423553D01*
X133885992Y-62350568D01*
X134016611Y-62284013D01*
X134072906Y-62270499D01*
X134150002Y-62270499D01*
X134150008Y-62270499D01*
X134252797Y-62259999D01*
X134419334Y-62204814D01*
X134568656Y-62112712D01*
X134692712Y-61988656D01*
X134784814Y-61839334D01*
X134839999Y-61672797D01*
X134850500Y-61570009D01*
X134850500Y-60921132D01*
X134850500Y-60801908D01*
X134850500Y-60794313D01*
X134850499Y-60794295D01*
X134850499Y-60269998D01*
X134850498Y-60269981D01*
X134839999Y-60167203D01*
X134839998Y-60167200D01*
X134810939Y-60079507D01*
X134784814Y-60000666D01*
X134692712Y-59851344D01*
X134568656Y-59727288D01*
X134419334Y-59635186D01*
X134419333Y-59635185D01*
X134413878Y-59631821D01*
X134367154Y-59579873D01*
X134355931Y-59510910D01*
X134383775Y-59446828D01*
X134391272Y-59438623D01*
X134530104Y-59299792D01*
X134544360Y-59280171D01*
X134625987Y-59167820D01*
X134655051Y-59127816D01*
X134751557Y-58938412D01*
X134817246Y-58736243D01*
X134850500Y-58526287D01*
X134850500Y-58313713D01*
X134817246Y-58103757D01*
X134751557Y-57901588D01*
X134655051Y-57712184D01*
X134655049Y-57712181D01*
X134655048Y-57712179D01*
X134530109Y-57540213D01*
X134379786Y-57389890D01*
X134207820Y-57264951D01*
X134018414Y-57168444D01*
X134018413Y-57168443D01*
X134018412Y-57168443D01*
X133816243Y-57102754D01*
X133816241Y-57102753D01*
X133816240Y-57102753D01*
X133654957Y-57077208D01*
X133606287Y-57069500D01*
X133093713Y-57069500D01*
X133045042Y-57077208D01*
X132883760Y-57102753D01*
X132681585Y-57168444D01*
X132492179Y-57264951D01*
X132320213Y-57389890D01*
X132169890Y-57540213D01*
X132044951Y-57712179D01*
X131948444Y-57901585D01*
X131882753Y-58103760D01*
X131868556Y-58193398D01*
X131849500Y-58313713D01*
X131849500Y-58526287D01*
X131882754Y-58736243D01*
X131948443Y-58938412D01*
X132019926Y-59078706D01*
X132044951Y-59127819D01*
X132142885Y-59262615D01*
X132166365Y-59328421D01*
X132150539Y-59396475D01*
X132100433Y-59445170D01*
X132042567Y-59459500D01*
X125796495Y-59459500D01*
X125729456Y-59439815D01*
X125683701Y-59387011D01*
X125673757Y-59317853D01*
X125696177Y-59262615D01*
X125765048Y-59167820D01*
X125765047Y-59167820D01*
X125765051Y-59167816D01*
X125861557Y-58978412D01*
X125927246Y-58776243D01*
X125960500Y-58566287D01*
X125960500Y-58353713D01*
X125927246Y-58143757D01*
X125861557Y-57941588D01*
X125765051Y-57752184D01*
X125765049Y-57752181D01*
X125765048Y-57752179D01*
X125640109Y-57580213D01*
X125487077Y-57427181D01*
X125453592Y-57365858D01*
X125458576Y-57296166D01*
X125500448Y-57240233D01*
X125565912Y-57215816D01*
X125574758Y-57215500D01*
X129114506Y-57215500D01*
X129180477Y-57234506D01*
X129190474Y-57240787D01*
X129190475Y-57240787D01*
X129190478Y-57240789D01*
X129330732Y-57289866D01*
X129360745Y-57300368D01*
X129360750Y-57300369D01*
X129539996Y-57320565D01*
X129540000Y-57320565D01*
X129540004Y-57320565D01*
X129719249Y-57300369D01*
X129719252Y-57300368D01*
X129719255Y-57300368D01*
X129889522Y-57240789D01*
X130042262Y-57144816D01*
X130169816Y-57017262D01*
X130265789Y-56864522D01*
X130325368Y-56694255D01*
X130345565Y-56515000D01*
X130325368Y-56335745D01*
X130265789Y-56165478D01*
X130169816Y-56012738D01*
X130042262Y-55885184D01*
X129889523Y-55789211D01*
X129719254Y-55729631D01*
X129719249Y-55729630D01*
X129540004Y-55709435D01*
X129539996Y-55709435D01*
X129360750Y-55729630D01*
X129360745Y-55729631D01*
X129190474Y-55789212D01*
X129180477Y-55795494D01*
X129114506Y-55814500D01*
X121626519Y-55814500D01*
X121559480Y-55794815D01*
X121538838Y-55778181D01*
X121386819Y-55626162D01*
X121353334Y-55564839D01*
X121350500Y-55538481D01*
X121350500Y-53765493D01*
X121369508Y-53699519D01*
X121375787Y-53689525D01*
X121375786Y-53689525D01*
X121375789Y-53689522D01*
X121435368Y-53519255D01*
X121455565Y-53340000D01*
X121435368Y-53160745D01*
X121375789Y-52990478D01*
X121279816Y-52837738D01*
X121152262Y-52710184D01*
X120999523Y-52614211D01*
X120829254Y-52554631D01*
X120829249Y-52554630D01*
X120650004Y-52534435D01*
X120649996Y-52534435D01*
X120470750Y-52554630D01*
X120470745Y-52554631D01*
X120300476Y-52614211D01*
X120147737Y-52710184D01*
X120020184Y-52837737D01*
X119924211Y-52990476D01*
X119864631Y-53160745D01*
X119864630Y-53160750D01*
X119844435Y-53339996D01*
X119844435Y-53340003D01*
X119864630Y-53519249D01*
X119864631Y-53519254D01*
X119924212Y-53689525D01*
X119930492Y-53699519D01*
X119949500Y-53765493D01*
X119949500Y-55811006D01*
X119949500Y-55948994D01*
X119949500Y-55948996D01*
X119949499Y-55948996D01*
X119976418Y-56084322D01*
X119976421Y-56084332D01*
X120029222Y-56211807D01*
X120105887Y-56326545D01*
X120838454Y-57059112D01*
X120953192Y-57135777D01*
X121050798Y-57176206D01*
X121080672Y-57188580D01*
X121080676Y-57188580D01*
X121080677Y-57188581D01*
X121216003Y-57215500D01*
X121216006Y-57215500D01*
X121216007Y-57215500D01*
X123345242Y-57215500D01*
X123412281Y-57235185D01*
X123458036Y-57287989D01*
X123467980Y-57357147D01*
X123438955Y-57420703D01*
X123432923Y-57427181D01*
X123279894Y-57580209D01*
X123279890Y-57580213D01*
X123154951Y-57752179D01*
X123058444Y-57941585D01*
X122992753Y-58143760D01*
X122959500Y-58353713D01*
X122959500Y-58566286D01*
X122992753Y-58776239D01*
X123058444Y-58978414D01*
X123154951Y-59167820D01*
X123223823Y-59262615D01*
X123247303Y-59328422D01*
X123231477Y-59396475D01*
X123181371Y-59445170D01*
X123123505Y-59459500D01*
X111587186Y-59459500D01*
X111520147Y-59439815D01*
X111474392Y-59387011D01*
X111464448Y-59317853D01*
X111488315Y-59264481D01*
X111486556Y-59263250D01*
X111620134Y-59072482D01*
X111716265Y-58866326D01*
X111716269Y-58866317D01*
X111775139Y-58646610D01*
X111775141Y-58646599D01*
X111794966Y-58420002D01*
X111794966Y-58419997D01*
X111775141Y-58193400D01*
X111775139Y-58193389D01*
X111716269Y-57973682D01*
X111716264Y-57973668D01*
X111620136Y-57767521D01*
X111620132Y-57767513D01*
X111569025Y-57694526D01*
X110890000Y-58373551D01*
X110890000Y-58367339D01*
X110862741Y-58265606D01*
X110810080Y-58174394D01*
X110735606Y-58099920D01*
X110644394Y-58047259D01*
X110542661Y-58020000D01*
X110536448Y-58020000D01*
X111215472Y-57340974D01*
X111142478Y-57289863D01*
X110936331Y-57193735D01*
X110936317Y-57193730D01*
X110716610Y-57134860D01*
X110716599Y-57134858D01*
X110490002Y-57115034D01*
X110489998Y-57115034D01*
X110263400Y-57134858D01*
X110263389Y-57134860D01*
X110043682Y-57193730D01*
X110043673Y-57193734D01*
X109837516Y-57289866D01*
X109837512Y-57289868D01*
X109764526Y-57340973D01*
X109764526Y-57340974D01*
X110443553Y-58020000D01*
X110437339Y-58020000D01*
X110335606Y-58047259D01*
X110244394Y-58099920D01*
X110169920Y-58174394D01*
X110117259Y-58265606D01*
X110090000Y-58367339D01*
X110090000Y-58373552D01*
X109410974Y-57694526D01*
X109410973Y-57694526D01*
X109359868Y-57767512D01*
X109359866Y-57767516D01*
X109263734Y-57973673D01*
X109263730Y-57973682D01*
X109204860Y-58193389D01*
X109204858Y-58193398D01*
X109202336Y-58222229D01*
X109176882Y-58287297D01*
X109120290Y-58328275D01*
X109050528Y-58332151D01*
X108991127Y-58299100D01*
X108324605Y-57632578D01*
X108291120Y-57571255D01*
X108288996Y-57558154D01*
X108284091Y-57512517D01*
X108253275Y-57429896D01*
X108233797Y-57377671D01*
X108233793Y-57377664D01*
X108147547Y-57262455D01*
X108147544Y-57262452D01*
X108032335Y-57176206D01*
X108032328Y-57176202D01*
X107897482Y-57125908D01*
X107897483Y-57125908D01*
X107837883Y-57119501D01*
X107837881Y-57119500D01*
X107837873Y-57119500D01*
X107837865Y-57119500D01*
X107772531Y-57119500D01*
X107716236Y-57105985D01*
X107565996Y-57029433D01*
X107341368Y-56956446D01*
X107108097Y-56919500D01*
X107108092Y-56919500D01*
X106871908Y-56919500D01*
X106871903Y-56919500D01*
X106638634Y-56956446D01*
X106414010Y-57029431D01*
X106414000Y-57029435D01*
X106263760Y-57105985D01*
X106207468Y-57119500D01*
X106142130Y-57119500D01*
X106142123Y-57119501D01*
X106082516Y-57125908D01*
X105947671Y-57176202D01*
X105947664Y-57176206D01*
X105832455Y-57262452D01*
X105832452Y-57262455D01*
X105746206Y-57377664D01*
X105746202Y-57377671D01*
X105695908Y-57512516D01*
X105691002Y-57558152D01*
X105664264Y-57622703D01*
X105655394Y-57632577D01*
X103712180Y-59575792D01*
X103650857Y-59609277D01*
X103581165Y-59604293D01*
X103525232Y-59562421D01*
X103500815Y-59496957D01*
X103500499Y-59488111D01*
X103500499Y-59474629D01*
X103500498Y-59474623D01*
X103500497Y-59474616D01*
X103494091Y-59415017D01*
X103487175Y-59396475D01*
X103443797Y-59280171D01*
X103443793Y-59280164D01*
X103357547Y-59164955D01*
X103357544Y-59164952D01*
X103242335Y-59078706D01*
X103242328Y-59078702D01*
X103107482Y-59028408D01*
X103107483Y-59028408D01*
X103047883Y-59022001D01*
X103047881Y-59022000D01*
X103047873Y-59022000D01*
X103047864Y-59022000D01*
X99452129Y-59022000D01*
X99452123Y-59022001D01*
X99392516Y-59028408D01*
X99257671Y-59078702D01*
X99257664Y-59078706D01*
X99142455Y-59164952D01*
X99142452Y-59164955D01*
X99056206Y-59280164D01*
X99056202Y-59280171D01*
X99005908Y-59415017D01*
X98999501Y-59474616D01*
X98999501Y-59474623D01*
X98999500Y-59474635D01*
X98999500Y-63070370D01*
X98999501Y-63070376D01*
X99005908Y-63129983D01*
X99056202Y-63264828D01*
X99056206Y-63264835D01*
X99142452Y-63380044D01*
X99142455Y-63380047D01*
X99257664Y-63466293D01*
X99257673Y-63466298D01*
X99304937Y-63483926D01*
X99360871Y-63525796D01*
X99385289Y-63591260D01*
X99370438Y-63659533D01*
X99321033Y-63708939D01*
X99255028Y-63723933D01*
X99218657Y-63722001D01*
X99218628Y-63722000D01*
X99218622Y-63722000D01*
X97281378Y-63722000D01*
X97281370Y-63722000D01*
X97281347Y-63722001D01*
X97228756Y-63724795D01*
X97228755Y-63724795D01*
X96998878Y-63769254D01*
X96998876Y-63769254D01*
X96998874Y-63769255D01*
X96924933Y-63797159D01*
X96779810Y-63851925D01*
X96577868Y-63970429D01*
X96577861Y-63970434D01*
X96398858Y-64121356D01*
X96398856Y-64121358D01*
X96247934Y-64300361D01*
X96247929Y-64300368D01*
X96129425Y-64502310D01*
X96108206Y-64558539D01*
X96046755Y-64721374D01*
X96046754Y-64721376D01*
X96046754Y-64721378D01*
X96002295Y-64951255D01*
X96002295Y-64951256D01*
X95999501Y-65003847D01*
X95999500Y-65003886D01*
X85500500Y-65003886D01*
X85500500Y-60208303D01*
X93250000Y-60208303D01*
X93250000Y-61022500D01*
X94750000Y-61022500D01*
X94750000Y-61522500D01*
X93250001Y-61522500D01*
X93250001Y-62336697D01*
X93260400Y-62468832D01*
X93315377Y-62687019D01*
X93408428Y-62891874D01*
X93408431Y-62891880D01*
X93536559Y-63076823D01*
X93536569Y-63076835D01*
X93695664Y-63235930D01*
X93695676Y-63235940D01*
X93880619Y-63364068D01*
X93880625Y-63364071D01*
X94085480Y-63457122D01*
X94303667Y-63512099D01*
X94435810Y-63522499D01*
X94999999Y-63522499D01*
X95000000Y-63522498D01*
X95000000Y-62705512D01*
X95057007Y-62738425D01*
X95184174Y-62772500D01*
X95315826Y-62772500D01*
X95442993Y-62738425D01*
X95500000Y-62705512D01*
X95500000Y-63522499D01*
X96064182Y-63522499D01*
X96064197Y-63522498D01*
X96196332Y-63512099D01*
X96414519Y-63457122D01*
X96619374Y-63364071D01*
X96619380Y-63364068D01*
X96804323Y-63235940D01*
X96804335Y-63235930D01*
X96963430Y-63076835D01*
X96963440Y-63076823D01*
X97091568Y-62891880D01*
X97091571Y-62891874D01*
X97184622Y-62687019D01*
X97239599Y-62468832D01*
X97249999Y-62336696D01*
X97250000Y-62336684D01*
X97250000Y-61522500D01*
X95750000Y-61522500D01*
X95750000Y-61022500D01*
X97249999Y-61022500D01*
X97249999Y-60208317D01*
X97249998Y-60208302D01*
X97239599Y-60076167D01*
X97184622Y-59857980D01*
X97091571Y-59653125D01*
X97091568Y-59653119D01*
X96963440Y-59468176D01*
X96963430Y-59468164D01*
X96804335Y-59309069D01*
X96804323Y-59309059D01*
X96619380Y-59180931D01*
X96619374Y-59180928D01*
X96414519Y-59087877D01*
X96196332Y-59032900D01*
X96064196Y-59022500D01*
X95500000Y-59022500D01*
X95500000Y-59839488D01*
X95442993Y-59806575D01*
X95315826Y-59772500D01*
X95184174Y-59772500D01*
X95057007Y-59806575D01*
X95000000Y-59839488D01*
X95000000Y-59022500D01*
X94435817Y-59022500D01*
X94435802Y-59022501D01*
X94303667Y-59032900D01*
X94085480Y-59087877D01*
X93880625Y-59180928D01*
X93880619Y-59180931D01*
X93695676Y-59309059D01*
X93695664Y-59309069D01*
X93536569Y-59468164D01*
X93536559Y-59468176D01*
X93408431Y-59653119D01*
X93408428Y-59653125D01*
X93315377Y-59857980D01*
X93260400Y-60076167D01*
X93250000Y-60208303D01*
X85500500Y-60208303D01*
X85500500Y-48259998D01*
X87979532Y-48259998D01*
X87979532Y-48260001D01*
X87999364Y-48486686D01*
X87999366Y-48486697D01*
X88058258Y-48706488D01*
X88058261Y-48706497D01*
X88154431Y-48912732D01*
X88154432Y-48912734D01*
X88284954Y-49099141D01*
X88445858Y-49260045D01*
X88445861Y-49260047D01*
X88632266Y-49390568D01*
X88838504Y-49486739D01*
X89058308Y-49545635D01*
X89220230Y-49559801D01*
X89284998Y-49565468D01*
X89285000Y-49565468D01*
X89285002Y-49565468D01*
X89341673Y-49560509D01*
X89511692Y-49545635D01*
X89731496Y-49486739D01*
X89937734Y-49390568D01*
X90124139Y-49260047D01*
X90285047Y-49099139D01*
X90415568Y-48912734D01*
X90442618Y-48854724D01*
X90488790Y-48802285D01*
X90555983Y-48783133D01*
X90622865Y-48803348D01*
X90667382Y-48854725D01*
X90694429Y-48912728D01*
X90694432Y-48912734D01*
X90824954Y-49099141D01*
X90985858Y-49260045D01*
X90985861Y-49260047D01*
X91172266Y-49390568D01*
X91378504Y-49486739D01*
X91598308Y-49545635D01*
X91760230Y-49559801D01*
X91824998Y-49565468D01*
X91825000Y-49565468D01*
X91825002Y-49565468D01*
X91881673Y-49560509D01*
X92051692Y-49545635D01*
X92271496Y-49486739D01*
X92477734Y-49390568D01*
X92664139Y-49260047D01*
X92825047Y-49099139D01*
X92955568Y-48912734D01*
X92982618Y-48854724D01*
X93028790Y-48802285D01*
X93095983Y-48783133D01*
X93162865Y-48803348D01*
X93207382Y-48854725D01*
X93234429Y-48912728D01*
X93234432Y-48912734D01*
X93364954Y-49099141D01*
X93525858Y-49260045D01*
X93525861Y-49260047D01*
X93712266Y-49390568D01*
X93918504Y-49486739D01*
X94138308Y-49545635D01*
X94300230Y-49559801D01*
X94364998Y-49565468D01*
X94365000Y-49565468D01*
X94365002Y-49565468D01*
X94421673Y-49560509D01*
X94591692Y-49545635D01*
X94811496Y-49486739D01*
X95017734Y-49390568D01*
X95204139Y-49260047D01*
X95365047Y-49099139D01*
X95495568Y-48912734D01*
X95522895Y-48854129D01*
X95569064Y-48801695D01*
X95636257Y-48782542D01*
X95703139Y-48802757D01*
X95747657Y-48854133D01*
X95774865Y-48912482D01*
X95905342Y-49098820D01*
X96066179Y-49259657D01*
X96252517Y-49390134D01*
X96458673Y-49486265D01*
X96458682Y-49486269D01*
X96654999Y-49538872D01*
X96655000Y-49538871D01*
X96655000Y-48693012D01*
X96712007Y-48725925D01*
X96839174Y-48760000D01*
X96970826Y-48760000D01*
X97097993Y-48725925D01*
X97155000Y-48693012D01*
X97155000Y-49538872D01*
X97351317Y-49486269D01*
X97351326Y-49486265D01*
X97557482Y-49390134D01*
X97743820Y-49259657D01*
X97904657Y-49098820D01*
X98035132Y-48912484D01*
X98062341Y-48854134D01*
X98108513Y-48801695D01*
X98175707Y-48782542D01*
X98242588Y-48802757D01*
X98287106Y-48854133D01*
X98314431Y-48912732D01*
X98314432Y-48912734D01*
X98444954Y-49099141D01*
X98605858Y-49260045D01*
X98605861Y-49260047D01*
X98792266Y-49390568D01*
X98998504Y-49486739D01*
X99218308Y-49545635D01*
X99380230Y-49559801D01*
X99444998Y-49565468D01*
X99445000Y-49565468D01*
X99445002Y-49565468D01*
X99501673Y-49560509D01*
X99671692Y-49545635D01*
X99891496Y-49486739D01*
X100097734Y-49390568D01*
X100284139Y-49260047D01*
X100445047Y-49099139D01*
X100575568Y-48912734D01*
X100602618Y-48854724D01*
X100648790Y-48802285D01*
X100715983Y-48783133D01*
X100782865Y-48803348D01*
X100827382Y-48854725D01*
X100854429Y-48912728D01*
X100854432Y-48912734D01*
X100984954Y-49099141D01*
X101145858Y-49260045D01*
X101145861Y-49260047D01*
X101332266Y-49390568D01*
X101538504Y-49486739D01*
X101758308Y-49545635D01*
X101920230Y-49559801D01*
X101984998Y-49565468D01*
X101985000Y-49565468D01*
X101985002Y-49565468D01*
X102041673Y-49560509D01*
X102211692Y-49545635D01*
X102431496Y-49486739D01*
X102637734Y-49390568D01*
X102824139Y-49260047D01*
X102985047Y-49099139D01*
X103115568Y-48912734D01*
X103142618Y-48854724D01*
X103188790Y-48802285D01*
X103255983Y-48783133D01*
X103322865Y-48803348D01*
X103367382Y-48854725D01*
X103394429Y-48912728D01*
X103394432Y-48912734D01*
X103524954Y-49099141D01*
X103685858Y-49260045D01*
X103685861Y-49260047D01*
X103872266Y-49390568D01*
X104078504Y-49486739D01*
X104298308Y-49545635D01*
X104460230Y-49559801D01*
X104524998Y-49565468D01*
X104525000Y-49565468D01*
X104525002Y-49565468D01*
X104581673Y-49560509D01*
X104751692Y-49545635D01*
X104971496Y-49486739D01*
X105177734Y-49390568D01*
X105364139Y-49260047D01*
X105525047Y-49099139D01*
X105655568Y-48912734D01*
X105682618Y-48854724D01*
X105728790Y-48802285D01*
X105795983Y-48783133D01*
X105862865Y-48803348D01*
X105907382Y-48854725D01*
X105934429Y-48912728D01*
X105934432Y-48912734D01*
X106064954Y-49099141D01*
X106225858Y-49260045D01*
X106225861Y-49260047D01*
X106412266Y-49390568D01*
X106618504Y-49486739D01*
X106838308Y-49545635D01*
X107000230Y-49559801D01*
X107064998Y-49565468D01*
X107065000Y-49565468D01*
X107065002Y-49565468D01*
X107121673Y-49560509D01*
X107291692Y-49545635D01*
X107511496Y-49486739D01*
X107717734Y-49390568D01*
X107904139Y-49260047D01*
X108065047Y-49099139D01*
X108195568Y-48912734D01*
X108222618Y-48854724D01*
X108268790Y-48802285D01*
X108335983Y-48783133D01*
X108402865Y-48803348D01*
X108447382Y-48854725D01*
X108474429Y-48912728D01*
X108474432Y-48912734D01*
X108604954Y-49099141D01*
X108765858Y-49260045D01*
X108765861Y-49260047D01*
X108952266Y-49390568D01*
X109158504Y-49486739D01*
X109378308Y-49545635D01*
X109540230Y-49559801D01*
X109604998Y-49565468D01*
X109605000Y-49565468D01*
X109605002Y-49565468D01*
X109661673Y-49560509D01*
X109831692Y-49545635D01*
X110051496Y-49486739D01*
X110257734Y-49390568D01*
X110444139Y-49260047D01*
X110605047Y-49099139D01*
X110735568Y-48912734D01*
X110762618Y-48854724D01*
X110808790Y-48802285D01*
X110875983Y-48783133D01*
X110942865Y-48803348D01*
X110987382Y-48854725D01*
X111014429Y-48912728D01*
X111014432Y-48912734D01*
X111144954Y-49099141D01*
X111305858Y-49260045D01*
X111305861Y-49260047D01*
X111492266Y-49390568D01*
X111698504Y-49486739D01*
X111918308Y-49545635D01*
X112080230Y-49559801D01*
X112144998Y-49565468D01*
X112145000Y-49565468D01*
X112145002Y-49565468D01*
X112201673Y-49560509D01*
X112371692Y-49545635D01*
X112591496Y-49486739D01*
X112797734Y-49390568D01*
X112984139Y-49260047D01*
X113145047Y-49099139D01*
X113275568Y-48912734D01*
X113371739Y-48706496D01*
X113430635Y-48486692D01*
X113450468Y-48260000D01*
X113450468Y-48259998D01*
X114899532Y-48259998D01*
X114899532Y-48260001D01*
X114919364Y-48486686D01*
X114919366Y-48486697D01*
X114978258Y-48706488D01*
X114978261Y-48706497D01*
X115074431Y-48912732D01*
X115074432Y-48912734D01*
X115204954Y-49099141D01*
X115365858Y-49260045D01*
X115365861Y-49260047D01*
X115552266Y-49390568D01*
X115758504Y-49486739D01*
X115978308Y-49545635D01*
X116140230Y-49559801D01*
X116204998Y-49565468D01*
X116205000Y-49565468D01*
X116205002Y-49565468D01*
X116261673Y-49560509D01*
X116431692Y-49545635D01*
X116651496Y-49486739D01*
X116857734Y-49390568D01*
X117044139Y-49260047D01*
X117205047Y-49099139D01*
X117335568Y-48912734D01*
X117362618Y-48854724D01*
X117408790Y-48802285D01*
X117475983Y-48783133D01*
X117542865Y-48803348D01*
X117587382Y-48854725D01*
X117614429Y-48912728D01*
X117614432Y-48912734D01*
X117744954Y-49099141D01*
X117905858Y-49260045D01*
X117905861Y-49260047D01*
X118092266Y-49390568D01*
X118298504Y-49486739D01*
X118518308Y-49545635D01*
X118680230Y-49559801D01*
X118744998Y-49565468D01*
X118745000Y-49565468D01*
X118745002Y-49565468D01*
X118801673Y-49560509D01*
X118971692Y-49545635D01*
X119191496Y-49486739D01*
X119397734Y-49390568D01*
X119584139Y-49260047D01*
X119745047Y-49099139D01*
X119875568Y-48912734D01*
X119902618Y-48854724D01*
X119948790Y-48802285D01*
X120015983Y-48783133D01*
X120082865Y-48803348D01*
X120127382Y-48854725D01*
X120154429Y-48912728D01*
X120154432Y-48912734D01*
X120284954Y-49099141D01*
X120445858Y-49260045D01*
X120445861Y-49260047D01*
X120632266Y-49390568D01*
X120838504Y-49486739D01*
X121058308Y-49545635D01*
X121220230Y-49559801D01*
X121284998Y-49565468D01*
X121285000Y-49565468D01*
X121285002Y-49565468D01*
X121341673Y-49560509D01*
X121511692Y-49545635D01*
X121731496Y-49486739D01*
X121937734Y-49390568D01*
X122124139Y-49260047D01*
X122285047Y-49099139D01*
X122415568Y-48912734D01*
X122442618Y-48854724D01*
X122488790Y-48802285D01*
X122555983Y-48783133D01*
X122622865Y-48803348D01*
X122667382Y-48854725D01*
X122694429Y-48912728D01*
X122694432Y-48912734D01*
X122824954Y-49099141D01*
X122985858Y-49260045D01*
X122985861Y-49260047D01*
X123172266Y-49390568D01*
X123378504Y-49486739D01*
X123598308Y-49545635D01*
X123760230Y-49559801D01*
X123824998Y-49565468D01*
X123825000Y-49565468D01*
X123825002Y-49565468D01*
X123881673Y-49560509D01*
X124051692Y-49545635D01*
X124271496Y-49486739D01*
X124477734Y-49390568D01*
X124664139Y-49260047D01*
X124825047Y-49099139D01*
X124955568Y-48912734D01*
X124982618Y-48854724D01*
X125028790Y-48802285D01*
X125095983Y-48783133D01*
X125162865Y-48803348D01*
X125207382Y-48854725D01*
X125234429Y-48912728D01*
X125234432Y-48912734D01*
X125364954Y-49099141D01*
X125525858Y-49260045D01*
X125525861Y-49260047D01*
X125712266Y-49390568D01*
X125918504Y-49486739D01*
X126138308Y-49545635D01*
X126300230Y-49559801D01*
X126364998Y-49565468D01*
X126365000Y-49565468D01*
X126365001Y-49565468D01*
X126391232Y-49563173D01*
X126591692Y-49545635D01*
X126591697Y-49545633D01*
X126596881Y-49545180D01*
X126665381Y-49558946D01*
X126695370Y-49581027D01*
X127494459Y-50380116D01*
X127527944Y-50441439D01*
X127523820Y-50508752D01*
X127484631Y-50620745D01*
X127484630Y-50620750D01*
X127464435Y-50799996D01*
X127464435Y-50800003D01*
X127484630Y-50979249D01*
X127484631Y-50979254D01*
X127544211Y-51149523D01*
X127640184Y-51302262D01*
X127767738Y-51429816D01*
X127920478Y-51525789D01*
X128090745Y-51585368D01*
X128090750Y-51585369D01*
X128269996Y-51605565D01*
X128270000Y-51605565D01*
X128270004Y-51605565D01*
X128449249Y-51585369D01*
X128449252Y-51585368D01*
X128449255Y-51585368D01*
X128619522Y-51525789D01*
X128772262Y-51429816D01*
X128899816Y-51302262D01*
X128995789Y-51149522D01*
X129055368Y-50979255D01*
X129075565Y-50800000D01*
X129055368Y-50620745D01*
X129055367Y-50620743D01*
X129055366Y-50620737D01*
X128995790Y-50450479D01*
X128989506Y-50440478D01*
X128970500Y-50374507D01*
X128970500Y-50096006D01*
X128966164Y-50074212D01*
X128966164Y-50074211D01*
X128943580Y-49960672D01*
X128943578Y-49960667D01*
X128890777Y-49833192D01*
X128838926Y-49755591D01*
X128818049Y-49688914D01*
X128836534Y-49621534D01*
X128888513Y-49574844D01*
X128931217Y-49563174D01*
X129131692Y-49545635D01*
X129351496Y-49486739D01*
X129557734Y-49390568D01*
X129744139Y-49260047D01*
X129905047Y-49099139D01*
X130035568Y-48912734D01*
X130062618Y-48854724D01*
X130108790Y-48802285D01*
X130175983Y-48783133D01*
X130242865Y-48803348D01*
X130287382Y-48854725D01*
X130314429Y-48912728D01*
X130314432Y-48912734D01*
X130444954Y-49099141D01*
X130605858Y-49260045D01*
X130605861Y-49260047D01*
X130792266Y-49390568D01*
X130998504Y-49486739D01*
X131218308Y-49545635D01*
X131380230Y-49559801D01*
X131444998Y-49565468D01*
X131445000Y-49565468D01*
X131445002Y-49565468D01*
X131501673Y-49560509D01*
X131671692Y-49545635D01*
X131891496Y-49486739D01*
X132097734Y-49390568D01*
X132284139Y-49260047D01*
X132445047Y-49099139D01*
X132575568Y-48912734D01*
X132602618Y-48854724D01*
X132648790Y-48802285D01*
X132715983Y-48783133D01*
X132782865Y-48803348D01*
X132827382Y-48854725D01*
X132854429Y-48912728D01*
X132854432Y-48912734D01*
X132984954Y-49099141D01*
X133145858Y-49260045D01*
X133145861Y-49260047D01*
X133332266Y-49390568D01*
X133538504Y-49486739D01*
X133758308Y-49545635D01*
X133920230Y-49559801D01*
X133984998Y-49565468D01*
X133985000Y-49565468D01*
X133985002Y-49565468D01*
X134041673Y-49560509D01*
X134211692Y-49545635D01*
X134431496Y-49486739D01*
X134637734Y-49390568D01*
X134824139Y-49260047D01*
X134985047Y-49099139D01*
X135115568Y-48912734D01*
X135211739Y-48706496D01*
X135270635Y-48486692D01*
X135290468Y-48260000D01*
X135270635Y-48033308D01*
X135211739Y-47813504D01*
X135115568Y-47607266D01*
X134985047Y-47420861D01*
X134985045Y-47420858D01*
X134824141Y-47259954D01*
X134637734Y-47129432D01*
X134637732Y-47129431D01*
X134431497Y-47033261D01*
X134431488Y-47033258D01*
X134211697Y-46974366D01*
X134211693Y-46974365D01*
X134211692Y-46974365D01*
X134211691Y-46974364D01*
X134211686Y-46974364D01*
X133985002Y-46954532D01*
X133984998Y-46954532D01*
X133758313Y-46974364D01*
X133758302Y-46974366D01*
X133538511Y-47033258D01*
X133538502Y-47033261D01*
X133332267Y-47129431D01*
X133332265Y-47129432D01*
X133145858Y-47259954D01*
X132984954Y-47420858D01*
X132854432Y-47607265D01*
X132854431Y-47607267D01*
X132827382Y-47665275D01*
X132781209Y-47717714D01*
X132714016Y-47736866D01*
X132647135Y-47716650D01*
X132602618Y-47665275D01*
X132575686Y-47607520D01*
X132575568Y-47607266D01*
X132445047Y-47420861D01*
X132445045Y-47420858D01*
X132284141Y-47259954D01*
X132097734Y-47129432D01*
X132097732Y-47129431D01*
X131891497Y-47033261D01*
X131891488Y-47033258D01*
X131671697Y-46974366D01*
X131671693Y-46974365D01*
X131671692Y-46974365D01*
X131671691Y-46974364D01*
X131671686Y-46974364D01*
X131445002Y-46954532D01*
X131444998Y-46954532D01*
X131218313Y-46974364D01*
X131218302Y-46974366D01*
X130998511Y-47033258D01*
X130998502Y-47033261D01*
X130792267Y-47129431D01*
X130792265Y-47129432D01*
X130605858Y-47259954D01*
X130444954Y-47420858D01*
X130314432Y-47607265D01*
X130314431Y-47607267D01*
X130287382Y-47665275D01*
X130241209Y-47717714D01*
X130174016Y-47736866D01*
X130107135Y-47716650D01*
X130062618Y-47665275D01*
X130035686Y-47607520D01*
X130035568Y-47607266D01*
X129905047Y-47420861D01*
X129905045Y-47420858D01*
X129744141Y-47259954D01*
X129557734Y-47129432D01*
X129557732Y-47129431D01*
X129351497Y-47033261D01*
X129351488Y-47033258D01*
X129131697Y-46974366D01*
X129131693Y-46974365D01*
X129131692Y-46974365D01*
X129131691Y-46974364D01*
X129131686Y-46974364D01*
X128905002Y-46954532D01*
X128904998Y-46954532D01*
X128678313Y-46974364D01*
X128678302Y-46974366D01*
X128458511Y-47033258D01*
X128458502Y-47033261D01*
X128252267Y-47129431D01*
X128252265Y-47129432D01*
X128065858Y-47259954D01*
X127904954Y-47420858D01*
X127774432Y-47607265D01*
X127774431Y-47607267D01*
X127747382Y-47665275D01*
X127701209Y-47717714D01*
X127634016Y-47736866D01*
X127567135Y-47716650D01*
X127522618Y-47665275D01*
X127495686Y-47607520D01*
X127495568Y-47607266D01*
X127365047Y-47420861D01*
X127365045Y-47420858D01*
X127204141Y-47259954D01*
X127017734Y-47129432D01*
X127017732Y-47129431D01*
X126811497Y-47033261D01*
X126811488Y-47033258D01*
X126591697Y-46974366D01*
X126591693Y-46974365D01*
X126591692Y-46974365D01*
X126591691Y-46974364D01*
X126591686Y-46974364D01*
X126365002Y-46954532D01*
X126364998Y-46954532D01*
X126138313Y-46974364D01*
X126138302Y-46974366D01*
X125918511Y-47033258D01*
X125918502Y-47033261D01*
X125712267Y-47129431D01*
X125712265Y-47129432D01*
X125525858Y-47259954D01*
X125364954Y-47420858D01*
X125234432Y-47607265D01*
X125234431Y-47607267D01*
X125207382Y-47665275D01*
X125161209Y-47717714D01*
X125094016Y-47736866D01*
X125027135Y-47716650D01*
X124982618Y-47665275D01*
X124955686Y-47607520D01*
X124955568Y-47607266D01*
X124825047Y-47420861D01*
X124825045Y-47420858D01*
X124664141Y-47259954D01*
X124477734Y-47129432D01*
X124477732Y-47129431D01*
X124271497Y-47033261D01*
X124271488Y-47033258D01*
X124051697Y-46974366D01*
X124051693Y-46974365D01*
X124051692Y-46974365D01*
X124051691Y-46974364D01*
X124051686Y-46974364D01*
X123825002Y-46954532D01*
X123824998Y-46954532D01*
X123598313Y-46974364D01*
X123598302Y-46974366D01*
X123378511Y-47033258D01*
X123378502Y-47033261D01*
X123172267Y-47129431D01*
X123172265Y-47129432D01*
X122985858Y-47259954D01*
X122824954Y-47420858D01*
X122694432Y-47607265D01*
X122694431Y-47607267D01*
X122667382Y-47665275D01*
X122621209Y-47717714D01*
X122554016Y-47736866D01*
X122487135Y-47716650D01*
X122442618Y-47665275D01*
X122415686Y-47607520D01*
X122415568Y-47607266D01*
X122285047Y-47420861D01*
X122285045Y-47420858D01*
X122124141Y-47259954D01*
X121937734Y-47129432D01*
X121937732Y-47129431D01*
X121731497Y-47033261D01*
X121731488Y-47033258D01*
X121511697Y-46974366D01*
X121511693Y-46974365D01*
X121511692Y-46974365D01*
X121511691Y-46974364D01*
X121511686Y-46974364D01*
X121285002Y-46954532D01*
X121284998Y-46954532D01*
X121058313Y-46974364D01*
X121058302Y-46974366D01*
X120838511Y-47033258D01*
X120838502Y-47033261D01*
X120632267Y-47129431D01*
X120632265Y-47129432D01*
X120445858Y-47259954D01*
X120284954Y-47420858D01*
X120154432Y-47607265D01*
X120154431Y-47607267D01*
X120127382Y-47665275D01*
X120081209Y-47717714D01*
X120014016Y-47736866D01*
X119947135Y-47716650D01*
X119902618Y-47665275D01*
X119875686Y-47607520D01*
X119875568Y-47607266D01*
X119745047Y-47420861D01*
X119745045Y-47420858D01*
X119584141Y-47259954D01*
X119397734Y-47129432D01*
X119397732Y-47129431D01*
X119191497Y-47033261D01*
X119191488Y-47033258D01*
X118971697Y-46974366D01*
X118971693Y-46974365D01*
X118971692Y-46974365D01*
X118971691Y-46974364D01*
X118971686Y-46974364D01*
X118745002Y-46954532D01*
X118744998Y-46954532D01*
X118518313Y-46974364D01*
X118518302Y-46974366D01*
X118298511Y-47033258D01*
X118298502Y-47033261D01*
X118092267Y-47129431D01*
X118092265Y-47129432D01*
X117905858Y-47259954D01*
X117744954Y-47420858D01*
X117614432Y-47607265D01*
X117614431Y-47607267D01*
X117587382Y-47665275D01*
X117541209Y-47717714D01*
X117474016Y-47736866D01*
X117407135Y-47716650D01*
X117362618Y-47665275D01*
X117335686Y-47607520D01*
X117335568Y-47607266D01*
X117205047Y-47420861D01*
X117205045Y-47420858D01*
X117044141Y-47259954D01*
X116857734Y-47129432D01*
X116857732Y-47129431D01*
X116651497Y-47033261D01*
X116651488Y-47033258D01*
X116431697Y-46974366D01*
X116431693Y-46974365D01*
X116431692Y-46974365D01*
X116431691Y-46974364D01*
X116431686Y-46974364D01*
X116205002Y-46954532D01*
X116204998Y-46954532D01*
X115978313Y-46974364D01*
X115978302Y-46974366D01*
X115758511Y-47033258D01*
X115758502Y-47033261D01*
X115552267Y-47129431D01*
X115552265Y-47129432D01*
X115365858Y-47259954D01*
X115204954Y-47420858D01*
X115074432Y-47607265D01*
X115074431Y-47607267D01*
X114978261Y-47813502D01*
X114978258Y-47813511D01*
X114919366Y-48033302D01*
X114919364Y-48033313D01*
X114899532Y-48259998D01*
X113450468Y-48259998D01*
X113430635Y-48033308D01*
X113371739Y-47813504D01*
X113275568Y-47607266D01*
X113145047Y-47420861D01*
X113145045Y-47420858D01*
X112984141Y-47259954D01*
X112797734Y-47129432D01*
X112797732Y-47129431D01*
X112591497Y-47033261D01*
X112591488Y-47033258D01*
X112371697Y-46974366D01*
X112371693Y-46974365D01*
X112371692Y-46974365D01*
X112371691Y-46974364D01*
X112371686Y-46974364D01*
X112145002Y-46954532D01*
X112144998Y-46954532D01*
X111918313Y-46974364D01*
X111918302Y-46974366D01*
X111698511Y-47033258D01*
X111698502Y-47033261D01*
X111492267Y-47129431D01*
X111492265Y-47129432D01*
X111305858Y-47259954D01*
X111144954Y-47420858D01*
X111014432Y-47607265D01*
X111014431Y-47607267D01*
X110987382Y-47665275D01*
X110941209Y-47717714D01*
X110874016Y-47736866D01*
X110807135Y-47716650D01*
X110762618Y-47665275D01*
X110735686Y-47607520D01*
X110735568Y-47607266D01*
X110605047Y-47420861D01*
X110605045Y-47420858D01*
X110444141Y-47259954D01*
X110257734Y-47129432D01*
X110257732Y-47129431D01*
X110051497Y-47033261D01*
X110051488Y-47033258D01*
X109831697Y-46974366D01*
X109831693Y-46974365D01*
X109831692Y-46974365D01*
X109831691Y-46974364D01*
X109831686Y-46974364D01*
X109605002Y-46954532D01*
X109604998Y-46954532D01*
X109378313Y-46974364D01*
X109378302Y-46974366D01*
X109158511Y-47033258D01*
X109158502Y-47033261D01*
X108952267Y-47129431D01*
X108952265Y-47129432D01*
X108765858Y-47259954D01*
X108604954Y-47420858D01*
X108474432Y-47607265D01*
X108474431Y-47607267D01*
X108447382Y-47665275D01*
X108401209Y-47717714D01*
X108334016Y-47736866D01*
X108267135Y-47716650D01*
X108222618Y-47665275D01*
X108195686Y-47607520D01*
X108195568Y-47607266D01*
X108065047Y-47420861D01*
X108065045Y-47420858D01*
X107904141Y-47259954D01*
X107717734Y-47129432D01*
X107717732Y-47129431D01*
X107511497Y-47033261D01*
X107511488Y-47033258D01*
X107291697Y-46974366D01*
X107291693Y-46974365D01*
X107291692Y-46974365D01*
X107291691Y-46974364D01*
X107291686Y-46974364D01*
X107065002Y-46954532D01*
X107064998Y-46954532D01*
X106838313Y-46974364D01*
X106838302Y-46974366D01*
X106618511Y-47033258D01*
X106618502Y-47033261D01*
X106412267Y-47129431D01*
X106412265Y-47129432D01*
X106225858Y-47259954D01*
X106064954Y-47420858D01*
X105934432Y-47607265D01*
X105934431Y-47607267D01*
X105907382Y-47665275D01*
X105861209Y-47717714D01*
X105794016Y-47736866D01*
X105727135Y-47716650D01*
X105682618Y-47665275D01*
X105655686Y-47607520D01*
X105655568Y-47607266D01*
X105525047Y-47420861D01*
X105525045Y-47420858D01*
X105364141Y-47259954D01*
X105177734Y-47129432D01*
X105177732Y-47129431D01*
X104971497Y-47033261D01*
X104971488Y-47033258D01*
X104751697Y-46974366D01*
X104751693Y-46974365D01*
X104751692Y-46974365D01*
X104751691Y-46974364D01*
X104751686Y-46974364D01*
X104525002Y-46954532D01*
X104524998Y-46954532D01*
X104298313Y-46974364D01*
X104298302Y-46974366D01*
X104078511Y-47033258D01*
X104078502Y-47033261D01*
X103872267Y-47129431D01*
X103872265Y-47129432D01*
X103685858Y-47259954D01*
X103524954Y-47420858D01*
X103394432Y-47607265D01*
X103394431Y-47607267D01*
X103367382Y-47665275D01*
X103321209Y-47717714D01*
X103254016Y-47736866D01*
X103187135Y-47716650D01*
X103142618Y-47665275D01*
X103115686Y-47607520D01*
X103115568Y-47607266D01*
X102985047Y-47420861D01*
X102985045Y-47420858D01*
X102824141Y-47259954D01*
X102637734Y-47129432D01*
X102637732Y-47129431D01*
X102431497Y-47033261D01*
X102431488Y-47033258D01*
X102211697Y-46974366D01*
X102211693Y-46974365D01*
X102211692Y-46974365D01*
X102211691Y-46974364D01*
X102211686Y-46974364D01*
X101985002Y-46954532D01*
X101984998Y-46954532D01*
X101758313Y-46974364D01*
X101758302Y-46974366D01*
X101538511Y-47033258D01*
X101538502Y-47033261D01*
X101332267Y-47129431D01*
X101332265Y-47129432D01*
X101145858Y-47259954D01*
X100984954Y-47420858D01*
X100854432Y-47607265D01*
X100854431Y-47607267D01*
X100827382Y-47665275D01*
X100781209Y-47717714D01*
X100714016Y-47736866D01*
X100647135Y-47716650D01*
X100602618Y-47665275D01*
X100575686Y-47607520D01*
X100575568Y-47607266D01*
X100445047Y-47420861D01*
X100445045Y-47420858D01*
X100284141Y-47259954D01*
X100097734Y-47129432D01*
X100097732Y-47129431D01*
X99891497Y-47033261D01*
X99891488Y-47033258D01*
X99671697Y-46974366D01*
X99671693Y-46974365D01*
X99671692Y-46974365D01*
X99671691Y-46974364D01*
X99671686Y-46974364D01*
X99445002Y-46954532D01*
X99444998Y-46954532D01*
X99218313Y-46974364D01*
X99218302Y-46974366D01*
X98998511Y-47033258D01*
X98998502Y-47033261D01*
X98792267Y-47129431D01*
X98792265Y-47129432D01*
X98605858Y-47259954D01*
X98444954Y-47420858D01*
X98314433Y-47607264D01*
X98314432Y-47607266D01*
X98314315Y-47607518D01*
X98287106Y-47665867D01*
X98240933Y-47718306D01*
X98173739Y-47737457D01*
X98106858Y-47717241D01*
X98062342Y-47665865D01*
X98035135Y-47607520D01*
X98035134Y-47607518D01*
X97904657Y-47421179D01*
X97743820Y-47260342D01*
X97557482Y-47129865D01*
X97351328Y-47033734D01*
X97155000Y-46981127D01*
X97155000Y-47826988D01*
X97097993Y-47794075D01*
X96970826Y-47760000D01*
X96839174Y-47760000D01*
X96712007Y-47794075D01*
X96655000Y-47826988D01*
X96655000Y-46981127D01*
X96458671Y-47033734D01*
X96252517Y-47129865D01*
X96066179Y-47260342D01*
X95905342Y-47421179D01*
X95774867Y-47607515D01*
X95747657Y-47665867D01*
X95701484Y-47718306D01*
X95634290Y-47737457D01*
X95567409Y-47717241D01*
X95522893Y-47665865D01*
X95495685Y-47607518D01*
X95495568Y-47607266D01*
X95365047Y-47420861D01*
X95365045Y-47420858D01*
X95204141Y-47259954D01*
X95017734Y-47129432D01*
X95017732Y-47129431D01*
X94811497Y-47033261D01*
X94811488Y-47033258D01*
X94591697Y-46974366D01*
X94591693Y-46974365D01*
X94591692Y-46974365D01*
X94591691Y-46974364D01*
X94591686Y-46974364D01*
X94365002Y-46954532D01*
X94364998Y-46954532D01*
X94138313Y-46974364D01*
X94138302Y-46974366D01*
X93918511Y-47033258D01*
X93918502Y-47033261D01*
X93712267Y-47129431D01*
X93712265Y-47129432D01*
X93525858Y-47259954D01*
X93364954Y-47420858D01*
X93234432Y-47607265D01*
X93234431Y-47607267D01*
X93207382Y-47665275D01*
X93161209Y-47717714D01*
X93094016Y-47736866D01*
X93027135Y-47716650D01*
X92982618Y-47665275D01*
X92955686Y-47607520D01*
X92955568Y-47607266D01*
X92825047Y-47420861D01*
X92825045Y-47420858D01*
X92664141Y-47259954D01*
X92477734Y-47129432D01*
X92477732Y-47129431D01*
X92271497Y-47033261D01*
X92271488Y-47033258D01*
X92051697Y-46974366D01*
X92051693Y-46974365D01*
X92051692Y-46974365D01*
X92051691Y-46974364D01*
X92051686Y-46974364D01*
X91825002Y-46954532D01*
X91824998Y-46954532D01*
X91598313Y-46974364D01*
X91598302Y-46974366D01*
X91378511Y-47033258D01*
X91378502Y-47033261D01*
X91172267Y-47129431D01*
X91172265Y-47129432D01*
X90985858Y-47259954D01*
X90824954Y-47420858D01*
X90694432Y-47607265D01*
X90694431Y-47607267D01*
X90667382Y-47665275D01*
X90621209Y-47717714D01*
X90554016Y-47736866D01*
X90487135Y-47716650D01*
X90442618Y-47665275D01*
X90415686Y-47607520D01*
X90415568Y-47607266D01*
X90285047Y-47420861D01*
X90285045Y-47420858D01*
X90124141Y-47259954D01*
X89937734Y-47129432D01*
X89937732Y-47129431D01*
X89731497Y-47033261D01*
X89731488Y-47033258D01*
X89511697Y-46974366D01*
X89511693Y-46974365D01*
X89511692Y-46974365D01*
X89511691Y-46974364D01*
X89511686Y-46974364D01*
X89285002Y-46954532D01*
X89284998Y-46954532D01*
X89058313Y-46974364D01*
X89058302Y-46974366D01*
X88838511Y-47033258D01*
X88838502Y-47033261D01*
X88632267Y-47129431D01*
X88632265Y-47129432D01*
X88445858Y-47259954D01*
X88284954Y-47420858D01*
X88154432Y-47607265D01*
X88154431Y-47607267D01*
X88058261Y-47813502D01*
X88058258Y-47813511D01*
X87999366Y-48033302D01*
X87999364Y-48033313D01*
X87979532Y-48259998D01*
X85500500Y-48259998D01*
X85500500Y-45624500D01*
X85520185Y-45557461D01*
X85572989Y-45511706D01*
X85624500Y-45500500D01*
X139375500Y-45500500D01*
X139442539Y-45520185D01*
G37*
%TD.AperFunction*%
%TD*%
M02*
